<svg xmlns="http://www.w3.org/2000/svg" xmlns:xlink="http://www.w3.org/1999/xlink" viewBox="0 0 212 212"><defs><style>.cls-1,.cls-55,.cls-59{fill:none;}.cls-2{isolation:isolate;}.cls-3{fill:#23b2e7;}.cls-4{clip-path:url(#clip-path);}.cls-5{fill:#1b75bc;}.cls-6{fill:#f9a01b;}.cls-7{clip-path:url(#clip-path-2);}.cls-8{fill:#e28726;}.cls-9{fill:#fac61e;}.cls-10{clip-path:url(#clip-path-3);}.cls-11{clip-path:url(#clip-path-4);}.cls-12{clip-path:url(#clip-path-5);}.cls-13{clip-path:url(#clip-path-6);}.cls-14{clip-path:url(#clip-path-7);}.cls-15{clip-path:url(#clip-path-8);}.cls-16,.cls-36{opacity:0.2;}.cls-16,.cls-32,.cls-36,.cls-48,.cls-55,.cls-59,.cls-62{mix-blend-mode:multiply;}.cls-17{clip-path:url(#clip-path-9);}.cls-18{clip-path:url(#clip-path-10);}.cls-19{clip-path:url(#clip-path-11);}.cls-20{clip-path:url(#clip-path-12);}.cls-21{clip-path:url(#clip-path-13);}.cls-22{clip-path:url(#clip-path-14);}.cls-23{clip-path:url(#clip-path-15);}.cls-24{fill:#fcb129;}.cls-25{clip-path:url(#clip-path-16);}.cls-26{clip-path:url(#clip-path-17);}.cls-27{clip-path:url(#clip-path-18);}.cls-28{clip-path:url(#clip-path-19);}.cls-29{clip-path:url(#clip-path-20);}.cls-30{clip-path:url(#clip-path-21);}.cls-31{clip-path:url(#clip-path-22);}.cls-32{fill:#b6905c;}.cls-32,.cls-48{opacity:0.5;}.cls-33{clip-path:url(#clip-path-23);}.cls-34{fill:#ffd454;}.cls-35{fill:#fde472;}.cls-37{clip-path:url(#clip-path-24);}.cls-38{clip-path:url(#clip-path-25);}.cls-39{clip-path:url(#clip-path-26);}.cls-40{fill:#fac7a8;}.cls-41{fill:#dc7d27;}.cls-42{fill:#a35425;}.cls-43{fill:#00855d;}.cls-44{fill:#1a1a26;}.cls-45{fill:#eaa581;}.cls-46{fill:#1a1c1c;}.cls-47{fill:#fff;}.cls-49{fill:#ce717d;}.cls-50{fill:#e1ebf8;}.cls-51{fill:#ccdbea;}.cls-52{fill:#06573b;}.cls-53{fill:#eedfd6;}.cls-54{fill:#ad9384;}.cls-55{stroke:#d6b78f;stroke-width:0.34px;}.cls-55,.cls-59{stroke-miterlimit:10;}.cls-56{fill:#f8d2a4;}.cls-57{fill:#fffaf8;}.cls-58{fill:#ccb2a2;}.cls-59{stroke:#e8c0a3;stroke-width:0.48px;}.cls-60{fill:#80563b;}.cls-61{fill:#fcb31d;}.cls-62{fill:#edaf1f;opacity:0.53;}.cls-63{fill:#025f40;}.cls-64{mix-blend-mode:screen;}.cls-65{fill:#c66b52;}</style><clipPath id="clip-path"><rect class="cls-1" width="212" height="212"/></clipPath><clipPath id="clip-path-2"><path class="cls-1" d="M73.16,171.39v7.85c0,2.72,14.53,4.92,32.44,4.92S138,182,138,179.24v-7.85Z"/></clipPath><clipPath id="clip-path-3"><path class="cls-1" d="M68.47,162.53v7.85c0,2.72,14.52,4.92,32.43,4.92s32.44-2.2,32.44-4.92v-7.85Z"/></clipPath><clipPath id="clip-path-4"><path class="cls-1" d="M73.74,153.61v7.85c0,2.72,14.52,4.92,32.43,4.92s32.44-2.2,32.44-4.92v-7.85Z"/></clipPath><clipPath id="clip-path-5"><path class="cls-1" d="M76,144.58v7.84c0,2.72,14.52,4.93,32.43,4.93s32.44-2.21,32.44-4.93v-7.84Z"/></clipPath><clipPath id="clip-path-6"><path class="cls-1" d="M68.28,135.66v7.85c0,2.72,14.52,4.92,32.43,4.92s32.44-2.2,32.44-4.92v-7.85Z"/></clipPath><clipPath id="clip-path-7"><path class="cls-1" d="M74.54,126.74v7.85c0,2.72,14.52,4.92,32.43,4.92s32.44-2.2,32.44-4.92v-7.85Z"/></clipPath><clipPath id="clip-path-8"><path class="cls-1" d="M68.92,117.82v7.85c0,2.72,14.52,4.92,32.43,4.92s32.44-2.2,32.44-4.92v-7.85Z"/></clipPath><clipPath id="clip-path-9"><path d="M73.16,171.39v7.85c0,2.72,14.53,4.92,32.44,4.92S138,182,138,179.24v-7.85Z"/></clipPath><clipPath id="clip-path-10"><path d="M68.47,162.53v7.85c0,2.72,14.52,4.92,32.43,4.92s32.44-2.2,32.44-4.92v-7.85Z"/></clipPath><clipPath id="clip-path-11"><path d="M73.74,153.61v7.85c0,2.72,14.52,4.92,32.43,4.92s32.44-2.2,32.44-4.92v-7.85Z"/></clipPath><clipPath id="clip-path-12"><path d="M76,144.58v7.84c0,2.72,14.52,4.93,32.43,4.93s32.44-2.21,32.44-4.93v-7.84Z"/></clipPath><clipPath id="clip-path-13"><path d="M68.28,135.66v7.85c0,2.72,14.52,4.92,32.43,4.92s32.44-2.2,32.44-4.92v-7.85Z"/></clipPath><clipPath id="clip-path-14"><path d="M74.54,126.74v7.85c0,2.72,14.52,4.92,32.43,4.92s32.44-2.2,32.44-4.92v-7.85Z"/></clipPath><clipPath id="clip-path-15"><path d="M68.92,117.82v7.85c0,2.72,14.52,4.92,32.43,4.92s32.44-2.2,32.44-4.92v-7.85Z"/></clipPath><clipPath id="clip-path-16"><path class="cls-1" d="M101.14,175.69v7.84c0,2.72-14.52,4.93-32.44,4.93s-32.43-2.21-32.43-4.93v-7.84Z"/></clipPath><clipPath id="clip-path-17"><path class="cls-1" d="M105.84,166.83v7.84c0,2.72-14.53,4.93-32.44,4.93S41,177.39,41,174.67v-7.84Z"/></clipPath><clipPath id="clip-path-18"><path class="cls-1" d="M100.57,157.91v7.84c0,2.72-14.53,4.93-32.44,4.93s-32.44-2.21-32.44-4.93v-7.84Z"/></clipPath><clipPath id="clip-path-19"><path class="cls-1" d="M98.28,148.87v7.85c0,2.72-14.52,4.92-32.43,4.92s-32.44-2.2-32.44-4.92v-7.85Z"/></clipPath><clipPath id="clip-path-20"><path class="cls-1" d="M106,140v7.84c0,2.72-14.52,4.93-32.43,4.93s-32.44-2.21-32.44-4.93V140Z"/></clipPath><clipPath id="clip-path-21"><path class="cls-1" d="M99.77,131v7.84c0,2.72-14.53,4.93-32.44,4.93s-32.44-2.21-32.44-4.93V131Z"/></clipPath><clipPath id="clip-path-22"><path class="cls-1" d="M105.38,122.12V130c0,2.72-14.52,4.93-32.43,4.93S40.51,132.68,40.51,130v-7.84Z"/></clipPath><clipPath id="clip-path-23"><path class="cls-1" d="M56.3,129.91,50,128.46,34.13,197.54,40.4,199c16.71,3.84,33.81-8.52,38.2-27.61S73,133.75,56.3,129.91Z"/></clipPath><clipPath id="clip-path-24"><path class="cls-1" d="M137.12,171.87v7.84c0,2.72,14.52,4.93,32.43,4.93S202,182.43,202,179.71v-7.84Z"/></clipPath><clipPath id="clip-path-25"><path class="cls-1" d="M132.42,163v7.84c0,2.72,14.52,4.93,32.44,4.93s32.43-2.21,32.43-4.93V163Z"/></clipPath><clipPath id="clip-path-26"><path class="cls-1" d="M137.69,154.09v7.84c0,2.72,14.52,4.93,32.44,4.93s32.43-2.21,32.43-4.93v-7.84Z"/></clipPath></defs><title>Artboard 1</title><g class="cls-2"><g id="Layer_1" data-name="Layer 1"><rect class="cls-3" width="212" height="212"/><g class="cls-4"><circle class="cls-5" cx="106" cy="201.4" r="106.58"/></g><path class="cls-6" d="M73.16,171.39v7.85c0,2.72,14.53,4.92,32.44,4.92S138,182,138,179.24v-7.85Z"/><g class="cls-7"><rect class="cls-8" x="73.87" y="168.14" width="1.54" height="17.98"/><rect class="cls-8" x="77.86" y="168.14" width="1.54" height="17.98"/><rect class="cls-8" x="82.4" y="168.14" width="1.54" height="17.98"/><rect class="cls-8" x="88.07" y="168.14" width="1.54" height="17.98"/><rect class="cls-8" x="94.31" y="168.14" width="1.54" height="17.98"/><rect class="cls-8" x="101.11" y="168.14" width="1.54" height="17.98"/><rect class="cls-8" x="135.79" y="168.14" width="1.54" height="17.98"/><rect class="cls-8" x="131.81" y="168.14" width="1.54" height="17.98"/><rect class="cls-8" x="127.26" y="168.14" width="1.54" height="17.98"/><rect class="cls-8" x="121.59" y="168.14" width="1.54" height="17.98"/><rect class="cls-8" x="115.36" y="168.14" width="1.54" height="17.98"/><rect class="cls-8" x="108.56" y="168.14" width="1.54" height="17.98"/></g><path class="cls-9" d="M138,171.25c0,2.72-14.53,4.92-32.44,4.92s-32.44-2.2-32.44-4.92,14.53-4.93,32.44-4.93S138,168.53,138,171.25Z"/><path class="cls-6" d="M131.39,170.73c0,1.26-11.55,2.29-25.79,2.29s-25.79-1-25.79-2.29,11.55-2.29,25.79-2.29S131.39,169.47,131.39,170.73Z"/><path class="cls-8" d="M80.92,171.39c3.22-.93,13-1.62,24.68-1.62s21.46.69,24.67,1.62c.72-.21,1.12-.43,1.12-.66,0-1.26-11.55-2.29-25.79-2.29s-25.79,1-25.79,2.29C79.81,171,80.2,171.18,80.92,171.39Z"/><path class="cls-6" d="M68.47,162.53v7.85c0,2.72,14.52,4.92,32.43,4.92s32.44-2.2,32.44-4.92v-7.85Z"/><g class="cls-10"><rect class="cls-8" x="69.18" y="159.27" width="1.54" height="17.98"/><rect class="cls-8" x="73.16" y="159.27" width="1.54" height="17.98"/><rect class="cls-8" x="77.7" y="159.27" width="1.54" height="17.98"/><rect class="cls-8" x="83.38" y="159.27" width="1.54" height="17.98"/><rect class="cls-8" x="89.61" y="159.27" width="1.54" height="17.98"/><rect class="cls-8" x="96.41" y="159.27" width="1.54" height="17.98"/><rect class="cls-8" x="131.09" y="159.27" width="1.54" height="17.98"/><rect class="cls-8" x="127.11" y="159.27" width="1.54" height="17.98"/><rect class="cls-8" x="122.57" y="159.27" width="1.54" height="17.98"/><rect class="cls-8" x="116.89" y="159.27" width="1.54" height="17.98"/><rect class="cls-8" x="110.66" y="159.27" width="1.54" height="17.98"/><rect class="cls-8" x="103.86" y="159.27" width="1.54" height="17.98"/></g><path class="cls-9" d="M133.34,162.39c0,2.72-14.52,4.92-32.44,4.92s-32.43-2.2-32.43-4.92,14.52-4.93,32.43-4.93S133.34,159.67,133.34,162.39Z"/><ellipse class="cls-6" cx="100.9" cy="161.87" rx="25.79" ry="2.29"/><path class="cls-8" d="M76.23,162.53c3.21-.94,13-1.62,24.67-1.62s21.46.68,24.68,1.62c.72-.21,1.11-.43,1.11-.66,0-1.26-11.55-2.29-25.79-2.29s-25.78,1-25.78,2.29C75.12,162.1,75.51,162.32,76.23,162.53Z"/><path class="cls-6" d="M73.74,153.61v7.85c0,2.72,14.52,4.92,32.43,4.92s32.44-2.2,32.44-4.92v-7.85Z"/><g class="cls-11"><rect class="cls-8" x="74.45" y="150.35" width="1.54" height="17.98"/><rect class="cls-8" x="78.43" y="150.35" width="1.54" height="17.98"/><rect class="cls-8" x="82.97" y="150.35" width="1.54" height="17.98"/><rect class="cls-8" x="88.65" y="150.35" width="1.54" height="17.98"/><rect class="cls-8" x="94.88" y="150.35" width="1.54" height="17.98"/><rect class="cls-8" x="101.68" y="150.35" width="1.54" height="17.98"/><rect class="cls-8" x="136.36" y="150.35" width="1.54" height="17.98"/><rect class="cls-8" x="132.38" y="150.35" width="1.54" height="17.98"/><rect class="cls-8" x="127.84" y="150.35" width="1.54" height="17.98"/><rect class="cls-8" x="122.16" y="150.35" width="1.54" height="17.98"/><rect class="cls-8" x="115.93" y="150.35" width="1.54" height="17.98"/><rect class="cls-8" x="109.13" y="150.35" width="1.54" height="17.98"/></g><path class="cls-9" d="M138.61,153.47c0,2.72-14.52,4.92-32.44,4.92s-32.43-2.2-32.43-4.92,14.52-4.93,32.43-4.93S138.61,150.75,138.61,153.47Z"/><ellipse class="cls-6" cx="106.17" cy="152.95" rx="25.79" ry="2.29"/><path class="cls-8" d="M81.5,153.61c3.21-.94,13-1.62,24.67-1.62s21.47.68,24.68,1.62c.72-.21,1.11-.43,1.11-.66,0-1.26-11.55-2.29-25.79-2.29s-25.78,1-25.78,2.29C80.39,153.18,80.78,153.4,81.5,153.61Z"/><path class="cls-6" d="M76,144.58v7.84c0,2.72,14.52,4.93,32.43,4.93s32.44-2.21,32.44-4.93v-7.84Z"/><g class="cls-12"><rect class="cls-8" x="76.73" y="141.32" width="1.54" height="17.98"/><rect class="cls-8" x="80.71" y="141.32" width="1.54" height="17.98"/><rect class="cls-8" x="85.26" y="141.32" width="1.54" height="17.98"/><rect class="cls-8" x="90.93" y="141.32" width="1.54" height="17.98"/><rect class="cls-8" x="97.16" y="141.32" width="1.54" height="17.98"/><rect class="cls-8" x="103.96" y="141.32" width="1.54" height="17.98"/><rect class="cls-8" x="138.64" y="141.32" width="1.54" height="17.98"/><rect class="cls-8" x="134.66" y="141.32" width="1.54" height="17.98"/><rect class="cls-8" x="130.12" y="141.32" width="1.54" height="17.98"/><rect class="cls-8" x="124.45" y="141.32" width="1.54" height="17.98"/><rect class="cls-8" x="118.21" y="141.32" width="1.54" height="17.98"/><rect class="cls-8" x="111.41" y="141.32" width="1.54" height="17.98"/></g><path class="cls-9" d="M140.89,144.43c0,2.72-14.52,4.93-32.44,4.93S76,147.15,76,144.43s14.52-4.92,32.43-4.92S140.89,141.71,140.89,144.43Z"/><path class="cls-6" d="M134.24,143.91c0,1.27-11.54,2.29-25.79,2.29s-25.78-1-25.78-2.29,11.54-2.28,25.78-2.28S134.24,142.65,134.24,143.91Z"/><path class="cls-8" d="M83.78,144.58c3.21-.94,13-1.62,24.67-1.62s21.47.68,24.68,1.62c.72-.21,1.11-.43,1.11-.67,0-1.26-11.54-2.28-25.79-2.28s-25.78,1-25.78,2.28C82.67,144.15,83.06,144.37,83.78,144.58Z"/><path class="cls-6" d="M68.28,135.66v7.85c0,2.72,14.52,4.92,32.43,4.92s32.44-2.2,32.44-4.92v-7.85Z"/><g class="cls-13"><rect class="cls-8" x="68.99" y="132.4" width="1.54" height="17.98"/><rect class="cls-8" x="72.97" y="132.4" width="1.54" height="17.98"/><rect class="cls-8" x="77.51" y="132.4" width="1.54" height="17.98"/><rect class="cls-8" x="83.19" y="132.4" width="1.54" height="17.98"/><rect class="cls-8" x="89.42" y="132.4" width="1.54" height="17.98"/><rect class="cls-8" x="96.22" y="132.4" width="1.54" height="17.98"/><rect class="cls-8" x="130.9" y="132.4" width="1.54" height="17.98"/><rect class="cls-8" x="126.92" y="132.4" width="1.54" height="17.98"/><rect class="cls-8" x="122.38" y="132.4" width="1.54" height="17.98"/><rect class="cls-8" x="116.7" y="132.4" width="1.54" height="17.98"/><rect class="cls-8" x="110.47" y="132.4" width="1.54" height="17.98"/><rect class="cls-8" x="103.67" y="132.4" width="1.54" height="17.98"/></g><ellipse class="cls-9" cx="100.71" cy="135.52" rx="32.44" ry="4.92"/><ellipse class="cls-6" cx="100.71" cy="135" rx="25.79" ry="2.29"/><path class="cls-8" d="M76,135.66c3.21-.94,13-1.62,24.67-1.62s21.47.68,24.68,1.62c.72-.21,1.11-.43,1.11-.66,0-1.27-11.55-2.29-25.79-2.29s-25.78,1-25.78,2.29C74.93,135.23,75.32,135.45,76,135.66Z"/><path class="cls-6" d="M74.54,126.74v7.85c0,2.72,14.52,4.92,32.43,4.92s32.44-2.2,32.44-4.92v-7.85Z"/><g class="cls-14"><rect class="cls-8" x="75.25" y="123.48" width="1.54" height="17.98"/><rect class="cls-8" x="79.23" y="123.48" width="1.54" height="17.98"/><rect class="cls-8" x="83.77" y="123.48" width="1.54" height="17.98"/><rect class="cls-8" x="89.45" y="123.48" width="1.54" height="17.98"/><rect class="cls-8" x="95.68" y="123.48" width="1.54" height="17.98"/><rect class="cls-8" x="102.48" y="123.48" width="1.54" height="17.98"/><rect class="cls-8" x="137.16" y="123.48" width="1.54" height="17.98"/><rect class="cls-8" x="133.18" y="123.48" width="1.54" height="17.98"/><rect class="cls-8" x="128.64" y="123.48" width="1.54" height="17.98"/><rect class="cls-8" x="122.96" y="123.48" width="1.54" height="17.98"/><rect class="cls-8" x="116.73" y="123.48" width="1.54" height="17.98"/><rect class="cls-8" x="109.93" y="123.48" width="1.54" height="17.98"/></g><path class="cls-9" d="M139.41,126.59c0,2.72-14.52,4.93-32.44,4.93s-32.43-2.21-32.43-4.93,14.52-4.92,32.43-4.92S139.41,123.87,139.41,126.59Z"/><path class="cls-6" d="M132.76,126.08c0,1.26-11.55,2.28-25.79,2.28s-25.78-1-25.78-2.28,11.54-2.29,25.78-2.29S132.76,124.81,132.76,126.08Z"/><path class="cls-8" d="M82.3,126.74c3.21-.94,13-1.62,24.67-1.62s21.47.68,24.68,1.62c.72-.21,1.11-.43,1.11-.66,0-1.27-11.55-2.29-25.79-2.29s-25.78,1-25.78,2.29C81.19,126.31,81.58,126.53,82.3,126.74Z"/><path class="cls-6" d="M68.92,117.82v7.85c0,2.72,14.52,4.92,32.43,4.92s32.44-2.2,32.44-4.92v-7.85Z"/><g class="cls-15"><rect class="cls-8" x="69.63" y="114.56" width="1.54" height="17.98"/><rect class="cls-8" x="73.61" y="114.56" width="1.54" height="17.98"/><rect class="cls-8" x="78.16" y="114.56" width="1.54" height="17.98"/><rect class="cls-8" x="83.83" y="114.56" width="1.54" height="17.98"/><rect class="cls-8" x="90.06" y="114.56" width="1.54" height="17.98"/><rect class="cls-8" x="96.86" y="114.56" width="1.54" height="17.98"/><rect class="cls-8" x="131.54" y="114.56" width="1.54" height="17.98"/><rect class="cls-8" x="127.56" y="114.56" width="1.54" height="17.98"/><rect class="cls-8" x="123.02" y="114.56" width="1.54" height="17.98"/><rect class="cls-8" x="117.35" y="114.56" width="1.54" height="17.98"/><rect class="cls-8" x="111.11" y="114.56" width="1.54" height="17.98"/><rect class="cls-8" x="104.31" y="114.56" width="1.54" height="17.98"/></g><ellipse class="cls-9" cx="101.35" cy="117.67" rx="32.44" ry="4.92"/><path class="cls-6" d="M127.14,117.16c0,1.26-11.54,2.28-25.79,2.28s-25.78-1-25.78-2.28,11.54-2.29,25.78-2.29S127.14,115.89,127.14,117.16Z"/><path class="cls-8" d="M76.68,117.82c3.21-.94,13-1.62,24.67-1.62s21.47.68,24.68,1.62c.72-.21,1.11-.43,1.11-.66,0-1.27-11.54-2.29-25.79-2.29s-25.78,1-25.78,2.29C75.57,117.39,76,117.61,76.68,117.82Z"/><g class="cls-16"><path d="M73.16,171.39v7.85c0,2.72,14.53,4.92,32.44,4.92S138,182,138,179.24v-7.85Z"/><path d="M73.16,171.39v7.85c0,2.72,14.53,4.92,32.44,4.92S138,182,138,179.24v-7.85Z"/><g class="cls-17"><rect x="73.87" y="168.14" width="1.54" height="17.98"/><rect x="77.86" y="168.14" width="1.54" height="17.98"/><rect x="82.4" y="168.14" width="1.54" height="17.98"/><rect x="88.07" y="168.14" width="1.54" height="17.98"/><rect x="94.31" y="168.14" width="1.54" height="17.98"/><rect x="101.11" y="168.14" width="1.54" height="17.98"/><rect x="135.79" y="168.14" width="1.54" height="17.98"/><rect x="131.81" y="168.14" width="1.54" height="17.98"/><rect x="127.26" y="168.14" width="1.54" height="17.98"/><rect x="121.59" y="168.14" width="1.54" height="17.98"/><rect x="115.36" y="168.14" width="1.54" height="17.98"/><rect x="108.56" y="168.14" width="1.54" height="17.98"/></g><path d="M138,171.25c0,2.72-14.53,4.92-32.44,4.92s-32.44-2.2-32.44-4.92,14.53-4.93,32.44-4.93S138,168.53,138,171.25Z"/><path d="M131.39,170.73c0,1.26-11.55,2.29-25.79,2.29s-25.79-1-25.79-2.29,11.55-2.29,25.79-2.29S131.39,169.47,131.39,170.73Z"/><path d="M80.92,171.39c3.22-.93,13-1.62,24.68-1.62s21.46.69,24.67,1.62c.72-.21,1.12-.43,1.12-.66,0-1.26-11.55-2.29-25.79-2.29s-25.79,1-25.79,2.29C79.81,171,80.2,171.18,80.92,171.39Z"/><path d="M68.47,162.53v7.85c0,2.72,14.52,4.92,32.43,4.92s32.44-2.2,32.44-4.92v-7.85Z"/><path d="M68.47,162.53v7.85c0,2.72,14.52,4.92,32.43,4.92s32.44-2.2,32.44-4.92v-7.85Z"/><g class="cls-18"><rect x="69.18" y="159.27" width="1.54" height="17.98"/><rect x="73.16" y="159.27" width="1.54" height="17.98"/><rect x="77.7" y="159.27" width="1.54" height="17.98"/><rect x="83.38" y="159.27" width="1.54" height="17.98"/><rect x="89.61" y="159.27" width="1.54" height="17.98"/><rect x="96.41" y="159.27" width="1.54" height="17.98"/><rect x="131.09" y="159.27" width="1.54" height="17.98"/><rect x="127.11" y="159.27" width="1.54" height="17.98"/><rect x="122.57" y="159.27" width="1.54" height="17.98"/><rect x="116.89" y="159.27" width="1.54" height="17.98"/><rect x="110.66" y="159.27" width="1.54" height="17.98"/><rect x="103.86" y="159.27" width="1.54" height="17.98"/></g><path d="M133.34,162.39c0,2.72-14.52,4.92-32.44,4.92s-32.43-2.2-32.43-4.92,14.52-4.93,32.43-4.93S133.34,159.67,133.34,162.39Z"/><ellipse cx="100.9" cy="161.87" rx="25.79" ry="2.29"/><path d="M76.23,162.53c3.21-.94,13-1.62,24.67-1.62s21.46.68,24.68,1.62c.72-.21,1.11-.43,1.11-.66,0-1.26-11.55-2.29-25.79-2.29s-25.78,1-25.78,2.29C75.12,162.1,75.51,162.32,76.23,162.53Z"/><path d="M73.74,153.61v7.85c0,2.72,14.52,4.92,32.43,4.92s32.44-2.2,32.44-4.92v-7.85Z"/><path d="M73.74,153.61v7.85c0,2.72,14.52,4.92,32.43,4.92s32.44-2.2,32.44-4.92v-7.85Z"/><g class="cls-19"><rect x="74.45" y="150.35" width="1.54" height="17.98"/><rect x="78.43" y="150.35" width="1.54" height="17.98"/><rect x="82.97" y="150.35" width="1.54" height="17.98"/><rect x="88.65" y="150.35" width="1.54" height="17.98"/><rect x="94.88" y="150.35" width="1.54" height="17.98"/><rect x="101.68" y="150.35" width="1.54" height="17.98"/><rect x="136.36" y="150.35" width="1.54" height="17.98"/><rect x="132.38" y="150.35" width="1.54" height="17.98"/><rect x="127.84" y="150.35" width="1.54" height="17.98"/><rect x="122.16" y="150.35" width="1.54" height="17.98"/><rect x="115.93" y="150.35" width="1.54" height="17.98"/><rect x="109.13" y="150.35" width="1.54" height="17.98"/></g><path d="M138.61,153.47c0,2.72-14.52,4.92-32.44,4.92s-32.43-2.2-32.43-4.92,14.52-4.93,32.43-4.93S138.61,150.75,138.61,153.47Z"/><ellipse cx="106.17" cy="152.95" rx="25.79" ry="2.29"/><path d="M81.5,153.61c3.21-.94,13-1.62,24.67-1.62s21.47.68,24.68,1.62c.72-.21,1.11-.43,1.11-.66,0-1.26-11.55-2.29-25.79-2.29s-25.78,1-25.78,2.29C80.39,153.18,80.78,153.4,81.5,153.61Z"/><path d="M76,144.58v7.84c0,2.72,14.52,4.93,32.43,4.93s32.44-2.21,32.44-4.93v-7.84Z"/><path d="M76,144.58v7.84c0,2.72,14.52,4.93,32.43,4.93s32.44-2.21,32.44-4.93v-7.84Z"/><g class="cls-20"><rect x="76.73" y="141.32" width="1.54" height="17.98"/><rect x="80.71" y="141.32" width="1.54" height="17.98"/><rect x="85.26" y="141.32" width="1.54" height="17.98"/><rect x="90.93" y="141.32" width="1.54" height="17.98"/><rect x="97.16" y="141.32" width="1.54" height="17.98"/><rect x="103.96" y="141.32" width="1.54" height="17.98"/><rect x="138.64" y="141.32" width="1.54" height="17.98"/><rect x="134.66" y="141.32" width="1.54" height="17.98"/><rect x="130.12" y="141.32" width="1.54" height="17.98"/><rect x="124.45" y="141.32" width="1.54" height="17.98"/><rect x="118.21" y="141.32" width="1.54" height="17.98"/><rect x="111.41" y="141.32" width="1.54" height="17.98"/></g><path d="M140.89,144.43c0,2.72-14.52,4.93-32.44,4.93S76,147.15,76,144.43s14.52-4.92,32.43-4.92S140.89,141.71,140.89,144.43Z"/><path d="M134.24,143.91c0,1.27-11.54,2.29-25.79,2.29s-25.78-1-25.78-2.29,11.54-2.28,25.78-2.28S134.24,142.65,134.24,143.91Z"/><path d="M83.78,144.58c3.21-.94,13-1.62,24.67-1.62s21.47.68,24.68,1.62c.72-.21,1.11-.43,1.11-.67,0-1.26-11.54-2.28-25.79-2.28s-25.78,1-25.78,2.28C82.67,144.15,83.06,144.37,83.78,144.58Z"/><path d="M68.28,135.66v7.85c0,2.72,14.52,4.92,32.43,4.92s32.44-2.2,32.44-4.92v-7.85Z"/><path d="M68.28,135.66v7.85c0,2.72,14.52,4.92,32.43,4.92s32.44-2.2,32.44-4.92v-7.85Z"/><g class="cls-21"><rect x="68.99" y="132.4" width="1.54" height="17.98"/><rect x="72.97" y="132.4" width="1.54" height="17.98"/><rect x="77.51" y="132.4" width="1.54" height="17.98"/><rect x="83.19" y="132.4" width="1.54" height="17.98"/><rect x="89.42" y="132.4" width="1.54" height="17.98"/><rect x="96.22" y="132.4" width="1.54" height="17.98"/><rect x="130.9" y="132.4" width="1.54" height="17.98"/><rect x="126.92" y="132.4" width="1.54" height="17.98"/><rect x="122.38" y="132.4" width="1.54" height="17.98"/><rect x="116.7" y="132.4" width="1.54" height="17.98"/><rect x="110.47" y="132.4" width="1.54" height="17.98"/><rect x="103.67" y="132.4" width="1.54" height="17.98"/></g><ellipse cx="100.71" cy="135.52" rx="32.44" ry="4.92"/><ellipse cx="100.71" cy="135" rx="25.79" ry="2.29"/><path d="M76,135.66c3.21-.94,13-1.62,24.67-1.62s21.47.68,24.68,1.62c.72-.21,1.11-.43,1.11-.66,0-1.27-11.55-2.29-25.79-2.29s-25.78,1-25.78,2.29C74.93,135.23,75.32,135.45,76,135.66Z"/><path d="M74.54,126.74v7.85c0,2.72,14.52,4.92,32.43,4.92s32.44-2.2,32.44-4.92v-7.85Z"/><path d="M74.54,126.74v7.85c0,2.72,14.52,4.92,32.43,4.92s32.44-2.2,32.44-4.92v-7.85Z"/><g class="cls-22"><rect x="75.25" y="123.48" width="1.54" height="17.98"/><rect x="79.23" y="123.48" width="1.54" height="17.98"/><rect x="83.77" y="123.48" width="1.54" height="17.98"/><rect x="89.45" y="123.48" width="1.54" height="17.98"/><rect x="95.68" y="123.48" width="1.54" height="17.98"/><rect x="102.48" y="123.48" width="1.54" height="17.98"/><rect x="137.16" y="123.48" width="1.54" height="17.98"/><rect x="133.18" y="123.48" width="1.54" height="17.98"/><rect x="128.64" y="123.48" width="1.54" height="17.98"/><rect x="122.96" y="123.48" width="1.54" height="17.98"/><rect x="116.73" y="123.48" width="1.54" height="17.98"/><rect x="109.93" y="123.48" width="1.54" height="17.98"/></g><path d="M139.41,126.59c0,2.72-14.52,4.93-32.44,4.93s-32.43-2.21-32.43-4.93,14.52-4.92,32.43-4.92S139.41,123.87,139.41,126.59Z"/><path d="M132.76,126.08c0,1.26-11.55,2.28-25.79,2.28s-25.78-1-25.78-2.28,11.54-2.29,25.78-2.29S132.76,124.81,132.76,126.08Z"/><path d="M82.3,126.74c3.21-.94,13-1.62,24.67-1.62s21.47.68,24.68,1.62c.72-.21,1.11-.43,1.11-.66,0-1.27-11.55-2.29-25.79-2.29s-25.78,1-25.78,2.29C81.19,126.31,81.58,126.53,82.3,126.74Z"/><path d="M68.92,117.82v7.85c0,2.72,14.52,4.92,32.43,4.92s32.44-2.2,32.44-4.92v-7.85Z"/><path d="M68.92,117.82v7.85c0,2.72,14.52,4.92,32.43,4.92s32.44-2.2,32.44-4.92v-7.85Z"/><g class="cls-23"><rect x="69.63" y="114.56" width="1.54" height="17.98"/><rect x="73.61" y="114.56" width="1.54" height="17.98"/><rect x="78.16" y="114.56" width="1.54" height="17.98"/><rect x="83.83" y="114.56" width="1.54" height="17.98"/><rect x="90.06" y="114.56" width="1.54" height="17.98"/><rect x="96.86" y="114.56" width="1.54" height="17.98"/><rect x="131.54" y="114.56" width="1.54" height="17.98"/><rect x="127.56" y="114.56" width="1.54" height="17.98"/><rect x="123.02" y="114.56" width="1.54" height="17.98"/><rect x="117.35" y="114.56" width="1.54" height="17.98"/><rect x="111.11" y="114.56" width="1.54" height="17.98"/><rect x="104.31" y="114.56" width="1.54" height="17.98"/></g><ellipse cx="101.35" cy="117.67" rx="32.44" ry="4.92"/><path d="M127.14,117.16c0,1.26-11.54,2.28-25.79,2.28s-25.78-1-25.78-2.28,11.54-2.29,25.78-2.29S127.14,115.89,127.14,117.16Z"/><path d="M76.68,117.82c3.21-.94,13-1.62,24.67-1.62s21.47.68,24.68,1.62c.72-.21,1.11-.43,1.11-.66,0-1.27-11.54-2.29-25.79-2.29s-25.78,1-25.78,2.29C75.57,117.39,76,117.61,76.68,117.82Z"/></g><path class="cls-24" d="M101.14,175.69v7.84c0,2.72-14.52,4.93-32.44,4.93s-32.43-2.21-32.43-4.93v-7.84Z"/><g class="cls-25"><rect class="cls-8" x="98.89" y="172.43" width="1.54" height="17.98"/><rect class="cls-8" x="94.91" y="172.43" width="1.54" height="17.98"/><rect class="cls-8" x="90.37" y="172.43" width="1.54" height="17.98"/><rect class="cls-8" x="84.69" y="172.43" width="1.54" height="17.98"/><rect class="cls-8" x="78.46" y="172.43" width="1.54" height="17.98"/><rect class="cls-8" x="71.66" y="172.43" width="1.54" height="17.98"/><rect class="cls-8" x="36.98" y="172.43" width="1.54" height="17.98"/><rect class="cls-8" x="40.96" y="172.43" width="1.54" height="17.98"/><rect class="cls-8" x="45.5" y="172.43" width="1.54" height="17.98"/><rect class="cls-8" x="51.18" y="172.43" width="1.54" height="17.98"/><rect class="cls-8" x="57.41" y="172.43" width="1.54" height="17.98"/><rect class="cls-8" x="64.21" y="172.43" width="1.54" height="17.98"/></g><path class="cls-9" d="M36.27,175.54c0,2.72,14.52,4.93,32.43,4.93s32.44-2.21,32.44-4.93-14.52-4.92-32.44-4.92S36.27,172.82,36.27,175.54Z"/><path class="cls-6" d="M42.92,175c0,1.27,11.54,2.29,25.78,2.29s25.79-1,25.79-2.29-11.55-2.28-25.79-2.28S42.92,173.76,42.92,175Z"/><path class="cls-8" d="M93.38,175.69c-3.22-.94-13-1.62-24.68-1.62s-21.46.68-24.67,1.62c-.72-.21-1.11-.43-1.11-.67,0-1.26,11.54-2.28,25.78-2.28s25.79,1,25.79,2.28C94.49,175.26,94.1,175.48,93.38,175.69Z"/><path class="cls-24" d="M105.84,166.83v7.84c0,2.72-14.53,4.93-32.44,4.93S41,177.39,41,174.67v-7.84Z"/><g class="cls-26"><rect class="cls-8" x="103.59" y="163.57" width="1.54" height="17.98"/><rect class="cls-8" x="99.61" y="163.57" width="1.54" height="17.98"/><rect class="cls-8" x="95.06" y="163.57" width="1.54" height="17.98"/><rect class="cls-8" x="89.39" y="163.57" width="1.54" height="17.98"/><rect class="cls-8" x="83.16" y="163.57" width="1.54" height="17.98"/><rect class="cls-8" x="76.36" y="163.57" width="1.54" height="17.98"/><rect class="cls-8" x="41.67" y="163.57" width="1.54" height="17.98"/><rect class="cls-8" x="45.66" y="163.57" width="1.54" height="17.98"/><rect class="cls-8" x="50.2" y="163.57" width="1.54" height="17.98"/><rect class="cls-8" x="55.87" y="163.57" width="1.54" height="17.98"/><rect class="cls-8" x="62.11" y="163.57" width="1.54" height="17.98"/><rect class="cls-8" x="68.91" y="163.57" width="1.54" height="17.98"/></g><ellipse class="cls-9" cx="73.4" cy="166.68" rx="32.44" ry="4.92"/><path class="cls-6" d="M47.61,166.16c0,1.26,11.55,2.29,25.79,2.29s25.79-1,25.79-2.29-11.55-2.28-25.79-2.28S47.61,164.9,47.61,166.16Z"/><path class="cls-8" d="M98.07,166.83c-3.21-.94-13-1.62-24.67-1.62s-21.46.68-24.68,1.62c-.72-.21-1.11-.44-1.11-.67,0-1.26,11.55-2.28,25.79-2.28s25.79,1,25.79,2.28C99.19,166.39,98.79,166.62,98.07,166.83Z"/><path class="cls-24" d="M100.57,157.91v7.84c0,2.72-14.53,4.93-32.44,4.93s-32.44-2.21-32.44-4.93v-7.84Z"/><g class="cls-27"><rect class="cls-8" x="98.32" y="154.65" width="1.54" height="17.98"/><rect class="cls-8" x="94.34" y="154.65" width="1.54" height="17.98"/><rect class="cls-8" x="89.79" y="154.65" width="1.54" height="17.98"/><rect class="cls-8" x="84.12" y="154.65" width="1.54" height="17.98"/><rect class="cls-8" x="77.88" y="154.65" width="1.54" height="17.98"/><rect class="cls-8" x="71.09" y="154.65" width="1.54" height="17.98"/><rect class="cls-8" x="36.4" y="154.65" width="1.54" height="17.98"/><rect class="cls-8" x="40.39" y="154.65" width="1.54" height="17.98"/><rect class="cls-8" x="44.93" y="154.65" width="1.54" height="17.98"/><rect class="cls-8" x="50.6" y="154.65" width="1.54" height="17.98"/><rect class="cls-8" x="56.84" y="154.65" width="1.54" height="17.98"/><rect class="cls-8" x="63.64" y="154.65" width="1.54" height="17.98"/></g><path class="cls-9" d="M35.69,157.76c0,2.72,14.53,4.92,32.44,4.92s32.44-2.2,32.44-4.92S86,152.84,68.13,152.84,35.69,155,35.69,157.76Z"/><path class="cls-6" d="M42.34,157.24c0,1.26,11.55,2.29,25.79,2.29s25.79-1,25.79-2.29S82.37,155,68.13,155,42.34,156,42.34,157.24Z"/><path class="cls-8" d="M92.8,157.91c-3.21-.94-13-1.62-24.67-1.62s-21.46.68-24.68,1.62c-.72-.21-1.11-.44-1.11-.67,0-1.26,11.55-2.28,25.79-2.28s25.79,1,25.79,2.28C93.92,157.47,93.52,157.7,92.8,157.91Z"/><path class="cls-24" d="M98.28,148.87v7.85c0,2.72-14.52,4.92-32.43,4.92s-32.44-2.2-32.44-4.92v-7.85Z"/><g class="cls-28"><rect class="cls-8" x="96.04" y="145.61" width="1.54" height="17.98"/><rect class="cls-8" x="92.06" y="145.61" width="1.54" height="17.98"/><rect class="cls-8" x="87.51" y="145.61" width="1.54" height="17.98"/><rect class="cls-8" x="81.84" y="145.61" width="1.54" height="17.98"/><rect class="cls-8" x="75.6" y="145.61" width="1.54" height="17.98"/><rect class="cls-8" x="68.8" y="145.61" width="1.54" height="17.98"/><rect class="cls-8" x="34.12" y="145.61" width="1.54" height="17.98"/><rect class="cls-8" x="38.1" y="145.61" width="1.54" height="17.98"/><rect class="cls-8" x="42.65" y="145.61" width="1.54" height="17.98"/><rect class="cls-8" x="48.32" y="145.61" width="1.54" height="17.98"/><rect class="cls-8" x="54.56" y="145.61" width="1.54" height="17.98"/><rect class="cls-8" x="61.35" y="145.61" width="1.54" height="17.98"/></g><path class="cls-9" d="M33.41,148.73c0,2.72,14.52,4.92,32.44,4.92s32.43-2.2,32.43-4.92-14.52-4.93-32.43-4.93S33.41,146,33.41,148.73Z"/><path class="cls-6" d="M40.06,148.21c0,1.26,11.55,2.28,25.79,2.28s25.78-1,25.78-2.28-11.54-2.29-25.78-2.29S40.06,147,40.06,148.21Z"/><path class="cls-8" d="M90.52,148.87c-3.21-.94-13-1.62-24.67-1.62s-21.47.68-24.68,1.62c-.72-.21-1.11-.43-1.11-.66,0-1.26,11.55-2.29,25.79-2.29s25.78,1,25.78,2.29C91.63,148.44,91.24,148.66,90.52,148.87Z"/><path class="cls-24" d="M106,140v7.84c0,2.72-14.52,4.93-32.43,4.93s-32.44-2.21-32.44-4.93V140Z"/><g class="cls-29"><rect class="cls-8" x="103.78" y="136.7" width="1.54" height="17.98"/><rect class="cls-8" x="99.8" y="136.7" width="1.54" height="17.98"/><rect class="cls-8" x="95.25" y="136.7" width="1.54" height="17.98"/><rect class="cls-8" x="89.58" y="136.7" width="1.54" height="17.98"/><rect class="cls-8" x="83.34" y="136.7" width="1.54" height="17.98"/><rect class="cls-8" x="76.55" y="136.7" width="1.54" height="17.98"/><rect class="cls-8" x="41.86" y="136.7" width="1.54" height="17.98"/><rect class="cls-8" x="45.84" y="136.7" width="1.54" height="17.98"/><rect class="cls-8" x="50.39" y="136.7" width="1.54" height="17.98"/><rect class="cls-8" x="56.06" y="136.7" width="1.54" height="17.98"/><rect class="cls-8" x="62.3" y="136.7" width="1.54" height="17.98"/><rect class="cls-8" x="69.1" y="136.7" width="1.54" height="17.98"/></g><path class="cls-9" d="M41.15,139.81c0,2.72,14.52,4.92,32.44,4.92s32.43-2.2,32.43-4.92-14.52-4.92-32.43-4.92S41.15,137.09,41.15,139.81Z"/><ellipse class="cls-6" cx="73.59" cy="139.29" rx="25.79" ry="2.29"/><path class="cls-8" d="M98.26,140c-3.21-.94-13-1.63-24.67-1.63S52.13,139,48.91,140c-.72-.21-1.11-.44-1.11-.67C47.8,138,59.35,137,73.59,137s25.78,1,25.78,2.28C99.37,139.52,99,139.75,98.26,140Z"/><path class="cls-24" d="M99.77,131v7.84c0,2.72-14.53,4.93-32.44,4.93s-32.44-2.21-32.44-4.93V131Z"/><g class="cls-30"><rect class="cls-8" x="97.52" y="127.78" width="1.54" height="17.98"/><rect class="cls-8" x="93.54" y="127.78" width="1.54" height="17.98"/><rect class="cls-8" x="88.99" y="127.78" width="1.54" height="17.98"/><rect class="cls-8" x="83.32" y="127.78" width="1.54" height="17.98"/><rect class="cls-8" x="77.08" y="127.78" width="1.54" height="17.98"/><rect class="cls-8" x="70.29" y="127.78" width="1.54" height="17.98"/><rect class="cls-8" x="35.6" y="127.78" width="1.54" height="17.98"/><rect class="cls-8" x="39.58" y="127.78" width="1.54" height="17.98"/><rect class="cls-8" x="44.13" y="127.78" width="1.54" height="17.98"/><rect class="cls-8" x="49.8" y="127.78" width="1.54" height="17.98"/><rect class="cls-8" x="56.04" y="127.78" width="1.54" height="17.98"/><rect class="cls-8" x="62.84" y="127.78" width="1.54" height="17.98"/></g><ellipse class="cls-9" cx="67.33" cy="130.89" rx="32.44" ry="4.92"/><path class="cls-6" d="M41.54,130.37c0,1.26,11.55,2.29,25.79,2.29s25.78-1,25.78-2.29-11.54-2.28-25.78-2.28S41.54,129.11,41.54,130.37Z"/><path class="cls-8" d="M92,131c-3.21-.94-13-1.63-24.67-1.63s-21.46.69-24.68,1.63c-.72-.21-1.11-.44-1.11-.67,0-1.26,11.55-2.28,25.79-2.28s25.78,1,25.78,2.28C93.11,130.6,92.72,130.83,92,131Z"/><path class="cls-24" d="M105.38,122.12V130c0,2.72-14.52,4.93-32.43,4.93S40.51,132.68,40.51,130v-7.84Z"/><g class="cls-31"><rect class="cls-8" x="103.14" y="118.86" width="1.54" height="17.98"/><rect class="cls-8" x="99.16" y="118.86" width="1.54" height="17.98"/><rect class="cls-8" x="94.61" y="118.86" width="1.54" height="17.98"/><rect class="cls-8" x="88.94" y="118.86" width="1.54" height="17.98"/><rect class="cls-8" x="82.7" y="118.86" width="1.54" height="17.98"/><rect class="cls-8" x="75.9" y="118.86" width="1.54" height="17.98"/><rect class="cls-8" x="41.22" y="118.86" width="1.54" height="17.98"/><rect class="cls-8" x="45.2" y="118.86" width="1.54" height="17.98"/><rect class="cls-8" x="49.75" y="118.86" width="1.54" height="17.98"/><rect class="cls-8" x="55.42" y="118.86" width="1.54" height="17.98"/><rect class="cls-8" x="61.66" y="118.86" width="1.54" height="17.98"/><rect class="cls-8" x="68.45" y="118.86" width="1.54" height="17.98"/></g><path class="cls-9" d="M40.51,122c0,2.72,14.52,4.92,32.44,4.92s32.43-2.2,32.43-4.92S90.86,117,73,117,40.51,119.25,40.51,122Z"/><path class="cls-24" d="M47.16,121.45c0,1.26,11.55,2.29,25.79,2.29s25.78-1,25.78-2.29S87.19,119.16,73,119.16,47.16,120.19,47.16,121.45Z"/><path class="cls-8" d="M97.62,122.12c-3.21-.94-13-1.63-24.67-1.63s-21.47.69-24.68,1.63c-.72-.22-1.11-.44-1.11-.67,0-1.26,11.55-2.29,25.79-2.29s25.78,1,25.78,2.29C98.73,121.68,98.34,121.9,97.62,122.12Z"/><path class="cls-32" d="M106.14,190.18q-2.27-1.6-4.57-3.15a20.83,20.83,0,0,0-6.68-3.29c-2.68-.61-5.47-.2-8.23-.11l-1.91,0a43.27,43.27,0,0,0,3-13.59c.91-21-9.11-34.94-25.81-38.78l-6.29-1.45-13,56.61c5.9,1.21,6.91,13.18,11,12.36,2.46-.5,12.17-4.23,19.63-7.17,0,.12,0,.24,0,.36.45,2.48.46,5.54,3.09,6.52a28.84,28.84,0,0,0,5,1.38,6.81,6.81,0,0,0,2.91.07,2.79,2.79,0,0,0,2.1-1.85c.38-1.45-.81-2.78-1.6-4A7.52,7.52,0,0,1,83.64,190a1,1,0,0,1,.23-.73,1.05,1.05,0,0,1,.65-.21l5.6-.5a5.43,5.43,0,0,1,1.93,0c1.46.38,2.36,1.85,3.63,2.67.72.47,1.55.73,2.28,1.19,1.08.68,1.87,1.76,2.93,2.47a5.42,5.42,0,0,0,5.51.22,2.85,2.85,0,0,0,1.65-2.49A3.79,3.79,0,0,0,106.14,190.18Z"/><path class="cls-6" d="M56.3,129.91,50,128.46,34.13,197.54,40.4,199c16.71,3.84,33.81-8.52,38.2-27.61S73,133.75,56.3,129.91Z"/><g class="cls-33"><rect class="cls-8" x="54.44" y="181.4" width="1.76" height="42.21" transform="translate(-154.43 211.04) rotate(-77.05)"/><rect class="cls-8" x="55.47" y="176.95" width="1.76" height="42.21" transform="translate(-149.3 208.6) rotate(-77.05)"/><rect class="cls-8" x="56.64" y="171.87" width="1.76" height="42.21" transform="translate(-143.44 205.78) rotate(-77.05)"/><rect class="cls-8" x="58.09" y="165.53" width="1.76" height="42.21" transform="translate(-136.13 202.27) rotate(-77.04)"/><rect class="cls-8" x="59.7" y="158.56" width="1.76" height="42.21" transform="translate(-128.1 198.43) rotate(-77.05)"/><rect class="cls-8" x="61.44" y="150.96" width="1.76" height="42.21" transform="translate(-119.34 194.24) rotate(-77.05)"/><rect class="cls-8" x="70.36" y="112.2" width="1.76" height="42.21" transform="translate(-74.64 172.85) rotate(-77.05)"/><rect class="cls-8" x="69.34" y="116.65" width="1.76" height="42.21" transform="translate(-79.77 175.3) rotate(-77.04)"/><rect class="cls-8" x="68.17" y="121.73" width="1.76" height="42.21" transform="translate(-85.63 178.11) rotate(-77.05)"/><rect class="cls-8" x="66.71" y="128.07" width="1.76" height="42.21" transform="matrix(0.22, -0.97, 0.97, 0.22, -92.94, 181.6)"/><rect class="cls-8" x="65.11" y="135.04" width="1.76" height="42.21" transform="translate(-100.97 185.46) rotate(-77.05)"/><rect class="cls-8" x="63.36" y="142.64" width="1.76" height="42.21" transform="translate(-109.74 189.64) rotate(-77.04)"/></g><ellipse class="cls-34" cx="40.72" cy="162.72" rx="35.47" ry="31.04" transform="matrix(0.22, -0.97, 0.97, 0.22, -126.98, 165.93)"/><path class="cls-35" d="M11.41,157.14c4.39-19.09,21.49-31.45,38.19-27.61A28.57,28.57,0,0,1,66.43,141a28.76,28.76,0,0,0-17.76-12.85c-16.71-3.84-33.81,8.52-38.2,27.61-2.56,11.13-.22,22.08,5.47,30.05A37.62,37.62,0,0,1,11.41,157.14Z"/><path class="cls-35" d="M34.67,190.37c-12.44-2.87-19.79-17.25-16.38-32.08S34.6,133.74,47,136.6s19.79,17.25,16.38,32.07S47.12,193.23,34.67,190.37Z"/><path class="cls-24" d="M34.54,189.6c-12.45-2.86-19.79-17.25-16.39-32.07S34.46,133,46.9,135.83s19.79,17.25,16.38,32.08S47,192.46,34.54,189.6Z"/><path class="cls-8" d="M37.27,188.73c-12.45-2.86-19.79-17.25-16.39-32.07,2.3-10,8.92-17.67,16.8-20.74-9,2.21-17,10.47-19.53,21.61-3.4,14.82,3.94,29.21,16.39,32.07a20.24,20.24,0,0,0,12-1A19.94,19.94,0,0,1,37.27,188.73Z"/><path class="cls-8" d="M42.42,145.88a1,1,0,0,1,.49-.58,1,1,0,0,1,.76-.08l4.64,1.43A1,1,0,0,1,49,147.9l-.8,2.63a11.47,11.47,0,0,1,2.51,2,8.51,8.51,0,0,1,1.61,2.32,7.08,7.08,0,0,1,.69,2.51,6.61,6.61,0,0,1-.28,2.54,7.18,7.18,0,0,1-3.18,4.35,10.17,10.17,0,0,1-6.13,1c-1.39-.1-2.59-.21-3.6-.32a21.13,21.13,0,0,0-2.54-.14,4.89,4.89,0,0,0-1.58.23,1.14,1.14,0,0,0-.74.74,1.61,1.61,0,0,0,.81,1.86,10.59,10.59,0,0,0,3,1.37,5.69,5.69,0,0,0,1.87.3A4.66,4.66,0,0,0,42,169a4.89,4.89,0,0,0,1-.42l.57-.33a2.46,2.46,0,0,1,.68-.2,1.87,1.87,0,0,1,.82.12l4.64,1.42a.73.73,0,0,1,.44.39.79.79,0,0,1,.07.62,5.65,5.65,0,0,1-1.24,2,7.15,7.15,0,0,1-2.12,1.54,10.84,10.84,0,0,1-2.85.93,12.66,12.66,0,0,1-3.41.18l-.8,2.62a.94.94,0,0,1-.49.58.89.89,0,0,1-.76.08l-4.64-1.42a1,1,0,0,1-.59-.5.9.9,0,0,1-.07-.75l.77-2.52a14.19,14.19,0,0,1-2.91-1.9,9.1,9.1,0,0,1-2-2.36,7.29,7.29,0,0,1-.92-2.69,6.91,6.91,0,0,1,.27-2.9,8.66,8.66,0,0,1,1.36-2.74,6,6,0,0,1,2.11-1.68,8.47,8.47,0,0,1,2.89-.76,18.68,18.68,0,0,1,3.71.06l3.47.32a15.66,15.66,0,0,0,2.28.07,3,3,0,0,0,1.34-.32,1.25,1.25,0,0,0,.61-.77,1.37,1.37,0,0,0,0-1,2.08,2.08,0,0,0-.61-.79,4.68,4.68,0,0,0-1-.62,9.06,9.06,0,0,0-1.27-.49,5.86,5.86,0,0,0-1.61-.28,4.77,4.77,0,0,0-1.21.13,3.62,3.62,0,0,0-.81.31l-.45.25a2.49,2.49,0,0,1-.75.24,2,2,0,0,1-.84-.1L33,153.92a.73.73,0,0,1-.44-.39.79.79,0,0,1-.07-.62,4.66,4.66,0,0,1,1.16-1.74,8.7,8.7,0,0,1,2-1.45,11.31,11.31,0,0,1,2.72-.95,12.16,12.16,0,0,1,3.23-.23Z"/><path class="cls-34" d="M41.7,145.24a1,1,0,0,1,.49-.58,1,1,0,0,1,.76-.08L47.59,146a1,1,0,0,1,.59.49,1,1,0,0,1,.08.76l-.81,2.62a11.81,11.81,0,0,1,2.51,2,8.55,8.55,0,0,1,1.62,2.32,7.28,7.28,0,0,1,.68,2.51,6.61,6.61,0,0,1-.28,2.54,7.18,7.18,0,0,1-3.18,4.35,10.17,10.17,0,0,1-6.13,1c-1.39-.11-2.59-.22-3.6-.32a23.67,23.67,0,0,0-2.54-.15,4.86,4.86,0,0,0-1.58.24,1.14,1.14,0,0,0-.74.74,1.61,1.61,0,0,0,.81,1.86,11,11,0,0,0,3,1.37,5.69,5.69,0,0,0,1.87.3,4.66,4.66,0,0,0,1.38-.21,4.89,4.89,0,0,0,1-.42l.57-.33a2.14,2.14,0,0,1,.69-.2,2,2,0,0,1,.81.11L49,169a.78.78,0,0,1,.45.39.84.84,0,0,1,.06.62,5.51,5.51,0,0,1-1.24,2,7.15,7.15,0,0,1-2.12,1.54,10.84,10.84,0,0,1-2.85.93,12.59,12.59,0,0,1-3.4.18L39,177.24a.94.94,0,0,1-.49.58.93.93,0,0,1-.76.08l-4.64-1.43a.93.93,0,0,1-.59-.49.92.92,0,0,1-.07-.76l.77-2.51a14.19,14.19,0,0,1-2.91-1.9,9.1,9.1,0,0,1-2-2.36,7.48,7.48,0,0,1-.92-2.69,6.76,6.76,0,0,1,.28-2.9,8.26,8.26,0,0,1,1.36-2.74,5.87,5.87,0,0,1,2.11-1.68,8.19,8.19,0,0,1,2.89-.76,19.41,19.41,0,0,1,3.71,0l3.46.33a15.55,15.55,0,0,0,2.29.06,3,3,0,0,0,1.33-.31,1.22,1.22,0,0,0,.61-.77,1.37,1.37,0,0,0,0-1,2,2,0,0,0-.61-.79,4.85,4.85,0,0,0-1-.63,11,11,0,0,0-1.26-.48,5.62,5.62,0,0,0-1.62-.28,4.35,4.35,0,0,0-1.21.13,3.35,3.35,0,0,0-.81.31l-.44.25a2.64,2.64,0,0,1-.76.24,1.9,1.9,0,0,1-.84-.11l-4.64-1.42a.73.73,0,0,1-.44-.39.79.79,0,0,1-.07-.62,4.66,4.66,0,0,1,1.16-1.74,8.7,8.7,0,0,1,2-1.45,11.31,11.31,0,0,1,2.72-1,11.76,11.76,0,0,1,3.23-.23Z"/><path class="cls-36" d="M126.5,162.86c0-1,1.95-1.91,5.27-2.69v-6.08h0c0-.05,0-.1,0-.15,0-2.72,14.52-4.92,32.44-4.92s32.43,2.2,32.43,4.92c0,.05,0,.1,0,.15h0v7.84c0,1-1.95,1.92-5.27,2.69v4.56c3,.74,4.7,1.61,4.7,2.54,0,.05,0,.1,0,.15h0v7.84c0,2.72-14.52,4.93-32.44,4.93s-32.43-2.21-32.43-4.93V173.4c-3-.75-4.7-1.62-4.7-2.55V163h0S126.5,162.91,126.5,162.86Z"/><path class="cls-6" d="M137.12,171.87v7.84c0,2.72,14.52,4.93,32.43,4.93S202,182.43,202,179.71v-7.84Z"/><g class="cls-37"><rect class="cls-8" x="137.83" y="168.61" width="1.54" height="17.98"/><rect class="cls-8" x="141.81" y="168.61" width="1.54" height="17.98"/><rect class="cls-8" x="146.35" y="168.61" width="1.54" height="17.98"/><rect class="cls-8" x="152.03" y="168.61" width="1.54" height="17.98"/><rect class="cls-8" x="158.26" y="168.61" width="1.54" height="17.98"/><rect class="cls-8" x="165.06" y="168.61" width="1.54" height="17.98"/><rect class="cls-8" x="199.74" y="168.61" width="1.54" height="17.98"/><rect class="cls-8" x="195.76" y="168.61" width="1.54" height="17.98"/><rect class="cls-8" x="191.22" y="168.61" width="1.54" height="17.98"/><rect class="cls-8" x="185.54" y="168.61" width="1.54" height="17.98"/><rect class="cls-8" x="179.31" y="168.61" width="1.54" height="17.98"/><rect class="cls-8" x="172.51" y="168.61" width="1.54" height="17.98"/></g><path class="cls-9" d="M202,171.72c0,2.72-14.52,4.93-32.44,4.93s-32.43-2.21-32.43-4.93,14.52-4.92,32.43-4.92S202,169,202,171.72Z"/><path class="cls-6" d="M195.34,171.2c0,1.27-11.55,2.29-25.79,2.29s-25.78-1-25.78-2.29,11.54-2.28,25.78-2.28S195.34,169.94,195.34,171.2Z"/><path class="cls-8" d="M144.88,171.87c3.21-.94,13-1.62,24.67-1.62s21.47.68,24.68,1.62c.72-.21,1.11-.43,1.11-.67,0-1.26-11.55-2.28-25.79-2.28s-25.78,1-25.78,2.28C143.77,171.44,144.16,171.66,144.88,171.87Z"/><path class="cls-6" d="M132.42,163v7.84c0,2.72,14.52,4.93,32.44,4.93s32.43-2.21,32.43-4.93V163Z"/><g class="cls-38"><rect class="cls-8" x="133.13" y="159.75" width="1.54" height="17.98"/><rect class="cls-8" x="137.11" y="159.75" width="1.54" height="17.98"/><rect class="cls-8" x="141.66" y="159.75" width="1.54" height="17.98"/><rect class="cls-8" x="147.33" y="159.75" width="1.54" height="17.98"/><rect class="cls-8" x="153.56" y="159.75" width="1.54" height="17.98"/><rect class="cls-8" x="160.36" y="159.75" width="1.54" height="17.98"/><rect class="cls-8" x="195.05" y="159.75" width="1.54" height="17.98"/><rect class="cls-8" x="191.06" y="159.75" width="1.54" height="17.98"/><rect class="cls-8" x="186.52" y="159.75" width="1.54" height="17.98"/><rect class="cls-8" x="180.85" y="159.75" width="1.54" height="17.98"/><rect class="cls-8" x="174.61" y="159.75" width="1.54" height="17.98"/><rect class="cls-8" x="167.81" y="159.75" width="1.54" height="17.98"/></g><path class="cls-9" d="M197.29,162.86c0,2.72-14.52,4.92-32.43,4.92s-32.44-2.2-32.44-4.92,14.52-4.92,32.44-4.92S197.29,160.14,197.29,162.86Z"/><path class="cls-6" d="M190.64,162.34c0,1.26-11.54,2.29-25.78,2.29s-25.79-1-25.79-2.29,11.54-2.28,25.79-2.28S190.64,161.08,190.64,162.34Z"/><path class="cls-8" d="M140.18,163c3.21-.94,13-1.62,24.68-1.62s21.46.68,24.67,1.62c.72-.21,1.11-.44,1.11-.67,0-1.26-11.54-2.28-25.78-2.28s-25.79,1-25.79,2.28C139.07,162.57,139.46,162.8,140.18,163Z"/><path class="cls-6" d="M137.69,154.09v7.84c0,2.72,14.52,4.93,32.44,4.93s32.43-2.21,32.43-4.93v-7.84Z"/><g class="cls-39"><rect class="cls-8" x="138.4" y="150.83" width="1.54" height="17.98"/><rect class="cls-8" x="142.38" y="150.83" width="1.54" height="17.98"/><rect class="cls-8" x="146.93" y="150.83" width="1.54" height="17.98"/><rect class="cls-8" x="152.6" y="150.83" width="1.54" height="17.98"/><rect class="cls-8" x="158.83" y="150.83" width="1.54" height="17.98"/><rect class="cls-8" x="165.63" y="150.83" width="1.54" height="17.98"/><rect class="cls-8" x="200.32" y="150.83" width="1.54" height="17.98"/><rect class="cls-8" x="196.33" y="150.83" width="1.54" height="17.98"/><rect class="cls-8" x="191.79" y="150.83" width="1.54" height="17.98"/><rect class="cls-8" x="186.12" y="150.83" width="1.54" height="17.98"/><rect class="cls-8" x="179.88" y="150.83" width="1.54" height="17.98"/><rect class="cls-8" x="173.08" y="150.83" width="1.54" height="17.98"/></g><path class="cls-9" d="M202.56,153.94c0,2.72-14.52,4.92-32.43,4.92s-32.44-2.2-32.44-4.92S152.21,149,170.13,149,202.56,151.22,202.56,153.94Z"/><path class="cls-6" d="M195.91,153.42c0,1.26-11.54,2.29-25.78,2.29s-25.79-1-25.79-2.29,11.54-2.28,25.79-2.28S195.91,152.16,195.91,153.42Z"/><path class="cls-8" d="M145.45,154.09c3.21-.94,13-1.62,24.68-1.62s21.46.68,24.67,1.62c.72-.21,1.11-.44,1.11-.67,0-1.26-11.54-2.28-25.78-2.28s-25.79,1-25.79,2.28C144.34,153.65,144.73,153.88,145.45,154.09Z"/><path class="cls-40" d="M77.6,179.34l1-2.74,6.22,1.76-1.1,4.21-2.28,4.14s-5-1.24-5-1.35.08-5.26.08-5.26Z"/><path class="cls-41" d="M77.6,179.34s-1,1.1-.65,2.1,1-.06,2.89-.13,4,.88,4.38,1.86.39,3,.4,5.25,1.72,4.7,1.65,6.19a10.77,10.77,0,0,1-.42,3.32c-.31.7-4.87,1.87-10.46-1.49,0,0-1.1-.64.21-3.57S74,190,74.16,186.5,76.59,178.8,77.6,179.34Z"/><path class="cls-42" d="M74.42,184.68a9.64,9.64,0,0,0,1,2.63c.61.89,1.74,1.91,1.79,2.92s-.91,2.22-1,3.17,1.13,2.35,3.32,3.09,5.7.69,6.69.15c0,0-.14,1.85-.55,2.22s-1.75.56-5.08.27-5.82-2-5.89-3.13,1.1-4,1-4.78-1.74-2.72-1.75-3.3S73.94,185.25,74.42,184.68Z"/><path class="cls-40" d="M92.8,180.69l-2.48-5.57,6.86-2.81,2.44,7.08.79,4.66s-4.69,2.14-4.77,2.06-3.2-4.17-3.2-4.17Z"/><path class="cls-41" d="M92.8,180.69s.22,1.85,1.11,2.41.19-2,1.65-3.25,3.82-1.68,4.8-.28c.61.88,2,2.78,3.38,4.52s4.47,1.95,5.34,3.16a6.19,6.19,0,0,1,1.07,2.8c.18.73-.65,4.62-7.12,5.47a4.19,4.19,0,0,1-3.67-2.93c-1.15-3-2.8-1.32-4.8-4.16S91.67,180.89,92.8,180.69Z"/><path class="cls-42" d="M104.39,194.55c-.71.08-2.53.27-4-2.53s-2.92-1-5.21-3.63a13.33,13.33,0,0,1-2.9-6,13.66,13.66,0,0,0,2.24,6c2,2.84,3.65,1.15,4.8,4.16s3.11,3,4.29,2.91c4.49-.29,5.63-2.6,6.24-4.05A7.67,7.67,0,0,1,104.39,194.55Z"/><path class="cls-43" d="M71.37,77.36S62,92.47,59.4,97.81c-2.29,4.8-5.74,15.24-2,21.17s7.27,6,7.27,6,5.82,20.66,7.68,25.27a147.31,147.31,0,0,0,7,14.79l-1.94,10.54s1.34,3.13,4.34,3.77a9.77,9.77,0,0,0,5.31-.53l.9-2.74,1.59,2.07s4.51,0,6.34-1.1a14.35,14.35,0,0,0,3.68-3.4l-3.09-10s18.45-38.46,19.21-44.79A48.41,48.41,0,0,0,112,93.82c-.39-1-10.23-16.46-10.23-16.46S81.42,80.48,71.37,77.36Z"/><path class="cls-44" d="M87.55,11.89s-10.88-.29-13.77,11.9c-.91,3.65-5.45,10.11-10.09,10.82S51.48,40.26,53.2,49.44C53.8,53.17,51,56.2,45,60.94S31.51,89.28,62.38,89.59C77.31,90.09,95,88,105.86,88c18.48,0,21.31-11.63,12.82-26.19-3.16-5.42,2.68-8-5-14.74-5.08-4.5-4.14-7.87-4.54-11.81s-6.86-6.4-7.77-8.9.51-14.69-13.87-14.42"/><path class="cls-44" d="M108.59,86.75a34.89,34.89,0,0,0,6.29-1.07A17,17,0,0,0,120.55,83a9.91,9.91,0,0,0,3.61-4.9,13.29,13.29,0,0,0,.4-6.15,24.53,24.53,0,0,0-1.71-6.07,36.55,36.55,0,0,0-2.93-5.66,8,8,0,0,1-1.19-3,14.56,14.56,0,0,1,0-3.23,8.32,8.32,0,0,0-.33-3.11,8.11,8.11,0,0,0-1.57-2.67A16.13,16.13,0,0,0,114.52,46l-1.24-1c-.39-.38-.8-.74-1.16-1.16a11.19,11.19,0,0,1-1.85-2.74,10.92,10.92,0,0,1-.89-3.19c-.16-1.08-.23-2.15-.36-3.2a5.25,5.25,0,0,0-.31-1.44A5.06,5.06,0,0,0,108,32a26.59,26.59,0,0,0-4.83-4A13.85,13.85,0,0,1,101.86,27a3.88,3.88,0,0,1-1-1.48c-.35-1.13-.45-2.15-.68-3.19a15.06,15.06,0,0,0-2.28-5.77,9.88,9.88,0,0,0-4.94-3.62,17.63,17.63,0,0,0-6.27-.8V12a16.94,16.94,0,0,1,6.41.45,10.22,10.22,0,0,1,5.37,3.64,15.54,15.54,0,0,1,2.57,6c.26,1,.4,2.16.69,3.07a5.64,5.64,0,0,0,2,2.1c1.67,1.27,3.59,2.37,5,4.17a5.88,5.88,0,0,1,.87,1.5,6.6,6.6,0,0,1,.34,1.68c.12,1.08.17,2.15.31,3.18a10.06,10.06,0,0,0,2.42,5.59c.32.4.71.76,1.07,1.14l1.18,1.06a16.67,16.67,0,0,1,2.27,2.33,8.46,8.46,0,0,1,1.55,2.88A9.36,9.36,0,0,1,119,54a14.6,14.6,0,0,0,0,3.17,7.17,7.17,0,0,0,1.18,2.89c2.27,3.61,4.38,7.46,5.12,11.79a13.49,13.49,0,0,1-.39,6.52,10.62,10.62,0,0,1-4,5.2,16.54,16.54,0,0,1-6,2.55,29.92,29.92,0,0,1-6.39.7Z"/><path class="cls-44" d="M86.33,12.19a14,14,0,0,0-9.22,4.47A16,16,0,0,0,74.34,21a19.36,19.36,0,0,0-.86,2.46,13.41,13.41,0,0,1-1,2.57,21.16,21.16,0,0,1-3.12,4.5A14.54,14.54,0,0,1,65,34a8.28,8.28,0,0,1-2.75.81,11.33,11.33,0,0,0-2.41.66,13.52,13.52,0,0,0-4.25,2.67,11.36,11.36,0,0,0-2.81,4.07,11.59,11.59,0,0,0-.73,4.89c0,.41.07.83.12,1.26l0,.76c0,.25,0,.5,0,.76a7.23,7.23,0,0,1-.94,2.83,17,17,0,0,1-3.72,4.16c-1.38,1.18-2.83,2.24-4.28,3.27A12.44,12.44,0,0,0,40,64a19.14,19.14,0,0,0-2.71,9.89,12.52,12.52,0,0,0,4.15,9.22,20.67,20.67,0,0,0,9.39,4.48,45.31,45.31,0,0,0,10.51,1.07,74.87,74.87,0,0,0,10.53-1.16c7-1.22,13.9-2.83,20.77-4.58s13.74-3.63,20.52-5.68l-.68.82a163.81,163.81,0,0,0,.59-19.3c-.07-1.6-.19-3.19-.4-4.75a16.64,16.64,0,0,0-1.12-4.43c-.26-.58-.78-1.28-1.2-2s-.86-1.43-1.23-2.18a16.49,16.49,0,0,1-1.66-4.82,21.68,21.68,0,0,1-.27-2.5,15.7,15.7,0,0,0-.2-2.27,8.39,8.39,0,0,0-2.6-3.54c-1.16-1.08-2.46-2.05-3.62-3.35a5,5,0,0,1-.77-1.16,5.3,5.3,0,0,1-.33-1.32c-.13-.81-.23-1.6-.39-2.38a15.32,15.32,0,0,0-1.49-4.46,10.82,10.82,0,0,0-3-3.53,16.31,16.31,0,0,0-9-2.78v-.18a16.41,16.41,0,0,1,9.43,2.39,11.27,11.27,0,0,1,3.41,3.66,16.82,16.82,0,0,1,1.76,4.67c.19.81.32,1.62.47,2.41a4.47,4.47,0,0,0,.29,1,3.75,3.75,0,0,0,.61.83c1,1.1,2.39,2,3.62,3.14a9.63,9.63,0,0,1,3.12,4.17,5.94,5.94,0,0,1,.21,1.36l.09,1.21a21.61,21.61,0,0,0,.3,2.32,14.77,14.77,0,0,0,1.6,4.31c.36.69.77,1.37,1.2,2a21.42,21.42,0,0,1,1.35,2.15,17.44,17.44,0,0,1,1.33,5c.25,1.65.38,3.29.47,4.93.18,3.28.15,6.55,0,9.81s-.32,6.5-.65,9.76l-.06.65-.61.18Q103.41,82,93,84.49c-6.94,1.62-13.93,3.09-21,4.06a78,78,0,0,1-10.7.85,50.21,50.21,0,0,1-10.65-1.24,27.06,27.06,0,0,1-5.09-1.74A18,18,0,0,1,41,83.51a13.26,13.26,0,0,1-3.27-4.33,14.4,14.4,0,0,1-1.31-5.28A20.15,20.15,0,0,1,39,63.38,13.68,13.68,0,0,1,42.44,59c1.41-1.07,2.79-2.17,4.09-3.33a15.55,15.55,0,0,0,3.31-3.8,5.55,5.55,0,0,0,.72-2.19,6.2,6.2,0,0,0,0-1.14c0-.46-.11-.92-.13-1.39a12.58,12.58,0,0,1,.89-5.58A12.9,12.9,0,0,1,54.55,37a15.3,15.3,0,0,1,4.77-2.91,13.29,13.29,0,0,1,2.74-.71,6.74,6.74,0,0,0,2.35-.65,14,14,0,0,0,4-3,20.5,20.5,0,0,0,3.08-4.15,11.7,11.7,0,0,0,1-2.36,20.5,20.5,0,0,1,1-2.54,15.78,15.78,0,0,1,3.09-4.49A14.14,14.14,0,0,1,86.33,12Z"/><path class="cls-40" d="M118.35,69.57s5,21-7.24,24.65-11.39-22-11.39-22l16.77-10.84Z"/><path class="cls-41" d="M102.93,41.77a14.37,14.37,0,0,1,9.39,7.46c3,6.19,7,18.7,7,18.7a19.82,19.82,0,0,1-12.24,3.5C100.21,70.89,102.93,41.77,102.93,41.77Z"/><path class="cls-41" d="M106.13,56S106.54,92,107.21,103c-6.86,1.48-21.46,6-42.57-1.66C65.18,86.86,64.7,56,64.7,56l3.23-12.27s20.68-.64,21.23-.64,13.77-1.28,13.77-1.28Z"/><path class="cls-40" d="M104.67,42.32c-.24,2.7-2,4.65-4.71,6l-.52.24C93.38,51.24,83.32,51,76.19,49l-.52-.14c-4.23-1.22-7.32-3.06-7.74-5.21C69,43,72.33,42,75.67,41.17l.52-.14c1.81-.45,3.58-.87,5-1.18,4-.89,1.69-8.17,1.61-8.42L92,35.11s-.61,2.63.43,3.43c.64.5,3.83,1.3,7,2.16l.52.14A48.35,48.35,0,0,1,104.67,42.32Z"/><path class="cls-45" d="M91.9,37.32A7.48,7.48,0,0,1,92,35.11l-9.29-3.68a17.45,17.45,0,0,1,.68,3.4c1,1.46,2.52,2.36,5,3A5.92,5.92,0,0,0,91.9,37.32Z"/><path class="cls-46" d="M76.19,41v8l-.52-.14V41.17Z"/><path class="cls-46" d="M100,40.84v7.45l-.52.24V40.7Z"/><path class="cls-40" d="M98.52,21.56s.93,16.29-9.07,15.36c-4.33-.83-6.29-2.58-7.42-6.19-1.85-.41-4.93-2.69-2.89-5.46.83-1.13,2.58-.51,3,.31.72-2.37,4.74-8.48,4.74-8.48l4.67-.85,4.61.78Z"/><path class="cls-44" d="M98.54,21.74a4.72,4.72,0,0,0-2.18-.84A3.92,3.92,0,0,0,95.65,18a5,5,0,0,1,0,2.85,24,24,0,0,0-3.88-.14A5,5,0,0,0,91.13,18,4.26,4.26,0,0,1,91,20.77a11.83,11.83,0,0,0-3.2.59A3.52,3.52,0,0,0,87,18.73a6.41,6.41,0,0,1,.08,2.87c-1.33.44-2.43.93-2.75,1.07-.81,2.66-3.11.33-3.11.33s-8.18.3-4.15-7.29C80.74,8.77,89,9.56,92.82,10.64,100.23,12.72,98.86,21.78,98.54,21.74Z"/><path class="cls-45" d="M83.22,29.88s-1.13-5.35-3.32-3.45c-1.37,1.19.93,2.9,1.89,2.32l1.3-1.22"/><path class="cls-44" d="M84.32,22.67s.08,7.57,2.25,8.81a6,6,0,0,1-2.86.54,8.68,8.68,0,0,1-.62-3.4A11.75,11.75,0,0,0,83.45,32l-.65,0A16.83,16.83,0,0,1,82.16,25c.21-2.06.77-2.91,1-3S84.32,22.67,84.32,22.67Z"/><path class="cls-47" d="M89.86,30.22l4.52-.32s-.07,2.31-1.51,2.77S90.13,32.36,89.86,30.22Z"/><path class="cls-44" d="M88.36,24.47a1.08,1.08,0,0,1,1,1.14,1.08,1.08,0,0,1-2.15-.13A1.09,1.09,0,0,1,88.36,24.47Z"/><path class="cls-44" d="M95.59,24a1.07,1.07,0,1,1-1.14,1A1.07,1.07,0,0,1,95.59,24Z"/><path class="cls-44" d="M86.62,23.8a1.92,1.92,0,0,1,1.15-.69,1.89,1.89,0,0,1,.67,0c.23,0,.49.18.72.11a.19.19,0,0,0,.12-.23c-.12-.3-.49-.35-.79-.39a2.71,2.71,0,0,0-.85.06,2.46,2.46,0,0,0-1.4.94.23.23,0,0,0,.08.31.22.22,0,0,0,.3-.08Z"/><path class="cls-44" d="M94.19,22.9a2.34,2.34,0,0,1,1.15-.54,1.25,1.25,0,0,1,.55.07s0,0,0,0l.1.05.1.05a1.2,1.2,0,0,0,.31.13.21.21,0,0,0,.26-.19.76.76,0,0,0-.55-.64,1.51,1.51,0,0,0-.84-.1,1.94,1.94,0,0,0-.78.31,2.36,2.36,0,0,0-.63.63.19.19,0,0,0,.06.25.19.19,0,0,0,.25,0Z"/><path class="cls-40" d="M53.62,70.5S51.47,94.57,69.22,95c7.54-.27,19.2,15,23.2-12.09"/><path class="cls-41" d="M67.93,43.69c-3.77,1.64-13.45,9.45-15.61,27.47,4.17,2,9.82,5.51,20.58,2.29.27-7.4,0-14.23,0-14.23Z"/><path class="cls-47" d="M65.89,49.79a.75.75,0,0,1-.75.74.75.75,0,0,1,0-1.49A.75.75,0,0,1,65.89,49.79Z"/><path class="cls-47" d="M67,60.32a.74.74,0,0,1-.74.74.75.75,0,1,1,.74-.74Z"/><path class="cls-47" d="M58.67,59.57a.75.75,0,1,1-1.49,0,.75.75,0,0,1,1.49,0Z"/><path class="cls-47" d="M57.1,69a.75.75,0,0,1-.74.75.76.76,0,0,1-.75-.75.75.75,0,0,1,.75-.74A.74.74,0,0,1,57.1,69Z"/><path class="cls-47" d="M75.47,53.08a.75.75,0,0,1-.75.74.74.74,0,0,1-.74-.74.75.75,0,0,1,.74-.75A.76.76,0,0,1,75.47,53.08Z"/><path class="cls-47" d="M79.6,63.73a.74.74,0,0,1-.74.74.75.75,0,0,1-.75-.74.76.76,0,0,1,.75-.75A.75.75,0,0,1,79.6,63.73Z"/><path class="cls-47" d="M86.67,57.37a.75.75,0,0,1-1.49,0,.75.75,0,1,1,1.49,0Z"/><path class="cls-47" d="M104.82,63.57a.75.75,0,0,1-.74.75.76.76,0,0,1-.75-.75.75.75,0,0,1,.75-.74A.74.74,0,0,1,104.82,63.57Z"/><path class="cls-47" d="M92.53,66.63a.74.74,0,0,1-.74.74.75.75,0,0,1-.75-.74.76.76,0,0,1,.75-.75A.75.75,0,0,1,92.53,66.63Z"/><path class="cls-47" d="M112.19,53.82a.75.75,0,1,1-.74-.74A.74.74,0,0,1,112.19,53.82Z"/><path class="cls-47" d="M96.54,61.42a.75.75,0,0,1-.75.74.74.74,0,0,1-.74-.74.75.75,0,0,1,.74-.75A.76.76,0,0,1,96.54,61.42Z"/><path class="cls-47" d="M103.14,91a.74.74,0,0,1-.74.75.75.75,0,1,1,0-1.49A.74.74,0,0,1,103.14,91Z"/><circle class="cls-47" cx="94.72" cy="100.56" r="0.74"/><path class="cls-47" d="M86,96.39a.74.74,0,0,1-.74.74.75.75,0,1,1,.74-.74Z"/><path class="cls-47" d="M75.47,103.05a.76.76,0,0,1-.75.75.75.75,0,0,1-.74-.75.74.74,0,0,1,.74-.74A.75.75,0,0,1,75.47,103.05Z"/><circle class="cls-47" cx="63.89" cy="98.33" r="0.74"/><path class="cls-47" d="M95.77,53.85a.76.76,0,0,1-.75.75.75.75,0,0,1-.74-.75.74.74,0,0,1,.74-.74A.75.75,0,0,1,95.77,53.85Z"/><path class="cls-47" d="M112.94,99.07a.76.76,0,0,1-.75.75.75.75,0,0,1-.74-.75.74.74,0,0,1,.74-.74A.75.75,0,0,1,112.94,99.07Z"/><path class="cls-47" d="M103.89,49.79a.75.75,0,1,1-.75-.75A.74.74,0,0,1,103.89,49.79Z"/><path class="cls-47" d="M115.32,64a.75.75,0,0,1-.75.75.75.75,0,1,1,.75-.75Z"/><path class="cls-47" d="M66.64,74.41a24.41,24.41,0,0,1,.6-6.87,36.63,36.63,0,0,1,2-6.61c-.29,2.3-.75,4.53-1.2,6.77L67.31,71C67.08,72.16,66.83,73.27,66.64,74.41Z"/><path class="cls-47" d="M107.21,60a39.37,39.37,0,0,1,1.55,5.67,38,38,0,0,1,.77,5.84A39.11,39.11,0,0,1,108,65.8,39.1,39.1,0,0,1,107.21,60Z"/><g class="cls-48"><path class="cls-49" d="M66,82.06c.61-1,1.27-1.91,1.94-2.84s1.37-1.83,2.08-2.72,1.45-1.76,2.23-2.6a26.43,26.43,0,0,1,2.43-2.42c-1.4,1.8-2.79,3.6-4.22,5.37-.72.89-1.44,1.77-2.19,2.64S66.83,81.22,66,82.06Z"/></g><path class="cls-50" d="M60.3,66.5h53a2.4,2.4,0,0,1,2.4,2.4v36.5a0,0,0,0,1,0,0H57.91a0,0,0,0,1,0,0V68.89A2.4,2.4,0,0,1,60.3,66.5Z"/><rect class="cls-51" x="57.91" y="105.39" width="57.81" height="1.81"/><path class="cls-51" d="M92.35,86a5.54,5.54,0,1,1-5.54-5.54A5.54,5.54,0,0,1,92.35,86Z"/><path class="cls-52" d="M64.78,125.12a9.48,9.48,0,0,1-1.42-2.89,9.38,9.38,0,0,1-.47-3.19,9.42,9.42,0,0,1,1.42,2.9A9.8,9.8,0,0,1,64.78,125.12Z"/><path class="cls-52" d="M79.59,165.08a21.07,21.07,0,0,1,2.34,2.39c.73.83,1.41,1.69,2.06,2.57a51.77,51.77,0,0,1,3.56,5.57,12,12,0,0,1-2.62-2.13,21.56,21.56,0,0,1-2.15-2.54,24.23,24.23,0,0,1-1.8-2.8A16.29,16.29,0,0,1,79.59,165.08Z"/><path class="cls-43" d="M61.82,108.18s12.58-8.07,18.51-1.06c4.15,4.91,15,53.34,15,53.34"/><path class="cls-43" d="M111.61,108s-12.15-4.3-17.07.44c-3.57,3.45-7.42,17.73-7.42,17.73"/><path class="cls-52" d="M62.68,107.53a27.47,27.47,0,0,1,8.71-3.41,12.59,12.59,0,0,1,4.78-.06,7.73,7.73,0,0,1,4.27,2.37,5.52,5.52,0,0,1,.76,1c.21.35.4.71.57,1.07.35.72.65,1.45,1,2.18.57,1.46,1.08,2.94,1.57,4.42,1,3,1.84,6,2.7,9q2.51,9,4.56,18.1l2,9.11c.6,3.05,1.24,6.1,1.76,9.17-.87-3-1.66-6-2.51-9l-2.42-9-4.84-18Q84.3,120,83,115.55c-.45-1.48-.92-3-1.44-4.4-.25-.73-.52-1.45-.81-2.14a6.49,6.49,0,0,0-1.07-1.88A6.74,6.74,0,0,0,76,104.92a13,13,0,0,0-4.49-.15A29.31,29.31,0,0,0,62.68,107.53Z"/><path class="cls-52" d="M110.42,107.53a69.33,69.33,0,0,0-8.85-.41,18.22,18.22,0,0,0-4.23.59,6.11,6.11,0,0,0-1.79.81A5.15,5.15,0,0,0,94.28,110a28.37,28.37,0,0,0-2,3.82c-.64,1.32-1.19,2.69-1.77,4l-3.35,8.27a66.68,66.68,0,0,1,2.22-8.69A37.66,37.66,0,0,1,93,109.15,5.91,5.91,0,0,1,97,106.33a16.82,16.82,0,0,1,4.61-.38A35.13,35.13,0,0,1,110.42,107.53Z"/><rect class="cls-53" x="145.51" y="142.07" width="25.18" height="11.41"/><polygon class="cls-54" points="177.65 149.57 177.65 150.71 178.64 150.71 178.64 153.47 170.69 153.47 170.69 142.06 178.64 142.06 178.64 149.57 177.65 149.57"/><line class="cls-55" x1="171" y1="146.61" x2="144.72" y2="146.61"/><line class="cls-55" x1="171.24" y1="147.77" x2="144.96" y2="147.77"/><line class="cls-55" x1="171.79" y1="150.14" x2="145.51" y2="150.14"/><line class="cls-55" x1="171.79" y1="152.5" x2="145.51" y2="152.5"/><line class="cls-55" x1="177.68" y1="144.23" x2="151.4" y2="144.23"/><rect class="cls-56" x="178.08" y="145.47" width="1.12" height="1.14"/><rect class="cls-57" x="141.94" y="119.23" width="25.18" height="22.95"/><polygon class="cls-58" points="178.16 134.32 178.16 136.61 179.73 136.61 179.73 142.18 167.12 142.18 167.12 119.23 179.73 119.23 179.73 134.32 178.16 134.32"/><line class="cls-59" x1="167.43" y1="128.38" x2="141.14" y2="128.38"/><line class="cls-59" x1="167.67" y1="130.71" x2="141.39" y2="130.71"/><line class="cls-59" x1="168.22" y1="135.46" x2="141.94" y2="135.46"/><line class="cls-59" x1="168.22" y1="140.22" x2="141.94" y2="140.22"/><line class="cls-59" x1="174.11" y1="123.58" x2="147.82" y2="123.58"/><path class="cls-60" d="M165.06,105.1a9.5,9.5,0,0,1-1.37,4.1,10.39,10.39,0,0,1-2.05,2.29A7.46,7.46,0,0,1,159,113a.13.13,0,0,1-.1-.24,18.47,18.47,0,0,0,2.54-1.57,9.89,9.89,0,0,0,2-2.22,9.15,9.15,0,0,0,1.39-3.89c0-.14.24-.15.22,0Z"/><path class="cls-60" d="M159.31,99.81a11.62,11.62,0,0,0-.76,6.91,12.8,12.8,0,0,0,2.93,5.73c.11.14-.06.32-.19.2a10.66,10.66,0,0,1-3.1-5.94,11.68,11.68,0,0,1,.95-7c.05-.11.22,0,.17.11Z"/><path class="cls-60" d="M150.16,101.83a3.88,3.88,0,0,0-.94,2.62,7.49,7.49,0,0,0,.58,2.47,12.29,12.29,0,0,0,1,2.3,6.4,6.4,0,0,0,1.83,1.8c.82.54,1.73.87,2.59,1.34.18.1,0,.38-.15.34a9.09,9.09,0,0,1-2.54-1.2,7.2,7.2,0,0,1-2-1.84,11.5,11.5,0,0,1-1.13-2.44,8.2,8.2,0,0,1-.63-2.67,4.36,4.36,0,0,1,1.09-2.94c.13-.15.34.07.22.22Z"/><path class="cls-60" d="M151.15,108.77c-.11.15-.31.14-.49.15a3.64,3.64,0,0,1-.66,0,5.14,5.14,0,0,1-1.23-.3,4.2,4.2,0,0,1-2-1.56c-.09-.13.11-.29.22-.17a5,5,0,0,0,1.92,1.41,4.5,4.5,0,0,0,1.15.28,5.12,5.12,0,0,0,.56,0c.17,0,.36-.06.51.05a.09.09,0,0,1,0,.12Z"/><path class="cls-60" d="M155.57,100.52a19,19,0,0,0,1.06,4.39,5.61,5.61,0,0,0,2.19,3.14.15.15,0,0,1-.11.27,2.46,2.46,0,0,1-1.35-1.07,8.55,8.55,0,0,1-1-2,17.53,17.53,0,0,1-1-4.7c0-.15.21-.14.23,0Z"/><path class="cls-60" d="M169.37,103.84a5.53,5.53,0,0,1-1.82,3.5,5.45,5.45,0,0,1-1.76,1,3.76,3.76,0,0,1-2,.2.1.1,0,0,1,0-.19,12.51,12.51,0,0,0,1.81-.33,5.19,5.19,0,0,0,3.55-4.23c0-.12.22-.09.21,0Z"/><path class="cls-61" d="M147.21,110.25H167a28.62,28.62,0,0,1,1.6,4.88c0,1-2.18,2.94-4.54,2.94H150.14c-2.35,0-4.54-2-4.54-2.94S147.21,110.25,147.21,110.25Z"/><polygon class="cls-61" points="149.31 119.08 164.9 119.08 164.36 118.07 149.86 118.07 149.31 119.08"/><path class="cls-62" d="M162.59,115.13a28.62,28.62,0,0,0-1.6-4.88h6a28.62,28.62,0,0,1,1.6,4.88c0,1-2.18,2.94-4.54,2.94h-6C160.41,118.07,162.59,116.09,162.59,115.13Z"/><polygon class="cls-62" points="164.36 118.07 164.9 119.08 158.88 119.08 158.34 118.07 164.36 118.07"/><path class="cls-63" d="M157.85,103a3.52,3.52,0,0,0-3.41-.24,5.15,5.15,0,0,0-2.46,4,12,12,0,0,0,3.27.32C159,106.8,158.68,103.64,157.85,103Z"/><path class="cls-63" d="M148.82,101a2.42,2.42,0,0,0-2.34-.27,3.55,3.55,0,0,0-1.82,2.71,8.91,8.91,0,0,0,2.24.32C149.47,103.66,149.38,101.47,148.82,101Z"/><path class="cls-63" d="M149.64,99.69a1.63,1.63,0,0,1,1.61.12,2.47,2.47,0,0,1,.88,2.08,5.75,5.75,0,0,1-1.55-.08C148.86,101.42,149.2,100,149.64,99.69Z"/><path class="cls-63" d="M167.25,101.55a2.15,2.15,0,0,1,1.25-.19,1.66,1.66,0,0,1,1.13.78,1.74,1.74,0,0,1,.15,1.52,1.56,1.56,0,0,1-1.31.78c-1,.13-2.23-.68-3.24-1A4.3,4.3,0,0,1,167.25,101.55Z"/><path class="cls-63" d="M164.62,104.19a1.37,1.37,0,0,1,.73,1.13,1.23,1.23,0,0,1-1.23,1c-.58,0-2.66-.54-3.54-.08C162.12,103.29,163.67,103.58,164.62,104.19Z"/><path class="cls-63" d="M147.16,105.21a1.25,1.25,0,0,1,.73.85,1,1,0,0,1-.74,1c-.42.11-2-.07-2.6.45C144.55,105.32,146.36,104.84,147.16,105.21Z"/><path class="cls-63" d="M158.17,108.09c-.47-.14-2.26-.29-3,.67-1.35,1.77-.19,3.29,0,3.83a10.92,10.92,0,0,0,2.76-.79C160.82,110.4,159.78,108.34,158.17,108.09Z"/><path class="cls-63" d="M164.64,108.4a2.51,2.51,0,0,1,2.49.81,4.56,4.56,0,0,1,.48,3.87,8.76,8.76,0,0,1-2.42-.71C162.66,111.06,163.84,108.67,164.64,108.4Z"/><path class="cls-63" d="M159.92,99.59a1.41,1.41,0,0,0-1,.78,1.14,1.14,0,0,0,.6,1.36c.45.23,2.34.43,2.86,1.16C162.27,99.65,160.92,99.37,159.92,99.59Z"/><g class="cls-64"><path class="cls-63" d="M169.86,102.78a9,9,0,0,0-2.37.11,11.27,11.27,0,0,0-2.2.7c-.06,0-.09-.07,0-.1a8,8,0,0,1,4.61-.8c.06,0,.06.09,0,.09Z"/><path class="cls-63" d="M169.31,102.41a4.17,4.17,0,0,0-1.79-.18,4.27,4.27,0,0,0-.86.19c-.29.1-.55.25-.84.36,0,0-.09-.06,0-.09a2.31,2.31,0,0,1,.79-.42,4,4,0,0,1,.91-.2,3.82,3.82,0,0,1,1.86.26s0,.1,0,.08Z"/><path class="cls-63" d="M169.61,103a1.59,1.59,0,0,1-1.33.85,4.15,4.15,0,0,1-1.95-.1.08.08,0,0,1,0-.16,4.86,4.86,0,0,0,1.7.13c.52-.06,1.22-.18,1.44-.75,0-.05.11,0,.09,0Z"/><path class="cls-63" d="M164.9,104.65a3.16,3.16,0,0,0-2.36-.07,3.07,3.07,0,0,0-.94.58,5.65,5.65,0,0,0-.69.86s-.1,0-.09,0a2.85,2.85,0,0,1,1.63-1.53,3.09,3.09,0,0,1,2.49.11s0,.1,0,.08Z"/><path class="cls-63" d="M164.72,104.85a11.69,11.69,0,0,0-1.87.38c-.6.17-1.16.42-1.75.63,0,0,0,0,0,0a7,7,0,0,1,1.77-.71,10.62,10.62,0,0,1,1.87-.34c.05,0,.05.09,0,.09Z"/><path class="cls-63" d="M165.13,105.19a6.63,6.63,0,0,1-1.89.78,8,8,0,0,1-1,.15,3.48,3.48,0,0,1-1,0c-.08,0-.05-.13,0-.13.33,0,.67,0,1,0a7.8,7.8,0,0,0,1-.13,7.17,7.17,0,0,0,1.86-.69,0,0,0,0,1,0,.06Z"/><path class="cls-63" d="M162.2,102.76a7,7,0,0,0-1.22-1.5,6.26,6.26,0,0,0-.76-.6c-.13-.09-.26-.18-.4-.26a1.77,1.77,0,0,1-.4-.24s0-.14.06-.13a1.18,1.18,0,0,1,.41.19l.43.27a6.61,6.61,0,0,1,.77.63,6,6,0,0,1,.67.75,5.69,5.69,0,0,1,.52.85,0,0,0,1,1-.08,0Z"/><path class="cls-63" d="M161,102.21a4.38,4.38,0,0,1-1.28-.76,3.32,3.32,0,0,1-.91-1.19.07.07,0,0,1,.12-.05c.14.19.25.4.4.59a4.88,4.88,0,0,0,.48.53,4,4,0,0,0,1.21.8c.05,0,0,.1,0,.08Z"/><path class="cls-63" d="M162.17,102a2.83,2.83,0,0,0-.91-1.43,2.63,2.63,0,0,0-.79-.47A3,3,0,0,0,160,100c-.15,0-.3,0-.45-.06s-.07-.13,0-.14a2,2,0,0,1,.94.17,2.56,2.56,0,0,1,.81.48,2.86,2.86,0,0,1,.93,1.55c0,.06-.09.09-.1,0Z"/><path class="cls-63" d="M151.9,101.94a4.94,4.94,0,0,0-.43-.59,6,6,0,0,0-.49-.52,4,4,0,0,0-.57-.45,1.75,1.75,0,0,0-.29-.18,1.12,1.12,0,0,1-.29-.19.08.08,0,0,1,.07-.12.83.83,0,0,1,.32.14l.31.2a4.32,4.32,0,0,1,.57.47,4.44,4.44,0,0,1,.5.56,4.06,4.06,0,0,1,.38.63,0,0,0,0,1-.08,0Z"/><path class="cls-63" d="M151.05,101.53a3.1,3.1,0,0,1-1-.56,3,3,0,0,1-.39-.41,1.64,1.64,0,0,1-.28-.48s.06-.11.1-.06.2.29.3.43a3.42,3.42,0,0,0,.36.4,3,3,0,0,0,.89.6c.05,0,0,.1,0,.08Z"/><path class="cls-63" d="M151.87,101.35a2,2,0,0,0-.67-1,1.88,1.88,0,0,0-.58-.34,1.58,1.58,0,0,0-.31-.09c-.11,0-.23,0-.34-.05s-.06-.12,0-.13a1.32,1.32,0,0,1,.71.12,1.89,1.89,0,0,1,.61.36,2,2,0,0,1,.68,1.15.05.05,0,1,1-.1,0Z"/><path class="cls-63" d="M167.43,112.81a12,12,0,0,0-1.47-2.24,11.25,11.25,0,0,0-.87-1c-.32-.31-.68-.58-1-.91a.06.06,0,0,1,.07-.09,5,5,0,0,1,1,.83,10.17,10.17,0,0,1,.93,1,12,12,0,0,1,1.41,2.29c0,.06-.06.11-.08,0Z"/><path class="cls-63" d="M167.59,112.85a3.75,3.75,0,0,0-1.74-3.84,4.35,4.35,0,0,0-.65-.32c-.22-.08-.44-.12-.65-.2a.06.06,0,0,1,0-.12,2.84,2.84,0,0,1,1.36.49,3.89,3.89,0,0,1,1.07,1,4,4,0,0,1,.7,3c0,.07-.12,0-.11,0Z"/><path class="cls-63" d="M167.27,112.8a3.79,3.79,0,0,1-3.17-2.26,2.72,2.72,0,0,1-.27-1.32s.09-.07.1,0a9.72,9.72,0,0,0,.3,1.21,3.87,3.87,0,0,0,.72,1.14,3.65,3.65,0,0,0,2.32,1.12c.07,0,.07.12,0,.12Z"/><path class="cls-63" d="M158.82,108.49a5.33,5.33,0,0,0-2.65,2.59,5.89,5.89,0,0,0-.24.58c-.07.2-.11.42-.18.62,0,0-.1,0-.09,0a3.69,3.69,0,0,1,.37-1.21,5.33,5.33,0,0,1,.7-1.11,5.14,5.14,0,0,1,2.06-1.54s.08.06,0,.08Z"/><path class="cls-63" d="M158.61,108.58a5.8,5.8,0,0,0-2.48.8,2.37,2.37,0,0,0-.8.92,2.49,2.49,0,0,0-.2.6c0,.21,0,.42,0,.63s-.1.09-.12,0a2.05,2.05,0,0,1,.16-1.22,2.47,2.47,0,0,1,.76-1,5.37,5.37,0,0,1,2.7-.85c.05,0,.06.09,0,.09Z"/><path class="cls-63" d="M158.72,108.84a2,2,0,0,1-.56,1.92,3.85,3.85,0,0,1-.86.64,4,4,0,0,1-.51.24,3.52,3.52,0,0,1-.62.22s-.07-.06,0-.09a4.3,4.3,0,0,1,.48-.24l.49-.25a3.4,3.4,0,0,0,.83-.57,1.93,1.93,0,0,0,.68-1.84.05.05,0,0,1,.1,0Z"/><path class="cls-63" d="M158,103.59c.08,1.14-.91,1.89-1.82,2.34a6.64,6.64,0,0,1-3.43.77c-.06,0-.06-.08,0-.09a12.39,12.39,0,0,0,1.61-.18,8,8,0,0,0,1.59-.52c.95-.44,2-1.15,2-2.32,0,0,0,0,0,0Z"/><path class="cls-63" d="M157.52,103.89a22.68,22.68,0,0,1-2.51,1.6,17.29,17.29,0,0,1-2.62,1.22.05.05,0,0,1,0-.1c.89-.39,1.79-.76,2.65-1.23a24.52,24.52,0,0,0,2.49-1.54s.07,0,0,0Z"/><path class="cls-63" d="M157.48,103.53a8.62,8.62,0,0,0-2.85,1.06,8,8,0,0,0-1.24.92,6.47,6.47,0,0,0-.53.52,7,7,0,0,1-.52.58.07.07,0,0,1-.11-.09,4.47,4.47,0,0,1,1.05-1.12,8.42,8.42,0,0,1,1.25-.9,7.87,7.87,0,0,1,2.93-1s.07.07,0,.08Z"/><path class="cls-63" d="M157.25,103a5.31,5.31,0,0,0-3.43.69,3.8,3.8,0,0,0-1.12,1.27,5.32,5.32,0,0,0-.48,1.71c0,.06-.09,0-.09,0a3.56,3.56,0,0,1,1.51-3,5,5,0,0,1,3.61-.71,0,0,0,0,1,0,.09Z"/><path class="cls-63" d="M149.1,101.52c0,.81-.74,1.28-1.4,1.55a4.75,4.75,0,0,1-2.6.37,0,0,0,0,1,0-.08c.38,0,.77,0,1.15,0a5.84,5.84,0,0,0,1.17-.27c.71-.24,1.55-.67,1.62-1.52a0,0,0,0,1,0,0Z"/><path class="cls-63" d="M148.75,101.72a15.71,15.71,0,0,1-1.91,1,10.82,10.82,0,0,1-2,.72.05.05,0,1,1,0-.1c.33-.12.67-.21,1-.33s.67-.25,1-.4a19,19,0,0,0,1.86-.93s.07,0,0,0Z"/><path class="cls-63" d="M148.73,101.47a6.59,6.59,0,0,0-2.17.62,5.75,5.75,0,0,0-.89.55,5.54,5.54,0,0,0-.45.37,2.64,2.64,0,0,1-.39.36c-.06,0-.13,0-.1-.1a2.83,2.83,0,0,1,.81-.73,7.21,7.21,0,0,1,1-.59,5.87,5.87,0,0,1,2.18-.57c.05,0,.05.08,0,.09Z"/><path class="cls-63" d="M148.6,101.06a4,4,0,0,0-2.54.32,2.41,2.41,0,0,0-.86.82,4,4,0,0,0-.44,1.16s-.09,0-.1,0a2,2,0,0,1,.37-1.2,2.65,2.65,0,0,1,.89-.87,3.79,3.79,0,0,1,2.69-.3s0,.1,0,.09Z"/><path class="cls-63" d="M147.87,106.17a1.32,1.32,0,0,1-1.09.66,6,6,0,0,0-1.11.14,4.28,4.28,0,0,0-1.07.48s0,0,0,0a3.33,3.33,0,0,1,1.83-.67,2.1,2.1,0,0,0,1-.2,1.29,1.29,0,0,0,.44-.43s.07,0,.05,0Z"/><path class="cls-63" d="M147.63,105.88a3.64,3.64,0,0,0-1.65.39,4,4,0,0,0-.7.46l-.3.28c-.09.11-.18.23-.28.33s0,0,0,0a2.28,2.28,0,0,1,.59-.65,4.16,4.16,0,0,1,.71-.47,3.48,3.48,0,0,1,1.67-.39,0,0,0,0,1,0,.08Z"/><path class="cls-63" d="M147.28,105.67a1.94,1.94,0,0,0-1.66.17,1.87,1.87,0,0,0-.57.55,6.21,6.21,0,0,0-.31.7s-.07,0-.07,0a1.33,1.33,0,0,1,.3-.75,2.13,2.13,0,0,1,.59-.57,2,2,0,0,1,1.74-.15s0,.09,0,.07Z"/></g><path class="cls-63" d="M169,104.88a3,3,0,0,1,3.1-.24,6,6,0,0,1,2.43,4.2,11.23,11.23,0,0,1-3.17.16C168,108.7,168.26,105.54,169,104.88Z"/><path class="cls-63" d="M150.31,101.32a2.29,2.29,0,0,1,2.41.07,4.12,4.12,0,0,1,1.41,3.3,7.84,7.84,0,0,1-2.32,0C149.23,104.19,149.67,101.77,150.31,101.32Z"/><path class="cls-63" d="M155.86,100.11a1.24,1.24,0,0,1-.66.92,1,1,0,0,1-1.16-.49c-.2-.39-.4-2-1-2.46C155.16,97.57,156,99.24,155.86,100.11Z"/><path class="cls-63" d="M150.89,108.26c-.38-.22-1.91-.73-2.78-.09-1.6,1.18-.93,2.7-.93,3.18a10.85,10.85,0,0,0,2.61-.06C152.68,110.76,152.24,108.81,150.89,108.26Z"/><g class="cls-64"><path class="cls-63" d="M174.32,108.74a9.87,9.87,0,0,1-2.06-1.7,8.54,8.54,0,0,0-1.19-1c-.51-.33-1.09-.52-1.63-.82-.07,0,0-.12.05-.12a4.42,4.42,0,0,1,1.62.74,8.83,8.83,0,0,1,1.17.95,11,11,0,0,0,2.11,1.8.07.07,0,0,1-.07.12Z"/><path class="cls-63" d="M174.32,108.49a22.21,22.21,0,0,0-1.76-2.44,3.27,3.27,0,0,0-1.22-.83,3.42,3.42,0,0,0-.82-.17,7.79,7.79,0,0,1-1,0,.1.1,0,0,1,0-.19,2.68,2.68,0,0,1,1.87.08,3.28,3.28,0,0,1,1.29.84,13.61,13.61,0,0,1,1.71,2.71,0,0,0,0,1-.07,0Z"/><path class="cls-63" d="M173.69,108.86a12.67,12.67,0,0,1-2.22-.24,3.85,3.85,0,0,1-1.84-.76,2.49,2.49,0,0,1-.71-1.3,1.89,1.89,0,0,1,0-1.08.1.1,0,0,1,.18,0c.06.31,0,.63.11,1a2.15,2.15,0,0,0,.61,1.24,3.73,3.73,0,0,0,1.77.71,13.23,13.23,0,0,0,2.08.32.07.07,0,0,1,0,.14Z"/><path class="cls-63" d="M174.13,108.78c-1-.32-2-.52-2.95-.89a2.59,2.59,0,0,1-1.17-.84,6.92,6.92,0,0,1-.42-.68,7.79,7.79,0,0,1-.39-.76c0-.06.07-.12.11-.07a4.66,4.66,0,0,1,.4.68,4.2,4.2,0,0,0,.46.67,3.42,3.42,0,0,0,1.21.84c.9.39,1.86.59,2.79.93.07,0,0,.15,0,.12Z"/><path class="cls-63" d="M155.21,100.58a7.31,7.31,0,0,0-.75-1.27c-.14-.19-.3-.36-.45-.54a3.52,3.52,0,0,0-.57-.52s0-.1.06-.07.41.3.6.47a3.45,3.45,0,0,1,.52.56,4,4,0,0,1,.65,1.35s0,0-.06,0Z"/><path class="cls-63" d="M155,101c-.45,0-.62-.56-.78-.9s-.22-.46-.32-.69l-.16-.35c-.05-.12-.08-.26-.12-.38s.06-.11.09-.06l.19.29c0,.09.09.21.14.31l.27.61.27.59c.09.2.21.41.44.44s.07.14,0,.14Z"/><path class="cls-63" d="M155.35,100.52a2.31,2.31,0,0,0-.53-1.58,3.26,3.26,0,0,0-1.27-.8s0-.09,0-.09a1.91,1.91,0,0,1,1.41.76,2.4,2.4,0,0,1,.53,1.73c0,.1-.15.08-.15,0Z"/><path class="cls-63" d="M153.84,104.62c-.6-.4-1.18-.82-1.76-1.26l-.85-.65a6.16,6.16,0,0,1-.82-.63s0-.06,0,0a3.93,3.93,0,0,1,.84.55l.86.65c.58.45,1.15.91,1.74,1.33,0,0,0,.08,0,.06Z"/><path class="cls-63" d="M153.55,104.57a4.61,4.61,0,0,1-2-.82,4.35,4.35,0,0,1-.79-.69,2,2,0,0,1-.5-.81s.05-.08.09,0,.12.25.2.37a2.86,2.86,0,0,0,.3.41,4.68,4.68,0,0,0,2.74,1.53s0,0,0,0Z"/><path class="cls-63" d="M153.88,104.45a5.63,5.63,0,0,0-1.25-1.58,4.93,4.93,0,0,0-.88-.61c-.32-.18-.66-.26-1-.41-.05,0,0-.09,0-.09a2.35,2.35,0,0,1,1,.35,4.76,4.76,0,0,1,.91.63,5.31,5.31,0,0,1,1.29,1.65c0,.07-.07.13-.1.06Z"/><path class="cls-63" d="M153.29,104.62a4.35,4.35,0,0,1-2.32-.46c-.58-.35-1.23-1-.83-1.75,0,0,.1,0,.08,0-.28.77.34,1.37,1,1.71a4.76,4.76,0,0,0,2.11.4,0,0,0,0,1,0,.06Z"/><path class="cls-63" d="M154,104.2a5.55,5.55,0,0,0-.63-1.51,2.18,2.18,0,0,0-.35-.45,3.1,3.1,0,0,0-.57-.37,2.85,2.85,0,0,0-.7-.28,1.67,1.67,0,0,0-.39,0c-.14,0-.28,0-.42,0s-.09-.11,0-.13a1.39,1.39,0,0,1,.64,0,2.36,2.36,0,0,1,.58.15,3.34,3.34,0,0,1,1,.57,3.62,3.62,0,0,1,.88,1.59,4.05,4.05,0,0,1,.12.47.05.05,0,1,1-.1,0Z"/><path class="cls-63" d="M150.48,108.44a10.42,10.42,0,0,0-1.67,1.28c-.25.23-.48.47-.7.71l-.34.38a5.2,5.2,0,0,1-.38.44s-.09,0-.06,0a3.29,3.29,0,0,1,.34-.42c.12-.13.23-.26.36-.39s.48-.51.73-.75a9.9,9.9,0,0,1,1.69-1.26s.06,0,0,.06Z"/><path class="cls-63" d="M150.33,108.35a4,4,0,0,0-2,1,3.38,3.38,0,0,0-.62.79,3.06,3.06,0,0,0-.22.49c-.06.16-.1.32-.17.47a0,0,0,0,1-.08,0,2.41,2.41,0,0,1,.36-1,3.14,3.14,0,0,1,.67-.83,3.71,3.71,0,0,1,2.06-.93s.05,0,0,.06Z"/><path class="cls-63" d="M150,108.26a2.7,2.7,0,0,0-2.1.65,1.63,1.63,0,0,0-.48.78,2.46,2.46,0,0,0-.08.46,2.85,2.85,0,0,1,0,.51.05.05,0,0,1-.1,0,2.54,2.54,0,0,1,0-.55,2.81,2.81,0,0,1,.09-.49,1.72,1.72,0,0,1,.53-.82,2.65,2.65,0,0,1,2.18-.6,0,0,0,0,1,0,.06Z"/><path class="cls-63" d="M150.59,108.42a.76.76,0,0,1,0,1,3.48,3.48,0,0,1-.86.81,7.17,7.17,0,0,1-1.12.69,3.64,3.64,0,0,1-1.15.39c-.07,0-.07-.1,0-.12.33-.12.66-.22,1-.37a6.83,6.83,0,0,0,1-.56c.46-.3,1.64-1.08,1.11-1.75,0,0,0-.1.06-.06Z"/><path class="cls-63" d="M150.94,108.55a.92.92,0,0,1,.47.91,1.5,1.5,0,0,1-.64,1,4.05,4.05,0,0,1-1.27.62,4,4,0,0,1-.76.16,2,2,0,0,1-.69,0,.06.06,0,0,1,0-.12,5.73,5.73,0,0,1,.58-.07c.21,0,.41-.06.62-.11a5,5,0,0,0,1.16-.46,1.72,1.72,0,0,0,.83-.85.85.85,0,0,0-.34-1.06s0-.09,0-.06Z"/></g><path class="cls-65" d="M92.65,29.15a.59.59,0,0,0,.27-.17c.23-.26.19-.71-.12-1.19L92,26.15a.12.12,0,0,0-.17-.06.14.14,0,0,0-.06.18l.86,1.65c.29.46.27.75.15.89a.53.53,0,0,1-.61,0,.14.14,0,0,0-.18.05.12.12,0,0,0,0,.17A1,1,0,0,0,92.65,29.15Z"/></g></g></svg>