<svg xmlns="http://www.w3.org/2000/svg" xmlns:xlink="http://www.w3.org/1999/xlink" viewBox="0 0 212 212"><defs><style>.cls-1{fill:none;}.cls-2{isolation:isolate;}.cls-3{fill:#ffcc2c;}.cls-4{clip-path:url(#clip-path);}.cls-5{fill:#f7941d;}.cls-6{fill:#1b75bc;}.cls-7{fill:#23b2e7;}.cls-8{fill:#4d4d4e;}.cls-9{fill:#353535;}.cls-10{fill:#011e35;}.cls-11{fill:#414042;}.cls-12{fill:#58595b;}.cls-13{fill:url(#linear-gradient);}.cls-14{fill:#fac7a8;}.cls-15,.cls-17{fill:#e0e8e6;}.cls-16{fill:#febf30;}.cls-17,.cls-21,.cls-23{mix-blend-mode:multiply;}.cls-18{fill:#f8a577;}.cls-19{fill:#00ade5;}.cls-20{fill:url(#linear-gradient-2);}.cls-22,.cls-23{fill:#2b3990;}</style><clipPath id="clip-path"><rect class="cls-1" width="212" height="212"/></clipPath><linearGradient id="linear-gradient" x1="44.28" y1="196.05" x2="44.28" y2="96.63" gradientTransform="matrix(-1, 0, 0, 1, 104.91, 0)" gradientUnits="userSpaceOnUse"><stop offset="0.01" stop-color="#cececd"/><stop offset="0.99" stop-color="#fff"/></linearGradient><linearGradient id="linear-gradient-2" x1="49.18" y1="196.05" x2="49.18" y2="96.63" xlink:href="#linear-gradient"/></defs><title>Artboard 2</title><g class="cls-2"><g id="Layer_1" data-name="Layer 1"><rect class="cls-3" width="212" height="212"/><g class="cls-4"><circle class="cls-5" cx="106" cy="201.4" r="106.58"/></g><path class="cls-6" d="M154,68.35a.78.78,0,0,0,.67-.37.8.8,0,0,0,.1-.6.78.78,0,0,0-.36-.49l-20-12.25a.75.75,0,0,0-.41-.12.76.76,0,0,0-.67.38.75.75,0,0,0-.1.6.81.81,0,0,0,.36.49l20,12.25A.81.81,0,0,0,154,68.35Z"/><path class="cls-6" d="M134,80.6a.84.84,0,0,0,.41-.11l20-12.25a.81.81,0,0,0,.36-.49.8.8,0,0,0-.77-1,.82.82,0,0,0-.41.12l-20,12.25a.81.81,0,0,0-.36.49.75.75,0,0,0,.1.6A.78.78,0,0,0,134,80.6Z"/><path class="cls-6" d="M154,92.86a.8.8,0,0,0,.77-1,.81.81,0,0,0-.36-.49l-20-12.25A.84.84,0,0,0,134,79a.78.78,0,0,0-.67.37.75.75,0,0,0-.1.6.81.81,0,0,0,.36.49l20,12.25A.82.82,0,0,0,154,92.86Z"/><path class="cls-6" d="M134,105.11a.75.75,0,0,0,.41-.12l20-12.25a.78.78,0,0,0,.36-.49.8.8,0,0,0-.1-.6.78.78,0,0,0-.67-.37.81.81,0,0,0-.41.11l-20,12.26a.76.76,0,0,0-.36.48.75.75,0,0,0,.1.6A.76.76,0,0,0,134,105.11Z"/><path class="cls-6" d="M154,117.36a.76.76,0,0,0,.67-.38.77.77,0,0,0-.26-1.08l-20-12.25a.75.75,0,0,0-.41-.12.76.76,0,0,0-.67.38.72.72,0,0,0-.1.59.78.78,0,0,0,.36.49l20,12.25A.73.73,0,0,0,154,117.36Z"/><path class="cls-6" d="M134,129.61a.78.78,0,0,0,.41-.12l20-12.25a.78.78,0,0,0,.36-.49.8.8,0,0,0-.77-1,.73.73,0,0,0-.41.12l-20,12.25a.78.78,0,0,0-.36.49.8.8,0,0,0,.77,1Z"/><path class="cls-6" d="M154,141.86a.8.8,0,0,0,.77-1,.78.78,0,0,0-.36-.49l-20-12.25A.78.78,0,0,0,134,128a.8.8,0,0,0-.77,1,.78.78,0,0,0,.36.49l20,12.25A.73.73,0,0,0,154,141.86Z"/><path class="cls-6" d="M134,154.11a.75.75,0,0,0,.41-.12l20-12.25a.77.77,0,0,0,.26-1.08.76.76,0,0,0-.67-.38.73.73,0,0,0-.41.12l-20,12.25a.78.78,0,0,0-.36.49.72.72,0,0,0,.1.59A.76.76,0,0,0,134,154.11Z"/><path class="cls-6" d="M154,166.36a.78.78,0,0,0,.67-.37.79.79,0,0,0,.1-.6.81.81,0,0,0-.36-.49l-20-12.25a.75.75,0,0,0-.41-.12.76.76,0,0,0-.67.38.75.75,0,0,0-.1.6.81.81,0,0,0,.36.49l20,12.25A.81.81,0,0,0,154,166.36Z"/><path class="cls-6" d="M134,178.61a.87.87,0,0,0,.41-.11l20-12.25a.81.81,0,0,0,.36-.49.8.8,0,0,0-.77-1,.82.82,0,0,0-.41.12l-20,12.25a.78.78,0,0,0-.36.49.75.75,0,0,0,.1.6A.78.78,0,0,0,134,178.61Z"/><path class="cls-6" d="M154,190.87a.8.8,0,0,0,.77-1,.81.81,0,0,0-.36-.49l-20-12.25A.84.84,0,0,0,134,177a.78.78,0,0,0-.67.37.75.75,0,0,0-.1.6.81.81,0,0,0,.36.49l20,12.25A.73.73,0,0,0,154,190.87Z"/><path class="cls-6" d="M134,203.12a.78.78,0,0,0,.41-.12l20-12.25a.79.79,0,0,0-.41-1.46.81.81,0,0,0-.41.11l-20,12.25a.81.81,0,0,0-.36.49.75.75,0,0,0,.1.6A.76.76,0,0,0,134,203.12Z"/><rect class="cls-6" x="143.12" y="69.15" width="1.7" height="21.45" rx="0.66" transform="translate(223.84 -64.09) rotate(90)"/><rect class="cls-6" x="143.12" y="81.31" width="1.7" height="21.45" rx="0.66" transform="translate(236 -51.93) rotate(90)"/><rect class="cls-6" x="143.12" y="56.99" width="1.7" height="21.45" rx="0.66" transform="translate(211.69 -76.24) rotate(90)"/><rect class="cls-6" x="143.12" y="93.59" width="1.7" height="21.45" rx="0.66" transform="translate(248.28 -39.65) rotate(90)"/><rect class="cls-6" x="143.12" y="105.75" width="1.7" height="21.45" rx="0.66" transform="translate(260.44 -27.49) rotate(90)"/><rect class="cls-6" x="143.11" y="118.03" width="1.7" height="21.45" rx="0.66" transform="translate(272.72 -15.21) rotate(90)"/><rect class="cls-6" x="143.12" y="130.54" width="1.7" height="21.45" rx="0.66" transform="translate(285.23 -2.7) rotate(90)"/><rect class="cls-6" x="143.12" y="142.47" width="1.7" height="21.45" rx="0.66" transform="translate(297.16 9.23) rotate(90)"/><rect class="cls-6" x="143.11" y="154.98" width="1.7" height="21.45" rx="0.66" transform="translate(309.67 21.74) rotate(90)"/><rect class="cls-6" x="143.12" y="166.91" width="1.7" height="21.45" rx="0.66" transform="translate(321.6 33.67) rotate(90)"/><rect class="cls-6" x="143.12" y="179.53" width="1.7" height="21.45" rx="0.66" transform="translate(334.23 46.3) rotate(90)"/><rect class="cls-6" x="143.12" y="191.35" width="1.7" height="21.45" rx="0.66" transform="translate(346.04 58.11) rotate(90)"/><rect class="cls-6" x="140.72" y="41.98" width="6.63" height="19.2" rx="0.66" transform="translate(195.61 -92.44) rotate(90)"/><rect class="cls-7" x="77.84" y="128.39" width="152.38" height="2.91" rx="1.33" transform="translate(283.88 -24.18) rotate(90)"/><rect class="cls-7" x="57.84" y="128.39" width="152.38" height="2.91" rx="1.33" transform="translate(263.87 -4.18) rotate(90)"/><rect class="cls-7" x="141.71" y="44.52" width="4.64" height="22.91" rx="1.33" transform="translate(200 -88.05) rotate(90)"/><rect class="cls-6" x="139.18" y="173.86" width="10.08" height="66.21" rx="0.66" transform="translate(351.18 62.74) rotate(90)"/><path class="cls-8" d="M145.75,7.55a.31.31,0,0,1,.44-.08l57.23,39.91-.48.44L145.83,8A.31.31,0,0,1,145.75,7.55Z"/><path class="cls-8" d="M46,48.44a.35.35,0,0,0,.22-.08l13-11.71L142,8a.31.31,0,0,0,.2-.4.32.32,0,0,0-.41-.2L58.89,36.07a.41.41,0,0,0-.11.07L46,47.69,33.19,36.18a.32.32,0,1,0-.43.47l13,11.71A.34.34,0,0,0,46,48.44Z"/><path class="cls-7" d="M46,49.14a1,1,0,0,0,.68-.26L59.53,37.26a.73.73,0,0,0,.24-.53.74.74,0,0,0-.25-.52c-.16-.15-.33-.29-.5-.43a.69.69,0,0,0-.92,0L46,46.75,33.65,35.66a1,1,0,0,0-.68-.27,1,1,0,0,0-.75.34,1,1,0,0,0-.26.74,1,1,0,0,0,.33.7l13,11.71A1,1,0,0,0,46,49.14Z"/><path class="cls-6" d="M136.13,36.78a.83.83,0,0,0,.81-.66l5.61-27.56h2.76L150,36.09a.83.83,0,0,0,.82.69h.13a.85.85,0,0,0,.54-.34.79.79,0,0,0,.14-.61L146.83,7.59A.84.84,0,0,0,146,6.9h-4.13a.83.83,0,0,0-.81.66l-5.75,28.23a.84.84,0,0,0,.12.62.78.78,0,0,0,.53.35A.44.44,0,0,0,136.13,36.78Z"/><path class="cls-6" d="M138.94,22.83a.66.66,0,0,0,.44-.17l8.28-7.3a.67.67,0,0,0,.06-.94.67.67,0,0,0-.95-.06l-8.27,7.3a.64.64,0,0,0-.23.46.66.66,0,0,0,.17.48A.67.67,0,0,0,138.94,22.83Z"/><path class="cls-6" d="M148.45,22.83a.68.68,0,0,0,.49-.22.69.69,0,0,0,0-.95l-8-7.29a.66.66,0,0,0-.45-.18.68.68,0,0,0-.5.22.65.65,0,0,0-.17.48.62.62,0,0,0,.22.46l8,7.3A.67.67,0,0,0,148.45,22.83Z"/><path class="cls-9" d="M90.32,104.23a2.56,2.56,0,0,0,2.56-2.56.48.48,0,1,0-.95,0,1.61,1.61,0,1,1-1.61-1.61.49.49,0,0,0,.48-.48V98.25a.48.48,0,1,0-1,0v.9a2.56,2.56,0,0,0,.48,5.08Z"/><path class="cls-6" d="M96,50.19a1.56,1.56,0,0,0,1.56-1.57.35.35,0,0,0-.35-.35H83.41a.35.35,0,0,0-.35.35,1.57,1.57,0,0,0,1.57,1.57Z"/><path class="cls-8" d="M92.07,88.25a.33.33,0,0,0,.32-.32V51a.32.32,0,0,0-.32-.31.31.31,0,0,0-.32.31v37A.32.32,0,0,0,92.07,88.25Z"/><path class="cls-8" d="M88.57,88.25a.32.32,0,0,0,.32-.32V51a.32.32,0,0,0-.63,0v37A.32.32,0,0,0,88.57,88.25Z"/><rect class="cls-7" x="95.51" y="-35.27" width="2.41" height="166.78" rx="1.12" transform="translate(144.84 -48.6) rotate(90)"/><rect class="cls-7" x="94.28" y="-30.77" width="2.24" height="134.28" rx="1.12" transform="translate(131.78 -59.03) rotate(90)"/><path class="cls-7" d="M173.58,49.32a.65.65,0,0,0,.27,0,.7.7,0,0,0,.43-.65v-1a.7.7,0,0,0-.2-.5L162.34,35.46a.7.7,0,0,0-.5-.21.66.66,0,0,0-.27.06.7.7,0,0,0-.43.64v.84a.72.72,0,0,0,.2.5l11.74,11.83A.74.74,0,0,0,173.58,49.32Z"/><polygon class="cls-7" points="161.84 35.95 173.58 47.62 173.58 48.62 161.84 36.79 161.84 35.95"/><path class="cls-7" d="M14,49.32a.73.73,0,0,0,.44-.15L29.4,37.34a.69.69,0,0,0,.27-.55V36a.72.72,0,0,0-.4-.63.78.78,0,0,0-.3-.07.71.71,0,0,0-.44.15L13.6,47.06a.72.72,0,0,0-.27.56v1a.69.69,0,0,0,.39.63A.7.7,0,0,0,14,49.32Z"/><path class="cls-7" d="M148.83,49.14a1,1,0,0,0,.68-.26l11.31-10.21v8.95a1,1,0,0,0,2,0V36.37a1,1,0,0,0-.6-.93,1.06,1.06,0,0,0-.42-.09,1,1,0,0,0-.68.27L148.83,46.75,136.5,35.66a1,1,0,0,0-.68-.27,1,1,0,0,0-.76.34,1,1,0,0,0,.08,1.44l13,11.71A1,1,0,0,0,148.83,49.14Z"/><path class="cls-7" d="M123.12,49.14a1,1,0,0,0,.68-.26l13-11.75a1,1,0,0,0,.08-1.44,1.05,1.05,0,0,0-.76-.34,1,1,0,0,0-.68.27L123.12,46.75,110.79,35.66a1,1,0,0,0-.68-.27,1,1,0,0,0-.76.34,1,1,0,0,0,.08,1.44l13,11.71A1,1,0,0,0,123.12,49.14Z"/><path class="cls-7" d="M97.41,49.14a1,1,0,0,0,.68-.26l13-11.75a1,1,0,0,0,.08-1.44,1.05,1.05,0,0,0-.76-.34,1,1,0,0,0-.68.27L97.41,46.75,85.08,35.66a1,1,0,0,0-.68-.27,1,1,0,0,0-.76.34,1,1,0,0,0,.07,1.44l13,11.71A1,1,0,0,0,97.41,49.14Z"/><path class="cls-7" d="M71.7,49.14a1,1,0,0,0,.68-.26l13-11.75a1,1,0,0,0,.34-.71,1,1,0,0,0-.27-.73,1,1,0,0,0-.75-.34,1,1,0,0,0-.69.27L71.7,46.75,59.37,35.66a1,1,0,0,0-1.44.07A1,1,0,0,0,58,37.17L71,48.88A1,1,0,0,0,71.7,49.14Z"/><path class="cls-7" d="M29,49.14a1,1,0,0,0,1-1V36.37a1,1,0,0,0-2,0V48.12A1,1,0,0,0,29,49.14Z"/><rect class="cls-7" x="88.36" y="45.64" width="3.67" height="12.61" rx="1.12" transform="translate(142.13 -38.25) rotate(90)"/><path class="cls-6" d="M204.65,49.3A.35.35,0,0,0,205,49a4.06,4.06,0,0,0-4.06-4.06H180.63A4.06,4.06,0,0,0,176.57,49a.34.34,0,0,0,.35.35Z"/><path class="cls-6" d="M92.23,98.34a1.44,1.44,0,0,0,1.41-1.2L95,88.65A1.42,1.42,0,0,0,93.62,87H87a1.44,1.44,0,0,0-1.1.51,1.42,1.42,0,0,0-.3,1.17l1.56,8.5a1.42,1.42,0,0,0,1.4,1.17Z"/><g class="cls-4"><path class="cls-10" d="M76,91c-.23-2.33-3.69-9.27-5.91-5.19h0a4.68,4.68,0,0,0,.38,2.84,34.36,34.36,0,0,1,2.67,8.64c.21,2.46.39,6.45-.76,8.77C75.75,102.05,76.45,95.53,76,91Z"/><path class="cls-10" d="M73.26,85.66c-1-2.33-1.78-4.88-3.35-6.86l.86,1.73c-1.7-2.72-9.1-3.12-11.84-2.78a10.45,10.45,0,0,0-5.29,2.5c-2.71,2.34-3.59,4.31-4.82,7.81a17.63,17.63,0,0,0-.14,11.82c1,3.41,2.61,7,5.93,8.57A14.55,14.55,0,0,0,68,107.58c3.95-2.51,6.41-7.42,6.74-12.21A20.62,20.62,0,0,0,73.26,85.66Z"/><path class="cls-11" d="M86.64,254.44C86.31,249.58,76.8,187,76.8,187H57.47l13.58,72.08c-9.83,9-21.45,40.7-27.87,65.78l4.72,3.41L83,269.64A26.16,26.16,0,0,0,86.64,254.44Z"/><path class="cls-12" d="M70.92,271.68c-.76-3.12-3.13-29.54-5-46.82l-4.53-43.59-17.72,1.3s-6.13,19.32-2.27,28.16c2.41,5.51,4.79,15.43,4.79,15.43l11.16,50.2c-3.38,14.46,7.76,55,7.76,55l6.32,0C67.87,310.77,72.05,276.3,70.92,271.68Z"/><path class="cls-7" d="M54.76,128.67c.64-3.42,2.31-5.88,3.86-8.89,1.11-2.15,1.65-4.33,4.42-4.46a4.37,4.37,0,0,1,1.18.13,11.21,11.21,0,0,1,7,5.33A86.15,86.15,0,0,1,76,131.05a74,74,0,0,1,4.38,15.62c.94,5,.61,9.75.86,14.81.37,7.45,1,14.9,1.69,22.33.45,5.21,1.17,10.48,1.42,15.66-1.84-.72-4-.41-6-.5a71.69,71.69,0,0,1-8.91-.74c-2.13-.37-4.31-.33-6.17-1.39-3.76-2.16-4.24-7-5.1-10.89a201.57,201.57,0,0,1-4.64-44.68A75,75,0,0,1,54.76,128.67Z"/><path class="cls-13" d="M38.9,209.54a59,59,0,0,0,12.4,2.29c10,.84,20-.31,26.61-1.17,2.78-.39,4.43-.66,4.43-.66l-5.65-39.32s1.18-15.66,1.37-17.31l.15-1.39a40.34,40.34,0,0,0-4.32-23.22c-1.07-2.07-2.22-4.16-3.32-6a34.26,34.26,0,0,0-3.06-4.4l-.05,0a23.52,23.52,0,0,0-7.2-5.18,37.65,37.65,0,0,0-6.19-2.45,30.25,30.25,0,0,0-3.45,3.15,35.32,35.32,0,0,0-6.28,8.86,27.33,27.33,0,0,0-2.54,8,52.27,52.27,0,0,0,.05,9c.47,7.18.7,14.39.7,21.59a319.8,319.8,0,0,1-2.47,39.84C39.73,203.91,39.33,206.73,38.9,209.54Z"/><path class="cls-14" d="M51.48,113a36.62,36.62,0,0,0,7.94,6.34A16.48,16.48,0,0,0,63.87,121a1.18,1.18,0,0,0,1.38-1.41,20.68,20.68,0,0,0-1.45-4.27c-.15-.16-.29-.29-.43-.43s-.44-.28-.65-.41l-.2-.12,1.21-5.94-2.12-1.7-5.21-4.16-1,3.6-.17.62-1.15,4h0A27.79,27.79,0,0,0,51.48,113Z"/><path class="cls-15" d="M54.19,110.26s3.89,6,9.21,7.94a4.29,4.29,0,0,1,1.53,1c-.06-2.25-2.41-4.86-2.41-4.86l.44-2.17,3.09,4.14c2.66,4.2,0,6,0,6-7.21,0-11.91-3.32-15-9Z"/><path class="cls-7" d="M40.08,201.08c4.53.09,9.14-.05,13.61-.26,4.89-.24,11.82.18,16.08-2.61.21-6-.48-12-.48-18.1q0-3.26-.1-6.48c0-1.29-.08-2.58-.15-3.86-.17-3.5-.44-7-.83-10.47-.13-1.28-.29-2.56-.47-3.83-.51-3.78-1.17-7.58-2-11.36-2-9.08-5.6-17.19-7.95-26.4-.76-3-.71-6.18-3.69-7h0a0,0,0,0,0-.06,0c-.1.08-.49.38-1.07.88s-1.44,1.29-2.35,2.25c-.23.23-.45.47-.69.73a35.46,35.46,0,0,0-5.59,8.13,27.33,27.33,0,0,0-2.54,8,52.27,52.27,0,0,0,.05,9c.34,5.28.57,10.56.64,15.84,0,1.29,0,2.6,0,3.89,0,.62,0,1.23,0,1.86q0,4.69-.14,9.38c0,1.3-.07,2.59-.14,3.88C41.92,183.38,41.19,192.26,40.08,201.08Z"/><path class="cls-16" d="M42.49,155.49c0,1.29,0,2.6,0,3.89H55.31c4.28,0,8.63.28,12.9-.08-.13-1.28-.29-2.56-.47-3.83-1.55.14-3.13.2-4.7.2-2.13-15-4.73-30-10.07-44.09-.61.53-1.44,1.29-2.35,2.25-.23.23-.45.47-.69.73,4.79,13.16,7.2,27.14,9.2,41.05-1.9-.05-3.8-.12-5.65-.12Z"/><path class="cls-16" d="M42.27,174.5c2.5,0,5,0,7.37,0a184.6,184.6,0,0,0,19.55-.87c0-1.29-.08-2.58-.15-3.86a182,182,0,0,1-19.4.84c-2.34,0-4.77,0-7.23,0C42.38,171.92,42.34,173.21,42.27,174.5Z"/><path class="cls-17" d="M51.3,211.83a58.9,58.9,0,0,1-12.39-2.29,319,319,0,0,0,3.64-48.31q0-10.78-.7-21.58a52.27,52.27,0,0,1-.05-9,27.43,27.43,0,0,1,2.54-8l12.6,4S58.09,183.44,51.3,211.83Z"/><path class="cls-18" d="M54.93,106.07s.09.25.27.66c.86,2,3.75,8.09,7.52,7.7l-.2-.12,1.21-5.94-2.12-1.7-6.24-.56Z"/><path class="cls-14" d="M47.38,98.55c.77,2.94,3,3.79,5.12,4.32a4.91,4.91,0,0,0,.28.5,21.59,21.59,0,0,0,4.73,5.76c2.53,2.16,5.42,3.43,8,2.89,4.26-.89,7.58-4.46,9-8.72.07-.21.14-.43.2-.64a14.08,14.08,0,0,0,.57-5.43c-1.46-16.42-7.07-19.39-13.41-18.64-4.84.57-9.53,8.12-10.78,14.81a3.42,3.42,0,0,0-1.91-.5C47.31,93.13,46.77,96.23,47.38,98.55Z"/><path class="cls-10" d="M51.73,85.26a12.29,12.29,0,0,1,9.1-7.13,19.27,19.27,0,0,1,3.36-.61c1.07,0,2.15,0,3.22,0,1.4,1.83,3.38,3.12,4.56,5.12a34.24,34.24,0,0,1,2.34,5.15,15.14,15.14,0,0,1-1.83.43c-3.18.54-6.47.09-9.66.5l-.73.11a8.14,8.14,0,0,0-6.19,5.56v0a24.67,24.67,0,0,0-.92,7.46c0,1-.15,2.22-.11,3.34-.35-1-1-2.12-1.35-2.87a28.13,28.13,0,0,1-2-6.32,19.59,19.59,0,0,1-.65-5C50.1,89.42,51.19,86.5,51.73,85.26Z"/><path class="cls-10" d="M62,95.73A1.22,1.22,0,0,0,63.16,97a1.28,1.28,0,0,0,.07-2.55A1.23,1.23,0,0,0,62,95.73Z"/><path class="cls-10" d="M70,95.77a1.17,1.17,0,1,0,1.19-1.25A1.23,1.23,0,0,0,70,95.77Z"/><path class="cls-10" d="M59.27,93.24a.39.39,0,0,0,.37-.21A2.49,2.49,0,0,1,63,91.83a.41.41,0,0,0,.53-.19.39.39,0,0,0-.19-.52A3.25,3.25,0,0,0,59,92.65a.4.4,0,0,0,.15.54A.55.55,0,0,0,59.27,93.24Z"/><path class="cls-10" d="M66.08,103.45a.42.42,0,0,0-.36-.25,2.49,2.49,0,0,1-2.6-2.41.38.38,0,0,0-.4-.38.39.39,0,0,0-.39.4A3.28,3.28,0,0,0,65.7,104a.41.41,0,0,0,.41-.39A.41.41,0,0,0,66.08,103.45Z"/><path class="cls-10" d="M70,91.6a.34.34,0,0,0,.36.08,2.1,2.1,0,0,1,2.78,1.06.33.33,0,0,0,.43.18.34.34,0,0,0,.18-.44,2.75,2.75,0,0,0-3.63-1.42.32.32,0,0,0-.19.42A.24.24,0,0,0,70,91.6Z"/><path class="cls-10" d="M69.58,101.61a1.26,1.26,0,0,0,.65-.4c.55-.61.44-1.65-.28-2.78l-2-3.86a.3.3,0,0,0-.54.28l2,3.88c.68,1.07.62,1.77.35,2.08a1.22,1.22,0,0,1-1.43,0,.33.33,0,0,0-.43.13.29.29,0,0,0,.11.39A2.24,2.24,0,0,0,69.58,101.61Z"/><path class="cls-19" d="M96.68,176.55H75.57a4.11,4.11,0,0,1-4.06-4.7L76.36,139a4.09,4.09,0,0,1,4-3.5h21.11a4.1,4.1,0,0,1,4.06,4.7L100.74,173A4.11,4.11,0,0,1,96.68,176.55Z"/><path class="cls-10" d="M97.8,176.55H76.69a4.1,4.1,0,0,1-4.06-4.7L77.47,139a4.11,4.11,0,0,1,4.06-3.5h21.11a4.11,4.11,0,0,1,4.06,4.7L101.86,173A4.11,4.11,0,0,1,97.8,176.55Z"/><path class="cls-20" d="M38.86,150.84c-.45,2.3-.88,4.8,0,7,2.38,5.9,32.69,9.44,32.69,9.44l1.56-9.77-20-5,4.3-25.63A6.65,6.65,0,0,0,49,119.17h0a6.87,6.87,0,0,0-4.39,3.74C44.19,123.92,40.3,143.52,38.86,150.84Z"/><path class="cls-14" d="M73.11,157.49l-1,6.46s1,2.41,7.69,1.86c0,0,4.52-.52,4.9-1.28,0,0,.63-.81-1.89-.56L79.2,164s6.41-.35,6.66-1.43c0,0,.38-.58-2.07-.39a36.3,36.3,0,0,1-4.81.12s6.8-1,6.9-1.67c0,0,.23-.86-1.15-.78,0,0-4.32.57-5.74.19,0,0,5.8-.63,6.18-1.51,0,0,.32-.86-1.13-.88,0,0-6.41.57-8.61-.19,0,0-.57-.73,0-4.34,0,0-1.34-1.69-2,2.33Z"/><path class="cls-14" d="M106.08,159.19l.15,3.41a4.28,4.28,0,0,1-4.27,4.49,19,19,0,0,1-3.45-.4s-4.43-1-4.72-1.84c0,0-.53-.88,1.94-.34l3.55.47s-6.33-1.08-6.45-2.19c0,0-.31-.61,2.1-.15a35.84,35.84,0,0,0,4.76.68s-6.63-1.8-6.66-2.46c0,0-.13-.87,1.23-.63,0,0,4.23,1.05,5.69.84,0,0-5.7-1.29-6-2.21,0,0-.22-.88,1.22-.74,0,0,6.3,1.3,8.58.8,0,0,.5-2.3.83-4.51,0,0,1.23-1.32,1.39,2.74Z"/><path class="cls-6" d="M75.19,87.08c-.15,1.21-11.8,4.34-26.55,1.38,0,0,.53-3.28.76-4.76.07-.37.11-.64.12-.69a9.25,9.25,0,0,1,2.54-5.71h0a12.65,12.65,0,0,1,1.32-1.41,12.85,12.85,0,0,1,5.38-3,13.83,13.83,0,0,1,5.33-.36,13.17,13.17,0,0,1,5.35,1.86,12.54,12.54,0,0,1,1.16.81,11.67,11.67,0,0,1,3.78,5.35l.12.33A12.49,12.49,0,0,1,75.19,87.08Z"/><g class="cls-21"><path class="cls-22" d="M74.5,80.86c-1.11.74-2.38.52-3-1.15a13.55,13.55,0,0,1-.89-4.53,11.67,11.67,0,0,1,3.78,5.35Z"/></g><path class="cls-23" d="M63.72,82.33a4,4,0,0,1-3,2.71c-3.17.61-8,1-11.27-1.34.07-.37.11-.64.12-.69a9.25,9.25,0,0,1,2.54-5.71h0a12.65,12.65,0,0,1,1.32-1.41c3-.54,9.73-.78,10.53,5.33A4.24,4.24,0,0,1,63.72,82.33Z"/><path class="cls-22" d="M50.65,88.89s14.53,3.8,22.47,2c0,0,3.67-1,4.14-2.43.31-1-2-2.06-2-2.06C71.47,88.83,61.74,89.11,50.65,88.89Z"/></g></g></g></svg>