<svg id="Layer_1" data-name="Layer 1" xmlns="http://www.w3.org/2000/svg" xmlns:xlink="http://www.w3.org/1999/xlink" viewBox="0 0 212 212"><defs><style>.cls-1,.cls-25,.cls-30,.cls-32,.cls-33{fill:none;}.cls-2{fill:#23b2e7;}.cls-3{clip-path:url(#clip-path);}.cls-4{fill:#1b75bc;}.cls-5{fill:#ffcc2c;}.cls-6{fill:#b21e49;}.cls-7{fill:#f8f8ec;}.cls-8{fill:#218993;}.cls-9{fill:#f9f39f;}.cls-10{fill:#fad87b;}.cls-11{fill:#f7941d;}.cls-12{fill:#802043;}.cls-13{fill:#b0b8b4;}.cls-14{fill:#1e6b77;}.cls-15{fill:#649bb3;}.cls-16{fill:#b3b47e;}.cls-17{fill:#b1a166;}.cls-18{fill:#195c87;}.cls-19{clip-path:url(#clip-path-2);}.cls-20{fill:#fac0b4;}.cls-21{fill:#0e2436;}.cls-22{clip-path:url(#clip-path-3);}.cls-23{fill:#f8afa5;}.cls-24{fill:#83d1f5;}.cls-25{stroke:#62bbd8;stroke-width:1.04px;}.cls-25,.cls-30{stroke-miterlimit:10;}.cls-26{fill:#f8aeb0;}.cls-27{fill:#0c0c0d;}.cls-28{fill:#fff;}.cls-29{fill:#113d5f;}.cls-30{stroke:#0c0c0d;stroke-width:0.77px;}.cls-31{fill:#492914;}.cls-32,.cls-33{stroke:#492914;stroke-linecap:round;stroke-linejoin:round;}.cls-32{stroke-width:0.74px;}.cls-33{stroke-width:0.25px;}.cls-34{clip-path:url(#clip-path-4);}</style><clipPath id="clip-path"><rect class="cls-1" width="212" height="212"/></clipPath><clipPath id="clip-path-2"><polyline class="cls-1" points="146.08 88.67 115.88 95.53 106.92 56.11 137.12 49.25 146.08 88.67"/></clipPath><clipPath id="clip-path-3"><polygon class="cls-1" points="146.08 88.67 115.88 95.53 106.92 56.11 137.12 49.25 146.08 88.67 146.08 88.67"/></clipPath><clipPath id="clip-path-4"><rect class="cls-1" y="223" width="212" height="212"/></clipPath></defs><title>Artboard 4</title><rect class="cls-2" width="212" height="212"/><g class="cls-3"><circle class="cls-4" cx="106" cy="201.4" r="106.58"/></g><path class="cls-5" d="M176.68,175.22a7.06,7.06,0,0,1-9.09,4.09l-113.42-43a7.06,7.06,0,0,1-4.09-9.08L75.3,60.67a7.08,7.08,0,0,1,9.09-4.09l113.42,43a7.06,7.06,0,0,1,4.09,9.09l-25.22,66.58"/><polyline class="cls-6" points="197.03 121.49 70.43 73.53 71.18 71.56 197.78 119.53 197.03 121.49"/><polyline class="cls-7" points="196.3 123.43 69.7 75.47 70.44 73.5 197.04 121.47 196.3 123.43"/><path class="cls-8" d="M153.85,149.55c.16.51.75.31,1.3-.45a4,4,0,0,0,.88-2.31c-.08-.52-.59-.52-1.14,0a6,6,0,0,0-1.17,1.39,2.68,2.68,0,0,0,.13,1.37Z"/><path class="cls-8" d="M150.8,145.67c-.16.43.22.74.84.68a1.74,1.74,0,0,0,1.39-.79c.14-.39-.23-.69-.83-.68a1.56,1.56,0,0,0-1.4.79Z"/><path class="cls-8" d="M77.44,92.16c.06-.17,1.26.28,2.66,1A12.62,12.62,0,0,1,84.19,97l1.59,2.61a10.51,10.51,0,0,1,1.43,2.84c-.06.18.14.42.46.54a5.63,5.63,0,0,1,1.17.67,17.21,17.21,0,0,1,2.07,3c.81,1.4,1.14,2.93.73,3.39s-.71,1-.66,1.14a.77.77,0,0,0,.66.34,1.08,1.08,0,0,1,.8.67,1.65,1.65,0,0,1,.1,1,2.85,2.85,0,0,0,0,1,1.22,1.22,0,0,0,.68.92,2.36,2.36,0,0,1,1,1.19,1.83,1.83,0,0,1,.12,1.34,2.55,2.55,0,0,0-.36.95,8.15,8.15,0,0,1-1.22,2.15c-.61.86-1.62,1.25-2.24.87A10.67,10.67,0,0,1,88,118.34l-2.08-3.93a18.09,18.09,0,0,1-1.71-5.11A38.17,38.17,0,0,0,83,104l-.07-.2a33.67,33.67,0,0,0-2.31-5.43l-1.84-3.28a11.41,11.41,0,0,1-1.32-2.91"/><path class="cls-8" d="M90.26,123.56c-.39-.26-.48,0-.19.52a3.12,3.12,0,0,0,1.38,1.32c.48.18.8.5.72.72s1,1.06,2.42,1.88L106,134.63c1.41.82,2.81,1.59,3.12,1.71s.63,0,.71-.18.62.21,1.18,1a6.13,6.13,0,0,0,1.6,1.54,4.81,4.81,0,0,1,1.09.66,3.13,3.13,0,0,0,1.85.36,14.23,14.23,0,0,1,4.13.87l5.79,2a35.07,35.07,0,0,0,4.35,1.21c.85.13,1.85.31,2.23.39s.6-.14.49-.51a1.57,1.57,0,0,0-1.35-.75,21.91,21.91,0,0,1-3.94-1.11L119.62,139a20.5,20.5,0,0,0-3.06-1c-.15,0-.07.3.17.6s.19.54-.1.51A4.65,4.65,0,0,1,115,138a14.71,14.71,0,0,0-3.26-2.13,12.4,12.4,0,0,1-2.41-1.36,12.14,12.14,0,0,0-1.69-1.28c-.77-.51-1.33-1-1.25-1.17a2.8,2.8,0,0,1,1.52-.07c.75.1,1.35,0,1.33-.24a8.22,8.22,0,0,0-2.77-1.59l-.09,0a23.88,23.88,0,0,1-3.33-1.66c-.34-.26-.78-.34-1-.17a3.54,3.54,0,0,1-2.13-.41,5.84,5.84,0,0,1-2.06-1.22,4.52,4.52,0,0,0-1.22-1.11,4.13,4.13,0,0,1-1.22-1.22,3.4,3.4,0,0,0-1.59-1.12,2.26,2.26,0,0,0-2.06.18,1.31,1.31,0,0,1-1.48.2"/><path class="cls-8" d="M104.65,120.28a18.37,18.37,0,0,1-.1-3.22l.07-3.71a7.8,7.8,0,0,1,.7-3.62,2.62,2.62,0,0,1,1.14-.71.89.89,0,0,1,.76.34,3.29,3.29,0,0,0,1.67.63,2.5,2.5,0,0,0,2-.39,2.42,2.42,0,0,1,1.85-.44,9.42,9.42,0,0,0,3.67-.76,17.46,17.46,0,0,1,3.87-1.06,10.36,10.36,0,0,0,2.66-.61c.65-.27,1.92-.86,2.82-1.31s1.88-.46,2.15,0a3.49,3.49,0,0,1,.48,1.62,2.68,2.68,0,0,0,.64,1.58c.36.41.94,1.17,1.29,1.68s.07.79-.62.61-1.07,0-.83.48-.06.77-.68.73a1.37,1.37,0,0,0-1.35.58c-.14.36-.53,1.57-.88,2.69a3.94,3.94,0,0,0,.22,3.11c.46.58,0,1.11-1,1.18a5.12,5.12,0,0,0-2.69,1,14.65,14.65,0,0,1-2.36,1.64,3.26,3.26,0,0,0-1.61,1.91,3.28,3.28,0,0,1-.56,1.48,3.32,3.32,0,0,0-.65,1c-.14.38-.46.62-.69.53a11.45,11.45,0,0,0-2-.3c-.85-.07-1.42-.63-1.27-1.22s-1-1.65-2.44-2.33l-3.48-1.59a17.53,17.53,0,0,1-2.84-1.49"/><path class="cls-8" d="M122.66,134.12c-.19-.08-.25-.4-.13-.73s.47-1.22.75-2a4.64,4.64,0,0,0,.39-1.94,8.79,8.79,0,0,1-.17-1.5,1.71,1.71,0,0,1,.47-1.31,3,3,0,0,0,.83-1.22,2.15,2.15,0,0,1,1.2-1.13,2.15,2.15,0,0,0,1.2-1.13,4.8,4.8,0,0,1,.82-1.38,3.42,3.42,0,0,1,1.11-.72,6.14,6.14,0,0,1,1.29-.25,15.35,15.35,0,0,1,3.44,1l1.47.56a15.5,15.5,0,0,0,4,1,8.28,8.28,0,0,1,1.51.07c.14.06.19.3.1.54a2.49,2.49,0,0,1-1.45.69c-.71.14-1.66.29-2.12.34a11.15,11.15,0,0,1-3.48-1.24l-.69-.34c-1.47-.72-3-1.18-3.47-1a3.11,3.11,0,0,0-1.31,1.09,1.7,1.7,0,0,0-.28,1.28,2.79,2.79,0,0,1,.22,1,.39.39,0,0,0,.5.38,7.94,7.94,0,0,1,1.56,0,23,23,0,0,1,3,.49c1,.23,1.79.58,1.64.77a5.86,5.86,0,0,1-2.44.41,5.41,5.41,0,0,0-2.51.49,4.79,4.79,0,0,0,0,2.49,19,19,0,0,0,.83,3.05,3,3,0,0,1,.17,1.79,1.42,1.42,0,0,1-1,.93c-.43.05-1.05-.55-1.38-1.32a16.84,16.84,0,0,1-.91-2.85,4.46,4.46,0,0,1,0-2,1.13,1.13,0,0,0-.22-1.13c-.27-.29-.65-.46-.85-.37a1.2,1.2,0,0,0-.48.76,7.48,7.48,0,0,1-.71,1.61,5.52,5.52,0,0,0-.65,2,1.82,1.82,0,0,1-.46,1.2,1.18,1.18,0,0,1-.91,0l-.86-.32"/><path class="cls-8" d="M118.44,141.58c-.27,0-.43.33-.34.72a2.1,2.1,0,0,0,.85,1.15,3.17,3.17,0,0,1,1,1.26,1.11,1.11,0,0,0,1.27.58c.5-.14.79-.55.64-.91a5.5,5.5,0,0,0-.71-1.2,6.08,6.08,0,0,0-1.34-1.07,3.59,3.59,0,0,0-1.42-.53Z"/><path class="cls-8" d="M125.64,148.4a.71.71,0,0,1-.32-.55c0-.25.69-.94,1.61-1.54a6.14,6.14,0,0,1,3-1,5.72,5.72,0,0,0,1.94-.19,5.89,5.89,0,0,1,2.67.38c1.13.35,2.07.83,2.09,1s-1.12.52-2.54.65A17.65,17.65,0,0,0,130,148a6.11,6.11,0,0,1-2.29.5,8.9,8.9,0,0,0-1.3-.06,2.44,2.44,0,0,1-.77-.06Z"/><path class="cls-8" d="M143.07,135.9c.19-.26,1.21-.06,2.28.43a20.3,20.3,0,0,1,2.53,1.36,3.17,3.17,0,0,1,.86,1.38c.15.51.39,1.3.53,1.76s-.33.16-1.05-.65a7.88,7.88,0,0,0-2.48-1.91l-1.88-.72a1.85,1.85,0,0,1-.91-.72,1,1,0,0,1,.12-.93Z"/><path class="cls-8" d="M141,135.31a1,1,0,0,1,.45.81c0,.27-.38.56-.77.65a1.55,1.55,0,0,1-1.32-.54,1.47,1.47,0,0,1-.44-1.11c.09-.22.48-.35.87-.27a4,4,0,0,1,1.21.46Z"/><path class="cls-8" d="M166,158.6c.49.62,1.45-.09,2.11-1.58l3.66-8.24a4.12,4.12,0,0,0-1.1-4.58l-2.07-1.67a7.18,7.18,0,0,0-3.64-1.76,5.22,5.22,0,0,1-2.9-1.1c-.87-.66-1.32-.53-1,.3a1.9,1.9,0,0,1-.86,2.26,1.09,1.09,0,0,1-1.7-.75,23.16,23.16,0,0,1-.32-2.3,5,5,0,0,1,.27-1.64c.18-.45-.35-1.47-1.17-2.27a9.72,9.72,0,0,0-2.09-1.68,1.94,1.94,0,0,0-1.34.13,3.66,3.66,0,0,1-2.32-.29c-.87-.36-1.15,0-.63.71a11.86,11.86,0,0,1,1.4,2.71,3.43,3.43,0,0,0,1.2,1.74c.41.21.19.3-.48.2s-1.17,0-1.11.19a14.78,14.78,0,0,0,.84,1.72,4.44,4.44,0,0,1,.63,1.86.57.57,0,0,0,.25.64c.19.08.67-.23,1-.68s.88-.27,1.09.41a9.38,9.38,0,0,0,2.71,3l1.91,1.49a7,7,0,0,1,2.52,4.1,3.11,3.11,0,0,1-1.21,2.92c-.76.35-1,.93-.59,1.3a8.5,8.5,0,0,0,2.38,1.16A6.09,6.09,0,0,1,166,158.6Z"/><path class="cls-8" d="M148,147c.42-.45.75-.49.74-.08s.1.78.27.84a.33.33,0,0,1,.18.44,5.73,5.73,0,0,1-1.74,1.07,2.88,2.88,0,0,1-2.21.32c-.31-.24-.32-.57,0-.75s.44-.5.27-.72.17-.39.72-.36A2.65,2.65,0,0,0,148,147Z"/><path class="cls-8" d="M144.75,128.5c-.2.09.12-.67.7-1.68a4.69,4.69,0,0,1,2.46-2.14c.77-.16,1.29,0,1.14.4a.75.75,0,0,1-1,.42.74.74,0,0,0-1,.37c-.14.36.13.63.6.59a1.73,1.73,0,0,1,1.08.2.58.58,0,0,1-.05.67,1.14,1.14,0,0,1-1.09.25c-.44-.09-.58.3-.33.87s.31,1,.12,1-.53-.35-.74-.74-.57-.06-.78.73-.45,1.2-.54.91a7.31,7.31,0,0,1-.21-1.27c0-.41-.22-.67-.41-.58"/><path class="cls-8" d="M94.45,115.4c-.49-.79-.53-1.7-.1-2a1.3,1.3,0,0,1,1.44-.12,1.61,1.61,0,0,1,.4,1.54,1.56,1.56,0,0,0,.48,1.54c.39.25.55.67.34.92a.79.79,0,0,1-1,0,7.87,7.87,0,0,1-1.54-1.87"/><path class="cls-9" d="M92,83.08a4.91,4.91,0,0,1,1.18,1.71c.2.55.24,1,.09,1.08a.89.89,0,0,0-.46.49c-.1.23-.59.4-1.08.36s-.9-.81-.91-1.73A9.62,9.62,0,0,1,91,82.85c.1-.27.55-.16,1,.23M86.5,81a10,10,0,0,1-1.34,1.7c-.65.72-1.47,1.06-1.82.75a1.24,1.24,0,0,1-.46-1.07.88.88,0,0,0,0-.73c-.12-.13.22-.41.76-.63a6.3,6.3,0,0,1,2-.4c.57,0,1,.17.89.38m11.85.73a8.49,8.49,0,0,0,3-1.18A11.88,11.88,0,0,0,103.81,78a18.09,18.09,0,0,0,1.87-4.22,20,20,0,0,0,.76-4.55c0-1.06-.83-1-1.83,0a7.31,7.31,0,0,1-3.67,2.21c-1,.12-2.15.28-2.53.35a2.21,2.21,0,0,0-1,.4,2,2,0,0,1-.8.4,1.28,1.28,0,0,1-.92-.18,2.69,2.69,0,0,1-.18-1.83c.13-.84.27-1.94.32-2.46a6.19,6.19,0,0,1,.22-1.3c.07-.2.21-.58.31-.83s0-.39-.25-.31a1.74,1.74,0,0,1-1-.13,4.2,4.2,0,0,0-1.76-.13,7.31,7.31,0,0,1-1.61.06,1.78,1.78,0,0,0-1,.29c-.32.21-.26.41.13.45a6.7,6.7,0,0,1,1.32.3c.34.13.44.28.25.34a1.9,1.9,0,0,1-.88,0c-.29-.08-.45,0-.37.18a1.2,1.2,0,0,0,.74.48c.32.08.61.26.64.39s-.52.7-1.22,1.25-1.48.92-1.75.82a4.26,4.26,0,0,1-1.22-1.35,10.74,10.74,0,0,0-1.84-2.09c-.6-.5-1.17-2.3-1.26-4s-.73-2.45-1.43-1.66a25.06,25.06,0,0,0-2.29,3.22A15.35,15.35,0,0,0,80.17,68a11.85,11.85,0,0,0,0,4,10.4,10.4,0,0,0,1.63,3.54,4.38,4.38,0,0,0,2.6,1.63c.78,0,1.07.37.65.72a6.61,6.61,0,0,0-1.18,1.28,6.07,6.07,0,0,1-1.16,1.23,1.7,1.7,0,0,1-1.15.43.88.88,0,0,1-.52-.42.77.77,0,0,0-.58-.37c-.26,0-.73-.7-1-1.46s-.59-1.12-.63-.81a.54.54,0,0,1-.74.37c-.35-.11-.34.52,0,1.4s.87,1.58,1.1,1.56a.49.49,0,0,1,.51.22.72.72,0,0,1,0,.5.74.74,0,0,0,.08.63,1.38,1.38,0,0,0,.57.51,5.92,5.92,0,0,1,1.23,1.09c.48.52.55,1.18.14,1.46s0,1,1,1.67a4,4,0,0,0,2.72.81.93.93,0,0,1,1.24.47c.14.45,1.26,1,2.49,1.21s2.14,0,2-.52.41-.94,1.16-1a8.11,8.11,0,0,1,1.57,0,2.63,2.63,0,0,0,.82,0c.33,0,.59-.18.58-.3s.17-.3.4-.4a.39.39,0,0,1,.54.21c.07.2.9,0,1.84-.4s1.41-.86,1-1a.55.55,0,0,1-.34-.8c.18-.31-.33-.26-1.13.12s-1.54.56-1.64.39a.57.57,0,0,0-.66-.1,1.22,1.22,0,0,1-.71.11,1.76,1.76,0,0,1-.51-.79A3.29,3.29,0,0,1,94,83.82a19.76,19.76,0,0,0,.11-2.18c0-.8.59-1,1.32-.55a4.74,4.74,0,0,0,2.92.67"/><path class="cls-10" d="M93.21,84.79c.2.55.24,1,.09,1.08a.89.89,0,0,0-.46.49c-.1.23-.59.4-1.08.36s-.9-.81-.91-1.73A9.62,9.62,0,0,1,91,82.85c.1-.27.55-.16,1,.23a4.91,4.91,0,0,1,1.18,1.71m2.22-3.7a4.74,4.74,0,0,0,2.92.67,8.49,8.49,0,0,0,3-1.18A11.88,11.88,0,0,0,103.81,78a18.09,18.09,0,0,0,1.87-4.22,20,20,0,0,0,.76-4.55c0-1.06-.83-1-1.83,0a7.31,7.31,0,0,1-3.67,2.21c-1,.12-2.15.28-2.53.35a2.21,2.21,0,0,0-1,.4,2,2,0,0,1-.8.4,1.28,1.28,0,0,1-.92-.18,2.69,2.69,0,0,1-.18-1.83c.13-.84.27-1.94.32-2.46a6.19,6.19,0,0,1,.22-1.3c.07-.2.21-.58.31-.83s0-.39-.25-.31a1.74,1.74,0,0,1-1-.13,1.05,1.05,0,0,0-.25-.08L86.36,88.06a.79.79,0,0,1,.33.41c.14.45,1.26,1,2.49,1.21s2.14,0,2-.52.41-.94,1.16-1a8.11,8.11,0,0,1,1.57,0,2.63,2.63,0,0,0,.82,0c.33,0,.59-.18.58-.3s.17-.3.4-.4a.39.39,0,0,1,.54.21c.07.2.9,0,1.84-.4s1.41-.86,1-1a.55.55,0,0,1-.34-.8c.18-.31-.33-.26-1.13.12s-1.54.56-1.64.39a.57.57,0,0,0-.66-.1,1.22,1.22,0,0,1-.71.11,1.76,1.76,0,0,1-.51-.79A3.29,3.29,0,0,1,94,83.82a19.76,19.76,0,0,0,.11-2.18c0-.8.59-1,1.32-.55"/><path class="cls-11" d="M71.53,142.92l-17.36-6.58a7.06,7.06,0,0,1-4.09-9.08L69.7,75.47l8.15,3.08a3.4,3.4,0,0,0,.29,1c.37.87.85,1.56,1.09,1.56h.07a.48.48,0,0,1,.45.23.72.72,0,0,1,0,.5.74.74,0,0,0,.08.63,1.38,1.38,0,0,0,.57.51,5.92,5.92,0,0,1,1.23,1.09c.48.52.55,1.18.14,1.46s0,1,1,1.67a5,5,0,0,0,2.37.86,1.23,1.23,0,0,0,.35,0,1.16,1.16,0,0,1,.4-.07,1,1,0,0,1,.51.13h0a.74.74,0,0,1,.32.4h0c.14.45,1.26,1,2.49,1.21a4.51,4.51,0,0,0,.86.08c.7,0,1.17-.19,1.18-.52,0,0,0,0,0-.08a.59.59,0,0,1,0-.13c0-.45.5-.81,1.18-.84l.79,0a3.61,3.61,0,0,1,.78,0,1.68,1.68,0,0,0,.38,0,3.39,3.39,0,0,0,.44,0c.32,0,.58-.17.58-.3h0c0-.12.18-.3.4-.39a.57.57,0,0,1,.18,0,.37.37,0,0,1,.36.24c0,.06.1.08.23.08a4.7,4.7,0,0,0,1.61-.48,3.12,3.12,0,0,0,1.09-.69l80.87,30.64a7.06,7.06,0,0,1-5.75,6.53l-26.88,5a2.13,2.13,0,0,0-.14-.37c-.23-.51-.13-.88.21-.88h.12a1.17,1.17,0,0,0,.32,0,1,1,0,0,0,.77-.29.58.58,0,0,0,.05-.67,1.47,1.47,0,0,0-.88-.2h-.28c-.41,0-.65-.26-.52-.6a.69.69,0,0,1,.67-.43.8.8,0,0,1,.3.06.92.92,0,0,0,.28,0,.75.75,0,0,0,.7-.47c.11-.29-.15-.46-.61-.46a2.69,2.69,0,0,0-.53.06,4.69,4.69,0,0,0-2.46,2.14c-.55,1-.87,1.69-.73,1.69h.1c.17,0,.31.24.34.59,0,0,0,.1,0,.16L130.42,132c-.09-.39-.18-.8-.26-1.19a4.79,4.79,0,0,1,0-2.49,5.41,5.41,0,0,1,2.51-.49,5.86,5.86,0,0,0,2.44-.41c.15-.19-.59-.54-1.64-.77a23,23,0,0,0-3-.49h-.54a6.26,6.26,0,0,0-1,.06l-.11,0a.4.4,0,0,1-.39-.4,2.79,2.79,0,0,0-.22-1,1.7,1.7,0,0,1,.28-1.28,3.11,3.11,0,0,1,1.31-1.09.78.78,0,0,1,.24,0,9.65,9.65,0,0,1,3.23,1l.69.34a11.83,11.83,0,0,0,3.43,1.24h0c.46,0,1.41-.2,2.12-.34A2.49,2.49,0,0,0,141,124c.09-.24,0-.48-.1-.54a6.93,6.93,0,0,0-1.22-.07h-.32a15.81,15.81,0,0,1-4-1l-1.47-.56a16.75,16.75,0,0,0-3.41-1h0a6.14,6.14,0,0,0-1.29.25,3.42,3.42,0,0,0-1.11.72,4.8,4.8,0,0,0-.82,1.38,2.15,2.15,0,0,1-1.2,1.13,2.15,2.15,0,0,0-1.2,1.13,3,3,0,0,1-.83,1.22,1.71,1.71,0,0,0-.47,1.31,8.79,8.79,0,0,0,.17,1.5,4.64,4.64,0,0,1-.39,1.94c-.28.76-.62,1.66-.75,2l0,.06-11.39,2.12a10.05,10.05,0,0,1-1.84-1.09,12.14,12.14,0,0,0-1.69-1.28c-.77-.51-1.33-1-1.25-1.17s.32-.12.7-.12a6.19,6.19,0,0,1,.82.05,4.92,4.92,0,0,0,.52,0c.49,0,.82-.11.81-.28a8.22,8.22,0,0,0-2.77-1.59l-.09,0a23.88,23.88,0,0,1-3.33-1.66,1.19,1.19,0,0,0-.69-.26.44.44,0,0,0-.29.09.42.42,0,0,1-.29.07,5.72,5.72,0,0,1-1.84-.48,5.84,5.84,0,0,1-2.06-1.22,4.52,4.52,0,0,0-1.22-1.11,4.13,4.13,0,0,1-1.22-1.22,3.4,3.4,0,0,0-1.59-1.12,2.51,2.51,0,0,0-.9-.16,1.84,1.84,0,0,0-1.16.34,1.4,1.4,0,0,1-.93.35,1,1,0,0,1-.55-.15.48.48,0,0,0-.25-.1c-.16,0-.15.23.06.62a3.12,3.12,0,0,0,1.38,1.32c.48.18.8.5.72.72s1,1.06,2.42,1.88L106,134.63c1,.56,1.93,1.1,2.54,1.42l-37,6.87m35-33.9h-.08a2.62,2.62,0,0,0-1.14.71,7.8,7.8,0,0,0-.7,3.62l-.07,3.71a18.37,18.37,0,0,0,.1,3.22,17.53,17.53,0,0,0,2.84,1.49l3.48,1.59c1.49.68,2.58,1.73,2.44,2.33s.42,1.15,1.27,1.22a11.45,11.45,0,0,1,2,.3l.1,0a.75.75,0,0,0,.59-.55,3.32,3.32,0,0,1,.65-1,3.28,3.28,0,0,0,.56-1.48,3.26,3.26,0,0,1,1.61-1.91,14.65,14.65,0,0,0,2.36-1.64,5.12,5.12,0,0,1,2.69-1c1-.07,1.41-.6,1-1.18a3.94,3.94,0,0,1-.22-3.11c.35-1.12.74-2.33.88-2.69a1.33,1.33,0,0,1,1.23-.58h.22c.55,0,.81-.32.58-.74s0-.55.39-.55a1.59,1.59,0,0,1,.44.07,1.37,1.37,0,0,0,.38.05c.4,0,.52-.25.24-.66s-.93-1.27-1.29-1.68a2.68,2.68,0,0,1-.64-1.58,3.49,3.49,0,0,0-.48-1.62.93.93,0,0,0-.81-.31,3.16,3.16,0,0,0-1.34.34c-.9.45-2.17,1-2.82,1.31a10.36,10.36,0,0,1-2.66.61,17.46,17.46,0,0,0-3.87,1.06,11,11,0,0,1-3.38.78,1.32,1.32,0,0,1-.29,0l-.37,0a2.23,2.23,0,0,0-1.48.46,2.15,2.15,0,0,1-1.46.43,3,3,0,0,1-.52,0,3.29,3.29,0,0,1-1.67-.63.87.87,0,0,0-.68-.34m-29-16.9c-.06,0-.09,0-.1,0a11.41,11.41,0,0,0,1.32,2.91l1.84,3.28a33.67,33.67,0,0,1,2.31,5.43l.07.2a38.17,38.17,0,0,1,1.18,5.32,18.09,18.09,0,0,0,1.71,5.11L88,118.34a10.67,10.67,0,0,0,2.51,3.31,1,1,0,0,0,.55.15,2.23,2.23,0,0,0,1.69-1,8.15,8.15,0,0,0,1.22-2.15,2.55,2.55,0,0,1,.36-.95,1.83,1.83,0,0,0-.12-1.34,2.36,2.36,0,0,0-1-1.19,1.22,1.22,0,0,1-.68-.92,2.85,2.85,0,0,1,0-1,1.65,1.65,0,0,0-.1-1,1.08,1.08,0,0,0-.8-.67.77.77,0,0,1-.66-.34c0-.17.25-.68.66-1.14s.08-2-.73-3.39a17.21,17.21,0,0,0-2.07-3,5.63,5.63,0,0,0-1.17-.67c-.32-.12-.52-.36-.46-.54a10.51,10.51,0,0,0-1.43-2.84L84.19,97a12.62,12.62,0,0,0-4.09-3.85,9.47,9.47,0,0,0-2.56-1m17.67,21a1.46,1.46,0,0,0-.86.29c-.43.32-.39,1.23.1,2A7.87,7.87,0,0,0,96,117.27a1,1,0,0,0,.56.18.56.56,0,0,0,.46-.19c.21-.25,0-.67-.34-.92a1.56,1.56,0,0,1-.48-1.54,1.61,1.61,0,0,0-.4-1.54,1,1,0,0,0-.58-.17M124.91,133a5.75,5.75,0,0,1,.63-1.78,7.48,7.48,0,0,0,.71-1.61,1.2,1.2,0,0,1,.48-.76.27.27,0,0,1,.13,0,1.11,1.11,0,0,1,.72.39,1.13,1.13,0,0,1,.22,1.13,4.46,4.46,0,0,0,0,2s0,.05,0,.07l-2.93.54M146,129.08c.13-.34.3-.54.44-.54s.15.06.22.17a1.64,1.64,0,0,0,.14.22l-.8.15m33.38-16.51L98.14,81.78l.21,0a8.49,8.49,0,0,0,3-1.18A11.88,11.88,0,0,0,103.81,78a18.09,18.09,0,0,0,1.87-4.22,19.73,19.73,0,0,0,.76-4.52v0c0-.52-.21-.78-.53-.78a2.14,2.14,0,0,0-1.3.83,7.31,7.31,0,0,1-3.67,2.21c-1,.12-2.15.28-2.53.35a2.21,2.21,0,0,0-1,.4,2,2,0,0,1-.8.4l-.23,0a1.3,1.3,0,0,1-.69-.2,1.56,1.56,0,0,1-.24-1,5.46,5.46,0,0,1,.06-.79c.13-.84.27-1.94.32-2.46a6.19,6.19,0,0,1,.22-1.3c.07-.2.21-.58.31-.83a.5.5,0,0,0,0-.16.15.15,0,0,0-.17-.17.23.23,0,0,0-.11,0,1,1,0,0,1-.26,0,1.93,1.93,0,0,1-.74-.16h0A3.49,3.49,0,0,0,94,65.46c-.21,0-.43,0-.63,0a9.89,9.89,0,0,1-1.24.09,1.7,1.7,0,0,1-.37,0h-.1a2,2,0,0,0-.9.29c-.32.21-.26.41.13.45a6.7,6.7,0,0,1,1.32.3c.34.13.44.28.25.34a1.06,1.06,0,0,1-.33,0,2.43,2.43,0,0,1-.55-.07l-.2,0c-.16,0-.23.08-.17.21a1.2,1.2,0,0,0,.74.48c.32.08.61.26.64.39s-.52.7-1.22,1.25a3.64,3.64,0,0,1-1.64.84.2.2,0,0,1-.11,0,4.26,4.26,0,0,1-1.22-1.35,10.74,10.74,0,0,0-1.84-2.09c-.6-.5-1.17-2.3-1.26-4-.07-1.24-.43-2-.89-2a.77.77,0,0,0-.54.31,25.06,25.06,0,0,0-2.29,3.22A15.35,15.35,0,0,0,80.17,68a11.85,11.85,0,0,0,0,4,10.4,10.4,0,0,0,1.63,3.54l.06.08L71.18,71.56,75.3,60.67a7.08,7.08,0,0,1,6.61-4.55,6.93,6.93,0,0,1,2.48.46l91,34.49,4,21.5M96.24,86.12c-.1,0-.16,0-.19-.06a.44.44,0,0,0-.37-.15,1,1,0,0,0-.29,0,1.56,1.56,0,0,1-.56.13l-.15,0a1.76,1.76,0,0,1-.51-.79,2.51,2.51,0,0,1-.15-.6l3.17,1.2a2.94,2.94,0,0,1-1,.24M81.71,80.85H81.6a.88.88,0,0,1-.52-.42.77.77,0,0,0-.58-.37c-.17,0-.44-.33-.69-.75l2.94,1.11a2.09,2.09,0,0,1-1,.44"/><path class="cls-12" d="M179.85,115,94.09,82.46c0-.28,0-.56,0-.82,0-.52.25-.8.62-.8a1.3,1.3,0,0,1,.7.25,4.82,4.82,0,0,0,2.47.7h.24l81.27,30.79.44,2.38M84.25,78.73,70.44,73.5v0h0l.75-2L81.9,75.63a4.38,4.38,0,0,0,2.54,1.55c.78,0,1.07.37.65.72a8.19,8.19,0,0,0-.84.83"/><path class="cls-13" d="M180.08,117.29,99.21,86.65a.29.29,0,0,0,.08-.17s0-.1-.13-.13a.57.57,0,0,1-.41-.53.54.54,0,0,1,.07-.27.26.26,0,0,0,0-.1c0-.07-.06-.1-.17-.1a2.8,2.8,0,0,0-1,.32l-.5.21L94,84.68a3.23,3.23,0,0,1,0-.53,1.72,1.72,0,0,1,0-.33c0-.27.07-.8.09-1.36L179.85,115l.12.66a6.82,6.82,0,0,1,.11,1.68M82.75,80.41,79.81,79.3a5.21,5.21,0,0,1-.34-.71c-.23-.57-.45-.92-.56-.92s-.06,0-.07.11a.49.49,0,0,1-.52.4l-.22,0H78c-.14,0-.2.15-.18.41L69.7,75.47l.73-1.94v0l13.81,5.23a4.43,4.43,0,0,0-.34.45,6.07,6.07,0,0,1-1.16,1.23h0"/><path class="cls-14" d="M91,121.8a1,1,0,0,1-.55-.15A10.67,10.67,0,0,1,88,118.34l-2.08-3.93a18.09,18.09,0,0,1-1.71-5.11A38.17,38.17,0,0,0,83,104l-.07-.2a33.67,33.67,0,0,0-2.31-5.43l-1.84-3.28a11.41,11.41,0,0,1-1.32-2.91s0,0,.1,0a9.47,9.47,0,0,1,2.56,1A12.62,12.62,0,0,1,84.19,97l1.59,2.61a10.51,10.51,0,0,1,1.43,2.84c-.06.18.14.42.46.54a5.63,5.63,0,0,1,1.17.67,17.21,17.21,0,0,1,2.07,3c.81,1.4,1.14,2.93.73,3.39s-.71,1-.66,1.14a.77.77,0,0,0,.66.34,1.08,1.08,0,0,1,.8.67,1.65,1.65,0,0,1,.1,1,2.85,2.85,0,0,0,0,1,1.22,1.22,0,0,0,.68.92,2.36,2.36,0,0,1,1,1.19,1.83,1.83,0,0,1,.12,1.34,2.55,2.55,0,0,0-.36.95,8.15,8.15,0,0,1-1.22,2.15,2.23,2.23,0,0,1-1.69,1"/><path class="cls-14" d="M108.49,136.05c-.61-.32-1.58-.86-2.54-1.42L94.59,128c-1.41-.82-2.5-1.67-2.42-1.88s-.24-.54-.72-.72a3.12,3.12,0,0,1-1.38-1.32c-.21-.39-.22-.62-.06-.62a.48.48,0,0,1,.25.1,1,1,0,0,0,.55.15,1.4,1.4,0,0,0,.93-.35A1.84,1.84,0,0,1,92.9,123a2.51,2.51,0,0,1,.9.16,3.4,3.4,0,0,1,1.59,1.12,4.13,4.13,0,0,0,1.22,1.22,4.52,4.52,0,0,1,1.22,1.11,5.84,5.84,0,0,0,2.06,1.22,5.72,5.72,0,0,0,1.84.48.42.42,0,0,0,.29-.07.44.44,0,0,1,.29-.09,1.19,1.19,0,0,1,.69.26,23.88,23.88,0,0,0,3.33,1.66l.09,0a8.22,8.22,0,0,1,2.77,1.59c0,.17-.32.28-.81.28a4.92,4.92,0,0,1-.52,0,6.19,6.19,0,0,0-.82-.05c-.38,0-.65,0-.7.12s.48.66,1.25,1.17a12.14,12.14,0,0,1,1.69,1.28,10.05,10.05,0,0,0,1.84,1.09l-2.63.48"/><path class="cls-14" d="M116.75,127.23l-.1,0a11.45,11.45,0,0,0-2-.3c-.85-.07-1.42-.63-1.27-1.22s-1-1.65-2.44-2.33l-3.48-1.59a17.53,17.53,0,0,1-2.84-1.49,18.37,18.37,0,0,1-.1-3.22l.07-3.71a7.8,7.8,0,0,1,.7-3.62,2.62,2.62,0,0,1,1.14-.71h.08a.87.87,0,0,1,.68.34,3.29,3.29,0,0,0,1.67.63,3,3,0,0,0,.52,0,2.15,2.15,0,0,0,1.46-.43,2.23,2.23,0,0,1,1.48-.46l.37,0a1.32,1.32,0,0,0,.29,0,11,11,0,0,0,3.38-.78,17.46,17.46,0,0,1,3.87-1.06,10.36,10.36,0,0,0,2.66-.61c.65-.27,1.92-.86,2.82-1.31a3.16,3.16,0,0,1,1.34-.34.93.93,0,0,1,.81.31,3.49,3.49,0,0,1,.48,1.62,2.68,2.68,0,0,0,.64,1.58c.36.41.94,1.17,1.29,1.68s.16.66-.24.66a1.37,1.37,0,0,1-.38-.05,1.59,1.59,0,0,0-.44-.07c-.4,0-.57.21-.39.55s0,.74-.58.74h-.22a1.33,1.33,0,0,0-1.23.58c-.14.36-.53,1.57-.88,2.69a3.94,3.94,0,0,0,.22,3.11c.46.58,0,1.11-1,1.18a5.12,5.12,0,0,0-2.69,1,14.65,14.65,0,0,1-2.36,1.64,3.26,3.26,0,0,0-1.61,1.91,3.28,3.28,0,0,1-.56,1.48,3.32,3.32,0,0,0-.65,1,.75.75,0,0,1-.59.55"/><path class="cls-14" d="M122.51,133.45l0-.06c.13-.32.47-1.22.75-2a4.64,4.64,0,0,0,.39-1.94,8.79,8.79,0,0,1-.17-1.5,1.71,1.71,0,0,1,.47-1.31,3,3,0,0,0,.83-1.22,2.15,2.15,0,0,1,1.2-1.13,2.15,2.15,0,0,0,1.2-1.13,4.8,4.8,0,0,1,.82-1.38,3.42,3.42,0,0,1,1.11-.72,6.14,6.14,0,0,1,1.29-.25h0a16.75,16.75,0,0,1,3.41,1l1.47.56a15.81,15.81,0,0,0,4,1h.32a6.93,6.93,0,0,1,1.22.07c.14.06.19.3.1.54a2.49,2.49,0,0,1-1.45.69c-.71.14-1.66.29-2.12.34h0a11.83,11.83,0,0,1-3.43-1.24l-.69-.34a9.65,9.65,0,0,0-3.23-1,.78.78,0,0,0-.24,0,3.11,3.11,0,0,0-1.31,1.09,1.7,1.7,0,0,0-.28,1.28,2.79,2.79,0,0,1,.22,1,.4.4,0,0,0,.39.4l.11,0a6.26,6.26,0,0,1,1-.06h.54a23,23,0,0,1,3,.49c1,.23,1.79.58,1.64.77a5.86,5.86,0,0,1-2.44.41,5.41,5.41,0,0,0-2.51.49,4.79,4.79,0,0,0,0,2.49c.08.39.17.8.26,1.19l-2.58.48s0-.05,0-.07a4.46,4.46,0,0,1,0-2,1.13,1.13,0,0,0-.22-1.13,1.11,1.11,0,0,0-.72-.39.27.27,0,0,0-.13,0,1.2,1.2,0,0,0-.48.76,7.48,7.48,0,0,1-.71,1.61,5.75,5.75,0,0,0-.63,1.78l-2.4.45"/><path class="cls-14" d="M145.17,129.24c0-.06,0-.11,0-.16,0-.35-.17-.59-.34-.59h-.1c-.14,0,.18-.73.73-1.69a4.69,4.69,0,0,1,2.46-2.14,2.69,2.69,0,0,1,.53-.06c.46,0,.72.17.61.46a.75.75,0,0,1-.7.47.92.92,0,0,1-.28,0,.8.8,0,0,0-.3-.06.69.69,0,0,0-.67.43c-.13.34.11.6.52.6h.28a1.47,1.47,0,0,1,.88.2.58.58,0,0,1-.05.67,1,1,0,0,1-.77.29,1.17,1.17,0,0,1-.32,0h-.12c-.34,0-.44.37-.21.88a2.13,2.13,0,0,1,.14.37l-.62.11a1.64,1.64,0,0,1-.14-.22c-.07-.11-.14-.17-.22-.17s-.31.2-.44.54l-.86.16"/><path class="cls-15" d="M83.69,83.6a.51.51,0,0,1-.35-.12,1.24,1.24,0,0,1-.46-1.07.88.88,0,0,0,0-.73c-.12-.13.22-.41.76-.63L84,80.9l2,.77c-.25.31-.57.69-.91,1.06a2.35,2.35,0,0,1-1.47.87"/><path class="cls-13" d="M86.07,81.67l-2-.77a6.16,6.16,0,0,1,1.57-.25h0c.57,0,1,.17.89.38a3.59,3.59,0,0,1-.43.64"/><path class="cls-14" d="M96.55,117.45a1,1,0,0,1-.56-.18,7.87,7.87,0,0,1-1.54-1.87c-.49-.79-.53-1.7-.1-2a1.46,1.46,0,0,1,.86-.29,1,1,0,0,1,.58.17,1.61,1.61,0,0,1,.4,1.54,1.56,1.56,0,0,0,.48,1.54c.39.25.55.67.34.92a.56.56,0,0,1-.46.19"/><path class="cls-16" d="M86.69,88.47h0m-.33-.41a1,1,0,0,0-.51-.13,1.16,1.16,0,0,0-.4.07,1.23,1.23,0,0,1-.35,0,5,5,0,0,1-2.37-.86c-1-.63-1.41-1.39-1-1.67s.34-.94-.14-1.46A5.92,5.92,0,0,0,80.36,83a1.38,1.38,0,0,1-.57-.51.74.74,0,0,1-.08-.63.72.72,0,0,0,0-.5.48.48,0,0,0-.45-.23h-.07c-.24,0-.72-.69-1.09-1.56a3.4,3.4,0,0,1-.29-1c0-.26,0-.41.18-.41h.07l.22,0a.49.49,0,0,0,.52-.4c0-.07,0-.11.07-.11s.33.35.56.92a5.21,5.21,0,0,0,.34.71c.25.42.52.72.69.75a.77.77,0,0,1,.58.37.88.88,0,0,0,.52.42h.11a2.09,2.09,0,0,0,1-.44h0a6.07,6.07,0,0,0,1.16-1.23,4.43,4.43,0,0,1,.34-.45,8.19,8.19,0,0,1,.84-.83c.42-.35.13-.67-.65-.72a4.38,4.38,0,0,1-2.54-1.55l-.06-.08A10.4,10.4,0,0,1,80.21,72a11.85,11.85,0,0,1,0-4,15.35,15.35,0,0,1,1.42-3.83,25.06,25.06,0,0,1,2.29-3.22.77.77,0,0,1,.54-.31c.46,0,.82.73.89,2,.09,1.69.66,3.49,1.26,4a10.74,10.74,0,0,1,1.84,2.09A4.26,4.26,0,0,0,89.63,70a.2.2,0,0,0,.11,0,3.64,3.64,0,0,0,1.64-.84c.7-.55,1.25-1.12,1.22-1.25s-.32-.31-.64-.39a1.2,1.2,0,0,1-.74-.48c-.06-.13,0-.21.17-.21l.2,0a2.43,2.43,0,0,0,.55.07,1.06,1.06,0,0,0,.33,0c.19-.06.09-.21-.25-.34a6.7,6.7,0,0,0-1.32-.3c-.39,0-.45-.24-.13-.45a2,2,0,0,1,.9-.29h.1a1.7,1.7,0,0,0,.37,0,9.89,9.89,0,0,0,1.24-.09c.2,0,.42,0,.63,0a3.49,3.49,0,0,1,1.13.15l-.25-.07L86.36,88.06M84,80.9l-.44.15c-.54.22-.88.5-.76.63a.88.88,0,0,1,0,.73,1.24,1.24,0,0,0,.46,1.07.51.51,0,0,0,.35.12,2.35,2.35,0,0,0,1.47-.87c.34-.37.66-.75.91-1.06A3.59,3.59,0,0,0,86.5,81c.08-.21-.32-.38-.89-.38h0A6.16,6.16,0,0,0,84,80.9m11.1-15.28h0"/><path class="cls-15" d="M91.9,86.73h-.14c-.49,0-.9-.81-.91-1.73v-.12c0-.49,0-1,.06-1.37l2.06.78a3.82,3.82,0,0,1,.24.51,2.65,2.65,0,0,1,.18.83c0,.14,0,.23-.09.25a.89.89,0,0,0-.46.49c-.09.21-.5.37-.94.37"/><path class="cls-13" d="M93,84.28l-2.06-.78a3.34,3.34,0,0,1,.11-.65.24.24,0,0,1,.24-.15,1.33,1.33,0,0,1,.77.38,4.86,4.86,0,0,1,.94,1.2"/><path class="cls-17" d="M90,89.76a4.51,4.51,0,0,1-.86-.08c-1.23-.22-2.35-.76-2.49-1.21h0a.74.74,0,0,0-.32-.4h0l8.53-22.52.25.07h0a1.93,1.93,0,0,0,.74.16,1,1,0,0,0,.26,0,.23.23,0,0,1,.11,0,.15.15,0,0,1,.17.17.5.5,0,0,1,0,.16c-.1.25-.24.63-.31.83a6.19,6.19,0,0,0-.22,1.3c0,.52-.19,1.62-.32,2.46a5.46,5.46,0,0,0-.06.79,1.56,1.56,0,0,0,.24,1,1.3,1.3,0,0,0,.69.2l.23,0a2,2,0,0,0,.8-.4,2.21,2.21,0,0,1,1-.4c.38-.07,1.52-.23,2.53-.35a7.31,7.31,0,0,0,3.67-2.21,2.14,2.14,0,0,1,1.3-.83c.32,0,.52.26.53.78v0a19.73,19.73,0,0,1-.76,4.52A18.09,18.09,0,0,1,103.81,78a11.88,11.88,0,0,1-2.48,2.56,8.49,8.49,0,0,1-3,1.18l-.21,0H97.9a4.82,4.82,0,0,1-2.47-.7,1.3,1.3,0,0,0-.7-.25c-.37,0-.62.28-.62.8,0,.26,0,.54,0,.82,0,.56,0,1.09-.09,1.36a1.72,1.72,0,0,0,0,.33,3.35,3.35,0,0,0,.19,1.13,1.76,1.76,0,0,0,.51.79l.15,0a1.56,1.56,0,0,0,.56-.13,1,1,0,0,1,.29,0,.44.44,0,0,1,.37.15s.09.06.19.06a4.32,4.32,0,0,0,1.45-.45,2.8,2.8,0,0,1,1-.32c.11,0,.17,0,.17.1a.26.26,0,0,1,0,.1.54.54,0,0,0-.07.27.57.57,0,0,0,.41.53c.09,0,.13.08.13.13a.29.29,0,0,1-.08.17,3.12,3.12,0,0,1-1.09.69,4.7,4.7,0,0,1-1.61.48c-.13,0-.21,0-.23-.08a.37.37,0,0,0-.36-.24.57.57,0,0,0-.18,0c-.22.09-.4.27-.4.39h0c0,.13-.26.26-.58.3a3.39,3.39,0,0,1-.44,0,1.68,1.68,0,0,1-.38,0,3.61,3.61,0,0,0-.78,0l-.79,0c-.68,0-1.18.39-1.18.84a.59.59,0,0,0,0,.13s0,.06,0,.08c0,.33-.48.52-1.18.52m.81-4.89V85c0,.92.42,1.69.91,1.73h.14c.44,0,.85-.16.94-.37a.89.89,0,0,1,.46-.49c.06,0,.09-.11.09-.25a2.65,2.65,0,0,0-.18-.83,3.82,3.82,0,0,0-.24-.51,4.86,4.86,0,0,0-.94-1.2,1.33,1.33,0,0,0-.77-.38.24.24,0,0,0-.24.15,3.34,3.34,0,0,0-.11.65c0,.39-.06.88-.06,1.37"/><path class="cls-5" d="M157.61,107.15a7.06,7.06,0,0,1-5.31,8.43L34,142.46a7.06,7.06,0,0,1-8.43-5.31L9.82,67.72a7.06,7.06,0,0,1,5.31-8.43L133.4,32.41a7.06,7.06,0,0,1,8.43,5.31l15.78,69.43Z"/><polygon class="cls-18" points="146.08 88.67 115.88 95.53 106.92 56.11 137.12 49.25 146.08 88.67 146.08 88.67"/><g class="cls-19"><polygon class="cls-20" points="131.88 96.84 129.42 94.19 132.95 93.38 131.88 96.84 131.88 96.84"/></g><polygon class="cls-11" points="141.72 93.9 122.07 98.37 121.61 96.32 141.26 91.85 141.72 93.9 141.72 93.9"/><polygon class="cls-11" points="140.15 97.87 125.2 101.27 124.74 99.22 139.68 95.82 140.15 97.87 140.15 97.87"/><path class="cls-21" d="M127.17,108.67c4.47-2.72,9.92-4,13.57-8a.28.28,0,0,0-.27-.47,40.33,40.33,0,0,0-4.84,1.6,5.08,5.08,0,0,0-2.81,2.44,2.46,2.46,0,0,0,.6,2.88c1,.74,2.53.79,2.41,2.34,0,.36.52.35.55,0a2,2,0,0,0-1.19-2c-1.13-.6-2.25-.94-2-2.5s1.68-2.2,2.89-2.72a41.07,41.07,0,0,1,4.52-1.46l-.27-.47c-3.61,3.89-9,5.21-13.46,7.89-.3.19,0,.67.28.49Z"/><polygon class="cls-11" points="98.16 69.09 49.75 80.1 49.29 78.05 97.69 67.05 98.16 69.09 98.16 69.09"/><polygon class="cls-11" points="83.18 76.81 50.68 84.2 50.22 82.15 82.71 74.76 83.18 76.81 83.18 76.81"/><polygon class="cls-11" points="67.02 84.79 51.62 88.3 51.15 86.25 66.55 82.75 67.02 84.79 67.02 84.79"/><polygon class="cls-11" points="66.59 89.2 52.55 92.39 52.08 90.34 66.13 87.15 66.59 89.2 66.59 89.2"/><polygon class="cls-11" points="64.93 93.89 53.48 96.49 53.01 94.44 64.47 91.84 64.93 93.89 64.93 93.89"/><polygon class="cls-11" points="77.32 95.38 54.41 100.59 53.95 98.54 76.86 93.33 77.32 95.38 77.32 95.38"/><polygon class="cls-11" points="68.85 101.62 55.34 104.69 54.88 102.64 68.38 99.57 68.85 101.62 68.85 101.62"/><polygon class="cls-11" points="63.98 107.04 56.27 108.79 55.81 106.74 63.51 104.99 63.98 107.04 63.98 107.04"/><polygon class="cls-11" points="66.21 110.84 57.21 112.89 56.74 110.84 65.74 108.79 66.21 110.84 66.21 110.84"/><polygon class="cls-11" points="81.05 111.78 58.14 116.99 57.67 114.94 80.58 109.73 81.05 111.78 81.05 111.78"/><polygon class="cls-11" points="66.77 119.33 59.07 121.08 58.6 119.04 66.31 117.28 66.77 119.33 66.77 119.33"/><polygon class="cls-11" points="71.45 122.58 60 125.18 59.53 123.13 70.99 120.53 71.45 122.58 71.45 122.58"/><polygon class="cls-11" points="107.93 51.88 46.51 65.84 46.05 63.79 107.46 49.83 107.93 51.88 107.93 51.88"/><polygon class="cls-11" points="31.15 61.19 31.62 63.24 31.62 63.24 32.08 65.29 120.7 45.14 120.23 43.09 120.23 43.09 119.77 41.05 31.15 61.19 31.15 61.19"/><path class="cls-18" d="M44.78,69.66l1-.22.71,3.11.39-.09-.21-.91a.32.32,0,0,1,0-.2.17.17,0,0,1,.13-.1.19.19,0,0,1,.16,0,.26.26,0,0,1,.1.17l.26,1.14a.22.22,0,0,1,0,.18.25.25,0,0,1-.15.1l-1.56.36a.23.23,0,0,1-.28-.18.25.25,0,0,1,0-.19.24.24,0,0,1,.15-.1l.57-.13L45.46,70l-.58.13a.23.23,0,0,1-.18,0,.29.29,0,0,1-.1-.16.27.27,0,0,1,0-.18.21.21,0,0,1,.15-.1Z"/><path class="cls-18" d="M48.27,68.87l1.37-.32a.41.41,0,0,1,.32.07.54.54,0,0,1,.2.31L50.4,70a.47.47,0,0,1,0,.35.37.37,0,0,1-.26.2l-1.19.27.25,1.1,1.37-.31a.22.22,0,0,1,.18,0,.25.25,0,0,1,.1.16.22.22,0,0,1,0,.18.31.31,0,0,1-.15.1l-1.79.41-.35-1.56a.55.55,0,0,1,0-.36.4.4,0,0,1,.26-.2l1.2-.27L49.75,69l-1.38.31a.2.2,0,0,1-.18,0,.24.24,0,0,1-.1-.15.27.27,0,0,1,0-.18.21.21,0,0,1,.15-.1Z"/><path class="cls-18" d="M51.76,68.07l1.37-.31a.41.41,0,0,1,.32.07.49.49,0,0,1,.2.3l.19.86a1,1,0,0,1,0,.24.72.72,0,0,1-.07.25.87.87,0,0,1,.17.22.5.5,0,0,1,.09.23l.2.85a.5.5,0,0,1,0,.36.38.38,0,0,1-.25.2l-1.38.31a.19.19,0,0,1-.18,0,.24.24,0,0,1-.1-.15.27.27,0,0,1,0-.18.21.21,0,0,1,.15-.1l1.37-.31-.2-.87a.25.25,0,0,0-.1-.15.18.18,0,0,0-.16,0l-.76.17a.22.22,0,0,1-.18,0,.29.29,0,0,1-.1-.16.27.27,0,0,1,0-.18.23.23,0,0,1,.15-.1l.77-.18a.18.18,0,0,0,.13-.1.25.25,0,0,0,0-.17l-.2-.86-1.37.31a.27.27,0,0,1-.18,0,.24.24,0,0,1-.1-.15.27.27,0,0,1,0-.18.22.22,0,0,1,.15-.11Z"/><path class="cls-18" d="M55.59,67.47,56,69.16l.8-.18-.3-1.3a.33.33,0,0,1,0-.2.17.17,0,0,1,.13-.1.2.2,0,0,1,.17,0,.32.32,0,0,1,.1.18l.29,1.3a.22.22,0,0,1,.16,0,.27.27,0,0,1,.1.15.25.25,0,0,1,0,.17.28.28,0,0,1-.13.11l.2.9a.27.27,0,0,1,0,.2.2.2,0,0,1-.13.11.18.18,0,0,1-.16,0,.27.27,0,0,1-.1-.18l-.21-.9-1.2.27-.49-2.15a.33.33,0,0,1,0-.2.22.22,0,0,1,.14-.11.19.19,0,0,1,.16,0,.32.32,0,0,1,.1.17Z"/><path class="cls-18" d="M58.91,66.45l1.38-.32a.27.27,0,0,1,.18,0,.23.23,0,0,1,.1.15.22.22,0,0,1,0,.18.24.24,0,0,1-.15.11l-1,.22.25,1.09.79-.18a.36.36,0,0,1,.31.07.48.48,0,0,1,.2.3l.25,1.1a.48.48,0,0,1,0,.35.36.36,0,0,1-.25.2L60,70h-.24l-.36-.08a.24.24,0,0,1-.12-.07.19.19,0,0,1-.07-.13.2.2,0,0,1,0-.17.19.19,0,0,1,.13-.1h.1l.35.07h.08l.91-.2-.25-1.1-1.2.28-.46-2Z"/><path class="cls-18" d="M63,68.07l.16.7,1.19-.28-.16-.7L63,68.07ZM62.2,65.7l.19,0a.17.17,0,0,1,.17,0,.22.22,0,0,1,.11.15.25.25,0,0,1,0,.17.24.24,0,0,1-.13.11l.34,1.48L64,67.34a.46.46,0,0,1,.37.06.59.59,0,0,1,.2.35l.14.6a.68.68,0,0,1,0,.41.42.42,0,0,1-.31.21l-1.11.25a.44.44,0,0,1-.36-.06.55.55,0,0,1-.2-.35L62.06,66a.33.33,0,0,1,0-.2.19.19,0,0,1,.13-.1Z"/><path class="cls-18" d="M65.69,64.91l1.81-.41.32,1.38a.57.57,0,0,1,0,.12.69.69,0,0,1-.06.13l-.55.84.23,1a.27.27,0,0,1,0,.2.19.19,0,0,1-.13.1.18.18,0,0,1-.16,0,.27.27,0,0,1-.1-.17L66.79,67a.57.57,0,0,1,0-.12l.06-.13.55-.83-.19-.84-1.2.27a.25.25,0,0,1,0,.16.16.16,0,0,1-.12.08.18.18,0,0,1-.16,0,.32.32,0,0,1-.1-.18l0-.14a.33.33,0,0,1,0-.2.17.17,0,0,1,.13-.1Z"/><path class="cls-18" d="M69.9,64.44l.24,1.09.39-.09-.24-1.09-.39.09Zm-.05,1.65.25,1.09,1.19-.27L71,65.81l-1.19.28ZM69.59,64l.79-.18a.21.21,0,0,1,.17,0,.32.32,0,0,1,.1.17l.29,1.3a.43.43,0,0,1,.34.08.61.61,0,0,1,.18.34l.23,1a.65.65,0,0,1,0,.4.42.42,0,0,1-.31.21l-1.11.25a.41.41,0,0,1-.36,0,.57.57,0,0,1-.2-.36l-.23-1a.63.63,0,0,1,0-.39.43.43,0,0,1,.27-.22l-.3-1.29a.3.3,0,0,1,0-.21.17.17,0,0,1,.13-.1Z"/><path class="cls-18" d="M73,63.74l.16.7,1.2-.27-.16-.7-1.2.27Zm-.06-.48L74,63a.44.44,0,0,1,.36.06.58.58,0,0,1,.21.36l.64,2.8a.32.32,0,0,1,0,.2.19.19,0,0,1-.13.1l-.18,0a.22.22,0,0,1-.18,0,.25.25,0,0,1-.1-.16.22.22,0,0,1,0-.16.3.3,0,0,1,.13-.12l-.34-1.48-1.15.27a.44.44,0,0,1-.36-.06.58.58,0,0,1-.21-.36l-.13-.6a.56.56,0,0,1,0-.41.49.49,0,0,1,.3-.21Z"/><path class="cls-18" d="M76.47,62.94l.61,2.65,1.19-.27-.6-2.65-1.2.27Zm-.06-.47,1.11-.25a.44.44,0,0,1,.36.05.58.58,0,0,1,.21.36l.58,2.55a.68.68,0,0,1,0,.41.48.48,0,0,1-.31.21l-1.11.25a.44.44,0,0,1-.36-.06.53.53,0,0,1-.2-.35l-.58-2.56a.53.53,0,0,1,0-.4.4.4,0,0,1,.3-.21Z"/><path class="cls-18" d="M80,62.15l.61,2.65,1.19-.27-.6-2.65-1.2.27Zm-.06-.47L81,61.43a.41.41,0,0,1,.36,0,.58.58,0,0,1,.21.35l.58,2.56a.65.65,0,0,1,0,.4.42.42,0,0,1-.31.21l-1.11.25a.41.41,0,0,1-.36,0,.53.53,0,0,1-.2-.36l-.58-2.55a.56.56,0,0,1,0-.41.42.42,0,0,1,.3-.2Z"/><path class="cls-18" d="M83.45,61.36,84.06,64l1.19-.27-.6-2.65-1.2.27Zm-.06-.48,1.11-.25a.44.44,0,0,1,.36.06.58.58,0,0,1,.21.35l.58,2.55a.68.68,0,0,1,0,.41.42.42,0,0,1-.31.21l-1.11.25a.44.44,0,0,1-.36-.06.51.51,0,0,1-.2-.35l-.58-2.55a.56.56,0,0,1,0-.41.46.46,0,0,1,.3-.21Z"/><path class="cls-18" d="M86.94,60.56l.61,2.65,1.19-.27-.6-2.65-1.2.27Zm-.06-.47L88,59.84a.44.44,0,0,1,.36,0,.58.58,0,0,1,.21.36l.58,2.55a.68.68,0,0,1,0,.41.48.48,0,0,1-.31.21l-1.11.25a.44.44,0,0,1-.36-.06.53.53,0,0,1-.2-.35l-.58-2.56a.53.53,0,0,1,0-.4.4.4,0,0,1,.3-.21Z"/><path class="cls-18" d="M90.43,59.77,91,62.42l1.19-.27-.6-2.65-1.2.27Zm-.06-.47,1.11-.25a.41.41,0,0,1,.36.05.58.58,0,0,1,.21.35L92.63,62a.65.65,0,0,1,0,.4.42.42,0,0,1-.31.21l-1.11.25a.41.41,0,0,1-.36,0,.53.53,0,0,1-.2-.36L90,59.91a.53.53,0,0,1,0-.4.4.4,0,0,1,.3-.21Z"/><path class="cls-18" d="M93.92,59l.61,2.65,1.19-.27-.6-2.65-1.2.27Zm-.06-.48L95,58.25a.44.44,0,0,1,.36.06.58.58,0,0,1,.21.35l.58,2.55a.67.67,0,0,1,0,.41.42.42,0,0,1-.31.21l-1.11.25a.41.41,0,0,1-.36-.06.51.51,0,0,1-.2-.35l-.58-2.55a.56.56,0,0,1,0-.41.44.44,0,0,1,.3-.21Z"/><path class="cls-18" d="M97.41,58.18,98,60.83l1.19-.27-.6-2.65-1.2.27Zm-.06-.47,1.11-.25a.44.44,0,0,1,.36,0,.61.61,0,0,1,.21.36l.58,2.55a.68.68,0,0,1,0,.41.48.48,0,0,1-.31.21l-1.11.25a.44.44,0,0,1-.36-.06.53.53,0,0,1-.2-.35L97,58.33a.55.55,0,0,1,0-.41.39.39,0,0,1,.3-.21Z"/><polygon class="cls-11" points="33.26 83.85 21.32 86.56 20.86 84.51 32.8 81.8 33.26 83.85 33.26 83.85"/><polygon class="cls-11" points="38.53 86.96 22.26 90.66 21.79 88.61 38.07 84.91 38.53 86.96 38.53 86.96"/><polygon class="cls-11" points="36.93 91.63 23.19 94.76 22.72 92.71 36.47 89.58 36.93 91.63 36.93 91.63"/><polygon class="cls-11" points="36.69 96 24.12 98.86 23.65 96.81 36.22 93.95 36.69 96 36.69 96"/><polygon class="cls-11" points="38.8 99.83 31.02 101.6 30.55 99.55 38.33 97.78 38.8 99.83 38.8 99.83"/><polygon class="cls-11" points="41.9 103.44 31.95 105.7 31.48 103.65 41.43 101.39 41.9 103.44 41.9 103.44"/><polygon class="cls-11" points="46.45 106.71 32.88 109.8 32.42 107.75 45.98 104.66 46.45 106.71 46.45 106.71"/><polygon class="cls-11" points="39.78 112.54 27.85 115.25 27.38 113.2 39.32 110.49 39.78 112.54 39.78 112.54"/><polygon class="cls-11" points="51.31 114.23 28.78 119.35 28.31 117.3 50.85 112.18 51.31 114.23 51.31 114.23"/><polygon class="cls-11" points="44.54 120.08 29.71 123.45 29.24 121.4 44.07 118.03 44.54 120.08 44.54 120.08"/><polygon class="cls-11" points="52.09 122.67 30.64 127.55 30.18 125.5 51.63 120.62 52.09 122.67 52.09 122.67"/><polygon class="cls-11" points="49.66 127.53 31.57 131.65 31.11 129.59 49.19 125.48 49.66 127.53 49.66 127.53"/><polygon class="cls-11" points="26.22 77.4 19.59 78.9 18.76 75.29 25.39 73.78 26.22 77.4 26.22 77.4"/><polygon class="cls-18" points="146.08 88.67 115.88 95.53 106.92 56.11 137.12 49.25 146.08 88.67 146.08 88.67"/><g class="cls-22"><path class="cls-23" d="M141.22,84.24l10.4,5.43a3.45,3.45,0,0,1,1.51,4.59h0a3.45,3.45,0,0,1-4.58,1.59l-8.65-4.13Z"/><path class="cls-23" d="M150.46,76.25l-3.28,16A3.15,3.15,0,0,0,149.79,96h0A3.15,3.15,0,0,0,153.41,93L154,76.35Z"/><path class="cls-23" d="M156.42,68.05a.44.44,0,0,0-.64.11l-1.56,3-.1-4.43a.45.45,0,0,0-.49-.45.46.46,0,0,0-.43.41l-.43,4.11-.42-4.88a.41.41,0,0,0-.42-.37.42.42,0,0,0-.41.4l-.1,4.56-.64-3.8a.49.49,0,0,0-.63-.36c-.29,0-.4.39-.38.62l.6,5.4-.75-1.55a.6.6,0,0,0-1.13.39c.73,3.85,2,5.06,2,5.06l3.5.1a7,7,0,0,0,1.41-4.28l1.17-3.51A.43.43,0,0,0,156.42,68.05Z"/><path class="cls-24" d="M133.24,81.26c4.6-.07,11.21,3.71,11.21,3.71l-2,8.09-6.63-3.21Z"/><path class="cls-23" d="M126.77,113l-7.85-11.65,6.24-8.1-7-2.8-4.64,6.43c-1.88,2.71-2.39,5.36.07,7.57l10.86,11Z"/><path class="cls-23" d="M125.86,112.56s1.35-.29,1.9,3,1.58,5.33-.65,5.71-6.25-1.12-3.9-4l.7-2.87Z"/><path class="cls-24" d="M124.34,83.67c-3.31,1.51-8.47,8.51-8.47,8.51L121,98.83l4.86-5.69Z"/><path class="cls-24" d="M124.34,83.67a20.38,20.38,0,0,0-3.68,3.72l7.17,17,12.3-3.49-1.85-17.07A2.26,2.26,0,0,0,136.4,82l-3.16-.77C132,82.17,124.34,83.67,124.34,83.67Z"/><line class="cls-25" x1="123.97" y1="95.38" x2="122.59" y2="92.06"/><line class="cls-25" x1="139.28" y1="91.51" x2="138.79" y2="87.81"/><polygon class="cls-26" points="158.59 169.69 156.71 159.94 152.09 160.81 154.58 170.93 158.59 169.69 158.59 169.69"/><path class="cls-27" d="M153.56,168.91s3.85.67,4.92-2.1l9.59,2.56-14.73,3.43Z"/><rect class="cls-28" x="153.3" y="171.07" width="15.11" height="1.33" transform="translate(-34.73 40.91) rotate(-13.1)"/><polygon class="cls-27" points="152.92 164.19 157.54 164.25 157.33 163.13 152.92 164.19"/><polygon class="cls-26" points="136.93 174.88 135.86 164.94 140.37 163.61 141.06 174.17 136.93 174.88 136.93 174.88"/><path class="cls-27" d="M141.42,171.82s-3.12,2.34-5.34.36l-7.38,6.63,14.68-3.62Z"/><rect class="cls-28" x="128.64" y="176.98" width="15.11" height="1.33" transform="translate(311 317.48) rotate(166.14)"/><polygon class="cls-27" points="136.16 167.81 140.68 168.3 140.59 166.95 136.16 167.81"/><path class="cls-29" d="M127.83,104.4s-1.68,4-1.4,13.32c.29,9.82,6.67,50.68,6.67,50.68l11.64-2.25-6.05-45.94L149.47,165l11.1-2.66s-8.32-54.61-20.44-61.44Z"/><line class="cls-30" x1="134.1" y1="118.7" x2="138.69" y2="120.21"/><line class="cls-30" x1="148.19" y1="159.69" x2="159.7" y2="156.93"/><line class="cls-30" x1="132.42" y1="163.47" x2="143.92" y2="160.71"/><path class="cls-31" d="M136.53,71.32c-1-1.91-1.13-1.5-3.92-5.13C131,64,129.88,63.25,129.29,63h0a7.52,7.52,0,0,0-5.58-.75,7.43,7.43,0,0,0-4.48,3.05h0c-.4.43-1.07,1.56-1.62,4.51-.84,4.49-1.12,4.17-1.17,6.35a5.37,5.37,0,0,0,5.93,5.5,3.23,3.23,0,0,1-1.08-1.25s2.34,2,4.7,1.26l4.53-1.09c2.43-.43,3.62-3.25,3.62-3.25a3.2,3.2,0,0,1-.39,1.6A5.37,5.37,0,0,0,136.53,71.32Z"/><path class="cls-23" d="M125.23,78l1.08,4.33c.33,1.34,1.13,1,2.45.63h0c1.13-.29,2.14-.75,2-1.9l-1.79-6Z"/><polygon class="cls-31" points="130.48 79.56 125.18 78.23 129.28 76.16 130.48 79.56"/><path class="cls-23" d="M126.26,82.14l-2.39,1.71s6.14,1.46,9.57-2.62l-2.69-.16Z"/><path class="cls-31" d="M131.8,67.48a6.55,6.55,0,1,1-12.73,3,6.55,6.55,0,0,1,12.73-3Z"/><path class="cls-23" d="M133.69,70.53a1.79,1.79,0,1,1-2.16-1.33A1.78,1.78,0,0,1,133.69,70.53Z"/><path class="cls-32" d="M131.07,71.55a1.48,1.48,0,0,1,1.3-1.31"/><circle class="cls-23" cx="120.31" cy="73.73" r="1.79"/><path class="cls-32" d="M121.37,73.88a1.48,1.48,0,0,0-1.75-.58"/><path class="cls-23" d="M130.72,67.85a24.41,24.41,0,0,1,.66,5.57A4.82,4.82,0,0,1,129.67,77l-.19.19a4.45,4.45,0,0,1-4.3,1.08h0a4.86,4.86,0,0,1-3.32-2.55A35.6,35.6,0,0,1,120,70.43s-1.82-5.4,4-6.68S130.72,67.85,130.72,67.85Z"/><path class="cls-31" d="M127.83,63.54s-.31,6.63-8.57,8c0,0-.74-6.3,3.07-7.76C122.33,63.81,126.06,62.33,127.83,63.54Z"/><path class="cls-31" d="M125.63,63.35a9.93,9.93,0,0,0,5.36,5.8V67S130.54,62.63,125.63,63.35Z"/><polygon class="cls-31" points="121.08 70.05 120.77 72.92 119.72 70.38 121.08 70.05"/><polygon class="cls-31" points="129.54 68.02 131.1 70.21 130.9 67.7 129.54 68.02"/><path class="cls-31" d="M123.9,72.08a.53.53,0,0,1-.4.64.53.53,0,0,1-.64-.39.53.53,0,1,1,1-.25Z"/><path class="cls-31" d="M128.86,70.89a.53.53,0,0,1-.4.64.52.52,0,0,1-.64-.39.54.54,0,0,1,.39-.65A.55.55,0,0,1,128.86,70.89Z"/><path class="cls-33" d="M125.89,72.64l.17.7a.28.28,0,0,0,.39.2l.36-.17"/><path class="cls-31" d="M122.88,70.09s1.06-.42,1.21,0c0,0,.09.3-.85.65s-1.59.44-1.76.18S122.37,70.24,122.88,70.09Z"/><path class="cls-31" d="M127.79,68.84s-1.19.11-1.12.59c0,0,.06.33,1.1.2s1.69-.34,1.72-.66S128.33,68.74,127.79,68.84Z"/><path class="cls-28" d="M124.59,75l4.1-1s-.07,1.13-1.8,1.55A2.46,2.46,0,0,1,124.59,75Z"/></g></svg>