<svg xmlns="http://www.w3.org/2000/svg" xmlns:xlink="http://www.w3.org/1999/xlink" viewBox="0 0 212 212"><defs><style>.cls-1{fill:none;}.cls-2{fill:#fff;}.cls-19,.cls-3{fill:#f69185;}.cls-12,.cls-38,.cls-4{fill:#282267;}.cls-40,.cls-5{fill:#ffe6ce;}.cls-6{fill:#ee2259;}.cls-7{isolation:isolate;}.cls-8{fill:#009b57;}.cls-9{clip-path:url(#clip-path);}.cls-10{fill:#006838;}.cls-11{clip-path:url(#clip-path-3);}.cls-12,.cls-25,.cls-30,.cls-33,.cls-46{opacity:0.5;}.cls-12,.cls-14,.cls-19,.cls-21,.cls-25,.cls-35,.cls-40,.cls-43,.cls-46{mix-blend-mode:multiply;}.cls-13{clip-path:url(#clip-path-4);}.cls-14,.cls-21,.cls-23,.cls-26{fill:#e7e9f5;}.cls-14,.cls-45{opacity:0.4;}.cls-15{fill:#473694;}.cls-16{clip-path:url(#clip-path-5);}.cls-17{fill:#010101;}.cls-18{clip-path:url(#clip-path-6);}.cls-19{opacity:0.3;}.cls-20{clip-path:url(#clip-path-7);}.cls-21,.cls-26{opacity:0.6;}.cls-22{fill:#c8d3ec;}.cls-24{clip-path:url(#clip-path-8);}.cls-27{clip-path:url(#clip-path-9);}.cls-28{opacity:0.53;}.cls-29,.cls-30{fill:#fccdb2;}.cls-31{clip-path:url(#clip-path-10);}.cls-32{clip-path:url(#clip-path-11);}.cls-33,.cls-36{fill:#d52727;}.cls-34{clip-path:url(#clip-path-12);}.cls-35{fill:#ee2b61;opacity:0.07;}.cls-37{clip-path:url(#clip-path-13);}.cls-38{mix-blend-mode:screen;}.cls-39{clip-path:url(#clip-path-14);}.cls-40{opacity:0.86;}.cls-41{clip-path:url(#clip-path-15);}.cls-42{fill:#ffdc40;}.cls-43,.cls-44,.cls-46{fill:#faa628;}.cls-43{opacity:0.12;}.cls-45{mix-blend-mode:overlay;}.cls-47{clip-path:url(#clip-path-16);}.cls-48{clip-path:url(#clip-path-17);}.cls-49{clip-path:url(#clip-path-18);}.cls-50{clip-path:url(#clip-path-19);}.cls-51{clip-path:url(#clip-path-20);}.cls-52{fill:#67c5af;}</style><clipPath id="clip-path"><rect class="cls-1" width="212" height="212"/></clipPath><clipPath id="clip-path-3"><path class="cls-4" d="M127.2,145.63c5.09,30.11,8.57,60.16,8.82,74.88-3.38,1.2-11.35,1.22-13.39.1-.19-9.55-9.54-43.58-11.38-54.29s-5.34-36.63-7.15-36.51-3.45,17-3.86,33.59c-.23,9-6.23,51.22-5.92,56.94-2.67-.12-9.51,1-14-1-1.78-43.46,1.8-62.81,2.4-85,.24-8.91.52-16.86,1.19-23a54,54,0,0,1,1.16-7.07,184.31,184.31,0,0,1,36.48-3.94c0,.12.74,6.9,1.15,13.67C123.12,120.51,125.5,135.56,127.2,145.63Z"/></clipPath><clipPath id="clip-path-4"><path class="cls-2" d="M77.49,112.79a9.93,9.93,0,0,0-3.3,1.08,1.59,1.59,0,0,0-.93,1.42c.09.55.65.9,1.17,1.11,3.49,1.41,7.53.35,11.13,1.42a2.83,2.83,0,0,0,1.34.2,2.19,2.19,0,0,0,1-.51,13.24,13.24,0,0,0,3.4-3.64,8.6,8.6,0,0,0,1.25-3.63c0-.22.12-.72,0-.92s-.4-.06-.65.05c-.62.28-1.24.52-1.88.74A50.08,50.08,0,0,1,82.06,112C80.53,112.24,79,112.49,77.49,112.79Z"/></clipPath><clipPath id="clip-path-5"><path class="cls-2" d="M132.63,110a7.66,7.66,0,0,1,2.72.65c.38.21.72.58.51,1a2.23,2.23,0,0,1-1.3.91c-3.45,1.26-6.84.67-10.31,1.68-.42.12-1.66.49-2.19.22a8.5,8.5,0,0,1-2-2.93c-.35-.81-.9-2.87-.6-3.31s.88-.17,1.08-.1c.49.18,1,.33,1.52.47a42.9,42.9,0,0,0,6.69,1C130,109.69,131.34,109.8,132.63,110Z"/></clipPath><clipPath id="clip-path-6"><path class="cls-3" d="M142.94,106.66a4.26,4.26,0,0,1,.2,2.34,5.36,5.36,0,0,1-1.18,2.07,6.53,6.53,0,0,1-1.67,1.52c-1.41.83-3.17.72-4.8.58a.4.4,0,0,1-.3-.11.27.27,0,0,1,.09-.35.74.74,0,0,1,.36-.12,1.8,1.8,0,0,1-.8.26.63.63,0,0,1-.64-.47c0-.39.37-.66.71-.86a4.27,4.27,0,0,0,2-3.22c0-.27,0-.62-.3-.67s-.48.26-.58.53l-1,2.76a1.42,1.42,0,0,1-.28.53.47.47,0,0,1-.54.14c-.26-.11-.29-.46-.28-.75a22.86,22.86,0,0,1,1.77-7.9,1.43,1.43,0,0,1,.49-.71,1.36,1.36,0,0,1,.72-.15,6.57,6.57,0,0,1,4,1.38A6.74,6.74,0,0,1,142.94,106.66Z"/></clipPath><clipPath id="clip-path-7"><path class="cls-2" d="M137.79,82.58c-.38-.52-14.71-9.79-20.67-15.72-4.24-4.23-3.35-11.06,1.23-12.37,7.64-2.2,30.71,23.93,31.37,25.83,2,5.77-4.45,23.21-4.5,24.49s-8.3-.3-9.54-1.87C136.63,101.48,138.17,83.1,137.79,82.58Z"/></clipPath><clipPath id="clip-path-8"><path class="cls-2" d="M84.51,92.62c0,4.66-5,10.34.09,12.66s16,2.11,21.53,2.27c5.23.14,13.45-.38,16.18-2.76s-1.88-4.39-1.68-16c.2-12.31,3.87-31.64,0-34.31-2-1.38-17.14-1.25-19.27-1.37s-21.44,1.56-24,4.53C72.7,63.26,84.41,82,84.51,92.62Z"/></clipPath><clipPath id="clip-path-9"><path class="cls-6" d="M103.43,61.52c-1,0-1.76.67-1.53,3.66.08,1-1.12,25.68-1.45,29.27s4.12,10.5,5.57,10.39,5.65-8.5,5.49-9.62-4.61-25.47-5.77-29.83C104.79,61.77,104.23,61.49,103.43,61.52Z"/></clipPath><clipPath id="clip-path-10"><path class="cls-3" d="M65.26,110.17A4.23,4.23,0,0,0,65,112.5a5.31,5.31,0,0,0,1.13,2.1,6.4,6.4,0,0,0,1.63,1.57c1.39.86,3.14.79,4.78.7a.4.4,0,0,0,.3-.11.27.27,0,0,0-.07-.35.91.91,0,0,0-.37-.13,1.71,1.71,0,0,0,.8.28.63.63,0,0,0,.65-.45c.07-.39-.35-.66-.69-.88A4.26,4.26,0,0,1,71.25,112c0-.27,0-.61.32-.66s.46.27.56.54c.31.93.63,1.86,1,2.79a1.5,1.5,0,0,0,.26.54.52.52,0,0,0,.54.16c.27-.12.31-.46.3-.75a23,23,0,0,0-1.56-8,1.46,1.46,0,0,0-.47-.71,1.28,1.28,0,0,0-.72-.17,6.51,6.51,0,0,0-4,1.28A6.6,6.6,0,0,0,65.26,110.17Z"/></clipPath><clipPath id="clip-path-11"><path class="cls-2" d="M85.75,69.05c3.54-4.44,1.77-11.33-2.89-12.15-1.88-.33-3.26-.83-5.93,1.4C75,60.59,53.9,79,53.52,81c-1.16,5.84,9.19,26.36,9.42,27.62s8.69-1.48,9.69-3.11c-1.13-1.38-6.08-21.12-5.78-21.66S80.78,75.3,85.75,69.05Z"/></clipPath><clipPath id="clip-path-12"><path class="cls-3" d="M95.06,41.82a22.44,22.44,0,0,0,.37,2.78,9.24,9.24,0,0,0,4.27,6A22.23,22.23,0,0,0,104,52.79a13.8,13.8,0,0,0,5.23,1.06c3-.11,5.43-1.8,7.85-5.7l.21-.37h0c2.56-4.31,6-11.75,3.87-17.07-2.66-8.06-13-11.39-19.82-6.25C96.68,28.08,94.62,35.4,95.06,41.82Z"/></clipPath><clipPath id="clip-path-13"><path class="cls-4" d="M123.28,28.46a1.24,1.24,0,0,0,1.13-1.32,2.18,2.18,0,0,0-1-1.48,6.42,6.42,0,0,0-3.47-1.18,6,6,0,0,0-.61-.12c1.26-1.9-3.82-2.11-6.69-3.72s-6.55-2.47-7.75-2-.93.63-1,.8c-.07,0-1.07-1.62-4.2.23-2.88,1.7-4.57,8.05-5.22,12.74a31.16,31.16,0,0,1,3.77,1.18c.6.35-1.23,4,.32,4.73s1.83-5.59,4.57-7.11c3.73.74,3-3,5.74-3.87a4.71,4.71,0,0,1,1.24-.08,8.64,8.64,0,0,1,1.15.09,7.68,7.68,0,0,1,2,.57,21.81,21.81,0,0,1,3.2,2c.26.17.53.36.82.54,0,.13.11.27.17.39a3.88,3.88,0,0,0,2,1.81,1.39,1.39,0,0,0,1,.08h0a2.48,2.48,0,0,0,.21.4c.62.94,3.28,2.48,4.69.61S124.78,29.38,123.28,28.46Z"/></clipPath><clipPath id="clip-path-14"><path class="cls-5" d="M36.36,43.71a11.28,11.28,0,0,0-5.63-.9,10.87,10.87,0,0,0-7,4.3,23.71,23.71,0,0,0-3.65,7.51,4.16,4.16,0,0,0-.27,1.47,1.43,1.43,0,0,0,.73,1.23,2,2,0,0,0,1.9-.44,15,15,0,0,0,4.17-4.24,15.22,15.22,0,0,0-.74,5.85,1.92,1.92,0,0,0,1,1.67c.81.3,1.61-.42,2.15-1.1a25.29,25.29,0,0,0,3.71-6.56A7.67,7.67,0,0,0,32.6,55,2.56,2.56,0,0,0,34,57c1.17.47,2.45-.32,3.37-1.18a15.18,15.18,0,0,0,3.88-5.94c.42-1.17.64-2.85-.42-3.74A17,17,0,0,0,36.36,43.71Z"/></clipPath><clipPath id="clip-path-15"><path class="cls-5" d="M55.49,37.75A11.36,11.36,0,0,1,58.62,33a10.91,10.91,0,0,1,7.87-2.25,23.92,23.92,0,0,1,8,2.36,4.1,4.1,0,0,1,1.28.79,1.47,1.47,0,0,1,.41,1.38c-.2.65-1,.94-1.61,1.1a15,15,0,0,1-5.94.23A15.39,15.39,0,0,1,73.47,40,1.9,1.9,0,0,1,74,41.83c-.32.8-1.4.91-2.26.85A25.34,25.34,0,0,1,64.43,41a7.36,7.36,0,0,1,2,1.59,2.51,2.51,0,0,1,.5,2.37c-.43,1.18-1.88,1.59-3.14,1.69a15.24,15.24,0,0,1-7-1.13c-1.15-.48-2.54-1.45-2.48-2.83A17.35,17.35,0,0,1,55.49,37.75Z"/></clipPath><clipPath id="clip-path-16"><path class="cls-5" d="M175.68,75.47a10.3,10.3,0,0,0,.32-5.22,10,10,0,0,0-4.53-6,21.66,21.66,0,0,0-7.18-2.66,3.7,3.7,0,0,0-1.36-.12,1.31,1.31,0,0,0-1.06.78,1.84,1.84,0,0,0,.57,1.69,13.63,13.63,0,0,0,4.23,3.43,14,14,0,0,0-5.4-.16c-.61.14-1.28.45-1.43,1-.2.77.53,1.44,1.19,1.86A22.9,22.9,0,0,0,167.34,73,6.89,6.89,0,0,0,165,73a2.33,2.33,0,0,0-1.68,1.46c-.32,1.11.51,2.21,1.38,3a13.88,13.88,0,0,0,5.76,3c1.1.28,2.66.34,3.37-.71A16,16,0,0,0,175.68,75.47Z"/></clipPath><clipPath id="clip-path-17"><path class="cls-5" d="M183.11,81.58A10.36,10.36,0,0,1,187,78.13a10,10,0,0,1,7.5-.07,21.54,21.54,0,0,1,6.5,4,3.44,3.44,0,0,1,.93,1,1.31,1.31,0,0,1,0,1.31,1.84,1.84,0,0,1-1.69.58,13.71,13.71,0,0,1-5.3-1.24,14,14,0,0,1,3.44,4.17,1.77,1.77,0,0,1,.05,1.78c-.49.62-1.46.46-2.21.19a23.19,23.19,0,0,1-6.08-3.27,6.81,6.81,0,0,1,1.34,1.88,2.3,2.3,0,0,1-.13,2.22c-.67.94-2,1-3.18.73a13.81,13.81,0,0,1-5.91-2.7c-.9-.71-1.89-1.9-1.51-3.11A16,16,0,0,1,183.11,81.58Z"/></clipPath><clipPath id="clip-path-18"><path class="cls-5" d="M61.7,159.52a15,15,0,0,1,6.39-4,14.41,14.41,0,0,1,10.69,1.63,31.76,31.76,0,0,1,8.31,7.25,5.27,5.27,0,0,1,1.09,1.65,1.89,1.89,0,0,1-.26,1.88,2.69,2.69,0,0,1-2.54.44,19.75,19.75,0,0,1-7.25-3,20.15,20.15,0,0,1,3.92,6.73,2.56,2.56,0,0,1-.34,2.54c-.83.78-2.18.32-3.18-.23a33.29,33.29,0,0,1-7.9-6.06,9.83,9.83,0,0,1,1.48,3,3.36,3.36,0,0,1-.7,3.13c-1.17,1.17-3.14.87-4.7.3a20,20,0,0,1-7.78-5.22c-1.12-1.21-2.25-3.14-1.42-4.76A22.89,22.89,0,0,1,61.7,159.52Z"/></clipPath><clipPath id="clip-path-19"><path class="cls-5" d="M31.81,175.8a15,15,0,0,0-5.87,4.72,14.41,14.41,0,0,0-2,10.63,31.28,31.28,0,0,0,4.11,10.23,5.34,5.34,0,0,0,1.2,1.58,1.9,1.9,0,0,0,1.86.37,2.69,2.69,0,0,0,1.25-2.25,19.92,19.92,0,0,0-.45-7.84A20.24,20.24,0,0,0,37,199.16a2.53,2.53,0,0,0,2.51.5c1-.52,1-1.95.82-3.07a33.12,33.12,0,0,0-3.12-9.45,9.76,9.76,0,0,0,2.34,2.37,3.34,3.34,0,0,0,3.18.37c1.49-.72,1.86-2.68,1.83-4.34a20,20,0,0,0-2.37-9.06c-.78-1.45-2.22-3.16-4-2.91A23,23,0,0,0,31.81,175.8Z"/></clipPath><clipPath id="clip-path-20"><rect class="cls-1" x="223" y="223" width="212" height="212"/></clipPath></defs><title>Artboard 3</title><g class="cls-7"><g id="Layer_1" data-name="Layer 1"><rect class="cls-8" width="212" height="212"/><g class="cls-9"><circle class="cls-10" cx="106" cy="201.4" r="106.58"/></g><g class="cls-9"><path class="cls-4" d="M127.2,145.63c5.09,30.11,8.57,60.16,8.82,74.88-3.38,1.2-11.35,1.22-13.39.1-.19-9.55-9.54-43.58-11.38-54.29s-5.34-36.63-7.15-36.51-3.45,17-3.86,33.59c-.23,9-6.23,51.22-5.92,56.94-2.67-.12-9.51,1-14-1-1.78-43.46,1.8-62.81,2.4-85,.24-8.91.52-16.86,1.19-23a54,54,0,0,1,1.16-7.07,184.31,184.31,0,0,1,36.48-3.94c0,.12.74,6.9,1.15,13.67C123.12,120.51,125.5,135.56,127.2,145.63Z"/><g class="cls-11"><path class="cls-12" d="M89.35,113.54c.83-3.48,3.09-6.7,4.5-10a8.53,8.53,0,0,0-3-3.1,7.58,7.58,0,0,0-9,1c-2.47,2.39-3.18,6.19-3.67,9.73-4.24,30.43-2.42,61.44-.6,92.17.36,6,.55,6.42.91,12.47.14,2.29.1,5.51,1.16,7s3,.38,3.25-2.05c.75-6,3.82-31.35,4-41.7l.22-17.25C87.15,153.57,87.62,120.85,89.35,113.54Z"/><path class="cls-12" d="M107.57,133.68c2.35,12.79,16.78,61.16,17.28,83.72.19,8.76-5.18,8.65-7,6.8s-2.48-4.58-2.94-7.2c-1.36-7.83-13.14-11-13.3-19q-.33-15.75.12-31.53c.3-10.38,1.5-20.83,1.62-31.2,0-1-.67-3.76.2-4.54C105.18,129.33,106.72,129.07,107.57,133.68Z"/></g><path class="cls-2" d="M77.49,112.79a9.93,9.93,0,0,0-3.3,1.08,1.59,1.59,0,0,0-.93,1.42c.09.55.65.9,1.17,1.11,3.49,1.41,7.53.35,11.13,1.42a2.83,2.83,0,0,0,1.34.2,2.19,2.19,0,0,0,1-.51,13.24,13.24,0,0,0,3.4-3.64,8.6,8.6,0,0,0,1.25-3.63c0-.22.12-.72,0-.92s-.4-.06-.65.05c-.62.28-1.24.52-1.88.74A50.08,50.08,0,0,1,82.06,112C80.53,112.24,79,112.49,77.49,112.79Z"/><g class="cls-13"><path class="cls-14" d="M92.51,112a3.09,3.09,0,0,1-.32,1.89,17,17,0,0,1-2.06,4,5.74,5.74,0,0,1-3.73,2.38,12,12,0,0,1-3.51-.42c-1.73-.31-3.5-.33-5.25-.58a9.53,9.53,0,0,1-4.85-1.88,2.85,2.85,0,0,1-1.1-1.75,2.34,2.34,0,0,1,.7-1.81,5.23,5.23,0,0,1,1.68-1.09,15.35,15.35,0,0,1,7.79-1.32c-1.26.53-5.22,1.58-5.15,2.38s5.69.39,7.67.66c.19,0,.43.1.46.29s-.37.37-.66.33c-2.69-.37-7.56,0-8,.67s2.53.75,4,.85a19.22,19.22,0,0,0,6.33-.45,10.08,10.08,0,0,0,5.34-3.28A5.37,5.37,0,0,0,92.51,112Z"/></g><path class="cls-15" d="M85.7,118.07A37.33,37.33,0,0,0,90,113.53a26.67,26.67,0,0,0,3-6.19l1.54.38a16.33,16.33,0,0,1-3.72,7.44,30.44,30.44,0,0,1-4.43,4Z"/><path class="cls-2" d="M132.63,110a7.66,7.66,0,0,1,2.72.65c.38.21.72.58.51,1a2.23,2.23,0,0,1-1.3.91c-3.45,1.26-6.84.67-10.31,1.68-.42.12-1.66.49-2.19.22a8.5,8.5,0,0,1-2-2.93c-.35-.81-.9-2.87-.6-3.31s.88-.17,1.08-.1c.49.18,1,.33,1.52.47a42.9,42.9,0,0,0,6.69,1C130,109.69,131.34,109.8,132.63,110Z"/><g class="cls-16"><path class="cls-14" d="M119.35,109.85a2.5,2.5,0,0,0-.15,1.6,10.67,10.67,0,0,0,.84,3.31,3.12,3.12,0,0,0,2.62,1.78,11.48,11.48,0,0,0,3-.59c1.53-.39,3-.53,4.54-.86a11.2,11.2,0,0,0,4.51-1.94,3.78,3.78,0,0,0,1.31-1.57,1.59,1.59,0,0,0-.2-1.5,2.82,2.82,0,0,0-1.17-.82,11.12,11.12,0,0,0-6.27-.6c.94.37,4,1,3.81,1.69s-4.88.72-6.6,1.09c-.17,0-.39.11-.45.28s.23.28.48.23c2.35-.49,6.37-.54,6.57,0s-2.29.81-3.59,1a15.59,15.59,0,0,1-5.23,0,5.39,5.39,0,0,1-3.78-2.44A3,3,0,0,1,119.35,109.85Z"/></g><path class="cls-15" d="M121.69,111.82a31.52,31.52,0,0,1-1.88-4.73l-1.55.34a16.24,16.24,0,0,0,3.53,7.53C122.17,115.38,122.41,113.75,121.69,111.82Z"/><path class="cls-17" d="M109.29,127.85a10,10,0,0,0-2,.23,19.36,19.36,0,0,0-2.12.54,18,18,0,0,0-3.88,1.72c-.1.06,0,.19.1.13a25.66,25.66,0,0,1,3.91-1.6c.64-.19,1.3-.35,2-.49s1.39-.23,2.08-.39C109.41,128,109.38,127.85,109.29,127.85Z"/><path class="cls-17" d="M103.81,118.18c0-1-.08-2.07-.13-3.1-.1-2.09-.26-4.18-.45-6.26a.07.07,0,0,0-.13,0c.17,2.09.29,4.18.38,6.27,0,1,.08,2.06.11,3.1s0,2.12.08,3.17a.09.09,0,1,0,.17,0C103.91,120.31,103.84,119.23,103.81,118.18Z"/><path class="cls-17" d="M105.66,114.44c-.06-1.14-.15-2.27-.3-3.4a22.87,22.87,0,0,0-.58-3.39.07.07,0,0,0-.14,0c.11,1.13.35,2.25.48,3.38s.23,2.26.29,3.4c.13,2.27.07,4.54,0,6.82,0,.06.11.08.11,0A39,39,0,0,0,105.66,114.44Z"/><path class="cls-3" d="M142.94,106.66a4.26,4.26,0,0,1,.2,2.34,5.36,5.36,0,0,1-1.18,2.07,6.53,6.53,0,0,1-1.67,1.52c-1.41.83-3.17.72-4.8.58a.4.4,0,0,1-.3-.11.27.27,0,0,1,.09-.35.74.74,0,0,1,.36-.12,1.8,1.8,0,0,1-.8.26.63.63,0,0,1-.64-.47c0-.39.37-.66.71-.86a4.27,4.27,0,0,0,2-3.22c0-.27,0-.62-.3-.67s-.48.26-.58.53l-1,2.76a1.42,1.42,0,0,1-.28.53.47.47,0,0,1-.54.14c-.26-.11-.29-.46-.28-.75a22.86,22.86,0,0,1,1.77-7.9,1.43,1.43,0,0,1,.49-.71,1.36,1.36,0,0,1,.72-.15,6.57,6.57,0,0,1,4,1.38A6.74,6.74,0,0,1,142.94,106.66Z"/><g class="cls-18"><path class="cls-19" d="M139,109.88l-1.85,2.66a3.07,3.07,0,0,0,2-.63,9.25,9.25,0,0,0,1.51-1.49c-.28.51-.55,1-.82,1.54a6,6,0,0,0,2.56-3.35c.17-.4.32-.9,0-1.24a2.2,2.2,0,0,0-.68-.41,2.8,2.8,0,0,1-.84-.84l-2.74-3.65c-.24-.32-.49-.75-.27-1.09s.59-.31.92-.28a6.51,6.51,0,0,1,5,9.67,9.2,9.2,0,0,1-4.54,3.72,6.2,6.2,0,0,1-2.14.58,2.89,2.89,0,0,1-2.07-.64,2.55,2.55,0,0,1-.56-.71c-.17-.31-.3-.48,0-.68a14.87,14.87,0,0,1,1.71-.79A8.93,8.93,0,0,0,139,109.88Z"/></g><path class="cls-2" d="M137.79,82.58c-.38-.52-14.71-9.79-20.67-15.72-4.24-4.23-3.35-11.06,1.23-12.37,7.64-2.2,30.71,23.93,31.37,25.83,2,5.77-4.45,23.21-4.5,24.49s-8.3-.3-9.54-1.87C136.63,101.48,138.17,83.1,137.79,82.58Z"/><g class="cls-20"><path class="cls-21" d="M139.21,83.89a6.13,6.13,0,0,0-.66-3.5,6,6,0,0,0-1.89-1.65L120,67.83c-.45,2.6.93,5.2,2.72,7.14s4,3.44,5.86,5.33a18.92,18.92,0,0,1,5.09,15.36c-.24,1.81-.74,3.68-.19,5.43.37,1.18,2.1,3,3.53,2.38s1.13-3.92,1.29-5.3C138.81,93.43,139.12,88.66,139.21,83.89Z"/><path class="cls-22" d="M124.87,67.27c.06,0,0-.14-.06-.11a3.88,3.88,0,0,0-2,1.45,4.52,4.52,0,0,0-.8,1.68,1.23,1.23,0,0,0,0,.57h0c0,.09.07.18.13.1a15.76,15.76,0,0,1,1.12-1.2c.4-.37.83-.71,1.21-1.1a.06.06,0,0,0-.07-.1,4.45,4.45,0,0,0-1.34,1,8.33,8.33,0,0,0-.81,1,5,5,0,0,1,.86-1.77A5.61,5.61,0,0,1,124.87,67.27Z"/></g><path class="cls-23" d="M135,100.73a13.32,13.32,0,0,0-.91,3.56,26.37,26.37,0,0,0,8.74,2.79,3.36,3.36,0,0,0,1.94-.14A2.7,2.7,0,0,0,146,105.2c.07-.25.33-.89.22-1.15s-.78-.39-1.13-.49l-6.48-1.81Z"/><path class="cls-2" d="M84.51,92.62c0,4.66-5,10.34.09,12.66s16,2.11,21.53,2.27c5.23.14,13.45-.38,16.18-2.76s-1.88-4.39-1.68-16c.2-12.31,3.87-31.64,0-34.31-2-1.38-17.14-1.25-19.27-1.37s-21.44,1.56-24,4.53C72.7,63.26,84.41,82,84.51,92.62Z"/><g class="cls-24"><path class="cls-21" d="M82.64,76.19a17.19,17.19,0,0,1,0-2.27c.11-1.71-.24-2.66-1.71-1.24a5.89,5.89,0,0,0-2,4c.14,2.89,1.1,5.66,1.71,8.48a36.74,36.74,0,0,1,.18,14.77c-.54,2.8-1,7.14,2.86,7.71,4.15.6,1.35-5.08,1.5-7.13.18-2.58,1.14-5.06,1.31-7.63a25.74,25.74,0,0,0-1.27-8.22c-.44-1.67-1.44-3.15-1.92-4.82A17.34,17.34,0,0,1,82.64,76.19Z"/><g class="cls-25"><path class="cls-26" d="M103.08,61.79c-1,0-1.77.69-1.57,3.73.06,1-1.51,26.19-1.88,29.84s4,10.71,5.42,10.6,5.76-8.66,5.62-9.8-4.24-26-5.33-30.42C104.44,62.05,103.89,61.77,103.08,61.79Z"/><path class="cls-26" d="M101.91,63a1.6,1.6,0,0,0,1,.48c.64,0,1.18-.55,1.63-1.07a2.6,2.6,0,0,0,.81-1.63,2.05,2.05,0,0,0-1-1.41,2.32,2.32,0,0,0-2-.73,2.84,2.84,0,0,0-1.29,1.08C99.84,61.25,100.7,62,101.91,63Z"/></g><path class="cls-21" d="M94.24,55.58c-2.35,5.11,4.67,8.9,5.5,8.73s1-4.36,3-4.67,3.53,3.43,4.23,3.33,2.38-4.8-.92-7.88C104.81,54,95.88,52,94.24,55.58Z"/></g><path class="cls-23" d="M94.53,54.54c-2.35,5.11,4.68,8.91,5.51,8.73s1-4.36,3-4.67,3.54,3.43,4.23,3.34,2.39-4.81-.92-7.88C105.1,52.94,96.17,51,94.53,54.54Z"/><path class="cls-22" d="M94.53,54.54a5.61,5.61,0,0,0-.42,2.71,6,6,0,0,0,1.09,2.52,9.2,9.2,0,0,0,2,1.94,9.88,9.88,0,0,0,2.39,1.34c.2.05.44.15.54.05a1.58,1.58,0,0,0,.31-.53c.16-.42.29-.87.43-1.31a5.22,5.22,0,0,1,1.36-2.51,1.67,1.67,0,0,1,1.49-.32,3.12,3.12,0,0,1,1.29.74,19.89,19.89,0,0,1,1.83,2.13,1.68,1.68,0,0,0,.4.38.6.6,0,0,0,.23-.27,4.46,4.46,0,0,0,.46-1.22,6.86,6.86,0,0,0,.08-2.67,6,6,0,0,0-1-2.47,3.06,3.06,0,0,0-.42-.53,2.59,2.59,0,0,0-.48-.46,5.18,5.18,0,0,0-1.21-.57,17.85,17.85,0,0,0-5.43-.94,9.1,9.1,0,0,0-2.74.36A3.31,3.31,0,0,0,94.53,54.54Zm0,0a3.35,3.35,0,0,1,2.13-1.67,9.47,9.47,0,0,1,2.75-.39,18.39,18.39,0,0,1,5.51.77,5.37,5.37,0,0,1,1.31.57,2.74,2.74,0,0,1,.53.48,3.51,3.51,0,0,1,.47.55,6.13,6.13,0,0,1,1.15,2.59,7.2,7.2,0,0,1,0,2.85,5.05,5.05,0,0,1-.51,1.37,1.38,1.38,0,0,1-.24.33.54.54,0,0,1-.55.16,1.8,1.8,0,0,1-.63-.53,19.35,19.35,0,0,0-1.76-2.1,2.68,2.68,0,0,0-1.08-.66,1.3,1.3,0,0,0-1.13.22,5.18,5.18,0,0,0-1.3,2.29c-.15.43-.29.87-.48,1.31a1.69,1.69,0,0,1-.42.64.61.61,0,0,1-.43.07l-.36-.11a9.54,9.54,0,0,1-2.39-1.45,9.2,9.2,0,0,1-1.92-2,6.11,6.11,0,0,1-1.06-2.55A5.51,5.51,0,0,1,94.53,54.54Z"/><path class="cls-6" d="M103.43,61.52c-1,0-1.76.67-1.53,3.66.08,1-1.12,25.68-1.45,29.27s4.12,10.5,5.57,10.39,5.65-8.5,5.49-9.62-4.61-25.47-5.77-29.83C104.79,61.77,104.23,61.49,103.43,61.52Z"/><g class="cls-27"><g class="cls-28"><path class="cls-29" d="M111.5,109.81a16.58,16.58,0,0,0-2-.6c-.64-.18-1.29-.39-1.94-.64a23.49,23.49,0,0,1-3.88-1.95,30.32,30.32,0,0,1-7-6.12,43.54,43.54,0,0,1-3.17-4.35c-.16-.24-.42-.15-.29.1a29,29,0,0,0,13.9,13,18.45,18.45,0,0,0,2.33.81,5.57,5.57,0,0,0,2.17.26C111.91,110.28,111.71,109.89,111.5,109.81Z"/><path class="cls-30" d="M112,106.84a15.32,15.32,0,0,0-2-.59,18.41,18.41,0,0,1-1.94-.65,23.57,23.57,0,0,1-3.89-1.95,30,30,0,0,1-7-6.11A42.23,42.23,0,0,1,94,93.18c-.16-.24-.42-.15-.29.1.33.66.7,1.29,1.09,1.92-.34-.5-.68-1-1-1.51-.16-.24-.42-.15-.29.1a29,29,0,0,0,13.9,13,20.17,20.17,0,0,0,2.33.81,5.59,5.59,0,0,0,2.17.26c.21,0,.06-.37-.13-.49a1.94,1.94,0,0,0,.34,0C112.36,107.31,112.16,106.93,112,106.84Z"/><path class="cls-29" d="M112.23,104.47a17.16,17.16,0,0,0-2-.6c-.64-.18-1.29-.39-1.94-.64a23.49,23.49,0,0,1-3.88-2,29.88,29.88,0,0,1-7-6.12,42.1,42.1,0,0,1-3.18-4.35c-.15-.24-.41-.15-.28.1a29,29,0,0,0,13.9,13,17.91,17.91,0,0,0,2.33.81,5.54,5.54,0,0,0,2.16.26C112.64,104.94,112.43,104.55,112.23,104.47Z"/><path class="cls-30" d="M112.68,101.5a14.86,14.86,0,0,0-2-.59c-.64-.18-1.29-.39-1.94-.64a24.36,24.36,0,0,1-3.88-2,30.27,30.27,0,0,1-7-6.11,40.71,40.71,0,0,1-3.17-4.36c-.16-.24-.42-.15-.29.1.33.66.7,1.29,1.09,1.92-.35-.5-.69-1-1-1.51-.15-.24-.41-.15-.28.1a29,29,0,0,0,13.9,13,20.17,20.17,0,0,0,2.33.81,5.57,5.57,0,0,0,2.17.26c.21,0,0-.37-.13-.49a1.94,1.94,0,0,0,.34,0C113.09,102,112.89,101.59,112.68,101.5Z"/><path class="cls-29" d="M113.14,99.17a14.86,14.86,0,0,0-2-.59c-.64-.19-1.29-.39-1.94-.65a23.49,23.49,0,0,1-3.88-2,30.08,30.08,0,0,1-7-6.12,39.61,39.61,0,0,1-3.17-4.35c-.16-.24-.42-.15-.29.1a29,29,0,0,0,13.9,13,18.45,18.45,0,0,0,2.33.81,5.57,5.57,0,0,0,2.17.26C113.55,99.64,113.35,99.25,113.14,99.17Z"/><path class="cls-30" d="M113.6,96.2a19.45,19.45,0,0,0-2-.59c-.64-.18-1.28-.39-1.94-.64a24.36,24.36,0,0,1-3.88-2,30,30,0,0,1-7-6.11,44.72,44.72,0,0,1-3.17-4.35c-.16-.24-.42-.16-.29.1.33.65.7,1.29,1.09,1.91-.35-.5-.69-1-1-1.51-.16-.24-.42-.15-.29.1a29,29,0,0,0,13.9,13,18.45,18.45,0,0,0,2.33.81,5.57,5.57,0,0,0,2.17.26c.21,0,0-.37-.13-.49a1.94,1.94,0,0,0,.34,0C114,96.68,113.8,96.29,113.6,96.2Z"/><path class="cls-29" d="M113.87,93.83a15.32,15.32,0,0,0-2-.59c-.64-.19-1.29-.39-1.94-.65a23.1,23.1,0,0,1-3.88-2,29.68,29.68,0,0,1-7-6.12,41.05,41.05,0,0,1-3.18-4.35c-.15-.24-.41-.15-.28.1a29,29,0,0,0,13.89,13,18.45,18.45,0,0,0,2.33.81,5.42,5.42,0,0,0,2.17.26C114.27,94.3,114.07,93.91,113.87,93.83Z"/><path class="cls-30" d="M114.32,90.86a19.29,19.29,0,0,0-2-.59c-.64-.18-1.29-.39-1.94-.64a24.36,24.36,0,0,1-3.88-2,29.83,29.83,0,0,1-7-6.11,43.21,43.21,0,0,1-3.18-4.35c-.15-.24-.41-.16-.28.1.33.65.7,1.29,1.09,1.91-.35-.5-.69-1-1-1.51-.15-.24-.41-.15-.28.1a29,29,0,0,0,13.89,13,18,18,0,0,0,2.34.81,5.54,5.54,0,0,0,2.16.26c.22,0,.06-.37-.13-.49a2.06,2.06,0,0,0,.35,0C114.73,91.34,114.53,91,114.32,90.86Z"/><path class="cls-29" d="M114.89,88.74a18.57,18.57,0,0,0-2-.59c-.64-.18-1.29-.39-1.94-.64a23.56,23.56,0,0,1-3.88-2,30,30,0,0,1-7-6.11A41.61,41.61,0,0,1,97,75.09c-.16-.24-.42-.15-.29.1a29,29,0,0,0,13.9,13,20.17,20.17,0,0,0,2.33.81,5.37,5.37,0,0,0,2.17.25C115.3,89.22,115.1,88.83,114.89,88.74Z"/><path class="cls-30" d="M115.35,85.78a17.16,17.16,0,0,0-2-.6c-.65-.18-1.29-.39-1.94-.64a23.57,23.57,0,0,1-3.89-2,29.84,29.84,0,0,1-7-6.12,42.1,42.1,0,0,1-3.18-4.35c-.16-.24-.42-.15-.29.1.33.65.7,1.29,1.09,1.92-.34-.5-.69-1-1-1.51-.16-.24-.42-.16-.29.1a29,29,0,0,0,13.9,13,20.17,20.17,0,0,0,2.33.81,5.37,5.37,0,0,0,2.17.25c.21,0,0-.37-.13-.48l.34,0C115.75,86.25,115.55,85.86,115.35,85.78Z"/><path class="cls-29" d="M115.62,83.4a19.29,19.29,0,0,0-2-.59c-.64-.18-1.29-.39-1.94-.64a23.56,23.56,0,0,1-3.88-2,29.83,29.83,0,0,1-7-6.11,43.21,43.21,0,0,1-3.18-4.35c-.15-.24-.41-.15-.28.1a29.07,29.07,0,0,0,13.89,13,19.68,19.68,0,0,0,2.34.81,5.34,5.34,0,0,0,2.16.25C116,83.88,115.82,83.49,115.62,83.4Z"/><path class="cls-30" d="M116.07,80.44a14.86,14.86,0,0,0-2-.59c-.64-.19-1.29-.39-1.94-.65a23.49,23.49,0,0,1-3.88-2,29.88,29.88,0,0,1-7-6.12,42.1,42.1,0,0,1-3.18-4.35c-.15-.24-.41-.15-.28.1.33.65.7,1.29,1.09,1.92-.35-.5-.69-1-1-1.51-.15-.24-.41-.15-.28.1a29,29,0,0,0,13.9,13,19.54,19.54,0,0,0,2.33.81,5.34,5.34,0,0,0,2.16.25c.22,0,.06-.36-.13-.48a2,2,0,0,0,.35,0C116.48,80.91,116.28,80.52,116.07,80.44Z"/><path class="cls-29" d="M116.53,78.11a17.16,17.16,0,0,0-2-.6c-.64-.18-1.29-.39-1.94-.64a22.8,22.8,0,0,1-3.88-2,29.83,29.83,0,0,1-7-6.11,42.1,42.1,0,0,1-3.18-4.35c-.15-.24-.41-.15-.28.1a29,29,0,0,0,13.9,13,20.17,20.17,0,0,0,2.33.81,5.57,5.57,0,0,0,2.17.26C116.94,78.58,116.74,78.19,116.53,78.11Z"/><path class="cls-30" d="M117,75.14a14.86,14.86,0,0,0-2-.59c-.64-.19-1.29-.39-1.94-.65a23.49,23.49,0,0,1-3.88-2,30.08,30.08,0,0,1-7-6.12,39.61,39.61,0,0,1-3.17-4.35c-.16-.24-.42-.15-.29.1.33.66.7,1.29,1.09,1.92-.35-.5-.69-1-1-1.51-.16-.24-.42-.15-.29.1a29,29,0,0,0,13.9,13,20.17,20.17,0,0,0,2.33.81,5.37,5.37,0,0,0,2.17.25c.21,0,0-.36-.13-.48a1.94,1.94,0,0,0,.34,0C117.39,75.61,117.19,75.22,117,75.14Z"/><path class="cls-29" d="M117.26,72.77a17.16,17.16,0,0,0-2-.6c-.65-.18-1.29-.39-1.94-.64a23.1,23.1,0,0,1-3.88-2,29.91,29.91,0,0,1-7-6.12,42.1,42.1,0,0,1-3.18-4.35c-.15-.24-.41-.15-.29.1a29,29,0,0,0,13.9,13,18.45,18.45,0,0,0,2.33.81,5.61,5.61,0,0,0,2.17.26C117.66,73.24,117.46,72.85,117.26,72.77Z"/><path class="cls-30" d="M117.71,69.8a15.32,15.32,0,0,0-2-.59,19.21,19.21,0,0,1-1.94-.65,23.49,23.49,0,0,1-3.88-2,30.07,30.07,0,0,1-7-6.11,42.23,42.23,0,0,1-3.18-4.36c-.15-.24-.41-.15-.28.1.33.66.7,1.29,1.09,1.92-.35-.5-.69-1-1-1.51-.15-.24-.41-.15-.28.1a29.07,29.07,0,0,0,13.89,13,20.17,20.17,0,0,0,2.33.81,5.61,5.61,0,0,0,2.17.26c.22,0,.06-.37-.13-.49a1.88,1.88,0,0,0,.34,0C118.11,70.27,117.91,69.89,117.71,69.8Z"/></g></g><path class="cls-6" d="M102.27,62.69a1.72,1.72,0,0,0,1,.47c.64,0,1.17-.54,1.61-1a2.48,2.48,0,0,0,.79-1.6,2.1,2.1,0,0,0-1-1.39,2.38,2.38,0,0,0-2-.71,2.84,2.84,0,0,0-1.28,1.06C100.17,61,101,61.69,102.27,62.69Z"/><path class="cls-2" d="M96.31,83.38l-3.39.31a2.33,2.33,0,0,1-2.61-2.25l-.18-6.31a.62.62,0,0,1,.56-.62L98,73.84a.53.53,0,0,1,.59.51l.18,6.31A2.72,2.72,0,0,1,96.31,83.38Z"/><path class="cls-21" d="M94.94,81.83c-2.57-.87-3.87-4.44-3.89-7.35l-.36,0a.62.62,0,0,0-.56.62l.18,6.31a2.33,2.33,0,0,0,2.61,2.25l3.39-.31a2.72,2.72,0,0,0,2.47-2.72l-.06-2C98.18,81.19,96.85,82.48,94.94,81.83Z"/><path class="cls-22" d="M89.65,75.61s7.52-.41,9.5-.87L99,73a26.55,26.55,0,0,1-4.72.64c-3,.18-4.73.18-4.73.18Z"/><path class="cls-3" d="M65.26,110.17A4.23,4.23,0,0,0,65,112.5a5.31,5.31,0,0,0,1.13,2.1,6.4,6.4,0,0,0,1.63,1.57c1.39.86,3.14.79,4.78.7a.4.4,0,0,0,.3-.11.27.27,0,0,0-.07-.35.91.91,0,0,0-.37-.13,1.71,1.71,0,0,0,.8.28.63.63,0,0,0,.65-.45c.07-.39-.35-.66-.69-.88A4.26,4.26,0,0,1,71.25,112c0-.27,0-.61.32-.66s.46.27.56.54c.31.93.63,1.86,1,2.79a1.5,1.5,0,0,0,.26.54.52.52,0,0,0,.54.16c.27-.12.31-.46.3-.75a23,23,0,0,0-1.56-8,1.46,1.46,0,0,0-.47-.71,1.28,1.28,0,0,0-.72-.17,6.51,6.51,0,0,0-4,1.28A6.6,6.6,0,0,0,65.26,110.17Z"/><g class="cls-31"><path class="cls-19" d="M69.07,113.48l1.79,2.71a3,3,0,0,1-2-.68A8.53,8.53,0,0,1,67.42,114l.78,1.57a6.05,6.05,0,0,1-2.48-3.42,1.25,1.25,0,0,1,0-1.24,2.13,2.13,0,0,1,.69-.39,3,3,0,0,0,.86-.82l2.83-3.58c.25-.31.51-.74.31-1.08a1,1,0,0,0-.92-.3,6.5,6.5,0,0,0-5.27,9.53,9.29,9.29,0,0,0,4.45,3.84,6.33,6.33,0,0,0,2.12.63,2.92,2.92,0,0,0,2.09-.58,2.58,2.58,0,0,0,.58-.7c.17-.3.31-.47.06-.68a15.65,15.65,0,0,0-1.69-.84A9,9,0,0,1,69.07,113.48Z"/></g><path class="cls-2" d="M85.75,69.05c3.54-4.44,1.77-11.33-2.89-12.15-1.88-.33-3.26-.83-5.93,1.4C75,60.59,53.9,79,53.52,81c-1.16,5.84,9.19,26.36,9.42,27.62s8.69-1.48,9.69-3.11c-1.13-1.38-6.08-21.12-5.78-21.66S80.78,75.3,85.75,69.05Z"/><g class="cls-32"><path class="cls-21" d="M60.24,94.87c-1.81-4.42-2.94-9.44-1.38-14,1-2.88,3-5.3,5-7.64L78,56.37c-6.37,1.69-11.51,6.29-16.37,10.74-4.34,4-8.86,8.22-10.55,13.86a21.69,21.69,0,0,0,.8,13.4,59.09,59.09,0,0,0,6.45,12c.93,1.43,2,2.94,3.58,3.52a3.13,3.13,0,0,0,3.33-.83c1-1.27-.06-2.94-.57-4.24C63.37,101.43,61.61,98.24,60.24,94.87Z"/></g><path class="cls-23" d="M72.75,103.3a13.47,13.47,0,0,1,1.11,3.5,26.47,26.47,0,0,1-8.56,3.28,3.32,3.32,0,0,1-1.95,0A2.63,2.63,0,0,1,62,108.39c-.09-.25-.39-.87-.3-1.13s.76-.44,1.11-.56l6.36-2.17Z"/><path class="cls-22" d="M86.33,70.12a.07.07,0,1,0-.08-.12,30.2,30.2,0,0,0-3.32,2.19c-.54.39-1.08.78-1.61,1.19a13,13,0,0,0-1.47,1.19.08.08,0,0,0,.1.12c.26-.15.51-.34.76-.52s.67-.33,1-.49.87-.39,1.32-.56c.88-.34,1.79-.6,2.68-.9.07,0,.06-.15,0-.13a12.39,12.39,0,0,0-2.73.8c-.44.17-.86.35-1.29.55l-.09,0c.51-.38,1-.75,1.53-1.11C84.18,71.62,85.29,70.92,86.33,70.12Z"/><path class="cls-3" d="M105.81,56.65s0,0,0,0l.66-2.2h0l.26-.88,1-3.3-9.76-2-.23.8-.31,1L96.57,53l-.25.82C96.23,58.27,104.39,59.36,105.81,56.65Z"/><path class="cls-33" d="M106.21,55.31l1.52-5.07-9.76-2-.24.79C98.29,51.52,103,55,106.21,55.31Z"/><path class="cls-4" d="M122.58,33.28c-.11-.44-.36-1-.81-1s-.65.35-.84.68a15.73,15.73,0,0,0-1.47,6.23,2.31,2.31,0,0,0,0,.87c.43,1.6,2-.78,2.29-1.35a7.79,7.79,0,0,0,1-3.43A7.36,7.36,0,0,0,122.58,33.28Z"/><path class="cls-3" d="M95.06,41.82a22.44,22.44,0,0,0,.37,2.78,9.24,9.24,0,0,0,4.27,6A22.23,22.23,0,0,0,104,52.79a13.8,13.8,0,0,0,5.23,1.06c3-.11,5.43-1.8,7.85-5.7l.21-.37h0c2.56-4.31,6-11.75,3.87-17.07-2.66-8.06-13-11.39-19.82-6.25C96.68,28.08,94.62,35.4,95.06,41.82Z"/><g class="cls-34"><path class="cls-19" d="M99,48.35a9.76,9.76,0,0,1-2-5.83s0-.07,0-.11a15.79,15.79,0,0,1,.69-5A17.06,17.06,0,0,1,106,27.52c4.94-2.41,10.06-.41,15,1.4a23.91,23.91,0,0,1,3.42,1.53A4.39,4.39,0,0,0,126,27.56c.14-1.91-1.19-3.84-3-5.12a19,19,0,0,0-6.24-2.59,35.6,35.6,0,0,0-10.62-1.3,18,18,0,0,0-9.61,3,15,15,0,0,0-5.56,8.82A18.31,18.31,0,0,0,92.13,43a27,27,0,0,0,6.22,7.63,22.52,22.52,0,0,0,5.18,3.66,13.49,13.49,0,0,0,3.1,1.05c.79.15,2.43.48,3.08.07a26.76,26.76,0,0,1-6.07-2.66A17.51,17.51,0,0,1,99,48.35Z"/><path class="cls-19" d="M114.63,43.54a1.62,1.62,0,0,0,.11,1.63,1.64,1.64,0,0,0,1.49.66.28.28,0,0,0,.11,0,.12.12,0,0,0,0-.17.49.49,0,0,0-.15-.1A2.08,2.08,0,0,1,115,44.1c0-.1,0-.21-.14-.25a.2.2,0,0,0-.21.06.58.58,0,0,0-.1.21"/><path class="cls-19" d="M104.31,40.73c-.42-.14-1-.67-.86-.84s.68.09,1,.17a3.34,3.34,0,0,0,1.22,0c.24,0,.54-.07.54.22C106.24,40.86,104.71,40.86,104.31,40.73Z"/><path class="cls-35" d="M97.61,41.05a6.78,6.78,0,0,0,2.23,7.1,2.55,2.55,0,0,0,2.66.48c2.36-1.3,1.71-5.94.35-8.11C101.22,38,98.41,38.32,97.61,41.05Z"/><path class="cls-35" d="M119.72,49.63a6.81,6.81,0,0,1-5.84,4.63,2.53,2.53,0,0,1-2.46-1.09c-1.23-2.4,1.91-5.88,4.25-6.91C118.46,45,120.58,46.92,119.72,49.63Z"/></g><path class="cls-4" d="M106.44,36.55a4.84,4.84,0,0,0,1.7.25,4.34,4.34,0,0,0,1.64-.39,2.64,2.64,0,0,0,1.4-1.28.65.65,0,0,0-.15-.71.7.7,0,0,0-.68-.17,2.37,2.37,0,0,0-.55.25l-.14.08a3.78,3.78,0,0,1-.5.22,3.38,3.38,0,0,1-1.08.2,3.61,3.61,0,0,1-1.1-.18l-.32-.14a2,2,0,0,0-1.22-.25l-.11,0a.68.68,0,0,0-.31.25.71.71,0,0,0-.11.59C105.12,36.09,106.11,36.43,106.44,36.55Z"/><path class="cls-4" d="M115.79,38.88a4.48,4.48,0,0,0,.61,1.34,4.33,4.33,0,0,0,1,1.05h0c.23.17.92.68,1.47.42a.52.52,0,0,0,.28-.37.84.84,0,0,0,0-.35.36.36,0,0,0,0-.09,1.8,1.8,0,0,0-.76-.72,1.82,1.82,0,0,1-.23-.15,3,3,0,0,1-.65-.67,3.11,3.11,0,0,1-.44-.85,3.9,3.9,0,0,1-.12-.46l0-.13a2.46,2.46,0,0,0-.13-.52.64.64,0,0,0-.44-.38.44.44,0,0,0-.48.26A2.54,2.54,0,0,0,115.79,38.88Z"/><path class="cls-17" d="M115.92,43.76c-.26.59-.75.94-1.07.79s-.38-.74-.12-1.33.75-.94,1.07-.79S116.18,43.18,115.92,43.76Z"/><path class="cls-17" d="M106.63,39.54c-.26.68-.81,1.1-1.23.94s-.54-.84-.28-1.52.81-1.1,1.23-.94S106.89,38.86,106.63,39.54Z"/><path class="cls-36" d="M111.37,43.14a1.89,1.89,0,0,1,.13-.57c0-.16.08-.31.13-.47.11-.35.22-.7.34-1.05a3.33,3.33,0,0,0,.26-1,.1.1,0,0,0-.17-.07,4.13,4.13,0,0,0-.76,1.66c-.1.32-.19.63-.28,1a1.25,1.25,0,0,0,0,.83,1.22,1.22,0,0,0,.39.45.64.64,0,0,1,.26.76,1.83,1.83,0,0,1-1.13,1.17.11.11,0,0,0,.06.21,1.93,1.93,0,0,0,1.24-.82,1.22,1.22,0,0,0,.07-1.47C111.72,43.53,111.4,43.38,111.37,43.14Z"/><path class="cls-36" d="M110.52,48a4.08,4.08,0,0,0-2.07-1.79,7.6,7.6,0,0,0-3.19-.62.08.08,0,0,0,0,.15c1,.34,2,.44,3,.83a5.23,5.23,0,0,1,2.14,1.54A.1.1,0,0,0,110.52,48Z"/><path class="cls-4" d="M123.28,28.46a1.24,1.24,0,0,0,1.13-1.32,2.18,2.18,0,0,0-1-1.48,6.42,6.42,0,0,0-3.47-1.18,6,6,0,0,0-.61-.12c1.26-1.9-3.82-2.11-6.69-3.72s-6.55-2.47-7.75-2-.93.63-1,.8c-.07,0-1.07-1.62-4.2.23-2.88,1.7-4.57,8.05-5.22,12.74a31.16,31.16,0,0,1,3.77,1.18c.6.35-1.23,4,.32,4.73s1.83-5.59,4.57-7.11c3.73.74,3-3,5.74-3.87a4.71,4.71,0,0,1,1.24-.08,8.64,8.64,0,0,1,1.15.09,7.68,7.68,0,0,1,2,.57,21.81,21.81,0,0,1,3.2,2c.26.17.53.36.82.54,0,.13.11.27.17.39a3.88,3.88,0,0,0,2,1.81,1.39,1.39,0,0,0,1,.08h0a2.48,2.48,0,0,0,.21.4c.62.94,3.28,2.48,4.69.61S124.78,29.38,123.28,28.46Z"/><g class="cls-37"><path class="cls-38" d="M95.38,25.62a.9.9,0,0,0,.49.7c.68.3,1.39-.52,2.13-.44a1.37,1.37,0,0,1,1.06,1.24c.08.58,0,1.18,0,1.76a1.55,1.55,0,0,0,.88,1.41,1.74,1.74,0,0,0,1,0A7.08,7.08,0,0,0,105.25,27c.31-.53.53-1.28.1-1.72s-1.52-.21-2-.75.06-1.7-.39-2.41a1.7,1.7,0,0,0-1.61-.53,2.4,2.4,0,0,1-1.72-.28c-.37-.31-.51-.83-.9-1.11a1.26,1.26,0,0,0-1.26,0,3.31,3.31,0,0,0-1,.83,5.35,5.35,0,0,0-1.22,1.76,2.3,2.3,0,0,0,0,1.49c.06.19.27.4.31.59S95.34,25.34,95.38,25.62Z"/><path class="cls-38" d="M111.39,24.83a1.67,1.67,0,0,0-1.06-.38c-.38-.06-.81-.23-.9-.6s.12-.6.06-.9a.85.85,0,0,0-.68-.55,7,7,0,0,1-.91-.18.7.7,0,0,1-.5-.69c.09-.55,1.06-.7,1-1.25,0-.28-.35-.43-.62-.53a17.21,17.21,0,0,0-2-.54,1.13,1.13,0,0,0-.94.09c-.36.3-.23.88,0,1.31a13.54,13.54,0,0,0,2.61,4c.76.79,1.9,2.34,3.16,1.89C111.13,26.25,112,25.49,111.39,24.83Z"/></g><path class="cls-2" d="M105.91,27.68s-1.36,2.72.1,2.67S105.91,27.68,105.91,27.68Z"/><path class="cls-2" d="M103.7,30.22s-1.36,2.71.1,2.67S103.7,30.22,103.7,30.22Z"/><path class="cls-3" d="M96.64,39c-.76,1.06-2.58.9-3.56-.64s-.87-5.12.74-6.52,3.72.22,3.91,2.63A7.67,7.67,0,0,1,96.64,39Z"/><path class="cls-19" d="M96.64,39c-.76,1.06-2.58.9-3.56-.64s-.87-5.12.74-6.52,3.72.22,3.91,2.63A7.67,7.67,0,0,1,96.64,39Z"/><path class="cls-36" d="M94.35,33.29a.13.13,0,0,1,.11-.18c.35,0,.62.38.83.66a3.75,3.75,0,0,1,.52,1,3.86,3.86,0,0,1,0,2.49.12.12,0,1,1-.24,0A4.81,4.81,0,0,0,95.43,35a2.33,2.33,0,0,0-.11-.28l-.12.08-.2.13-.38.32c-.25.23-.45.52-.72.74a.07.07,0,0,1-.12-.07,1.93,1.93,0,0,1,.62-1,3.87,3.87,0,0,1,.45-.35,1.71,1.71,0,0,1,.23-.13l.1-.05a3.35,3.35,0,0,0-.21-.36A3.67,3.67,0,0,1,94.35,33.29Z"/><path class="cls-5" d="M36.36,43.71a11.28,11.28,0,0,0-5.63-.9,10.87,10.87,0,0,0-7,4.3,23.71,23.71,0,0,0-3.65,7.51,4.16,4.16,0,0,0-.27,1.47,1.43,1.43,0,0,0,.73,1.23,2,2,0,0,0,1.9-.44,15,15,0,0,0,4.17-4.24,15.22,15.22,0,0,0-.74,5.85,1.92,1.92,0,0,0,1,1.67c.81.3,1.61-.42,2.15-1.1a25.29,25.29,0,0,0,3.71-6.56A7.67,7.67,0,0,0,32.6,55,2.56,2.56,0,0,0,34,57c1.17.47,2.45-.32,3.37-1.18a15.18,15.18,0,0,0,3.88-5.94c.42-1.17.64-2.85-.42-3.74A17,17,0,0,0,36.36,43.71Z"/><g class="cls-39"><path class="cls-40" d="M37.38,54.88a4.54,4.54,0,0,1-4-3.76,29.11,29.11,0,0,1-4.88,5c-.59.48-1.41,1-2.06.56s-.62-1.27-.44-2a3,3,0,0,0,.08-2.12,3.34,3.34,0,0,1-4.55,2.21,3.34,3.34,0,0,1-1-5c-2.25,3.73-2,9,1.09,12.08A10.8,10.8,0,0,0,31,64.63a18.43,18.43,0,0,0,8.87-4.51,10.24,10.24,0,0,0,3-3.75c.36-.89.83-4.81-1-3.91-.64.31-1.1,1.37-1.8,1.79A4.44,4.44,0,0,1,37.38,54.88Z"/></g><path class="cls-5" d="M55.49,37.75A11.36,11.36,0,0,1,58.62,33a10.91,10.91,0,0,1,7.87-2.25,23.92,23.92,0,0,1,8,2.36,4.1,4.1,0,0,1,1.28.79,1.47,1.47,0,0,1,.41,1.38c-.2.65-1,.94-1.61,1.1a15,15,0,0,1-5.94.23A15.39,15.39,0,0,1,73.47,40,1.9,1.9,0,0,1,74,41.83c-.32.8-1.4.91-2.26.85A25.34,25.34,0,0,1,64.43,41a7.36,7.36,0,0,1,2,1.59,2.51,2.51,0,0,1,.5,2.37c-.43,1.18-1.88,1.59-3.14,1.69a15.24,15.24,0,0,1-7-1.13c-1.15-.48-2.54-1.45-2.48-2.83A17.35,17.35,0,0,1,55.49,37.75Z"/><g class="cls-41"><path class="cls-40" d="M63.06,46A4.55,4.55,0,0,0,63,40.55a29.45,29.45,0,0,0,7-.21c.75-.11,1.65-.4,1.8-1.15s-.53-1.31-1.17-1.66-1.38-.68-1.62-1.37a3.35,3.35,0,0,0,4.7-1.87,3.35,3.35,0,0,0-3-4.07c4.27.86,8,4.6,8.19,9a10.75,10.75,0,0,1-4.3,8.69,18.27,18.27,0,0,1-9.3,3.51A10.11,10.11,0,0,1,60.51,51c-.9-.34-4.11-2.63-2.19-3.4.66-.26,1.75.12,2.53-.12A4.37,4.37,0,0,0,63.06,46Z"/></g><circle class="cls-42" cx="49.69" cy="48.16" r="11.37" transform="translate(-15.26 72.04) rotate(-64.29)"/><path class="cls-43" d="M60.83,50.49A11.37,11.37,0,1,1,39.1,44a11.37,11.37,0,0,0,21.73,6.45Z"/><path class="cls-44" d="M58.12,45.11a9,9,0,1,1-11.47-5.38A9,9,0,0,1,58.12,45.11Z"/><g class="cls-45"><path class="cls-42" d="M49.43,44.91c1-1.73,2-3.5,3.1-5.24a8.58,8.58,0,0,0-2.07-.44c-2.6,4.74-5.08,9.61-8.11,14.06a8.86,8.86,0,0,0,1.44,1.61C45.83,51.67,47.48,48.19,49.43,44.91Z"/><path class="cls-42" d="M53.58,44.72c.6-1.15,1.22-2.3,1.84-3.44A8.81,8.81,0,0,0,53.36,40c-1.24,2-2.53,4-3.74,6-1.82,3-3.42,6.28-5.52,9.15a9.08,9.08,0,0,0,3.69,1.76A99.9,99.9,0,0,1,53.58,44.72Z"/><path class="cls-42" d="M51.72,54.85C53,52.1,54.65,49.45,56,46.8c.5-1,1-2,1.51-3a7.17,7.17,0,0,0-.46-.75c-.67,1.22-1.33,2.44-2,3.67-1.21,2.22-2.39,4.46-3.64,6.65a29.78,29.78,0,0,1-2.2,3.7,9.68,9.68,0,0,0,1.42,0A17.15,17.15,0,0,1,51.72,54.85Z"/></g><path class="cls-46" d="M52.69,54.83a1.27,1.27,0,0,1-1.61-.72l0,0a3.74,3.74,0,0,1-3.57-1.59,1.26,1.26,0,0,1,.36-1.76,1.15,1.15,0,0,1,.27-.14,1.26,1.26,0,0,1,1.49.5,1,1,0,0,0,.35.31L49,49a6.62,6.62,0,0,1-1.33-.19,3.35,3.35,0,0,1-2.25-3.63,3.68,3.68,0,0,1,1.13-2.16l0-.11a1.27,1.27,0,0,1,.69-1.66l.06,0a1.27,1.27,0,0,1,1.61.72l0,.07a4.19,4.19,0,0,1,2.44.58,1.28,1.28,0,0,1,.44,1.75,1.26,1.26,0,0,1-.66.54,1.25,1.25,0,0,1-1.08-.1l.68,1.65a5.26,5.26,0,0,1,1.11.19,3.59,3.59,0,0,1,2.71,3A3.91,3.91,0,0,1,53.39,53l0,.12a1.27,1.27,0,0,1-.69,1.66Z"/><path class="cls-42" d="M51.65,47.29a4.47,4.47,0,0,0-1.38-.19L49,44a2.29,2.29,0,0,1,1.36.32A.64.64,0,0,0,51,43.19a3.56,3.56,0,0,0-2.52-.44l-.21-.52a.64.64,0,0,0-.84-.35.63.63,0,0,0-.34.83l.22.55a3,3,0,0,0-1.27,2,2.7,2.7,0,0,0,1.78,2.94,5.66,5.66,0,0,0,1.6.17L51,52.15a1.9,1.9,0,0,1-1.89-.73.63.63,0,0,0-.88-.18.64.64,0,0,0-.18.88,3.21,3.21,0,0,0,3.44,1.24l.21.51a.64.64,0,0,0,.81.36h0a.63.63,0,0,0,.35-.83l-.22-.55a3.21,3.21,0,0,0,1.27-3A2.94,2.94,0,0,0,51.65,47.29ZM48.14,47c-.72-.18-.86-1.16-.82-1.58a1.68,1.68,0,0,1,.5-.93l1.08,2.63A4.74,4.74,0,0,1,48.14,47Zm4.5,3a1.94,1.94,0,0,1-.52,1.59l-1.31-3.19a3.17,3.17,0,0,1,.48.1A1.69,1.69,0,0,1,52.64,50Z"/><path class="cls-5" d="M175.68,75.47a10.3,10.3,0,0,0,.32-5.22,10,10,0,0,0-4.53-6,21.66,21.66,0,0,0-7.18-2.66,3.7,3.7,0,0,0-1.36-.12,1.31,1.31,0,0,0-1.06.78,1.84,1.84,0,0,0,.57,1.69,13.63,13.63,0,0,0,4.23,3.43,14,14,0,0,0-5.4-.16c-.61.14-1.28.45-1.43,1-.2.77.53,1.44,1.19,1.86A22.9,22.9,0,0,0,167.34,73,6.89,6.89,0,0,0,165,73a2.33,2.33,0,0,0-1.68,1.46c-.32,1.11.51,2.21,1.38,3a13.88,13.88,0,0,0,5.76,3c1.1.28,2.66.34,3.37-.71A16,16,0,0,0,175.68,75.47Z"/><g class="cls-47"><path class="cls-40" d="M165.58,77.38a4.17,4.17,0,0,1,3.08-4,26.26,26.26,0,0,1-5-4c-.49-.5-1-1.21-.69-1.84s1.1-.67,1.76-.57a2.79,2.79,0,0,0,1.94-.11,2.93,2.93,0,1,1,2-5.29c-3.6-1.72-8.37-1-10.91,2.07a9.87,9.87,0,0,0-1.63,8.73,16.85,16.85,0,0,0,4.9,7.69,9.4,9.4,0,0,0,3.68,2.37c.85.25,4.46.33,3.48-1.29-.34-.55-1.35-.88-1.79-1.48A4,4,0,0,1,165.58,77.38Z"/></g><path class="cls-5" d="M183.11,81.58A10.36,10.36,0,0,1,187,78.13a10,10,0,0,1,7.5-.07,21.54,21.54,0,0,1,6.5,4,3.44,3.44,0,0,1,.93,1,1.31,1.31,0,0,1,0,1.31,1.84,1.84,0,0,1-1.69.58,13.71,13.71,0,0,1-5.3-1.24,14,14,0,0,1,3.44,4.17,1.77,1.77,0,0,1,.05,1.78c-.49.62-1.46.46-2.21.19a23.19,23.19,0,0,1-6.08-3.27,6.81,6.81,0,0,1,1.34,1.88,2.3,2.3,0,0,1-.13,2.22c-.67.94-2,1-3.18.73a13.81,13.81,0,0,1-5.91-2.7c-.9-.71-1.89-1.9-1.51-3.11A16,16,0,0,1,183.11,81.58Z"/><g class="cls-48"><path class="cls-40" d="M187.78,90.73A4.17,4.17,0,0,0,189,85.87a26.86,26.86,0,0,0,6.24,1.53c.7.08,1.57,0,1.88-.58s-.15-1.29-.63-1.75-1.06-.94-1.1-1.6a2.93,2.93,0,1,0,2.95-4.83c3.56,1.79,5.91,6,5.05,9.89a9.89,9.89,0,0,1-5.92,6.64,16.85,16.85,0,0,1-9.07.83,9.31,9.31,0,0,1-4.14-1.46c-.71-.52-3-3.33-1.1-3.53.64-.08,1.52.52,2.26.5A3.88,3.88,0,0,0,187.78,90.73Z"/></g><circle class="cls-42" cx="175.93" cy="86.18" r="10.42" transform="matrix(0.96, -0.27, 0.27, 0.96, -16.87, 51.46)"/><path class="cls-43" d="M181,95.3a10.42,10.42,0,1,1-8.53-18.94A10.42,10.42,0,0,0,181,95.3Z"/><path class="cls-44" d="M183.09,90.2A8.21,8.21,0,1,1,180,79,8.21,8.21,0,0,1,183.09,90.2Z"/><g class="cls-45"><path class="cls-42" d="M178,84.06c1.82-.32,3.65-.69,5.49-1a8.21,8.21,0,0,0-.93-1.69c-4.84,1-9.71,2.23-14.61,2.79a7.75,7.75,0,0,0-.25,2C171.19,85.6,174.59,84.66,178,84.06Z"/><path class="cls-42" d="M180.65,86.81l3.49-.77a8.7,8.7,0,0,0-.34-2.21c-2.14.35-4.29.64-6.41,1-3.2.56-6.41,1.39-9.65,1.65a8.3,8.3,0,0,0,1,3.61A90.62,90.62,0,0,1,180.65,86.81Z"/><path class="cls-42" d="M172.51,91.59c2.68-.75,5.5-1.2,8.16-1.83,1-.23,2-.49,3-.72a6.86,6.86,0,0,0,.24-.77l-3.73.81c-2.26.5-4.53,1-6.8,1.46a25.78,25.78,0,0,1-3.88.69,8.86,8.86,0,0,0,.88,1A16.21,16.21,0,0,1,172.51,91.59Z"/></g><path class="cls-46" d="M173.1,92.26a1.17,1.17,0,0,1-.46-1.55l0,0a3.47,3.47,0,0,1-1-3.44,1.17,1.17,0,1,1,2.25.64.9.9,0,0,0,0,.43l1-2.07a6.26,6.26,0,0,1-.67-1,3.05,3.05,0,0,1,1.17-3.73,3.34,3.34,0,0,1,2.18-.51l0-.1a1.19,1.19,0,0,1,.68-.58,1.2,1.2,0,0,1,.89.07l0,0a1.16,1.16,0,0,1,.46,1.54l0,.06a3.78,3.78,0,0,1,1.05,2,1.17,1.17,0,0,1-1,1.35,1.22,1.22,0,0,1-.77-.14,1.19,1.19,0,0,1-.58-.8l-.73,1.45a5,5,0,0,1,.53.89,3.27,3.27,0,0,1-.49,3.7,3.56,3.56,0,0,1-3,1.19l-.05.11a1.17,1.17,0,0,1-1.57.51Z"/><path class="cls-42" d="M177.71,87A4.74,4.74,0,0,0,177,86l1.4-2.77a2.08,2.08,0,0,1,.6,1.13.57.57,0,0,0,.67.48.59.59,0,0,0,.48-.67,3.22,3.22,0,0,0-1.21-2l.24-.46a.58.58,0,0,0-.26-.79.58.58,0,0,0-.78.26l-.25.48a2.76,2.76,0,0,0-2.16.34,2.47,2.47,0,0,0-1,3,5.4,5.4,0,0,0,.85,1.21l-1.68,3.31a1.71,1.71,0,0,1-.62-1.74.6.6,0,0,0-.41-.72.58.58,0,0,0-.72.4,3,3,0,0,0,1.21,3.13l-.23.46a.57.57,0,0,0,.23.77h0a.59.59,0,0,0,.79-.26l.24-.48a3,3,0,0,0,2.86-.93A2.71,2.71,0,0,0,177.71,87Zm-1.9-2.6c-.3-.61.29-1.3.61-1.52a1.5,1.5,0,0,1,.94-.2L176.18,85A4.14,4.14,0,0,1,175.81,84.41Zm.6,4.93a1.75,1.75,0,0,1-1.41.58l1.43-2.82a3,3,0,0,1,.22.4A1.55,1.55,0,0,1,176.41,89.34Z"/><path class="cls-5" d="M61.7,159.52a15,15,0,0,1,6.39-4,14.41,14.41,0,0,1,10.69,1.63,31.76,31.76,0,0,1,8.31,7.25,5.27,5.27,0,0,1,1.09,1.65,1.89,1.89,0,0,1-.26,1.88,2.69,2.69,0,0,1-2.54.44,19.75,19.75,0,0,1-7.25-3,20.15,20.15,0,0,1,3.92,6.73,2.56,2.56,0,0,1-.34,2.54c-.83.78-2.18.32-3.18-.23a33.29,33.29,0,0,1-7.9-6.06,9.83,9.83,0,0,1,1.48,3,3.36,3.36,0,0,1-.7,3.13c-1.17,1.17-3.14.87-4.7.3a20,20,0,0,1-7.78-5.22c-1.12-1.21-2.25-3.14-1.42-4.76A22.89,22.89,0,0,1,61.7,159.52Z"/><g class="cls-49"><path class="cls-40" d="M66.23,173.62A6,6,0,0,0,69.14,167a39.06,39.06,0,0,0,8.53,3.62c1,.28,2.21.43,2.8-.39s.09-1.87-.48-2.64a3.93,3.93,0,0,1-1.2-2.53,4.22,4.22,0,1,0,5.31-6.19c4.65,3.37,7,9.9,4.89,15.24-1.64,4.12-5.64,7-9.94,8.07a24.24,24.24,0,0,1-13.11-.92,13.41,13.41,0,0,1-5.54-3c-.89-.9-3.48-5.43-.76-5.29.94.05,2,1.1,3.11,1.25A5.75,5.75,0,0,0,66.23,173.62Z"/></g><path class="cls-5" d="M31.81,175.8a15,15,0,0,0-5.87,4.72,14.41,14.41,0,0,0-2,10.63,31.28,31.28,0,0,0,4.11,10.23,5.34,5.34,0,0,0,1.2,1.58,1.9,1.9,0,0,0,1.86.37,2.69,2.69,0,0,0,1.25-2.25,19.92,19.92,0,0,0-.45-7.84A20.24,20.24,0,0,0,37,199.16a2.53,2.53,0,0,0,2.51.5c1-.52,1-1.95.82-3.07a33.12,33.12,0,0,0-3.12-9.45,9.76,9.76,0,0,0,2.34,2.37,3.34,3.34,0,0,0,3.18.37c1.49-.72,1.86-2.68,1.83-4.34a20,20,0,0,0-2.37-9.06c-.78-1.45-2.22-3.16-4-2.91A23,23,0,0,0,31.81,175.8Z"/><g class="cls-50"><path class="cls-40" d="M43.65,184.71a6,6,0,0,1-7.21.58,39.2,39.2,0,0,1,.61,9.24c-.06,1-.32,2.23-1.29,2.52s-1.79-.53-2.33-1.33-1.07-1.73-2-2a4.42,4.42,0,0,1-1.87,6.41,4.41,4.41,0,0,1-5.72-3.43c1.65,5.5,7,9.89,12.78,9.63,4.43-.2,8.48-3,10.89-6.74A24.26,24.26,0,0,0,51,187a13.54,13.54,0,0,0-1-6.22c-.56-1.14-4-5.08-4.74-2.46-.27.9.36,2.29.15,3.34A5.78,5.78,0,0,1,43.65,184.71Z"/></g><circle class="cls-42" cx="50.32" cy="170.07" r="15.02"/><path class="cls-43" d="M65.2,172.16a15,15,0,0,1-28.62,4A14.85,14.85,0,0,1,36,165.59a14.83,14.83,0,0,0,1.13,8.11,15,15,0,0,0,28.07-1.54Z"/><circle class="cls-44" cx="50.32" cy="170.07" r="11.83" transform="translate(-105.52 85.4) rotate(-45)"/><g class="cls-45"><path class="cls-42" d="M49.69,165.82c1.21-2.38,2.38-4.8,3.61-7.19a12.17,12.17,0,0,0-2.76-.39c-3,6.47-5.84,13.12-9.43,19.25a11.63,11.63,0,0,0,2,2C45.54,175,47.41,170.31,49.69,165.82Z"/><path class="cls-42" d="M55.13,165.19c.7-1.57,1.42-3.13,2.13-4.69A12.26,12.26,0,0,0,54.43,159c-1.46,2.76-3,5.49-4.4,8.26-2.13,4.17-3.94,8.58-6.45,12.54a11.83,11.83,0,0,0,5,2A133.38,133.38,0,0,1,55.13,165.19Z"/><path class="cls-42" d="M53.59,178.71c1.46-3.74,3.38-7.38,5-11,.58-1.32,1.14-2.67,1.73-4a10.78,10.78,0,0,0-.67-.95c-.78,1.66-1.54,3.33-2.31,5-1.38,3-2.74,6.1-4.2,9.1a38.21,38.21,0,0,1-2.57,5.06,11.86,11.86,0,0,0,1.87-.19A23.4,23.4,0,0,1,53.59,178.71Z"/></g><path class="cls-46" d="M54.87,178.59a1.67,1.67,0,0,1-2.19-.79l0-.07A5,5,0,0,1,47.8,176a1.68,1.68,0,0,1,.32-2.35,1.48,1.48,0,0,1,.34-.21,1.69,1.69,0,0,1,2,.52,1.23,1.23,0,0,0,.49.39l-1.48-3a8.16,8.16,0,0,1-1.77-.12c-2.5-.46-3.35-3.06-3.29-4.59a4.73,4.73,0,0,1,1.3-2.94l-.07-.14a1.68,1.68,0,0,1,.77-2.25l.08,0a1.67,1.67,0,0,1,2.17.8l0,.09a5.51,5.51,0,0,1,3.26.56,1.68,1.68,0,0,1-1.52,3l1,2.11a6.11,6.11,0,0,1,1.49.16,4.72,4.72,0,0,1,3.83,3.77,5.13,5.13,0,0,1-1.2,4.46l.07.15a1.7,1.7,0,0,1,.09,1.29,1.68,1.68,0,0,1-.85,1Z"/><path class="cls-42" d="M52.82,168.75a5.92,5.92,0,0,0-1.83-.12l-2-4a2.91,2.91,0,0,1,1.82.3.86.86,0,0,0,1.14-.37.85.85,0,0,0-.37-1.13,4.66,4.66,0,0,0-3.35-.35l-.33-.67a.84.84,0,1,0-1.51.74l.34.69a4,4,0,0,0-1.49,2.79c0,1.25.62,3.37,2.6,3.73a7.46,7.46,0,0,0,2.13.07l2.35,4.81a2.5,2.5,0,0,1-2.54-.8.84.84,0,0,0-1.34,1,4.23,4.23,0,0,0,4.64,1.32l.33.67a.83.83,0,0,0,1.09.39h0a.86.86,0,0,0,.38-1.13l-.35-.7A4.22,4.22,0,0,0,56,171.89,3.89,3.89,0,0,0,52.82,168.75Zm-4.65-.07c-1-.17-1.24-1.45-1.22-2a2.2,2.2,0,0,1,.58-1.27l1.66,3.37A5.35,5.35,0,0,1,48.17,168.68Zm6.2,3.58a2.54,2.54,0,0,1-.55,2.13l-2-4.09a3.65,3.65,0,0,1,.64.09A2.26,2.26,0,0,1,54.37,172.26Z"/></g><g class="cls-51"><path class="cls-52" d="M209.31,211a8.37,8.37,0,0,0,3.76-4.58c1.14,1.66,2,1.68,3.75,1.87a9.77,9.77,0,0,1-3.75,4.2A3.13,3.13,0,0,1,209.31,211Z"/></g></g></g></svg>