<?xml version="1.0" encoding="utf-8"?>
<!-- Generator: Adobe Illustrator 24.0.0, SVG Export Plug-In . SVG Version: 6.00 Build 0)  -->
<svg version="1.1" id="Layer_1" xmlns="http://www.w3.org/2000/svg" xmlns:xlink="http://www.w3.org/1999/xlink" x="0px" y="0px"
	 viewBox="0 0 212 212" style="enable-background:new 0 0 212 212;" xml:space="preserve">
<style type="text/css">
	.st0{fill:#282267;}
	.st1{fill:#FFCC2C;}
	.st2{clip-path:url(#SVGID_2_);}
	.st3{fill:#F7941D;}
	.st4{clip-path:url(#SVGID_4_);}
	.st5{fill:#C1873F;}
	.st6{fill:#D1D3D4;}
	.st7{fill:#441C16;}
	.st8{fill:none;}
	.st9{fill:#C76E5E;}
	.st10{opacity:0.55;fill:#AB5044;enable-background:new    ;}
	.st11{fill:#AB5044;}
	.st12{opacity:0.57;fill:#AB5044;enable-background:new    ;}
	.st13{fill:#4D1B11;}
	.st14{fill:#FFFFFF;}
	.st15{fill:#F38C5B;}
	.st16{fill:#D6A461;}
	.st17{fill:#FBB895;}
	.st18{fill:#F47F6E;}
	.st19{opacity:0.57;fill:#F47F6E;enable-background:new    ;}
	.st20{opacity:0.46;fill:#F47F6E;enable-background:new    ;}
	.st21{fill:#323233;}
	.st22{fill:#393A3C;}
	.st23{fill:#614F4A;}
	.st24{opacity:0.57;fill:#F37560;enable-background:new    ;}
	.st25{fill:#F8F8EF;}
	.st26{fill:#DFDCD9;}
	.st27{fill:#E5E5E5;}
	.st28{fill:#DBD2CD;}
	.st29{fill:#502E15;}
	.st30{fill:#70441B;}
	.st31{fill:#C88E2B;}
	.st32{fill:#D69B29;}
	.st33{fill:#CAB6B1;}
	.st34{fill:#C5ACA9;}
	.st35{fill:#AF938F;}
	.st36{fill:#EBBB1E;}
	.st37{fill:#B57B2B;}
	.st38{fill:#F6CA32;}
	.st39{fill:#D0C0B9;}
</style>
<title>Artboard 8</title>
<g>
	<g id="Layer_1_1_">
		<g>
			<g>
				<g>
					<g>
						<path class="st0" d="M81,6.6c-0.7,0.3-1.5,0.5-2.3,0.5s-1.6-0.5-1.9-1.3c-0.1,0.7,0.3,1.4,0.9,1.8c0.6,0.4,1.3,0.6,2,0.5
							c1.2,0,2.5-0.3,3.7-0.7c2.5-0.9,4.9-2.1,7-3.6C91,3.3,91.7,2.7,92.2,2c0.3-0.4,0.5-0.9,0.6-1.4c0-0.2,0.2-0.6,0.1-0.7
							s-0.4,0.2-0.5,0.3c-0.8,0.7-1.6,1.4-2.4,2c-1.7,1.2-3.6,2.2-5.6,3.1C83.3,5.7,82.2,6.2,81,6.6z"/>
					</g>
				</g>
				<g>
					<g>
						<path class="st0" d="M135.7,6.2c0.8,0.3,1.6,0.4,2.4,0.3c0.8-0.1,1.5-0.6,1.8-1.4c0.1,0.7-0.2,1.4-0.8,1.8
							c-0.6,0.4-1.2,0.6-1.9,0.6c-1.2,0-2.5-0.1-3.7-0.5c-2.5-0.7-5-1.8-7.2-3.2c-0.8-0.4-1.4-1-2-1.6c-0.3-0.4-0.6-0.8-0.7-1.3
							c0-0.1-0.2-0.6-0.1-0.7s0.4,0.2,0.6,0.3c0.8,0.7,1.7,1.3,2.6,1.8c1.8,1.1,3.7,2,5.7,2.8C133.4,5.4,134.6,5.8,135.7,6.2z"/>
					</g>
				</g>
			</g>
		</g>
		<rect class="st1" width="212" height="212"/>
		<g>
			<g>
				<defs>
					<rect id="SVGID_1_" width="212" height="212"/>
				</defs>
				<clipPath id="SVGID_2_">
					<use xlink:href="#SVGID_1_"  style="overflow:visible;"/>
				</clipPath>
				<g class="st2">
					<circle class="st3" cx="106" cy="201.4" r="106.6"/>
				</g>
			</g>
		</g>
		<g>
			<g>
				<defs>
					<rect id="SVGID_3_" width="212" height="212"/>
				</defs>
				<clipPath id="SVGID_4_">
					<use xlink:href="#SVGID_3_"  style="overflow:visible;"/>
				</clipPath>
				<g class="st4">
					<path class="st5" d="M180,144.3c-0.6-5.3-2.4-10.4-5.2-14.9l-2.1-3.3l-2-3.2l-1.4-2.3l-14.3,1.1l-14.3-1.1l-1.4,2.3l-2,3.2
						l-2.1,3.3c-3.9,6.2-5.8,13.5-5.4,20.9l5.6,101.6h12.4l7.1-87.2l2.7-0.2l1.6,87.4h12.1C171.1,251.8,180.2,146.1,180,144.3z"/>
					<path class="st6" d="M163.1,132.8c0-0.4-0.1-0.8-0.1-1.2c0-0.1,0-0.2,0-0.2c0-0.4-0.1-0.7-0.1-1.1c0-0.1,0-0.2,0-0.3
						c0-0.5,0-0.9,0-1.4c0-3.8,0-7.7,0-11.6c0-0.8,0-1.6,0-2.4l0,0v-2.4V112c0-0.6,0-1.3,0-1.9c0-0.9,0-1.8,0-2.7l0,0
						c0-3.1-0.1-6.1-0.2-8.4c-0.2-3.6-0.2-7.1,0-10.7V76.6h-15v11.6c0.2,3.6,0.2,7.1,0,10.7c0,0.7,0,1.4-0.1,2.2
						c-0.1,3-0.1,6.5-0.1,10.1c0,0.4,0,0.9,0,1.3c0,0.2,0,0.4,0,0.6c0,0.6,0,1.1,0,1.7v0.4v1.8v11.6c0,0.5,0,0.9,0,1.4
						c0,0.1,0,0.2,0,0.3c0,0.4,0,0.7-0.1,1.1v0.3c0,0.4-0.1,0.8-0.1,1.1c0,0.1,0,0.1,0,0.2c-0.1,0.4-0.1,0.9-0.2,1.3l0,0
						c5.4,1.8,11.3,1.8,16.7-0.1c-0.1-0.4-0.1-0.9-0.2-1.3L163.1,132.8z"/>
					<path class="st7" d="M174.1,60.7l-2.8-5.6c0.1-0.7,0.2-1.3,0.2-2l-0.1-3.6c-0.3-8.4-7.3-15-15.7-14.8h-0.2
						c-8.4-0.2-15.4,6.4-15.7,14.8l-0.1,3.6c0,0.7,0.1,1.3,0.2,2l-2.8,5.6c-1.6,3.8,0.3,8.2,4.1,9.8c0.3,0.1,0.5,0.2,0.8,0.3
						c3.9,0.8,4.6,3.8,5.3,5.8h1h14.5h1c0.7-2.1,1.4-5,5.3-5.8c4-1.1,6.3-5.3,5.1-9.3C174.2,61.2,174.2,60.9,174.1,60.7z"/>
					<path class="st8" d="M155.7,71.4c5.3,0,9.7-4.1,10-9.4l-19.9-0.1C146.1,67.1,150.4,71.3,155.7,71.4z"/>
					<path class="st9" d="M167.1,55h-1.2v-3.9c0-0.8-0.1-1.6-0.3-2.4c-9.8,0.7-15.8-2.3-17.7-3.5c-0.3,0.4-0.5,0.8-0.8,1.2
						c-0.1,1.8-0.5,3.6-1.2,5.3V52v2.7v0.1h-0.7c-1.9,0-3.5,1.5-3.5,3.4l0,0l0,0c0,1.9,1.5,3.5,3.4,3.5l0,0h0.7v1.5
						c0,2.9,1.2,5.6,3.4,7.5v5.5c0,3.6,6.4,20.7,6.4,20.7s6.5-17,6.5-20.6v-5.4c2.3-1.9,3.6-4.7,3.6-7.6v-1.5h1.3
						c1.9,0,3.4-1.5,3.4-3.5S168.9,55,167.1,55L167.1,55z"/>
					<path class="st10" d="M155.7,71.4c-5.3-0.1-9.7-4.2-9.9-9.5l0,0v1.5c0,3.5,1.8,6.7,4.7,8.5c0,2.7,2.2,4.9,4.9,4.9
						c2.4,0,4.4-1.7,4.8-4c0-0.1,0-0.3,0.1-0.4c3.4-1.7,5.5-5.1,5.5-8.8v-1.5l0,0C165.5,67.3,161.1,71.4,155.7,71.4z"/>
					<path class="st11" d="M167.8,59.8c-0.1,0-0.2,0-0.2-0.1l-1.1-0.9l1.4-1.6c0.1-0.1,0.3-0.1,0.4,0c0.1,0.1,0.1,0.3,0,0.4l0,0
						l-1,1.1l0.6,0.5c0.1,0.1,0.1,0.3,0,0.4l0,0C167.9,59.7,167.9,59.8,167.8,59.8z"/>
					<path class="st11" d="M144.4,59.8c-0.1,0-0.2,0-0.2-0.1c-0.1-0.1-0.1-0.3,0-0.4l0,0l0.6-0.5l-0.9-1.1c-0.1-0.1-0.1-0.3,0-0.5
						c0.1-0.1,0.3-0.1,0.4,0l1.4,1.6l-1.1,0.9C144.5,59.7,144.5,59.8,144.4,59.8z"/>
					<path class="st12" d="M154.6,67.4c-0.1,0-0.2,0-0.2-0.1c-0.1-0.1-0.1-0.3,0-0.4c0.7-0.5,1.6-0.6,2.3-0.1
						c0.1,0.1,0.2,0.3,0.1,0.4l0,0c-0.1,0.1-0.3,0.2-0.4,0.1l0,0c-0.5-0.3-1.1-0.3-1.6,0.1C154.7,67.3,154.6,67.4,154.6,67.4z"/>
					<path class="st7" d="M162.3,52.5c-0.4,0-0.7,0-1.1-0.1c-0.4-0.1-0.8-0.2-1.1-0.3S159.4,52,159,52s-0.7-0.1-1.1-0.3
						c-0.3-0.2-0.3-0.6,0.1-0.9c1.5-0.9,3.5-0.6,4.6,0.9C162.9,52.1,162.6,52.5,162.3,52.5z"/>
					<path class="st7" d="M148.6,53.2c0.4,0.1,0.7,0.1,1.1,0c0.4,0,0.8-0.1,1.1-0.1h1.2c0.4,0,0.7,0,1.1-0.1c0.3-0.1,0.4-0.5,0-0.9
						c-0.6-0.6-1.5-0.9-2.4-0.8c-0.9,0-1.7,0.3-2.3,1C148.1,52.7,148.3,53,148.6,53.2z"/>
					<path class="st13" d="M158.8,54.9c-0.2,0.4,0,0.8,0.3,1s0.8,0,1-0.3s0-0.8-0.3-1l0,0C159.4,54.3,159,54.5,158.8,54.9z"/>
					<path class="st11" d="M160.3,56.4c-0.1,0-0.1,0-0.2-0.1c-0.4-0.2-0.9-0.2-1.3,0c-0.2,0.1-0.3,0-0.4-0.1l0,0
						c-0.1-0.2,0-0.3,0.1-0.4c0.6-0.4,1.3-0.4,1.9,0c0.1,0.1,0.2,0.3,0.1,0.4l0,0C160.5,56.3,160.4,56.4,160.3,56.4z"/>
					<path class="st13" d="M150.6,54.8c-0.2,0.4,0,0.8,0.4,1s0.8,0,1-0.4s0-0.8-0.4-1C151.2,54.3,150.8,54.4,150.6,54.8z"/>
					<path class="st11" d="M152.1,56.4c-0.1,0-0.1,0-0.2,0c-0.4-0.2-0.9-0.2-1.3,0c-0.2,0.1-0.3,0-0.4-0.1l0,0
						c-0.1-0.2,0-0.3,0.1-0.4c0.6-0.3,1.3-0.3,1.9,0c0.1,0.1,0.2,0.3,0.1,0.4l0,0C152.3,56.3,152.2,56.4,152.1,56.4z"/>
					<path class="st11" d="M156.8,59.1h-1.2c-0.9,0-1.6-0.8-1.6-1.6v-0.6c0-0.6,0.4-1,1-1h0.1v-2.7c0-0.2,0.1-0.3,0.3-0.3
						s0.3,0.1,0.3,0.3l0,0v3.3H155c-0.2,0-0.4,0.2-0.4,0.4v0.6c0,0.6,0.4,1,1,1h1.2c0.2,0,0.3,0.1,0.4,0.3c0,0.2-0.1,0.3-0.3,0.4
						C156.9,59.1,156.9,59.1,156.8,59.1L156.8,59.1z"/>
					<path class="st14" d="M159.4,59.5c-1.2,0.4-2.4,0.8-3.7,1c-1.8,0.3-0.8,2.4,2,2.1S160.9,59.2,159.4,59.5z"/>
					<path class="st15" d="M144.4,67.8c-0.3,0-0.6,0-0.6-3.6s0.3-3.6,0.6-3.6s0.6,0,0.6,3.6S144.6,67.8,144.4,67.8z"/>
					<path class="st15" d="M167.6,67.8c-0.3,0-0.6,0-0.6-3.6s0.3-3.6,0.6-3.6s0.6,0,0.6,3.6C168.2,67.8,167.9,67.8,167.6,67.8z"/>
					<path class="st9" d="M187.6,73.3c0,0-0.7-4.3-1.2-6.9c0.2-1.2,0-2.5-0.6-3.5l-0.2-0.3l-0.6-1.1c-0.6-1.1-0.7-2.4-0.3-3.6
						c0.8-1.9-3.1-1.9-3.4,1s-0.9,3-0.9,3s-0.5,0.6-3.1,0.3c-1.3-0.1-2.5-0.1-3.8,0.1c-0.9,0.1-1.6,1-1.4,1.9
						c0.1,0.7,0.8,1.3,1.5,1.2l0,0l1.3-0.2l-1.7,0.2c-0.8,0.1-1.4,0.9-1.3,1.7v0.2c0.1,0.8,0.8,1.3,1.6,1.2l2.4-0.3l-1.8,0.2
						c-0.6,0.1-1.1,0.7-1,1.4V70c0.1,0.9,1,1.5,1.9,1.4l0,0l1.3-0.2l-0.5,0.1c-0.3,0-0.5,0.3-0.5,0.6l0,0c0.1,1,1,1.7,2,1.5l0.6-0.1
						v1.2L187.6,73.3z"/>
					<path class="st11" d="M172.9,65.8c-0.1,0-0.2-0.1-0.2-0.2s0.1-0.2,0.2-0.2l1.9-0.1c0.1,0,0.2,0.1,0.2,0.2l0,0
						c0,0.1-0.1,0.2-0.2,0.2l0,0L172.9,65.8L172.9,65.8z"/>
					<path class="st11" d="M173.7,68.8c-0.1,0-0.2-0.1-0.2-0.2l0,0c0-0.1,0.1-0.2,0.2-0.2l1.9-0.1c0.1,0,0.2,0.1,0.2,0.2l0,0
						c0,0.1-0.1,0.2-0.2,0.2L173.7,68.8L173.7,68.8z"/>
					<path class="st11" d="M175.4,71.7c-0.1,0-0.2-0.1-0.2-0.2s0.1-0.2,0.2-0.2l1.9-0.1c0.1,0,0.2,0.2,0.2,0.3
						c0,0.1-0.1,0.2-0.2,0.2L175.4,71.7L175.4,71.7z"/>
					<path class="st16" d="M190.7,92.4c-0.3-3.7-0.5-7.4-0.8-11.1c-0.1-2.1-0.4-6.7-0.6-9.4c0-0.4-0.4-0.8-0.8-0.7
						c-0.1,0-0.1,0-0.2,0l-11.5,3.3c-0.6,0.2-1.1,0.7-1.1,1.4l-0.2,2.6l-0.1,0.7l-0.1-0.1c-2.4-1.6-5.2-2.5-8.1-2.4h-4.6v11.6
						c-0.2,3.6-0.2,7.1,0,10.7c0.2,4.7,0.2,11.9,0.3,18.1c0,3.9,0,7.8,0,11.6c0,13.3,8.5,24.2,19.2,24.6l0,0c-0.1-2-0.2-3.2-0.2-3.4
						c-0.5-7.3-2.2-14.4-5.1-21.1l-2-4.7l-1.9-4.5l-1.1-2.4l-0.1-1.6l-0.1-3.6l0,0c1.6-1,2.7-2.6,3-4.4c0.1,0.7,0.3,1.3,0.4,2
						c0.6,2.3,1.5,4.3,2.8,5c4,2.1,9.2,0.7,12.2-5.6C192,104.5,191,96.9,190.7,92.4z"/>
					<polygon class="st5" points="171.5,111.9 167.6,116.4 171.7,117.1 					"/>
					<path class="st5" d="M173.4,110.1c0.6-0.8,0.9-1.7,1.1-2.6c-0.5-2.4-0.7-4.8-0.8-7.3l1.7-21.1l-0.1-0.1
						c-0.3-0.2-0.6-0.4-0.9-0.5l-1.5,17.7C172.6,100.8,172.8,105.5,173.4,110.1z"/>
					<path class="st16" d="M147.5,88.2V76.6h-4.6c-5.4,0.1-7.1,2.1-10.6,6.1L132,83l0,0l-20.4,24.9c-3.9,5.4-2.7,12.9,2.6,16.8
						c0.4,0.3,0.8,0.6,1.2,0.8l15.5,9.6c-1.4,4.8-2.4,9.7-2.7,14.7c0,0.2-0.1,1.4-0.2,3.4c10.7-0.3,19.2-11.2,19.2-24.6V117
						c0.1-6.2,0.1-13.4,0.3-18.1C147.7,95.3,147.7,91.8,147.5,88.2z M130.6,108.7L130.6,108.7l5.5-6.5l-0.6,2.7
						c-0.6,2.7,0.6,5.5,3,7l0,0l-0.1,3.6l-0.1,1.6l-1.1,2.4l-0.9,2l-9.5-8.6L130.6,108.7z"/>
					<polygon class="st5" points="138.6,111.9 142.5,116.4 138.4,117.1 					"/>
					<path class="st5" d="M141.5,124.3c0,0,3.1,11.2-6.4,13.8C138.9,134.6,141.2,129.6,141.5,124.3z"/>
					<polygon class="st5" points="136.6,121.6 141.3,126 136.8,120.7 					"/>
					<polygon class="st5" points="135.9,137.3 130.9,135.1 130.6,136.2 					"/>
					<polygon class="st5" points="133.5,105.4 138.8,93.8 135.4,106.2 136.1,102.4 					"/>
					<path class="st13" d="M72.5,28.2c-1.2-1.3-2.9-2-4.6-2h-0.7c-0.1-0.5-0.3-1-0.6-1.4c-1-2.1-2.9-3.6-5.2-4.1
						c-6.5-1.3-8.5,4.1-13.1,7.7c-7.8,6.1-1.7,16.6-0.1,16.5v0.5c0,3.5,2.8,6.4,6.3,6.5l0,0l13,0.1c3.5,0,6.4-2.8,6.5-6.3l0,0v-1.5
						l2.6-5.6C78,34.1,75.9,29.5,72.5,28.2z"/>
					<path class="st17" d="M73.2,41.5h-1.3v-3.4c0-0.3,0-0.7,0-1c-6.6-0.5-13-2.5-18.6-5.9c-0.3,0.2-0.5,0.5-0.7,0.8
						c0,0.8,0,1.6,0,1.6c-0.1,2.6-1,5.2-2.4,7.4l-0.3,0.3h-1.2c-2,0-3.7,1.6-3.7,3.6l0,0v0.3c0,2,1.6,3.7,3.6,3.7l0,0h1.5v3.7
						c0,3,1.3,5.9,3.6,7.9v13.8c0,3.8,3.1,6.9,6.9,6.9l0,0h0.6c3.8,0,6.9-3.1,6.9-6.9l0,0V60.4c2-1.8,3.2-4.2,3.4-6.9l0,0
						c0.1-0.7,0.2-1.3,0.2-2v-2.4H73c2,0,3.7-1.6,3.7-3.6l0,0v-0.3C76.9,43.1,75.3,41.5,73.2,41.5L73.2,41.5z"/>
					<path class="st18" d="M75.1,46.8c-0.1,0-0.2,0-0.2-0.1l-1.1-1l1.5-1.7c0.1-0.1,0.3-0.1,0.4,0s0.1,0.3,0,0.4l0,0l-1.1,1.2
						l0.7,0.6c0.1,0.1,0.1,0.3,0,0.4l0,0C75.2,46.8,75.2,46.8,75.1,46.8z"/>
					<path class="st19" d="M63.5,55.6c-0.1,0-0.2,0-0.2-0.1c-0.5-0.5-1.2-0.6-1.8-0.3c-0.2,0.1-0.3,0-0.4-0.2s0-0.3,0.2-0.4
						c0.9-0.4,1.9-0.2,2.5,0.5c0.1,0.1,0.1,0.3,0,0.4l0,0C63.6,55.5,63.6,55.6,63.5,55.6z"/>
					<path class="st13" d="M54.2,39.7c0.4,0,0.7,0,1.1-0.1c0.4-0.1,0.8-0.2,1.1-0.3s0.7-0.1,1.1-0.2c0.4,0,0.7-0.1,1.1-0.3
						c0.3-0.2,0.3-0.6-0.1-1c-0.7-0.6-1.6-0.8-2.5-0.5c-0.9,0.1-1.6,0.7-2.1,1.4C53.7,39.3,53.9,39.6,54.2,39.7z"/>
					<path class="st13" d="M68.5,39.5c-0.4,0.1-0.7,0.1-1.1,0c-0.4,0-0.8-0.1-1.1-0.1s-0.8,0-1.1,0c-0.4,0-0.8,0-1.1-0.2
						c-0.3-0.2-0.4-0.6,0-1c0.6-0.7,1.5-1,2.4-0.9c0.9,0,1.7,0.4,2.3,1.2C68.9,39,68.8,39.4,68.5,39.5z"/>
					<path class="st13" d="M57.2,43.4c0.2,0.4,0,0.9-0.4,1.1s-0.9,0-1.1-0.4c-0.2-0.4,0-0.9,0.4-1.1l0,0C56.5,42.8,57,43,57.2,43.4z
						"/>
					<path class="st18" d="M57.4,45.1L57.4,45.1c-0.6-0.3-1.2-0.3-1.6,0c-0.2,0.1-0.4,0-0.4-0.1c-0.1-0.1,0-0.3,0.1-0.4
						c0.7-0.4,1.5-0.4,2.2,0c0.2,0.1,0.2,0.3,0.1,0.4l0,0C57.6,45.1,57.5,45.2,57.4,45.1z"/>
					<path class="st13" d="M66.6,43.5c0.2,0.4,0,0.9-0.4,1.1c-0.4,0.2-0.9,0-1.1-0.4s0-0.9,0.4-1.1l0,0
						C65.9,42.9,66.4,43.1,66.6,43.5z"/>
					<path class="st18" d="M66.7,45.2h-0.2c-0.5-0.3-1.1-0.3-1.5,0c-0.1,0.1-0.3,0.1-0.4-0.1c-0.1-0.1-0.1-0.3,0.1-0.4
						c0.7-0.4,1.5-0.4,2.2,0c0.2,0.1,0.2,0.3,0.1,0.4l0,0C66.9,45.2,66.8,45.2,66.7,45.2z"/>
					<path class="st14" d="M56.7,48.3c1.4,0.4,2.9,0.7,4.4,0.8c2.2,0.1,1.2,2.9-2.1,2.8S54.9,48.1,56.7,48.3z"/>
					<path class="st18" d="M61.1,47.6h-1.6c-0.2,0-0.3-0.2-0.3-0.4c0-0.1,0.1-0.2,0.3-0.3h1.6c0.8,0,1.5-0.7,1.5-1.5V45
						c0-0.6-0.4-1-1-1h-1.2v-4.1c0-0.2,0.1-0.3,0.3-0.3s0.3,0.1,0.3,0.3l0,0v3.5h0.6c0.9,0,1.6,0.7,1.6,1.6v0.4
						C63.3,46.6,62.3,47.6,61.1,47.6L61.1,47.6z"/>
					<path class="st20" d="M50.1,52.5c0,4,2.2,7.6,5.7,9.3c1,2.8,4.1,4.3,6.9,3.3c1.5-0.5,2.8-1.8,3.3-3.3c3.2-1.6,5.3-4.8,5.6-8.4
						c-1,4.3-4.9,7.4-9.3,7.4h-2.6c-5.2,0-9.4-4.3-9.4-9.5l0,0v-2.4h-0.2L50.1,52.5z"/>
					<path class="st5" d="M83.3,135.5l-21.7-3.6c-1.1-0.5-25.4,3.7-25.4,4.6L35,255c0,0.9,0.8,1.6,1.7,1.5h17.2
						c0.9,0,1.6-0.7,1.6-1.5L60,149.5l5,105.6c0.1,0.8,0.8,1.5,1.7,1.5H82c0.9,0,1.6-0.6,1.7-1.5L84,136.3
						C84,135.8,83.9,135.7,83.3,135.5z"/>
					<path class="st17" d="M21.5,146.4l4.8,10.1c0.8,1.2,2.1,1.9,3.5,1.8l5.1-0.3c1.8-0.1,3.4-1.3,4.1-3l1.7-4.1
						c0.6-1.5,0.5-3.3-0.4-4.7l-1.8-2.9c-0.4-0.8-1.4-1-2.1-0.6c-0.2,0.1-0.4,0.3-0.5,0.5l0,0c-0.2,0.3-0.3,0.6-0.3,1l0.1,1.4
						l-4.9-5.9C30.9,139.8,27.2,145.4,21.5,146.4z"/>
					<path class="st16" d="M25.6,80.3l-14,21.8c-3.2,5-3.8,11.2-1.5,16.7l11.4,27.7l13.4-5.2l-7.4-27.1l7-9.1l3.1,15.6l-3.5,25.5
						c-0.2,1.2,0.6,2.3,1.8,2.5c0.1,0,0.1,0,0.2,0l11.3,0.6c0.9,0,1.6-0.6,1.7-1.5l2.1-22.9V63.6L40,68.3
						C34.1,70.8,29.1,75,25.6,80.3z"/>
					<polygon class="st5" points="34.6,105.1 39.7,96.5 35.4,109.3 					"/>
					<path class="st5" d="M37.3,78.2l9.2,9.7l-3.2,1.7c-1.4,0.7-1.9,2.4-1.2,3.8c0,0.1,0.1,0.1,0.1,0.2l9.3,14.6V65.3l-13.6,8.6
						c-1.3,0.8-1.7,2.5-0.9,3.8C37.1,77.9,37.2,78,37.3,78.2z"/>
					<path class="st21" d="M28.4,109.9h7c1.3,0,2.3,1,2.3,2.3v34.1c0,1.3-1,2.3-2.3,2.3h-7c-1.3,0-2.3-1-2.3-2.3v-34.1
						C26.1,110.9,27.1,109.9,28.4,109.9z"/>
					<path class="st22" d="M31.1,109.9h4.3c1.3,0,2.3,1,2.3,2.3v34.1c0,1.3-1,2.3-2.3,2.3h-4.3c-1.3,0-2.3-1-2.3-2.3v-34.1
						C28.8,110.9,29.8,109.9,31.1,109.9z"/>
					<path class="st6" d="M69.9,123.7l0.4-59.3l-2.1-0.6l-6.9,17l-7.7-17.2h-2.2v61.3l-2.1,22.4h22.8c-0.1-0.2-0.2-0.5-0.2-0.7
						L69.9,123.7z"/>
					<path class="st22" d="M88.2,165.4h8.1c0.9,0,1.6,0.7,1.6,1.6v39.8c0,0.9-0.7,1.6-1.6,1.6h-8.1c-0.9,0-1.6-0.7-1.6-1.6V167
						C86.6,166.1,87.4,165.4,88.2,165.4z"/>
					<path class="st21" d="M89.4,165.4h5.8c0.9,0,1.6,0.7,1.6,1.6v31.2c0,0.9-0.7,1.6-1.6,1.6h-5.8c-0.9,0-1.6-0.7-1.6-1.6V167
						C87.8,166.1,88.5,165.4,89.4,165.4z"/>
					<rect x="91.5" y="155.8" class="st23" width="1.7" height="9.6"/>
					<path class="st17" d="M86.1,149.9c0,0-2.2,2.3-2,4.8s2.7,5.8,2.7,5.8L86.1,149.9z"/>
					<path class="st24" d="M86.4,153.2l0.1,7C86.4,160.2,85.3,153.9,86.4,153.2z"/>
					<path class="st17" d="M92.5,163.2l-0.3,0.1c-0.9,0.2-1.7-0.3-1.9-1.2l-0.5-1.9l0.3,1.4c0.2,0.8-0.3,1.6-1.1,1.8l0,0
						c-1,0.3-2-0.3-2.3-1.3c-0.4-1.3-0.6-2.7-0.6-4.1c0-2.9-0.3-9.3-0.3-9.3l0.5-4.8l13.2-0.2l-1,12.7c0.2,1.1-0.4,2.1-1.5,2.4
						c-0.3,0.1-0.6-0.1-0.7-0.4l-0.1-0.5l0.3,1.4c0.2,1-0.3,1.9-1.3,2.2l0,0H95c-0.7,0.2-1.4-0.3-1.6-1l0,0l-0.4-1.8l0.7,2.6
						C93.9,162.1,93.3,163,92.5,163.2z"/>
					<path class="st24" d="M90,159.5c0-0.2-0.2-0.3-0.4-0.2l0,0c-0.2,0-0.3,0.2-0.3,0.4l0.6,2.5c0,0.2,0.2,0.3,0.4,0.3l0,0
						c0.2,0,0.3-0.2,0.2-0.4L90,159.5L90,159.5z"/>
					<path class="st24" d="M94,161.1L94,161.1l-0.9-3.1c-0.1-0.2-0.3-0.3-0.4-0.2c-0.2,0.1-0.3,0.3-0.2,0.4l0.9,3.1
						c0.1,0.2,0.3,0.3,0.4,0.2C94,161.5,94.1,161.3,94,161.1L94,161.1L94,161.1z"/>
					<path class="st24" d="M96.1,156.4c0-0.2-0.2-0.3-0.4-0.2l0,0c-0.2,0-0.3,0.2-0.3,0.4l0.6,2.3c0,0.2,0.2,0.3,0.4,0.3l0,0
						c0.2,0,0.3-0.2,0.3-0.4l0,0L96.1,156.4L96.1,156.4z"/>
					<path class="st16" d="M100,145.4l-2.5-58.2c-0.3-6-3.7-11.4-9-14.1l-18.2-8.6l-0.4,59.3l2.1,22.9c0.1,0.9,0.8,1.5,1.7,1.5
						l11.3-0.6c0.6,0,1.1-0.3,1.5-0.7L100,145.4z M84.5,115.2L84.5,115.2l0.1,11.2v0.6l-1-7.5L84.5,115.2z"/>
					<path class="st5" d="M84.3,78.2l-9.2,9.7l3.2,1.7c1.4,0.7,1.9,2.4,1.2,3.8c0,0.1-0.1,0.1-0.1,0.2l-9.3,14.6V65.3l13.6,8.6
						c1.3,0.8,1.7,2.5,0.9,3.8C84.5,77.9,84.4,78,84.3,78.2z"/>
					<polygon class="st5" points="82.2,95.3 80.1,93.8 83,99.3 84.5,115.2 84.4,96.9 					"/>
					<polygon class="st5" points="85,147.5 84.6,126.5 84.1,123.4 84,147.6 					"/>
					<path class="st25" d="M50.4,63.9l-0.5,3.5c-0.2,1.5,0.1,3.1,0.9,4.4l3.3,5.7c0.1,0.1,0.1,0.2,0.2,0.3c1.6,2,3.9,3.1,6.4,3.1
						h0.5l-7.7-18C52.9,62.1,50.6,62.8,50.4,63.9z"/>
					<path class="st25" d="M71.9,63.9l0.5,3.5c0.2,1.5-0.1,3.1-0.9,4.4l-3.3,5.7c-0.3,0.5-0.7,0.9-1.1,1.3c-1.3,1.3-3,2.1-4.8,2.1
						H61l7.7-18C69.4,62.1,71.7,62.8,71.9,63.9z"/>
				</g>
			</g>
		</g>
		<polygon class="st26" points="186.8,187 186.8,173.9 122.6,173.9 122.6,164.1 89.4,164.1 89.4,173.9 25.2,173.9 25.2,187 
			16.9,187 16.9,210 195.1,210 195.1,187 		"/>
		<polygon class="st27" points="106,164.1 89.4,164.1 89.4,173.9 25.2,173.9 25.2,187 16.9,187 16.9,210 106,210 		"/>
		<polygon class="st28" points="120.8,164.9 91.2,164.9 91.2,162.8 120.8,162.8 		"/>
		<path class="st29" d="M120.6,155.2l-14.4-7.8c-0.1,0-0.1,0-0.2,0v8.6h14.4c0.2,0,0.4-0.2,0.4-0.4
			C120.8,155.4,120.7,155.3,120.6,155.2L120.6,155.2z"/>
		<path class="st30" d="M105.8,147.4l-14.4,7.8c-0.2,0.1-0.3,0.3-0.2,0.5c0.1,0.1,0.2,0.2,0.4,0.2H106v-8.6
			C105.9,147.3,105.9,147.3,105.8,147.4L105.8,147.4z"/>
		<path class="st29" d="M116.5,151.6l-10.3-5.6c-0.1,0-0.1,0-0.2,0v6.4h10.3c0.2,0,0.4-0.2,0.4-0.4
			C116.7,151.9,116.7,151.7,116.5,151.6L116.5,151.6z"/>
		<path class="st30" d="M105.8,146l-10.3,5.6c-0.2,0.1-0.3,0.3-0.2,0.5c0.1,0.1,0.2,0.2,0.4,0.2H106V146
			C105.9,146,105.9,146,105.8,146z"/>
		<polygon class="st31" points="113.3,149.9 111.3,148.8 106,148.8 106,149.9 		"/>
		<polygon class="st32" points="98.7,149.9 106,149.9 106,148.8 100.7,148.8 		"/>
		<polygon class="st31" points="117.4,153.5 115.3,152.3 106,152.3 106,153.5 		"/>
		<polygon class="st32" points="94.6,153.5 106,153.5 106,152.3 96.7,152.3 		"/>
		<path class="st29" d="M112.5,148.1l-6.3-3.4c-0.1,0-0.1,0-0.2,0v4.2h6.3c0.2,0,0.4-0.2,0.4-0.4
			C112.7,148.3,112.6,148.2,112.5,148.1L112.5,148.1z"/>
		<path class="st30" d="M105.8,144.6l-6.3,3.4c-0.2,0.1-0.2,0.3-0.1,0.5c0.1,0.1,0.2,0.2,0.3,0.2h6.3v-4.2
			C105.9,144.6,105.9,144.6,105.8,144.6L105.8,144.6z"/>
		<path class="st28" d="M106,134.9v4.1h0.2v-4C106.2,134.9,106.1,134.9,106,134.9z"/>
		<path class="st27" d="M105.8,135v3.9h0.2v-4.1C105.9,134.8,105.8,134.9,105.8,135L105.8,135z"/>
		<path class="st28" d="M106.5,139.3c0-0.3-0.2-0.5-0.5-0.5v1C106.3,139.7,106.5,139.5,106.5,139.3L106.5,139.3z M106.5,140.3
			c0-0.3-0.2-0.5-0.5-0.5v1C106.3,140.8,106.5,140.5,106.5,140.3z M106.5,144.3c0-0.3-0.2-0.5-0.5-0.5v1
			C106.3,144.8,106.5,144.5,106.5,144.3z M106.5,142.3c0-0.3-0.2-0.5-0.5-0.5v1C106.3,142.8,106.5,142.5,106.5,142.3z M106.5,143.3
			c0-0.3-0.2-0.5-0.5-0.5v1C106.3,143.8,106.5,143.5,106.5,143.3z M106.5,141.3c0-0.3-0.2-0.5-0.5-0.5v1
			C106.3,141.8,106.5,141.5,106.5,141.3z"/>
		<path class="st27" d="M105.5,144.3c0,0.3,0.2,0.5,0.5,0.5v-1C105.7,143.8,105.5,144,105.5,144.3z M105.5,143.3
			c0,0.3,0.2,0.5,0.5,0.5v-1C105.7,142.8,105.5,143,105.5,143.3z M105.5,142.3c0,0.3,0.2,0.5,0.5,0.5v-1
			C105.7,141.8,105.5,142,105.5,142.3z M105.5,140.3c0,0.3,0.2,0.5,0.5,0.5v-1C105.7,139.8,105.5,140,105.5,140.3z M105.5,139.3
			c0,0.3,0.2,0.5,0.5,0.5v-1C105.7,138.8,105.5,139,105.5,139.3L105.5,139.3L105.5,139.3z M105.5,141.3c0,0.3,0.2,0.5,0.5,0.5v-1
			C105.7,140.8,105.5,141,105.5,141.3z"/>
		<polygon class="st26" points="96.1,155.9 96.1,162.8 115.9,162.8 115.9,155.9 		"/>
		<polygon class="st27" points="106,155.9 96.1,155.9 96.1,162.8 106,162.8 		"/>
		<polygon class="st33" points="96.1,155.9 96.1,157 115.9,157 115.9,155.9 		"/>
		<path class="st34" d="M104.8,160.7h2.3v-2.9h-2.3V160.7z M108.5,160.7h2.3v-2.9h-2.3V160.7z M112.2,157.8v2.9h2.3v-2.9H112.2z
			 M97.4,160.7h2.3v-2.9h-2.3V160.7z M101.1,160.7h2.3v-2.9h-2.3V160.7z"/>
		<path class="st35" d="M97.4,158.4h2.3v-0.6h-2.3V158.4z M101.1,158.4h2.3v-0.6h-2.3V158.4z M104.8,158.4h2.3v-0.6h-2.3V158.4z
			 M108.5,158.4h2.3v-0.6h-2.3V158.4z M112.2,157.8v0.6h2.3v-0.6H112.2z"/>
		<path class="st27" d="M119.5,163.4h-27c-0.2,0-0.3-0.1-0.3-0.3s0.1-0.3,0.3-0.3h27.1c0.2,0,0.3,0.1,0.3,0.3
			C119.8,163.2,119.7,163.4,119.5,163.4L119.5,163.4z"/>
		<path class="st32" d="M101.5,185.6l4,3.8c0.3,0.2,0.7,0.2,0.9,0l4-3.8H101.5z"/>
		<path class="st36" d="M101.5,185.6l4,3.8c0.1,0.1,0.3,0.2,0.5,0.2v-3.9h-4.5V185.6z"/>
		<polygon class="st31" points="102.2,186.3 109.8,186.3 110.5,185.6 101.5,185.6 		"/>
		<polygon class="st32" points="106,185.6 101.5,185.6 102.2,186.3 106,186.3 		"/>
		<path class="st31" d="M104.4,185.6l1.3,1.4c0.1,0.1,0.3,0.1,0.5,0l0,0l1.3-1.4H104.4z"/>
		<path class="st32" d="M104.4,185.6l1.3,1.4c0.1,0.1,0.1,0.1,0.2,0.1v-1.6h-1.5V185.6z"/>
		<polygon class="st37" points="105,186.3 107,186.3 107.6,185.6 104.4,185.6 		"/>
		<polygon class="st31" points="106,185.6 104.4,185.6 105,186.3 106,186.3 		"/>
		<polygon class="st37" points="110.2,184.8 101.8,184.8 101.8,177.1 110.2,177.1 		"/>
		<polygon class="st31" points="106,177.1 101.8,177.1 101.8,184.8 106,184.8 		"/>
		<polygon class="st31" points="101.3,174.1 104.6,169.2 107.4,169.2 110.7,174.1 		"/>
		<polygon class="st32" points="106,169.2 104.6,169.2 101.3,174.1 106,174.1 		"/>
		<path class="st32" d="M104.3,169.5h3.3c0.1,0,0.3-0.1,0.3-0.2c0-0.1-0.1-0.3-0.2-0.3h-0.1h-0.4l-0.6-0.9l0.2-1.1
			c0-0.2-0.1-0.4-0.4-0.5c0,0,0,0-0.1,0h-0.8c-0.2,0-0.4,0.2-0.4,0.4v0.1l0.2,1.1l-0.6,0.9h-0.4c-0.1,0-0.3,0.1-0.3,0.2
			c0,0.1,0.1,0.3,0.2,0.3C104.3,169.5,104.3,169.5,104.3,169.5z"/>
		<path class="st36" d="M106,166.5h-0.4c-0.2,0-0.4,0.2-0.4,0.4v0.1l0.2,1.1l-0.6,0.9h-0.4c-0.1,0-0.3,0.1-0.3,0.2
			c0,0.1,0.1,0.3,0.2,0.3h0.1h1.7L106,166.5L106,166.5z"/>
		<path class="st32" d="M101.9,173.2h8.1c0.1,0,0.2-0.2,0.2-0.3s-0.1-0.2-0.2-0.2h-8.1c-0.1,0-0.3,0.1-0.3,0.2
			c0,0.1,0.1,0.3,0.2,0.3C101.9,173.2,101.9,173.2,101.9,173.2z M102.4,172.4h7.2c0.1,0,0.3-0.1,0.3-0.3c0-0.1-0.1-0.3-0.3-0.3h-7.2
			c-0.1,0-0.3,0.1-0.3,0.3C102.2,172.3,102.3,172.4,102.4,172.4z M110.6,173.4h-9.1c-0.1,0-0.3,0.1-0.3,0.2c0,0.1,0.1,0.3,0.2,0.3
			h0.1h9.1c0.1,0,0.3-0.1,0.3-0.2C110.9,173.6,110.8,173.4,110.6,173.4C110.6,173.4,110.6,173.4,110.6,173.4z M103.4,171h5.2
			c0.1,0,0.3-0.1,0.3-0.3c0-0.1-0.1-0.3-0.3-0.3l0,0h-5.2c-0.1,0-0.3,0.1-0.3,0.3S103.2,171,103.4,171z M103.9,170.3h4.3
			c0.1,0,0.2-0.2,0.2-0.3s-0.1-0.2-0.2-0.2h-4.3c-0.1,0-0.3,0.1-0.3,0.2c0,0.1,0.1,0.3,0.2,0.3C103.8,170.3,103.8,170.3,103.9,170.3
			z M102.9,171.7h6.2c0.1,0,0.3-0.1,0.3-0.3c0-0.1-0.1-0.3-0.3-0.3h-6.2c-0.1,0-0.3,0.1-0.3,0.3
			C102.6,171.6,102.7,171.7,102.9,171.7z"/>
		<path class="st36" d="M101.7,172.9c0,0.1,0.1,0.3,0.2,0.3l0,0h4.1v-0.5h-4.1C101.8,172.6,101.7,172.8,101.7,172.9L101.7,172.9z"/>
		<path class="st36" d="M103.6,170c0,0.1,0.1,0.3,0.2,0.3l0,0h2.1v-0.5h-2.1C103.7,169.7,103.6,169.8,103.6,170L103.6,170z"/>
		<path class="st36" d="M106,173.4h-4.6c-0.1,0-0.3,0.1-0.3,0.2c0,0.1,0.1,0.3,0.2,0.3h0.1h4.6C106,173.9,106,173.4,106,173.4z"/>
		<path class="st36" d="M102.2,172.2c0,0.1,0.1,0.3,0.3,0.3h3.6V172h-3.6C102.3,171.9,102.2,172,102.2,172.2L102.2,172.2z"/>
		<path class="st36" d="M103.1,170.7c0,0.1,0.1,0.3,0.3,0.3h2.6v-0.5h-2.6C103.2,170.4,103.1,170.6,103.1,170.7L103.1,170.7z"/>
		<path class="st36" d="M102.6,171.4c0,0.1,0.1,0.3,0.3,0.3h3.1v-0.5h-3.1C102.8,171.2,102.6,171.3,102.6,171.4L102.6,171.4z"/>
		<path class="st32" d="M110.9,175.5H101c-0.4,0-0.7-0.3-0.7-0.7s0.3-0.7,0.7-0.7h9.9c0.4,0,0.7,0.3,0.7,0.7
			S111.3,175.5,110.9,175.5z"/>
		<path class="st36" d="M106,174.1h-5c-0.4,0-0.7,0.3-0.7,0.7s0.3,0.7,0.7,0.7h5V174.1z"/>
		<path class="st36" d="M110.9,174.5h-9.7c-0.1,0-0.2-0.1-0.2-0.2l0,0c0-0.1,0.1-0.2,0.2-0.2l0,0h9.7c0.1,0,0.2,0,0.2,0.2
			S111.1,174.5,110.9,174.5L110.9,174.5z"/>
		<polygon class="st31" points="101.1,175.5 101.7,176.4 110.3,176.4 110.9,175.5 		"/>
		<path class="st32" d="M103.3,177.1h1.4v7.7h-1.4V177.1z M106.7,184.8h-1.4v-7.7h1.4V184.8z M108.7,184.8h-1.4v-7.7h1.4V184.8z
			 M110.5,184.8h-1.3v-7.7h1.3c0.2,0,0.4-0.2,0.4-0.3l0,0c0-0.2-0.2-0.4-0.4-0.4h-9c-0.2,0-0.4,0.2-0.4,0.4s0.2,0.4,0.4,0.4l0,0h1.3
			v7.7h-1.3c-0.2,0-0.4,0.2-0.4,0.4s0.2,0.4,0.4,0.4h9c0.2,0,0.4-0.2,0.4-0.4S110.7,184.8,110.5,184.8L110.5,184.8z"/>
		<path class="st36" d="M110.4,176.7h-8.8c-0.1,0-0.1-0.1-0.2-0.1l0,0c0-0.1,0.1-0.1,0.2-0.1h8.8c0.1,0,0.2,0.1,0.2,0.1
			S110.5,176.7,110.4,176.7z"/>
		<path class="st36" d="M110.4,185.1h-8.8c-0.1,0-0.2-0.1-0.2-0.1c0-0.1,0.1-0.1,0.1-0.1l0,0h8.8c0.1,0,0.2,0.1,0.2,0.1
			S110.5,185.1,110.4,185.1z"/>
		<path class="st36" d="M104.8,184.8h-1.4v-7.7h1.4V184.8z M106,184.8h-0.7v-7.7h0.7v-0.7h-4.5c-0.2,0-0.4,0.2-0.4,0.4
			s0.2,0.4,0.4,0.4l0,0h1.3v7.7h-1.3c-0.2,0-0.4,0.2-0.4,0.4s0.2,0.4,0.4,0.4h4.5V184.8z"/>
		<path class="st32" d="M110.6,186h-9.2c-0.1,0-0.2-0.1-0.2-0.2c0-0.1,0.1-0.3,0.2-0.3h9.2c0.1,0,0.3,0.1,0.3,0.3
			C110.9,185.9,110.7,186,110.6,186z"/>
		<path class="st36" d="M106,185.5h-4.6c-0.1,0-0.3,0.1-0.2,0.3c0,0.1,0.1,0.2,0.2,0.2h4.6V185.5z"/>
		<path class="st36" d="M110.4,185.8h-8.8c-0.1,0-0.1-0.1-0.1-0.1c0-0.1,0.1-0.1,0.1-0.1h8.8c0.1,0,0.1,0.1,0.1,0.1
			S110.5,185.8,110.4,185.8z"/>
		<path class="st38" d="M106,185.5h-4.4c-0.1,0-0.1,0.1-0.1,0.1c0,0.1,0.1,0.1,0.1,0.1h4.4V185.5z"/>
		<path class="st36" d="M105.9,186.1L105.9,186.1c-0.1,0.1-0.1,0.2-0.1,0.3l0.1,0.1c0.1,0.1,0.2,0.1,0.2,0l0,0l0.1-0.1
			c0-0.1,0-0.1,0-0.2l-0.1-0.1C106.1,186,106,186,105.9,186.1L105.9,186.1z"/>
		<path class="st38" d="M105.9,186.1L105.9,186.1c-0.1,0.1-0.1,0.2-0.1,0.3l0.1,0.1l0.1,0.1V186C105.9,186,105.9,186,105.9,186.1
			L105.9,186.1z"/>
		<path class="st38" d="M106,174.1h-4.9c-0.1,0-0.2,0.1-0.2,0.2l0,0c0,0.1,0.1,0.2,0.2,0.2l0,0h4.9V174.1z"/>
		<polygon class="st32" points="106,175.5 101.1,175.5 101.7,176.4 106,176.4 		"/>
		<path class="st38" d="M106,176.4h-4.4c-0.1,0-0.2,0.1-0.2,0.1c0,0.1,0.1,0.1,0.1,0.1l0,0h4.4L106,176.4L106,176.4z"/>
		<polygon class="st32" points="101.8,184.8 102.8,184.8 102.8,177.1 101.8,177.1 		"/>
		<polygon class="st31" points="109.2,184.8 110.2,184.8 110.2,177.1 109.2,177.1 		"/>
		<path class="st38" d="M106,184.8h-4.4c-0.1,0-0.1,0.1-0.2,0.1l0,0c0,0.1,0.1,0.1,0.2,0.1h4.4V184.8L106,184.8z"/>
		<path class="st31" d="M106,172.7c-0.2,0-0.4-0.2-0.4-0.4l0,0v-1.8c0-0.2,0.1-0.4,0.3-0.4c0.2,0,0.4,0.1,0.4,0.3v0.1v1.8
			C106.4,172.6,106.2,172.7,106,172.7L106,172.7z"/>
		<path class="st37" d="M105.8,172.4v-1.8c0-0.1,0.1-0.1,0.2-0.1s0.1,0.1,0.1,0.1v1.8c0,0.1-0.1,0.1-0.1,0.1
			C105.9,172.5,105.9,172.4,105.8,172.4z"/>
		<path class="st32" d="M106,170.1L106,170.1c-0.2,0-0.4,0.2-0.4,0.4l0,0v1.9c0,0.2,0.2,0.4,0.4,0.4l0,0l0,0V170.1z"/>
		<path class="st31" d="M106,172.5v-2.1l0,0c-0.1,0-0.1,0-0.1,0.1l0,0v1.9C105.9,172.4,105.9,172.5,106,172.5L106,172.5z"/>
		<path class="st29" d="M189.1,172.6h-67.7c-0.2,0-0.4-0.2-0.4-0.4s0.1-0.3,0.2-0.4l1.3-0.8v-3.9h58.1c0.5,0,1.1,0.1,1.5,0.4
			l7.1,4.2c0.2,0.1,0.3,0.4,0.2,0.7C189.4,172.6,189.3,172.6,189.1,172.6L189.1,172.6z"/>
		<polygon class="st33" points="186.8,173.9 122.6,173.9 121.7,172.6 188.9,172.6 		"/>
		<path class="st29" d="M197.3,185.8h-84c-0.2,0-0.4-0.2-0.4-0.4s0.1-0.3,0.2-0.4l11.7-4.8h64c0.5,0,1.1,0.1,1.5,0.4l7.1,4.2
			c0.2,0.1,0.3,0.4,0.2,0.6C197.5,185.7,197.4,185.8,197.3,185.8L197.3,185.8z"/>
		<polygon class="st33" points="195.1,187 114.6,187 113.7,185.8 197.2,185.8 		"/>
		<path class="st34" d="M129.1,175.3c-0.2,0-0.4,0.2-0.4,0.4v2.9c0,0.2,0.2,0.4,0.5,0.4c0.2,0,0.4-0.2,0.4-0.4v-2.9
			C129.6,175.5,129.4,175.3,129.1,175.3z"/>
		<path class="st34" d="M131.7,175.3c-0.2,0-0.4,0.2-0.4,0.4v2.9c0,0.2,0.1,0.5,0.4,0.5c0.2,0,0.5-0.1,0.5-0.4v-0.1v-2.9
			C132.1,175.5,131.9,175.3,131.7,175.3z"/>
		<path class="st34" d="M130.4,175.3c-0.2,0-0.4,0.2-0.4,0.4v2.9c0,0.2,0.2,0.4,0.5,0.4c0.2,0,0.4-0.2,0.4-0.4v-2.9
			C130.9,175.5,130.7,175.3,130.4,175.3z"/>
		<path class="st34" d="M133,175.3c-0.2,0-0.4,0.2-0.4,0.4v2.9c0,0.2,0.2,0.4,0.4,0.4s0.4-0.2,0.4-0.4v-2.9
			C133.4,175.5,133.2,175.3,133,175.3z"/>
		<path class="st34" d="M135.8,175.3c-0.2,0-0.4,0.2-0.4,0.4v2.9c0,0.2,0.1,0.5,0.4,0.5c0.2,0,0.5-0.1,0.5-0.4v-0.1v-2.9
			C136.2,175.5,136,175.3,135.8,175.3z"/>
		<path class="st34" d="M138.3,175.3c-0.2,0-0.4,0.2-0.4,0.4v2.9c0,0.2,0.2,0.4,0.5,0.4c0.2,0,0.4-0.2,0.4-0.4v-2.9
			C138.8,175.5,138.6,175.3,138.3,175.3z"/>
		<path class="st34" d="M137.1,175.3c-0.2,0-0.4,0.2-0.4,0.4v2.9c0,0.2,0.2,0.4,0.4,0.4s0.4-0.2,0.4-0.4v-2.9
			C137.5,175.5,137.3,175.3,137.1,175.3z"/>
		<path class="st34" d="M139.6,175.3c-0.2,0-0.4,0.2-0.4,0.4v2.9c0,0.2,0.2,0.4,0.5,0.4c0.2,0,0.4-0.2,0.4-0.4v-2.9
			C140.1,175.5,139.9,175.3,139.6,175.3z"/>
		<path class="st34" d="M142.4,175.3c-0.2,0-0.4,0.2-0.4,0.4v2.9c0,0.2,0.2,0.4,0.5,0.4c0.2,0,0.4-0.2,0.4-0.4v-2.9
			C142.8,175.5,142.6,175.3,142.4,175.3z"/>
		<path class="st34" d="M145,175.3c-0.2,0-0.4,0.2-0.4,0.4v2.9c0,0.2,0.1,0.5,0.4,0.5c0.2,0,0.5-0.1,0.5-0.4v-0.1v-2.9
			C145.4,175.5,145.2,175.3,145,175.3z"/>
		<path class="st34" d="M143.7,175.3c-0.2,0-0.4,0.2-0.4,0.4v2.9c0,0.2,0.2,0.4,0.5,0.4c0.2,0,0.4-0.2,0.4-0.4v-2.9
			C144.1,175.5,143.9,175.3,143.7,175.3z"/>
		<path class="st34" d="M146.3,175.3c-0.2,0-0.4,0.2-0.4,0.4v2.9c0,0.2,0.1,0.5,0.4,0.5c0.2,0,0.5-0.1,0.5-0.4v-0.1v-2.9
			C146.7,175.5,146.5,175.3,146.3,175.3z"/>
		<path class="st34" d="M149,175.3c-0.2,0-0.4,0.2-0.4,0.4v2.9c0,0.2,0.1,0.5,0.4,0.5c0.2,0,0.5-0.1,0.5-0.4v-0.1v-2.9
			C149.4,175.5,149.2,175.3,149,175.3z"/>
		<polygon class="st33" points="120.8,165.4 91.2,165.4 91.2,164.9 120.8,164.9 		"/>
		<polygon class="st27" points="121.7,169.4 120.8,169.4 120.8,164.9 121.7,164.9 		"/>
		<polygon class="st26" points="122.6,169.4 121.7,169.4 121.7,164.9 122.6,164.9 		"/>
		<polygon class="st28" points="123.5,169.4 122.6,169.4 122.6,164.9 123.5,164.9 		"/>
		<polygon class="st39" points="121.7,170.6 120.8,170.6 120.8,169.9 121.7,169.9 		"/>
		<polygon class="st33" points="122.6,170.6 121.7,170.6 121.7,169.9 122.6,169.9 		"/>
		<polygon class="st34" points="123.5,170.6 122.6,170.6 122.6,169.9 123.5,169.9 		"/>
		<polygon class="st39" points="121.7,164.4 120.8,164.4 120.8,163.8 121.7,163.8 		"/>
		<polygon class="st33" points="122.6,164.4 121.7,164.4 121.7,163.8 122.6,163.8 		"/>
		<polygon class="st34" points="123.5,164.4 122.6,164.4 122.6,163.8 123.5,163.8 		"/>
		<path class="st26" d="M124.2,164.4h-1.6v0.5h1.6c0.1,0,0.2-0.1,0.2-0.2C124.4,164.5,124.3,164.4,124.2,164.4L124.2,164.4z"/>
		<path class="st14" d="M120,164.9h1.6v-0.5H120c-0.1,0-0.2,0.1-0.2,0.2l0,0C119.8,164.7,119.9,164.9,120,164.9z"/>
		<polygon class="st27" points="122.6,164.9 121.7,164.9 121.7,164.4 122.6,164.4 		"/>
		<path class="st26" d="M124.2,169.4h-1.6v0.5h1.6c0.1,0,0.2-0.1,0.2-0.2C124.4,169.5,124.3,169.4,124.2,169.4L124.2,169.4z"/>
		<path class="st14" d="M120,169.9h1.6v-0.5H120c-0.1,0-0.2,0.1-0.2,0.2l0,0C119.8,169.8,119.9,169.9,120,169.9z"/>
		<polygon class="st27" points="122.6,169.9 121.7,169.9 121.7,169.4 122.6,169.4 		"/>
		<path class="st26" d="M123.5,170.6h-0.9v0.4h0.9c0.1,0,0.2-0.1,0.2-0.2C123.7,170.6,123.6,170.5,123.5,170.6
			C123.5,170.5,123.5,170.5,123.5,170.6L123.5,170.6z"/>
		<path class="st14" d="M120.8,171h0.9v-0.5h-0.9c-0.1,0-0.2,0.1-0.2,0.2l0,0C120.5,170.9,120.6,171,120.8,171z"/>
		<polygon class="st27" points="122.6,171 121.7,171 121.7,170.6 122.6,170.6 		"/>
		<path class="st26" d="M123.8,163.4h-1.3v0.5h1.3c0.1,0,0.2-0.1,0.2-0.2C124.1,163.5,124,163.4,123.8,163.4
			C123.9,163.4,123.9,163.4,123.8,163.4z"/>
		<path class="st14" d="M120.4,163.8h1.3v-0.5h-1.3c-0.1,0-0.2,0.1-0.2,0.2l0,0C120.1,163.7,120.2,163.8,120.4,163.8z"/>
		<polygon class="st27" points="122.6,163.8 121.7,163.8 121.7,163.4 122.6,163.4 		"/>
		<path class="st26" d="M122.1,161.2c-0.2,0-0.4,0.2-0.4,0.4v1.7h0.9v-1.7C122.6,161.4,122.4,161.2,122.1,161.2z"/>
		<path class="st27" d="M120.8,162.3v1.1h0.9v-1.7c0-0.2,0.2-0.4,0.4-0.4h-0.3C121.2,161.2,120.8,161.7,120.8,162.3L120.8,162.3
			L120.8,162.3z"/>
		<path class="st28" d="M122.4,161.2h-0.3c0.2,0,0.4,0.2,0.4,0.4v1.7h0.9v-1.1C123.5,161.7,123,161.2,122.4,161.2L122.4,161.2
			L122.4,161.2z"/>
		<path class="st34" d="M133.3,189.4c-0.2,0-0.3,0.2-0.3,0.3v3.7c0,0.2,0.2,0.3,0.3,0.3s0.3-0.2,0.3-0.3v-3.7
			C133.7,189.5,133.5,189.4,133.3,189.4z"/>
		<path class="st34" d="M132.3,189.4h-2.4c-0.2,0-0.3,0.2-0.3,0.3v3.7c0,0.2,0.2,0.3,0.3,0.3h2.4c0.2,0,0.3-0.2,0.3-0.3v-3.7
			C132.6,189.5,132.4,189.4,132.3,189.4z"/>
		<path class="st34" d="M128.8,189.4c-0.2,0-0.3,0.2-0.3,0.3v3.7c0,0.2,0.1,0.4,0.3,0.4s0.4-0.1,0.4-0.3v-0.1v-3.7
			C129.1,189.5,129,189.4,128.8,189.4z"/>
		<path class="st34" d="M140,189.4c-0.2,0-0.3,0.2-0.3,0.3v3.7c0,0.2,0.1,0.4,0.3,0.4s0.4-0.1,0.4-0.3v-0.1v-3.7
			C140.3,189.5,140.2,189.4,140,189.4z"/>
		<path class="st34" d="M138.9,189.4h-2.4c-0.2,0-0.3,0.2-0.3,0.3v3.7c0,0.2,0.1,0.3,0.3,0.3h2.4c0.2,0,0.3-0.2,0.3-0.3v-3.7
			C139.2,189.5,139.1,189.4,138.9,189.4z"/>
		<path class="st34" d="M135.4,189.4c-0.2,0-0.3,0.2-0.3,0.3v3.7c0,0.2,0.1,0.4,0.3,0.4s0.4-0.1,0.4-0.3v-0.1v-3.7
			C135.8,189.5,135.6,189.4,135.4,189.4z"/>
		<path class="st34" d="M146.6,189.4c-0.2,0-0.3,0.2-0.3,0.3v3.7c0,0.2,0.1,0.4,0.3,0.4s0.4-0.1,0.4-0.3v-0.1v-3.7
			C146.9,189.5,146.8,189.4,146.6,189.4z"/>
		<path class="st34" d="M145.5,189.4h-2.4c-0.2,0-0.3,0.2-0.3,0.3v3.7c0,0.2,0.2,0.3,0.3,0.3h2.4c0.2,0,0.3-0.2,0.3-0.3v-3.7
			C145.9,189.5,145.7,189.4,145.5,189.4z"/>
		<path class="st34" d="M142.1,189.4c-0.2,0-0.3,0.2-0.3,0.3v3.7c0,0.2,0.1,0.4,0.3,0.4s0.4-0.1,0.4-0.3v-0.1v-3.7
			C142.4,189.5,142.2,189.4,142.1,189.4z"/>
		<path class="st34" d="M131.1,199.7c-1.4,0-2.6,1.1-2.6,2.6v7.7h5.2v-7.7C133.7,200.8,132.5,199.7,131.1,199.7L131.1,199.7z"/>
		<path class="st34" d="M137.7,199.7c-1.4,0-2.6,1.1-2.6,2.6l0,0v7.7h5.2v-7.7C140.3,200.8,139.1,199.7,137.7,199.7L137.7,199.7z"/>
		<path class="st34" d="M144.3,199.7c-1.4,0-2.6,1.1-2.6,2.6v7.7h5.2v-7.7C146.9,200.8,145.8,199.7,144.3,199.7L144.3,199.7
			L144.3,199.7z"/>
		<path class="st34" d="M151,199.7c-1.4,0-2.6,1.1-2.6,2.6l0,0v7.7h5.2v-7.7C153.6,200.8,152.4,199.7,151,199.7L151,199.7z"/>
		<path class="st30" d="M22.9,172.6h67.7c0.2,0,0.4-0.2,0.4-0.4s-0.1-0.3-0.2-0.4l-1.3-0.8v-3.9H31.3c-0.5,0-1.1,0.1-1.5,0.4
			l-7.1,4.2c-0.2,0.1-0.3,0.4-0.2,0.7C22.6,172.6,22.7,172.6,22.9,172.6L22.9,172.6z"/>
		<polygon class="st39" points="25.2,173.9 89.4,173.9 90.3,172.6 23.1,172.6 		"/>
		<path class="st30" d="M14.7,185.8h84c0.2,0,0.4-0.2,0.4-0.4s-0.1-0.3-0.2-0.4l-11.7-4.8h-64c-0.5,0-1.1,0.1-1.5,0.4l-7.1,4.2
			c-0.2,0.1-0.3,0.4-0.2,0.6C14.5,185.7,14.6,185.8,14.7,185.8L14.7,185.8z"/>
		<polygon class="st39" points="16.9,187 97.4,187 98.3,185.8 14.8,185.8 		"/>
		<path class="st39" d="M82.9,175.3c0.2,0,0.4,0.2,0.4,0.4v2.9c0,0.2-0.2,0.4-0.5,0.4c-0.2,0-0.4-0.2-0.4-0.4v-2.9
			C82.4,175.5,82.6,175.3,82.9,175.3z"/>
		<path class="st39" d="M80.3,175.3c0.2,0,0.4,0.2,0.4,0.4v2.9c0,0.2-0.1,0.5-0.4,0.5c-0.2,0-0.5-0.1-0.5-0.4v-0.1v-2.9
			C79.9,175.5,80.1,175.3,80.3,175.3z"/>
		<path class="st39" d="M81.6,175.3c0.2,0,0.4,0.2,0.4,0.4v2.9c0,0.2-0.2,0.4-0.4,0.4c-0.2,0-0.5-0.2-0.5-0.4v-2.9
			C81.1,175.5,81.3,175.3,81.6,175.3z"/>
		<path class="st39" d="M79,175.3c0.2,0,0.4,0.2,0.4,0.4v2.9c0,0.2-0.2,0.4-0.4,0.4c-0.2,0-0.4-0.2-0.4-0.4v-2.9
			C78.6,175.5,78.8,175.2,79,175.3L79,175.3z"/>
		<path class="st39" d="M76.2,175.3c0.2,0,0.4,0.2,0.4,0.4v2.9c0,0.2-0.1,0.5-0.4,0.5c-0.2,0-0.5-0.1-0.5-0.4v-0.1v-2.9
			C75.8,175.5,76,175.3,76.2,175.3z"/>
		<path class="st39" d="M73.7,175.3c0.2,0,0.4,0.2,0.4,0.4v2.9c0,0.2-0.2,0.4-0.4,0.4c-0.2,0-0.5-0.2-0.5-0.4v-2.9
			C73.2,175.5,73.4,175.3,73.7,175.3z"/>
		<path class="st39" d="M75,175.3c0.2,0,0.4,0.2,0.4,0.4v2.9c0,0.2-0.2,0.4-0.4,0.4c-0.2,0-0.4-0.2-0.4-0.4v-2.9
			C74.6,175.5,74.8,175.2,75,175.3L75,175.3z"/>
		<path class="st39" d="M72.4,175.3c0.2,0,0.4,0.2,0.4,0.4v2.9c0,0.2-0.2,0.4-0.5,0.4c-0.2,0-0.4-0.2-0.4-0.4v-2.9
			C71.9,175.5,72.1,175.3,72.4,175.3z"/>
		<path class="st39" d="M69.6,175.3c0.2,0,0.4,0.2,0.4,0.4v2.9c0,0.2-0.2,0.4-0.4,0.4c-0.2,0-0.5-0.2-0.5-0.4v-2.9
			C69.2,175.5,69.4,175.3,69.6,175.3z"/>
		<path class="st39" d="M67,175.3c0.2,0,0.4,0.2,0.4,0.4v2.9c0,0.2-0.1,0.5-0.4,0.5c-0.2,0-0.5-0.1-0.5-0.4v-0.1v-2.9
			C66.6,175.5,66.8,175.3,67,175.3z"/>
		<path class="st39" d="M68.3,175.3c0.2,0,0.4,0.2,0.4,0.4v2.9c0,0.2-0.2,0.4-0.5,0.4c-0.2,0-0.4-0.2-0.4-0.4v-2.9
			C67.9,175.5,68.1,175.3,68.3,175.3z"/>
		<path class="st39" d="M65.7,175.3c0.2,0,0.4,0.2,0.4,0.4v2.9c0,0.2-0.1,0.5-0.4,0.5c-0.2,0-0.5-0.1-0.5-0.4v-0.1v-2.9
			C65.3,175.5,65.5,175.3,65.7,175.3z"/>
		<path class="st39" d="M63,175.3c0.2,0,0.4,0.2,0.4,0.4v2.9c0,0.2-0.1,0.5-0.4,0.5c-0.2,0-0.5-0.1-0.5-0.4v-0.1v-2.9
			C62.5,175.5,62.8,175.3,63,175.3z"/>
		<path class="st39" d="M78.7,189.4c0.2,0,0.3,0.2,0.3,0.3v3.7c0,0.2-0.2,0.3-0.3,0.3s-0.3-0.2-0.3-0.3v-3.7
			C78.3,189.5,78.5,189.4,78.7,189.4z"/>
		<path class="st39" d="M79.7,189.4h2.4c0.2,0,0.3,0.2,0.3,0.3v3.7c0,0.2-0.2,0.3-0.3,0.3h-2.4c-0.2,0-0.3-0.2-0.3-0.3v-3.7
			C79.4,189.5,79.6,189.4,79.7,189.4z"/>
		<path class="st39" d="M83.2,189.4c0.2,0,0.3,0.2,0.3,0.3v3.7c0,0.2-0.1,0.4-0.3,0.4c-0.2,0-0.4-0.1-0.4-0.3v-0.1v-3.7
			C82.9,189.5,83,189.4,83.2,189.4z"/>
		<path class="st39" d="M72,189.4c0.2,0,0.3,0.2,0.3,0.3v3.7c0,0.2-0.1,0.4-0.3,0.4c-0.2,0-0.4-0.1-0.4-0.3v-0.1v-3.7
			C71.7,189.5,71.8,189.4,72,189.4z"/>
		<path class="st39" d="M73.1,189.4h2.4c0.2,0,0.3,0.2,0.3,0.3v3.7c0,0.2-0.1,0.3-0.3,0.3h-2.4c-0.2,0-0.3-0.2-0.3-0.3v-3.7
			C72.8,189.5,72.9,189.4,73.1,189.4z"/>
		<path class="st39" d="M76.6,189.4c0.2,0,0.3,0.2,0.3,0.3v3.7c0,0.2-0.1,0.4-0.3,0.4c-0.2,0-0.4-0.1-0.4-0.3v-0.1v-3.7
			C76.2,189.5,76.4,189.4,76.6,189.4z"/>
		<path class="st39" d="M65.4,189.4c0.2,0,0.3,0.2,0.3,0.3v3.7c0,0.2-0.1,0.4-0.3,0.4c-0.2,0-0.4-0.1-0.4-0.3v-0.1v-3.7
			C65.1,189.5,65.2,189.4,65.4,189.4z"/>
		<path class="st39" d="M66.5,189.4h2.4c0.2,0,0.3,0.2,0.3,0.3v3.7c0,0.2-0.2,0.3-0.3,0.3h-2.4c-0.2,0-0.3-0.2-0.3-0.3v-3.7
			C66.1,189.5,66.3,189.4,66.5,189.4z"/>
		<path class="st39" d="M69.9,189.4c0.2,0,0.3,0.2,0.3,0.3v3.7c0,0.2-0.1,0.4-0.3,0.4c-0.2,0-0.4-0.1-0.4-0.3v-0.1v-3.7
			C69.6,189.5,69.8,189.4,69.9,189.4z"/>
		<path class="st39" d="M63.3,189.4c0.2,0,0.3,0.2,0.3,0.3v3.7c0,0.2-0.1,0.4-0.3,0.4s-0.4-0.1-0.4-0.3v-0.1v-3.7
			C63,189.5,63.1,189.4,63.3,189.4z"/>
		<path class="st39" d="M80.9,199.7c1.4,0,2.6,1.1,2.6,2.6v7.7h-5.2v-7.7C78.3,200.8,79.5,199.7,80.9,199.7L80.9,199.7z"/>
		<path class="st39" d="M74.3,199.7c1.4,0,2.6,1.1,2.6,2.6l0,0v7.7h-5.2v-7.7C71.7,200.8,72.9,199.7,74.3,199.7L74.3,199.7z"/>
		<path class="st39" d="M67.7,199.7c1.4,0,2.6,1.1,2.6,2.6v7.7h-5.2v-7.7C65.1,200.8,66.2,199.7,67.7,199.7L67.7,199.7L67.7,199.7z"
			/>
		<path class="st39" d="M61,199.7c1.4,0,2.6,1.1,2.6,2.6l0,0v7.7h-5.2v-7.7C58.5,200.9,59.6,199.7,61,199.7z"/>
		<polygon class="st27" points="89.4,169.4 88.5,169.4 88.5,164.9 89.4,164.9 		"/>
		<polygon class="st26" points="90.3,169.4 89.4,169.4 89.4,164.9 90.3,164.9 		"/>
		<polygon class="st28" points="91.2,169.4 90.3,169.4 90.3,164.9 91.2,164.9 		"/>
		<polygon class="st39" points="89.4,170.6 88.5,170.6 88.5,169.9 89.4,169.9 		"/>
		<polygon class="st33" points="90.3,170.6 89.4,170.6 89.4,169.9 90.3,169.9 		"/>
		<polygon class="st34" points="91.2,170.6 90.3,170.6 90.3,169.9 91.2,169.9 		"/>
		<polygon class="st39" points="89.4,164.4 88.5,164.4 88.5,163.8 89.4,163.8 		"/>
		<polygon class="st33" points="90.3,164.4 89.4,164.4 89.4,163.8 90.3,163.8 		"/>
		<polygon class="st34" points="91.2,164.4 90.3,164.4 90.3,163.8 91.2,163.8 		"/>
		<path class="st26" d="M92,164.4h-1.7v0.5H92c0.1,0,0.2-0.1,0.2-0.2C92.2,164.5,92.1,164.4,92,164.4L92,164.4z"/>
		<path class="st14" d="M87.8,164.9h1.6v-0.5h-1.6c-0.1,0-0.2,0.1-0.2,0.2l0,0C87.6,164.7,87.7,164.9,87.8,164.9L87.8,164.9z"/>
		<polygon class="st27" points="90.3,164.9 89.4,164.9 89.4,164.4 90.3,164.4 		"/>
		<path class="st26" d="M92,169.4h-1.7v0.5H92c0.1,0,0.2-0.1,0.2-0.2C92.2,169.5,92.1,169.4,92,169.4L92,169.4z"/>
		<path class="st14" d="M87.8,169.9h1.6v-0.5h-1.6c-0.1,0-0.2,0.1-0.2,0.2l0,0C87.6,169.8,87.7,169.9,87.8,169.9L87.8,169.9z"/>
		<polygon class="st27" points="90.3,169.9 89.4,169.9 89.4,169.4 90.3,169.4 		"/>
		<path class="st26" d="M91.3,170.6h-0.9v0.4h0.9c0.1,0,0.2-0.1,0.2-0.2C91.5,170.6,91.4,170.5,91.3,170.6
			C91.3,170.5,91.3,170.5,91.3,170.6L91.3,170.6z"/>
		<path class="st14" d="M88.5,171h0.9v-0.5h-0.9c-0.1,0-0.2,0.1-0.2,0.2l0,0C88.3,170.9,88.4,171,88.5,171L88.5,171z"/>
		<polygon class="st27" points="90.3,171 89.4,171 89.4,170.6 90.3,170.6 		"/>
		<path class="st26" d="M91.6,163.4h-1.3v0.5h1.3c0.1,0,0.2-0.1,0.2-0.2l0,0C91.9,163.5,91.8,163.4,91.6,163.4L91.6,163.4z"/>
		<path class="st14" d="M88.1,163.8h1.3v-0.5h-1.3c-0.1,0-0.2,0.1-0.2,0.2l0,0C87.9,163.7,88,163.8,88.1,163.8z"/>
		<polygon class="st27" points="90.3,163.8 89.4,163.8 89.4,163.4 90.3,163.4 		"/>
		<path class="st26" d="M89.9,161.2c-0.2,0-0.4,0.2-0.4,0.4v1.7h0.9v-1.7C90.3,161.4,90.1,161.2,89.9,161.2z"/>
		<path class="st27" d="M88.5,162.3v1.1h0.9v-1.7c0-0.2,0.2-0.4,0.4-0.4h-0.3C89,161.2,88.5,161.7,88.5,162.3L88.5,162.3L88.5,162.3
			z"/>
		<path class="st28" d="M90.2,161.2h-0.3c0.3,0,0.5,0.2,0.5,0.4v1.7h0.9v-1.1C91.2,161.7,90.8,161.2,90.2,161.2L90.2,161.2
			L90.2,161.2z"/>
		<polygon class="st35" points="106,212 197.7,212 197.7,210 106,210 		"/>
		<polygon class="st34" points="14.3,212 106,212 106,210 14.3,210 		"/>
		<polygon class="st27" points="88,195.7 88,210 106,210 106,195.7 		"/>
		<polygon class="st26" points="106,195.7 106,210 124,210 124,195.7 		"/>
		<polygon class="st33" points="88,195.7 88,197.1 124,197.1 124,195.7 		"/>
		<path class="st29" d="M106,190.8v4.9h19.6c0.2,0,0.4-0.1,0.4-0.3s-0.1-0.3-0.2-0.4l-10.2-4.1c-0.3-0.1-0.5-0.2-0.8-0.1L106,190.8z
			"/>
		<path class="st30" d="M106,190.8v4.9H86.4c-0.2,0-0.4-0.1-0.4-0.3s0.1-0.3,0.2-0.4l10.2-4.1c0.3-0.1,0.5-0.2,0.8-0.1L106,190.8z"
			/>
		<polygon class="st27" points="123.4,210 122.2,210 122.2,198.2 123.4,198.2 		"/>
		<polygon class="st26" points="124.6,210 123.4,210 123.4,198.2 124.6,198.2 		"/>
		<polygon class="st28" points="125.8,210 124.6,210 124.6,198.2 125.8,198.2 		"/>
		<polygon class="st28" points="125.8,198.2 124,197.1 124.6,198.2 		"/>
		<polygon class="st26" points="124.6,198.2 124,197.1 123.4,198.2 		"/>
		<polygon class="st27" points="124,197.1 122.2,198.2 123.4,198.2 		"/>
		<polygon class="st27" points="123.4,198.2 123.4,198.8 124.6,198.8 124.6,198.2 		"/>
		<path class="st26" d="M126.3,198.5c0-0.2-0.1-0.3-0.3-0.3h-1.4v0.6h1.4C126.2,198.8,126.3,198.7,126.3,198.5L126.3,198.5z"/>
		<path class="st14" d="M122,198.2c-0.2,0-0.3,0.1-0.3,0.3s0.1,0.3,0.3,0.3l0,0h1.4v-0.6H122z"/>
		<polygon class="st34" points="124.6,199.1 125.8,199.1 125.8,198.8 124.6,198.8 		"/>
		<polygon class="st33" points="123.4,199.1 124.6,199.1 124.6,198.8 123.4,198.8 		"/>
		<polygon class="st39" points="122.2,199.1 123.4,199.1 123.4,198.8 122.2,198.8 		"/>
		<polygon class="st27" points="123.4,208.3 123.4,208.9 124.6,208.9 124.6,208.3 		"/>
		<path class="st26" d="M126.3,208.6c0-0.2-0.1-0.3-0.3-0.3h-1.4v0.6h1.4C126.2,208.9,126.3,208.7,126.3,208.6L126.3,208.6z"/>
		<path class="st14" d="M122,208.3c-0.2,0-0.3,0.1-0.3,0.3s0.1,0.3,0.3,0.3l0,0h1.4v-0.6H122z"/>
		<polygon class="st34" points="124.6,209.2 125.8,209.2 125.8,208.9 124.6,208.9 		"/>
		<polygon class="st33" points="123.4,209.2 124.6,209.2 124.6,208.9 123.4,208.9 		"/>
		<polygon class="st39" points="122.2,209.2 123.4,209.2 123.4,208.9 122.2,208.9 		"/>
		<polygon class="st27" points="87.4,210 86.2,210 86.2,198.2 87.4,198.2 		"/>
		<polygon class="st26" points="88.6,210 87.4,210 87.4,198.2 88.6,198.2 		"/>
		<polygon class="st28" points="89.8,210 88.6,210 88.6,198.2 89.8,198.2 		"/>
		<polygon class="st28" points="89.8,198.2 88,197.1 88.6,198.2 		"/>
		<polygon class="st26" points="88.6,198.2 88,197.1 87.4,198.2 		"/>
		<polygon class="st27" points="88,197.1 86.2,198.2 87.4,198.2 		"/>
		<polygon class="st27" points="87.4,198.2 87.4,198.8 88.6,198.8 88.6,198.2 		"/>
		<path class="st26" d="M90.3,198.5c0-0.2-0.1-0.3-0.3-0.3h-1.4v0.6H90C90.2,198.8,90.3,198.7,90.3,198.5L90.3,198.5z"/>
		<path class="st14" d="M85.9,198.2c-0.2,0-0.3,0.1-0.3,0.3s0.1,0.3,0.3,0.3h1.4v-0.6H85.9z"/>
		<polygon class="st34" points="88.6,199.1 89.8,199.1 89.8,198.8 88.6,198.8 		"/>
		<polygon class="st33" points="87.4,199.1 88.6,199.1 88.6,198.8 87.4,198.8 		"/>
		<polygon class="st39" points="86.2,199.1 87.4,199.1 87.4,198.8 86.2,198.8 		"/>
		<polygon class="st27" points="87.4,208.3 87.4,208.9 88.6,208.9 88.6,208.3 		"/>
		<path class="st26" d="M90.3,208.6c0-0.2-0.1-0.3-0.3-0.3h-1.4v0.6H90C90.2,208.9,90.3,208.7,90.3,208.6L90.3,208.6z"/>
		<path class="st14" d="M85.9,208.3c-0.2,0-0.3,0.1-0.3,0.3s0.1,0.3,0.3,0.3h1.4v-0.6H85.9z"/>
		<polygon class="st34" points="88.6,209.2 89.8,209.2 89.8,208.9 88.6,208.9 		"/>
		<polygon class="st33" points="87.4,209.2 88.6,209.2 88.6,208.9 87.4,208.9 		"/>
		<polygon class="st39" points="86.2,209.2 87.4,209.2 87.4,208.9 86.2,208.9 		"/>
		<polygon class="st29" points="113.3,210 106,210 106,199.7 113.3,199.7 		"/>
		<polygon class="st37" points="106,210 106,201 112,201 112,210 		"/>
		<polygon class="st30" points="106,210 98.7,210 98.7,199.7 106,199.7 		"/>
		<polygon class="st31" points="100,210 100,201 106,201 106,210 		"/>
		<path class="st33" d="M116,200.8c-0.5,0-0.9-0.4-0.9-0.9l0,0v-0.8c0-0.5,0.4-0.9,0.9-0.9s0.9,0.4,0.9,0.9l0,0v0.8
			C116.9,200.4,116.5,200.8,116,200.8L116,200.8z"/>
		<path class="st33" d="M119.1,206.4c-0.4,0-0.8-0.4-0.8-0.8l0,0v-4.2c0-0.5,0.3-0.9,0.7-0.9s0.9,0.3,0.9,0.7c0,0.1,0,0.1,0,0.2v4.2
			C119.9,206,119.5,206.4,119.1,206.4z"/>
		<path class="st33" d="M119.7,207.4h-1.2c-0.1,0-0.2-0.1-0.2-0.2c0-0.1,0.1-0.2,0.2-0.2h1.2c0.1,0,0.2,0.1,0.2,0.2
			C119.9,207.4,119.8,207.4,119.7,207.4L119.7,207.4z"/>
		<path class="st39" d="M96,200.8c0.5,0,0.9-0.4,0.9-0.9l0,0v-0.8c0.1-0.5-0.3-0.9-0.8-1s-0.9,0.3-1,0.8c0,0.1,0,0.1,0,0.2v0.8
			C95.1,200.4,95.5,200.8,96,200.8L96,200.8z"/>
		<path class="st39" d="M93,206.4c0.4,0,0.8-0.4,0.8-0.8v-4.2c0-0.4-0.4-0.8-0.8-0.8c-0.5,0-0.8,0.4-0.8,0.8l0,0v4.2
			C92.2,206,92.6,206.4,93,206.4z"/>
		<path class="st39" d="M92.3,207.4h1.2c0.1,0,0.2-0.1,0.2-0.2c0-0.1-0.1-0.2-0.2-0.2h-1.2c-0.1,0-0.2,0.1-0.2,0.2
			C92.1,207.4,92.2,207.4,92.3,207.4z"/>
		<polygon class="st35" points="125.8,210 106,210 106,212 125.8,212 		"/>
		<polygon class="st34" points="106,210 86.2,210 86.2,212 106,212 		"/>
		<path class="st34" d="M157.5,199.7c-1.4,0-2.6,1.1-2.6,2.6l0,0v7.7h5.2v-7.7C160.1,200.8,158.9,199.7,157.5,199.7L157.5,199.7z"/>
		<path class="st34" d="M164.1,199.7c-1.4,0-2.6,1.1-2.6,2.6v7.7h5.2v-7.7C166.7,200.8,165.6,199.7,164.1,199.7L164.1,199.7
			L164.1,199.7z"/>
		<path class="st34" d="M170.8,199.7c-1.4,0-2.6,1.1-2.6,2.6v7.7h5.2v-7.7C173.4,200.8,172.2,199.7,170.8,199.7L170.8,199.7z"/>
		<path class="st34" d="M177.4,199.7c-1.4,0-2.6,1.1-2.6,2.6v7.7h5.2v-7.7C180,200.8,178.8,199.7,177.4,199.7L177.4,199.7
			L177.4,199.7z"/>
		<path class="st34" d="M183.8,199.7c-1.4,0-2.6,1.1-2.6,2.6v7.7h5.2v-7.7C186.4,200.8,185.2,199.7,183.8,199.7L183.8,199.7
			L183.8,199.7z"/>
		<path class="st34" d="M190.4,199.7c-1.4,0-2.6,1.1-2.6,2.6v7.7h5.2v-7.7C193,200.8,191.9,199.7,190.4,199.7L190.4,199.7z"/>
		<path class="st39" d="M28.2,199.7c-1.4,0-2.6,1.1-2.6,2.6v7.7h5.2v-7.7C30.7,200.8,29.6,199.7,28.2,199.7L28.2,199.7L28.2,199.7z"
			/>
		<path class="st39" d="M34.8,199.7c-1.4,0-2.6,1.1-2.6,2.6l0,0v7.7h5.2v-7.7C37.4,200.8,36.2,199.7,34.8,199.7L34.8,199.7z"/>
		<path class="st39" d="M41.4,199.7c-1.4,0-2.6,1.1-2.6,2.6v7.7H44v-7.7C44,200.8,42.8,199.7,41.4,199.7L41.4,199.7L41.4,199.7z"/>
		<path class="st39" d="M47.8,199.7c-1.4,0-2.6,1.1-2.6,2.6v7.7h5.2v-7.7C50.4,200.8,49.3,199.7,47.8,199.7L47.8,199.7L47.8,199.7z"
			/>
		<path class="st39" d="M54.5,199.7c-1.4,0-2.6,1.1-2.6,2.6v7.7h5.2v-7.7C57.1,200.8,55.9,199.7,54.5,199.7L54.5,199.7z"/>
		<path class="st39" d="M21.8,199.7c-1.4,0-2.6,1.1-2.6,2.6v7.7h5.2v-7.7C24.3,200.8,23.2,199.7,21.8,199.7L21.8,199.7L21.8,199.7z"
			/>
		<path class="st34" d="M153.2,189.4c-0.2,0-0.3,0.2-0.3,0.3v3.7c0,0.2,0.1,0.4,0.3,0.4s0.4-0.1,0.4-0.3v-0.1v-3.7
			C153.6,189.5,153.4,189.4,153.2,189.4z"/>
		<path class="st34" d="M152.2,189.4h-2.4c-0.2,0-0.3,0.2-0.3,0.3v3.7c0,0.2,0.1,0.3,0.3,0.3h2.4c0.2,0,0.3-0.2,0.3-0.3v-3.7
			C152.5,189.5,152.3,189.4,152.2,189.4z"/>
		<path class="st34" d="M148.7,189.4c-0.2,0-0.3,0.2-0.3,0.3v3.7c0,0.2,0.1,0.4,0.3,0.4s0.4-0.1,0.4-0.3v-0.1v-3.7
			C149,189.5,148.9,189.4,148.7,189.4z"/>
		<path class="st34" d="M159.9,189.4c-0.2,0-0.3,0.2-0.3,0.3v3.7c0,0.2,0.1,0.4,0.3,0.4s0.4-0.1,0.4-0.3v-0.1v-3.7
			C160.2,189.5,160.1,189.4,159.9,189.4z"/>
		<path class="st34" d="M158.8,189.4h-2.4c-0.2,0-0.3,0.2-0.3,0.3v3.7c0,0.2,0.2,0.3,0.3,0.3h2.4c0.2,0,0.3-0.2,0.3-0.3v-3.7
			C159.1,189.5,159,189.4,158.8,189.4z"/>
		<path class="st34" d="M155.3,189.4c-0.2,0-0.3,0.2-0.3,0.3v3.7c0,0.2,0.1,0.4,0.3,0.4s0.4-0.1,0.4-0.3v-0.1v-3.7
			C155.7,189.5,155.5,189.4,155.3,189.4z"/>
		<path class="st34" d="M166.5,189.4c-0.2,0-0.3,0.2-0.3,0.3v3.7c0,0.2,0.1,0.4,0.3,0.4s0.4-0.1,0.4-0.3v-0.1v-3.7
			C166.8,189.5,166.7,189.4,166.5,189.4z"/>
		<path class="st34" d="M165.4,189.4H163c-0.2,0-0.3,0.2-0.3,0.3v3.7c0,0.2,0.1,0.3,0.3,0.3h2.4c0.2,0,0.3-0.2,0.3-0.3v-3.7
			C165.7,189.5,165.6,189.4,165.4,189.4L165.4,189.4z"/>
		<path class="st34" d="M162,189.4c-0.2,0-0.3,0.2-0.3,0.3v3.7c0,0.2,0.2,0.3,0.3,0.3s0.3-0.2,0.3-0.3v-3.7
			C162.3,189.5,162.2,189.4,162,189.4z"/>
		<path class="st34" d="M172.8,189.4c-0.2,0-0.3,0.2-0.3,0.3v3.7c0,0.2,0.1,0.4,0.3,0.4s0.4-0.1,0.4-0.3v-0.1v-3.7
			C173.1,189.5,173,189.4,172.8,189.4z"/>
		<path class="st34" d="M171.7,189.4h-2.4c-0.2,0-0.3,0.2-0.3,0.3v3.7c0,0.2,0.1,0.3,0.3,0.3h2.4c0.2,0,0.3-0.2,0.3-0.3v-3.7
			C172.1,189.5,171.9,189.4,171.7,189.4z"/>
		<path class="st34" d="M168.2,189.4c-0.2,0-0.3,0.2-0.3,0.3v3.7c0,0.2,0.2,0.3,0.3,0.3s0.3-0.2,0.3-0.3v-3.7
			C168.6,189.5,168.4,189.4,168.2,189.4z"/>
		<path class="st34" d="M179.4,189.4c-0.2,0-0.3,0.2-0.3,0.3v3.7c0,0.2,0.1,0.4,0.3,0.4s0.4-0.1,0.4-0.3v-0.1v-3.7
			C179.8,189.5,179.6,189.4,179.4,189.4z"/>
		<path class="st34" d="M178.4,189.4H176c-0.2,0-0.3,0.2-0.3,0.3v3.7c0,0.2,0.2,0.3,0.3,0.3h2.4c0.2,0,0.3-0.2,0.3-0.3v-3.7
			C178.7,189.5,178.6,189.4,178.4,189.4L178.4,189.4z"/>
		<path class="st34" d="M174.9,189.4c-0.2,0-0.3,0.2-0.3,0.3v3.7c0,0.2,0.1,0.4,0.3,0.4s0.4-0.1,0.4-0.3v-0.1v-3.7
			C175.2,189.5,175.1,189.4,174.9,189.4z"/>
		<path class="st34" d="M186.1,189.4c-0.2,0-0.3,0.2-0.3,0.3v3.7c0,0.2,0.2,0.3,0.3,0.3s0.3-0.2,0.3-0.3v-3.7
			C186.4,189.5,186.2,189.4,186.1,189.4z"/>
		<path class="st34" d="M185,189.4h-2.4c-0.2,0-0.3,0.2-0.3,0.3v3.7c0,0.2,0.2,0.3,0.3,0.3h2.4c0.2,0,0.3-0.2,0.3-0.3v-3.7
			C185.3,189.5,185.2,189.4,185,189.4z"/>
		<path class="st34" d="M181.5,189.4c-0.2,0-0.3,0.2-0.3,0.3v3.7c0,0.2,0.2,0.3,0.3,0.3c0.2,0,0.3-0.2,0.3-0.3v-3.7
			C181.8,189.5,181.7,189.4,181.5,189.4z"/>
		<path class="st34" d="M192.8,189.4c-0.2,0-0.3,0.2-0.3,0.3v3.7c0,0.2,0.2,0.3,0.3,0.3c0.2,0,0.3-0.2,0.3-0.3l0,0v-3.7
			C193.2,189.5,193,189.4,192.8,189.4z"/>
		<path class="st34" d="M191.8,189.4h-2.4c-0.2,0-0.3,0.2-0.3,0.3v3.7c0,0.2,0.2,0.3,0.3,0.3h2.4c0.2,0,0.3-0.2,0.3-0.3v-3.7
			C192.1,189.5,191.9,189.4,191.8,189.4z"/>
		<path class="st34" d="M188.3,189.4c-0.2,0-0.3,0.2-0.3,0.3v3.7c0,0.2,0.2,0.3,0.3,0.3s0.3-0.2,0.3-0.3v-3.7
			C188.6,189.5,188.5,189.4,188.3,189.4z"/>
		<path class="st39" d="M23.7,189.4c-0.2,0-0.3,0.2-0.3,0.3v3.7c0,0.2,0.2,0.3,0.3,0.3s0.3-0.2,0.3-0.3v-3.7
			C24,189.5,23.9,189.4,23.7,189.4z"/>
		<path class="st39" d="M22.6,189.4h-2.4c-0.2,0-0.3,0.2-0.3,0.3v3.7c0,0.2,0.2,0.3,0.3,0.3h2.4c0.2,0,0.3-0.2,0.3-0.3v-3.7
			C23,189.5,22.8,189.4,22.6,189.4z"/>
		<path class="st39" d="M19.2,189.4c-0.2,0-0.3,0.2-0.3,0.3v3.7c0,0.2,0.2,0.3,0.3,0.3s0.3-0.2,0.3-0.3v-3.7
			C19.5,189.5,19.4,189.4,19.2,189.4z"/>
		<path class="st39" d="M30.4,189.4c-0.2,0-0.3,0.2-0.3,0.3v3.7c0,0.2,0.1,0.4,0.3,0.4c0.2,0,0.4-0.1,0.4-0.3v-0.1v-3.7
			C30.7,189.5,30.5,189.4,30.4,189.4z"/>
		<path class="st39" d="M29.3,189.4h-2.4c-0.2,0-0.3,0.2-0.3,0.3v3.7c0,0.2,0.2,0.3,0.3,0.3h2.4c0.2,0,0.3-0.2,0.3-0.3v-3.7
			C29.6,189.5,29.5,189.4,29.3,189.4z"/>
		<path class="st39" d="M25.8,189.4c-0.2,0-0.3,0.2-0.3,0.3v3.7c0,0.2,0.1,0.4,0.3,0.4c0.2,0,0.4-0.1,0.4-0.3v-0.1v-3.7
			C26.1,189.5,26,189.4,25.8,189.4z"/>
		<path class="st39" d="M37,189.4c-0.2,0-0.3,0.2-0.3,0.3v3.7c0,0.2,0.2,0.3,0.3,0.3s0.3-0.2,0.3-0.3v-3.7
			C37.3,189.5,37.2,189.4,37,189.4z"/>
		<path class="st39" d="M35.9,189.4h-2.4c-0.2,0-0.3,0.2-0.3,0.3v3.7c0,0.2,0.2,0.3,0.3,0.3h2.4c0.2,0,0.3-0.2,0.3-0.3v-3.7
			C36.2,189.5,36.1,189.4,35.9,189.4z"/>
		<path class="st39" d="M32.4,189.4c-0.2,0-0.3,0.2-0.3,0.3v3.7c0,0.2,0.2,0.3,0.3,0.3s0.3-0.2,0.3-0.3v-3.7
			C32.8,189.5,32.6,189.4,32.4,189.4z"/>
		<path class="st39" d="M43.3,189.4c-0.2,0-0.3,0.2-0.3,0.3v3.7c0,0.2,0.2,0.3,0.3,0.3s0.3-0.2,0.3-0.3v-3.7
			C43.6,189.5,43.4,189.4,43.3,189.4z"/>
		<path class="st39" d="M42.2,189.4h-2.4c-0.2,0-0.3,0.2-0.3,0.3v3.7c0,0.2,0.2,0.3,0.3,0.3h2.4c0.2,0,0.3-0.2,0.3-0.3v-3.7
			C42.5,189.5,42.4,189.4,42.2,189.4z"/>
		<path class="st39" d="M38.7,189.4c-0.2,0-0.3,0.2-0.3,0.3v3.7c0,0.2,0.2,0.3,0.3,0.3s0.3-0.2,0.3-0.3v-3.7
			C39.1,189.5,38.9,189.4,38.7,189.4z"/>
		<path class="st39" d="M49.9,189.4c-0.2,0-0.3,0.2-0.3,0.3v3.7c0,0.2,0.1,0.4,0.3,0.4s0.4-0.1,0.4-0.3v-0.1v-3.7
			C50.2,189.5,50.1,189.4,49.9,189.4z"/>
		<path class="st39" d="M48.8,189.4h-2.4c-0.2,0-0.3,0.2-0.3,0.3v3.7c0,0.2,0.1,0.3,0.3,0.3h2.4c0.2,0,0.3-0.2,0.3-0.3v-3.7
			C49.2,189.5,49,189.4,48.8,189.4z"/>
		<path class="st39" d="M45.3,189.4c-0.2,0-0.3,0.2-0.3,0.3v3.7c0,0.2,0.1,0.4,0.3,0.4s0.4-0.1,0.4-0.3v-0.1v-3.7
			C45.7,189.5,45.5,189.4,45.3,189.4z"/>
		<path class="st39" d="M56.5,189.4c-0.2,0-0.3,0.2-0.3,0.3v3.7c0,0.2,0.2,0.3,0.3,0.3s0.3-0.2,0.3-0.3v-3.7
			C56.9,189.5,56.7,189.4,56.5,189.4z"/>
		<path class="st39" d="M55.5,189.4h-2.4c-0.2,0-0.3,0.2-0.3,0.3v3.7c0,0.2,0.2,0.3,0.3,0.3h2.4c0.2,0,0.3-0.2,0.3-0.3v-3.7
			C55.8,189.5,55.6,189.4,55.5,189.4z"/>
		<path class="st39" d="M52,189.4c-0.2,0-0.3,0.2-0.3,0.3v3.7c0,0.2,0.2,0.3,0.3,0.3s0.3-0.2,0.3-0.3v-3.7
			C52.3,189.5,52.2,189.4,52,189.4z"/>
		<path class="st39" d="M63.3,189.4c-0.2,0-0.3,0.2-0.3,0.3v3.7c0,0.2,0.1,0.4,0.3,0.4s0.4-0.1,0.4-0.3v-0.1v-3.7
			C63.6,189.5,63.5,189.4,63.3,189.4z"/>
		<path class="st39" d="M62.2,189.4h-2.4c-0.2,0-0.3,0.2-0.3,0.3v3.7c0,0.2,0.2,0.3,0.3,0.3h2.4c0.2,0,0.3-0.2,0.3-0.3v-3.7
			C62.6,189.5,62.4,189.4,62.2,189.4z"/>
		<path class="st39" d="M58.8,189.4c-0.2,0-0.3,0.2-0.3,0.3v3.7c0,0.2,0.1,0.4,0.3,0.4s0.4-0.1,0.4-0.3v-0.1v-3.7
			C59.1,189.5,59,189.4,58.8,189.4z"/>
	</g>
</g>
</svg>
