<svg id="Layer_1" data-name="Layer 1" xmlns="http://www.w3.org/2000/svg" xmlns:xlink="http://www.w3.org/1999/xlink" viewBox="0 0 212 212"><defs><style>.cls-1,.cls-13,.cls-17,.cls-9{fill:none;}.cls-2{fill:#ffcc2c;}.cls-3{clip-path:url(#clip-path);}.cls-4{fill:#f7941d;}.cls-5{fill:#b0daf3;}.cls-6{fill:#ef5387;}.cls-7{fill:#23b2e7;}.cls-8{fill:#1358a8;}.cls-9{stroke:#1f0d0e;stroke-width:0.48px;}.cls-13,.cls-9{stroke-linecap:round;stroke-linejoin:round;}.cls-10{fill:#311c5b;}.cls-11{fill:#f6a0a1;}.cls-12{fill:#fff;}.cls-13{stroke:#bdc9e7;stroke-width:0.94px;}.cls-14{fill:#6a77b9;}.cls-15{fill:#200e0c;}.cls-16{fill:#1f0d0e;}.cls-17{stroke:#fff;stroke-miterlimit:10;stroke-width:0.82px;}.cls-18{clip-path:url(#clip-path-3);}</style><clipPath id="clip-path"><rect class="cls-1" width="212" height="212"/></clipPath><clipPath id="clip-path-3"><rect class="cls-1" x="-223" y="223" width="212" height="212"/></clipPath></defs><title>Artboard 5</title><rect class="cls-2" width="212" height="212"/><g class="cls-3"><circle class="cls-4" cx="106" cy="201.4" r="106.58"/></g><path class="cls-5" d="M13.37,40.11l13.18-6.57a.34.34,0,0,0-.3-.61L13.07,39.51a.34.34,0,0,0,.3.6Z"/><path class="cls-5" d="M14.72,42.81,27.9,36.24a.34.34,0,0,0-.3-.6L14.42,42.21a.34.34,0,0,0,.3.6Z"/><path class="cls-5" d="M18.37,44.37l8.57-4.27a.34.34,0,0,0-.3-.6l-8.57,4.27a.34.34,0,0,0,.3.6Z"/><path class="cls-5" d="M20.92,49.42,29.72,45a.34.34,0,0,0-.3-.61l-8.8,4.4a.34.34,0,0,0,.3.6Z"/><path class="cls-5" d="M20.56,52.89l12.37-6.17a.34.34,0,0,0-.3-.6L20.26,52.29a.34.34,0,0,0,.3.6Z"/><path class="cls-5" d="M20.61,56.15l14.47-7.21a.34.34,0,0,0-.3-.6L20.31,55.55c-.38.19-.08.8.3.6Z"/><path class="cls-5" d="M22.35,58.58l13.83-6.9a.34.34,0,0,0-.3-.6L22.05,58a.34.34,0,0,0,.3.6Z"/><path class="cls-5" d="M24.71,60.69l12.16-6.06a.34.34,0,0,0-.3-.6L24.41,60.09a.34.34,0,0,0,.3.6Z"/><path class="cls-5" d="M28.33,62.18l8.18-4.08a.34.34,0,0,0-.3-.6L28,61.58a.34.34,0,0,0,.3.6Z"/><path class="cls-5" d="M29.53,68.07l9.81-4.89a.34.34,0,0,0-.3-.6l-9.81,4.89a.34.34,0,0,0,.3.6Z"/><path class="cls-5" d="M29.14,71.47l12.11-6a.34.34,0,0,0-.3-.6l-12.11,6a.34.34,0,0,0,.3.6Z"/><path class="cls-5" d="M29.37,74.56,44,67.27a.34.34,0,0,0-.3-.6L29.07,74a.34.34,0,0,0,.3.6Z"/><path class="cls-6" d="M11.07,38.9a13.15,13.15,0,0,0,10.78,6.68c2.63.22,5.16,0,7.67,1a9.43,9.43,0,0,1,4.95,4.68c2.37,4.9-2,10.05-4.3,14s-3.85,9.27-.25,12.89c1,1,2.55-.44,1.58-1.42-4.15-4.18.49-10.35,2.81-14.18s3.89-8,2.06-12.29c-1.65-3.87-5.76-6.15-9.78-6.62-2.7-.32-5.34,0-8-.87A10.31,10.31,0,0,1,13,38c-.66-1.2-2.56-.25-1.91.95Z"/><path class="cls-7" d="M25.14,31.89a10.5,10.5,0,0,1,.59,6.92c-.63,2.65-2.45,4.7-3.93,6.9a12.25,12.25,0,0,0-1.1,11.88c1.91,4.23,6.49,5.55,10.72,6.08C36,64.24,44.09,64,45,70c.2,1.36,2.28.94,2.09-.4-.71-4.88-5.6-6.81-9.89-7.48C32.39,61.39,26,62.08,23,57.43a9.34,9.34,0,0,1-1.13-6.5c.39-2.66,2.18-4.76,3.67-6.88A13.21,13.21,0,0,0,27,30.94c-.57-1.25-2.47-.3-1.9.95Z"/><path class="cls-5" d="M185.73,56.58l8.45,6.24a.24.24,0,0,0,.28-.38L186,56.2c-.25-.19-.54.2-.29.38Z"/><path class="cls-5" d="M184.45,58.32l8.45,6.24a.24.24,0,0,0,.28-.39l-8.44-6.24a.24.24,0,0,0-.29.39Z"/><path class="cls-5" d="M184.64,61.14l5.5,4.06a.24.24,0,0,0,.29-.38l-5.5-4.06a.24.24,0,0,0-.29.38Z"/><path class="cls-5" d="M182.27,64.4l5.64,4.17c.25.18.54-.21.29-.39L182.56,64a.24.24,0,0,0-.29.39Z"/><path class="cls-5" d="M180,65.29l7.92,5.86a.24.24,0,0,0,.29-.39l-7.93-5.85a.24.24,0,0,0-.28.38Z"/><path class="cls-5" d="M177.89,66.39l9.27,6.84c.25.19.54-.2.29-.38L178.18,66a.24.24,0,0,0-.29.39Z"/><path class="cls-5" d="M176.92,68.28l8.86,6.54c.25.19.54-.2.29-.38l-8.87-6.55a.24.24,0,0,0-.28.39Z"/><path class="cls-5" d="M176.34,70.46l7.79,5.76a.24.24,0,0,0,.29-.39l-7.8-5.75c-.24-.19-.53.2-.28.38Z"/><path class="cls-5" d="M176.57,73.24l5.24,3.87a.24.24,0,0,0,.28-.38l-5.24-3.87c-.24-.19-.53.2-.28.38Z"/><path class="cls-5" d="M173.21,75.91l6.29,4.65a.24.24,0,0,0,.29-.39l-6.29-4.64a.24.24,0,0,0-.29.38Z"/><path class="cls-5" d="M170.93,76.77l7.76,5.73a.24.24,0,0,0,.29-.39l-7.77-5.73a.24.24,0,0,0-.28.39Z"/><path class="cls-5" d="M169.05,77.92l9.36,6.92c.25.18.54-.21.29-.39l-9.37-6.92a.24.24,0,0,0-.28.39Z"/><path class="cls-6" d="M185.75,54.74a9.39,9.39,0,0,0-.74,9c.71,1.74,1.68,3.26,1.87,5.18a6.74,6.74,0,0,1-1.36,4.66c-2.34,3.09-7,2-10.32,1.82s-7.13.56-8.27,4c-.3.93,1.11,1.48,1.42.55,1.31-4,6.73-3,9.92-2.82s6.32-.11,8.47-2.67a8.58,8.58,0,0,0,1-8.36c-.67-1.82-1.74-3.38-2-5.34A7.39,7.39,0,0,1,187,55.64c.55-.81-.66-1.71-1.22-.9Z"/><path class="cls-7" d="M194.77,61.39A7.57,7.57,0,0,1,190.56,64c-1.88.45-3.77,0-5.65-.26a8.7,8.7,0,0,0-7.9,3.15c-2.07,2.58-1.42,5.92-.39,8.78,1.12,3.07,3.93,8.14.36,10.66-.8.57.15,1.76.94,1.19,2.87-2,2.5-5.76,1.54-8.7-1.07-3.27-3.57-7.09-1.59-10.51a6.64,6.64,0,0,1,3.76-2.82c1.81-.61,3.73-.16,5.56.1a9.42,9.42,0,0,0,8.8-3.32c.61-.76-.61-1.66-1.22-.9Z"/><path class="cls-5" d="M161,14l14.53,2.41a.33.33,0,0,0,.11-.66l-14.53-2.41A.33.33,0,0,0,161,14Z"/><path class="cls-5" d="M160.54,17l14.53,2.42a.34.34,0,0,0,.11-.67l-14.53-2.41a.33.33,0,0,0-.11.66Z"/><path class="cls-5" d="M162.58,20.36,172,21.93a.33.33,0,0,0,.11-.66l-9.45-1.57a.33.33,0,0,0-.11.66Z"/><path class="cls-5" d="M161.69,25.94l9.7,1.61a.33.33,0,0,0,.11-.66l-9.7-1.61a.33.33,0,0,0-.11.66Z"/><path class="cls-5" d="M159.36,28.54,173,30.8a.33.33,0,0,0,.11-.66l-13.63-2.26a.33.33,0,0,0-.11.66Z"/><path class="cls-5" d="M157.49,31.21l15.94,2.65a.33.33,0,0,0,.11-.66L157.6,30.55a.33.33,0,0,0-.11.66Z"/><path class="cls-5" d="M157.47,34.2l15.25,2.53a.33.33,0,0,0,.11-.66l-15.25-2.54a.34.34,0,0,0-.11.67Z"/><path class="cls-5" d="M158.14,37.29l13.4,2.23a.33.33,0,0,0,.11-.66l-13.4-2.23a.33.33,0,0,0-.11.66Z"/><path class="cls-5" d="M160.2,40.62l9,1.5a.33.33,0,0,0,.11-.66l-9-1.5a.33.33,0,0,0-.11.66Z"/><path class="cls-5" d="M157.71,46.1l10.82,1.8a.34.34,0,0,0,.11-.67l-10.82-1.79a.33.33,0,0,0-.11.66Z"/><path class="cls-5" d="M155.4,48.62l13.35,2.22a.34.34,0,0,0,.11-.67L155.51,48a.33.33,0,0,0-.11.66Z"/><path class="cls-5" d="M153.78,51.26l16.11,2.67a.33.33,0,0,0,.11-.66l-16.11-2.68a.34.34,0,0,0-.11.67Z"/><path class="cls-6" d="M159.89,11.65a13.13,13.13,0,0,0,4.8,11.73c2,1.72,4.19,3,5.65,5.28a9.47,9.47,0,0,1,1.26,6.69c-.95,5.36-7.5,7-11.72,8.86s-8.56,5.24-7.78,10.28c.21,1.35,2.33,1.14,2.12-.22-.91-5.81,6.47-8.09,10.6-9.83s7.83-4.17,8.87-8.74c.95-4.11-1.05-8.36-4-11.1-2-1.84-4.33-3.12-5.94-5.38A10.33,10.33,0,0,1,162,12c.18-1.36-1.92-1.71-2.09-.35Z"/><path class="cls-7" d="M175.39,14.22a10.58,10.58,0,0,1-3.58,6c-2.07,1.77-4.74,2.36-7.23,3.28a12.22,12.22,0,0,0-7.87,9c-.93,4.54,2,8.31,5.11,11.21,3.35,3.13,10.09,7.68,7.25,13.1-.64,1.22,1.29,2.1,1.93.89,2.29-4.36-.54-8.79-3.62-11.85-3.43-3.41-9-6.59-8.69-12.12a9.37,9.37,0,0,1,2.9-5.92c1.88-1.92,4.56-2.57,7-3.42a13.19,13.19,0,0,0,8.88-9.75c.28-1.34-1.82-1.69-2.09-.35Z"/><g class="cls-3"><path class="cls-8" d="M126.32,144.35c.89,9.49,20.36,142.14,20.36,142.14H128.21L107.76,167.88l-3.33.06-2.15,118.55H84.64s-1-123.58.07-141.84Z"/><line class="cls-9" x1="99.13" y1="167.96" x2="113.94" y2="167.96"/><polygon class="cls-10" points="96.1 81.3 89.05 149.95 126.68 149.95 115.06 81.3 96.1 81.3"/><path class="cls-11" d="M96.1,81.3l9.42-3.3,9.54,3.3s-.3,5-9.54,5S96.1,81.3,96.1,81.3Z"/><path class="cls-12" d="M115.06,81.3l4.13,102.24,16.43.73-5.81-96.2A69.91,69.91,0,0,0,115.06,81.3Z"/><polyline class="cls-13" points="115.19 81.51 123.8 91.42 119.43 99.42 123.84 102.56 116.99 127.26"/><path class="cls-12" d="M96.1,81.3,94.85,183.54l-16.43.73,2.94-96.2A69.63,69.63,0,0,1,96.1,81.3Z"/><polyline class="cls-13" points="95.91 81.51 87.31 91.42 91.67 99.42 87.26 102.56 95.21 127.26"/><path class="cls-12" d="M87.31,85s-11.78,1.9-36.88,36l11.81,9.71,23.15-23.6Z"/><polygon class="cls-14" points="79.89 103.63 68.83 144.45 95.66 150.89 106.99 110.74 79.89 103.63"/><polygon class="cls-11" points="70.5 124.04 91.09 131.51 90.06 139.22 69.02 135.29 70.5 124.04"/><path class="cls-11" d="M91.09,131.51s13.14-4.45,13.35.48-.51,16.76-14.38,7.23Z"/><path class="cls-11" d="M90.73,132.13l1.53-2.23a7.82,7.82,0,0,1,3.6-2.85l2.69-1a1.51,1.51,0,0,1,1.78.55h0a1.5,1.5,0,0,1-.23,2l-3.62,3.25Z"/><path class="cls-12" d="M60.12,118.68l26.69,8.64L84.34,140.9l-29.79-7.43a7.92,7.92,0,0,1-4.89-10.94h0A7.91,7.91,0,0,1,60.12,118.68Z"/><line class="cls-13" x1="70.68" y1="122.1" x2="63.36" y2="119.73"/><path class="cls-12" d="M124.19,85s9.39,1,36.88,36l-11.81,9.71-23.92-24.4Z"/><line class="cls-13" x1="131.27" y1="112.36" x2="130.77" y2="104.75"/><polygon class="cls-11" points="137.15 138.08 127.81 146.39 130.49 157.46 133.55 150.1 139.92 144.9 137.15 138.08"/><line class="cls-13" x1="130.92" y1="159.17" x2="126.59" y2="142.05"/><path class="cls-12" d="M149.17,121.27l-17.25,20.6,7.4,9L160.62,131a7.52,7.52,0,0,0-1-11.34h0A7.52,7.52,0,0,0,149.17,121.27Z"/><line class="cls-13" x1="144.95" y1="126.31" x2="149.17" y2="121.27"/><path class="cls-11" d="M97.71,55.48a4.33,4.33,0,1,1-4.44-4.22A4.33,4.33,0,0,1,97.71,55.48Z"/><path class="cls-9" d="M90.92,55s1.73-.83,3.36,2.16"/><path class="cls-11" d="M113.52,55.66a4.34,4.34,0,1,0,4.35-4.32A4.33,4.33,0,0,0,113.52,55.66Z"/><path class="cls-9" d="M120.3,55s-1.74-.79-3.31,2.24"/><path class="cls-15" d="M96.37,36.36s3.36-8.61,13.68-6.5c16.63,3.39,8.39,21.6,8.39,21.6l-1.39-6.9-6.84-4.27Z"/><path class="cls-15" d="M98.2,35.26s-4.32-1.44-7.28,3.19c-4.39,6.87,4.48,18.49,4.48,18.49Z"/><circle class="cls-15" cx="105.4" cy="47.66" r="13.69" transform="translate(34.62 139.14) rotate(-76.6)"/><path class="cls-11" d="M110.53,65s-1.84,2.39-4.07,2.8a7.16,7.16,0,0,1-4.41-.89S100,64.5,100,64.5L98.93,81.29l13-.07Z"/><polygon class="cls-16" points="100.64 67.32 111.24 73.25 110.53 64.96 100.64 67.32"/><path class="cls-11" d="M117.34,48.13A54,54,0,0,1,116,60.25c-.68,2.94-2.6,5-5.31,6.65l-.5.3a9.43,9.43,0,0,1-9.51.12h0c-3-1.69-5-3.93-5.65-7.08a65.5,65.5,0,0,1-1.25-10.76s-1.67-14.34,11.09-14.34C118.64,35.13,117.34,48.13,117.34,48.13Z"/><path class="cls-16" d="M101,52.75a1,1,0,1,1-1-1A1,1,0,0,1,101,52.75Z"/><path class="cls-16" d="M111.16,52.79a1,1,0,1,1-1-1A1,1,0,0,1,111.16,52.79Z"/><polyline class="cls-9" points="104.59 54.44 104.47 57.12 105.95 57.12"/><path class="cls-16" d="M107.66,45.36s-.3,1.11,1.43,1.14a20.11,20.11,0,0,1,3.67.52,1.05,1.05,0,0,0,1.09-.4h0a.59.59,0,0,0-.1-.77A7.09,7.09,0,0,0,110,44.4C107.91,44.35,107.66,45.36,107.66,45.36Z"/><path class="cls-16" d="M102.39,45.39s.3,1.11-1.43,1.13A20.75,20.75,0,0,0,97.3,47a1.07,1.07,0,0,1-1.1-.39h0a.58.58,0,0,1,.1-.77,7.09,7.09,0,0,1,3.79-1.45C102.14,44.38,102.39,45.39,102.39,45.39Z"/><path class="cls-9" d="M101.76,59.6s1.52,1.87,5.11.79"/><circle class="cls-17" cx="98.92" cy="53.03" r="5.03"/><circle class="cls-17" cx="111.5" cy="53.03" r="5.03"/><line class="cls-17" x1="106.46" y1="53.03" x2="103.95" y2="53.03"/><path class="cls-15" d="M97.43,35.47s-1.06,6.93,7.46,8.78a5.85,5.85,0,0,1,0-3.22s1.5,5.45,13,4C117.9,45,114.76,29.1,97.43,35.47Z"/><path class="cls-15" d="M97.82,37.31S97.31,43.8,93,46.68C93,46.68,92.7,37.89,97.82,37.31Z"/></g></svg>