<?xml version="1.0" encoding="utf-8"?>
<!-- Generator: Adobe Illustrator 24.0.0, SVG Export Plug-In . SVG Version: 6.00 Build 0)  -->
<svg version="1.1" id="Layer_1" xmlns="http://www.w3.org/2000/svg" xmlns:xlink="http://www.w3.org/1999/xlink" x="0px" y="0px"
	 viewBox="0 0 212 212" style="enable-background:new 0 0 212 212;" xml:space="preserve">
<style type="text/css">
	.st0{fill:#009B57;}
	.st1{clip-path:url(#SVGID_2_);}
	.st2{fill:#006838;}
	.st3{clip-path:url(#SVGID_4_);}
	.st4{fill:#F3787B;}
	.st5{fill:#FAD04E;}
	.st6{fill:#67C5AF;}
	.st7{fill:#FCB856;}
	.st8{fill:#FFFFFF;}
	.st9{fill:#0F1523;}
	.st10{fill:#F6937F;}
	.st11{fill:#F37463;}
	.st12{fill:#C62036;}
	.st13{opacity:0.1;fill:#010101;enable-background:new    ;}
	.st14{fill:#C7C8C9;}
	.st15{fill:#16737D;}
	.st16{fill:#0B3238;}
	.st17{fill:#15294A;}
	.st18{opacity:0.2;fill:#010101;enable-background:new    ;}
	.st19{fill:#43577B;}
	.st20{fill:#131E38;}
	.st21{fill:none;stroke:#F37463;stroke-width:0.65;stroke-linecap:round;stroke-linejoin:round;}
	.st22{fill:#392B28;}
	.st23{fill:none;stroke:#56433D;stroke-width:1.23;stroke-linecap:round;stroke-linejoin:round;}
	.st24{fill:#56433D;}
	.st25{fill:#2D3344;}
	.st26{fill:#371F18;}
	.st27{fill:#263D63;}
	.st28{opacity:0.4;fill:#131E38;enable-background:new    ;}
	.st29{fill:none;stroke:#2D3F60;stroke-width:0.94;stroke-miterlimit:10;}
	.st30{fill:#2D3F60;}
	.st31{opacity:0.3;}
	.st32{fill:#323432;}
	.st33{opacity:0.5;fill:#131E38;enable-background:new    ;}
	.st34{fill:#0E1523;}
	.st35{fill:none;stroke:#F37463;stroke-width:0.5;stroke-linecap:round;stroke-linejoin:round;}
</style>
<title>Artboard 9</title>
<g>
	<g id="Layer_1_1_">
		<rect class="st0" width="212" height="212"/>
		<g>
			<defs>
				<rect id="SVGID_1_" width="212" height="212"/>
			</defs>
			<clipPath id="SVGID_2_">
				<use xlink:href="#SVGID_1_"  style="overflow:visible;"/>
			</clipPath>
			<g class="st1">
				<circle class="st2" cx="106" cy="201.4" r="106.6"/>
			</g>
		</g>
		<g>
			<defs>
				<rect id="SVGID_3_" width="212" height="212"/>
			</defs>
			<clipPath id="SVGID_4_">
				<use xlink:href="#SVGID_3_"  style="overflow:visible;"/>
			</clipPath>
			<g class="st3">
				<path class="st4" d="M161.7,122.3c0.8,2.1,2.4,3.9,4.4,4.9c-2,1-2.2,1.9-2.7,3.8c-1.8-1.2-3.2-2.9-4-4.9
					C159.1,124.5,160.1,122.8,161.7,122.3z"/>
				<path class="st4" d="M8,212c2.1,0.9,4.4,1.1,6.6,0.4c-0.8,2.1-0.2,2.9,0.8,4.6c-2.1,0.4-4.3,0.2-6.3-0.6
					C7.7,215.4,7.3,213.5,8,212z"/>
				<path class="st4" d="M25.1,88.9c2.2,0.4,4.6-0.1,6.5-1.3c-0.2,2.2,0.5,2.8,1.9,4.3c-1.9,0.9-4.1,1.2-6.2,0.9
					C25.7,92.3,24.8,90.6,25.1,88.9z"/>
				<path class="st4" d="M158.9,73.5c1.5,1.7,3.6,2.8,5.9,3.1c-1.6,1.6-1.4,2.5-1.2,4.5c-2.1-0.5-4-1.6-5.4-3.1
					C157.2,76.5,157.5,74.6,158.9,73.5z"/>
				<path class="st4" d="M104.4,19c1.9-1.2,3.3-3.1,4-5.2c1.3,1.8,2.2,1.8,4.2,2c-0.8,2-2.3,3.6-4.1,4.8
					C107,21.1,105.2,20.5,104.4,19z"/>
				<path class="st4" d="M0.8,13.4c1.5,1.7,3.6,2.8,5.9,3c-1.5,1.6-1.4,2.5-1.1,4.5c-2.1-0.5-4-1.5-5.5-3
					C-0.8,16.4-0.5,14.5,0.8,13.4z"/>
				<path class="st4" d="M22.1,135.8c2.3-0.2,4.4-1.3,5.9-3c0.4,2.2,1.2,2.6,3,3.6c-1.6,1.4-3.6,2.3-5.7,2.6
					C23.6,138.9,22.2,137.5,22.1,135.8z"/>
				<path class="st4" d="M31.7,178.2c2.2-0.7,4-2.3,5.1-4.2c0.9,2.1,1.8,2.3,3.7,2.8c-1.3,1.7-3,3.1-5,3.8
					C33.8,180.9,32.2,179.9,31.7,178.2z"/>
				<path class="st4" d="M193.5,136.3c2.2,0.5,4.6,0.1,6.5-1c-0.3,2.2,0.4,2.9,1.8,4.4c-2,0.9-4.1,1.1-6.2,0.7
					C193.9,139.7,193,138,193.5,136.3z"/>
				<path class="st5" d="M167.8,163.7c1.9-0.5,3.4-1.7,4.5-3.4c0.7,1.8,1.4,2,3,2.6c-1.1,1.4-2.7,2.5-4.4,3
					C169.4,166,168.1,165,167.8,163.7z"/>
				<path class="st5" d="M129.2,39.3c1.8,0.8,3.8,0.9,5.6,0.2c-0.6,1.8-0.2,2.4,0.7,3.9c-1.8,0.4-3.6,0.2-5.3-0.5
					C129,42.1,128.6,40.6,129.2,39.3z"/>
				<path class="st6" d="M55.3,156.1c1.8-1,3.1-2.6,3.8-4.6c1.1,1.7,2,1.7,3.8,1.9c-0.8,1.7-2.1,3.2-3.8,4.2
					C57.6,158.1,56,157.4,55.3,156.1z"/>
				<path class="st6" d="M126,62.9c1.8-1,3.1-2.6,3.8-4.6c1.1,1.7,2,1.7,3.8,1.9c-0.8,1.7-2.1,3.2-3.8,4.2
					C128.3,64.9,126.7,64.3,126,62.9z"/>
				<path class="st6" d="M169,100.9c1.8-1,3.1-2.6,3.8-4.6c1.1,1.7,2,1.7,3.8,1.9c-0.8,1.7-2.1,3.2-3.8,4.2
					C171.3,102.9,169.7,102.2,169,100.9z"/>
				<path class="st6" d="M196.4,42.6c1.8-1,3.1-2.6,3.8-4.6c1.1,1.7,2,1.7,3.8,1.9c-0.8,1.7-2.1,3.2-3.8,4.2
					C198.7,44.6,197.2,43.9,196.4,42.6z"/>
				<path class="st6" d="M195.7,183.2c1.8-1,3.1-2.6,3.8-4.6c1.1,1.7,2,1.7,3.8,1.9c-0.8,1.7-2.1,3.2-3.8,4.2
					C198,185.2,196.4,184.5,195.7,183.2z"/>
				<path class="st7" d="M162.6,150.1c-0.6,0-1.1-0.4-1.1-1c-0.9-11.8,7.1-19.4,13.1-20.3c0.6-0.1,1.1-0.1,1.7-0.1
					c3.3-3.2,6.3-3.2,7.8-2.8c2.5,0.6,4.4,2.6,5,5.2c0.1,0.6-0.3,1.2-0.9,1.3c-0.6,0.1-1.1-0.2-1.3-0.8c-0.4-1.7-1.6-3.1-3.3-3.5
					c-1.8-0.3-3.6,0.3-4.9,1.5c0.9,0.6,1.5,1.6,1.7,2.6c0.5,2.3,0,4.5-1.3,5.8c-1.1,0.9-2.6,1.2-3.9,0.6c-1.2-0.3-2.1-1.2-2.4-2.3
					c-0.5-1.6,0.4-3.5,1.5-5.1c-5,1.2-11.3,7.9-10.6,17.7c0,0.6-0.4,1.1-1,1.2L162.6,150.1z M177.1,131.2l-0.3,0.3
					c-1.4,1.7-2.1,3.2-1.9,4.1c0,0.1,0.1,0.5,1,0.8c0.5,0.3,1.2,0.2,1.6-0.2c0.8-1,1-2.3,0.6-3.6C178.1,132,177.6,131.5,177.1,131.2
					z"/>
				<path class="st6" d="M29.2,49.8c-0.6,0-1.1-0.5-1.1-1c-0.9-11.8,7.1-19.4,13.1-20.3c0.6-0.1,1.1-0.1,1.7-0.1
					c3.3-3.2,6.3-3.2,7.8-2.8c2.5,0.6,4.4,2.6,5,5.2c0.2,0.6-0.2,1.2-0.8,1.4s-1.2-0.2-1.4-0.8c0,0,0-0.1,0-0.1
					c-0.4-1.7-1.6-3-3.3-3.5c-1.8-0.3-3.6,0.3-4.9,1.5c0.9,0.6,1.5,1.6,1.7,2.6c0.5,2.3,0,4.5-1.3,5.7c-1.1,0.9-2.6,1.2-3.9,0.6
					c-1.2-0.3-2.1-1.2-2.5-2.3c-0.5-1.6,0.4-3.5,1.5-5.1c-5,1.2-11.3,7.9-10.6,17.7C30.3,49.2,29.9,49.7,29.2,49.8L29.2,49.8z
					 M43.7,30.9l-0.3,0.3c-1.4,1.7-2.1,3.2-1.8,4.1c0,0.1,0.2,0.5,1,0.8c0.5,0.3,1.2,0.2,1.7-0.2c0.8-1,1-2.3,0.6-3.6
					C44.7,31.7,44.3,31.1,43.7,30.9z"/>
				<path class="st8" d="M93,48.8c1.6-0.9,2.7-2.3,3.3-4c1,1.5,1.7,1.5,3.3,1.7c-0.7,1.5-1.9,2.8-3.3,3.7C95,50.6,93.6,50,93,48.8z"
					/>
				<path class="st8" d="M25.2,57.7c1.6-0.9,2.7-2.3,3.3-4c1,1.5,1.7,1.5,3.3,1.7c-0.7,1.5-1.9,2.8-3.3,3.7
					C27.2,59.4,25.8,58.9,25.2,57.7z"/>
				<path class="st8" d="M74.9,145.2c1.6-0.9,2.7-2.3,3.3-4c1,1.5,1.7,1.5,3.3,1.6c-0.7,1.5-1.9,2.8-3.3,3.7
					C76.9,147,75.5,146.4,74.9,145.2z"/>
				<path class="st8" d="M155.6,188.7c1.6-0.9,2.7-2.3,3.3-4c1,1.5,1.7,1.5,3.3,1.7c-0.7,1.5-1.9,2.8-3.3,3.7
					C157.6,190.5,156.2,189.9,155.6,188.7z"/>
				<path class="st8" d="M170.3,156.1c1.6-0.9,2.7-2.3,3.3-4c1,1.5,1.7,1.5,3.3,1.6c-0.7,1.5-1.9,2.8-3.3,3.7
					C172.3,157.9,170.9,157.3,170.3,156.1z"/>
				<path class="st8" d="M117.8,148c1.6-0.9,2.7-2.3,3.3-4.1c1,1.5,1.7,1.5,3.3,1.6c-0.7,1.5-1.9,2.8-3.3,3.7
					C119.9,149.7,118.5,149.2,117.8,148z"/>
				<path class="st8" d="M147.3,15.4c1.6-0.9,2.7-2.3,3.3-4c1,1.5,1.7,1.5,3.3,1.6c-0.7,1.5-1.9,2.8-3.3,3.7
					C149.3,17.2,147.9,16.6,147.3,15.4z"/>
				<path class="st8" d="M68.2,114.1c1.6-0.9,2.7-2.3,3.3-4c1,1.5,1.7,1.5,3.3,1.7c-0.7,1.5-1.9,2.8-3.3,3.7
					C70.2,115.9,68.8,115.3,68.2,114.1z"/>
				<path class="st8" d="M71.6,8c1.6-0.9,2.7-2.3,3.3-4c1,1.5,1.7,1.5,3.3,1.7c-0.7,1.5-1.9,2.8-3.3,3.7C73.6,9.8,72.2,9.2,71.6,8z"
					/>
				<path class="st8" d="M14.9,5.3c1.6-0.9,2.7-2.3,3.3-4c1,1.5,1.7,1.5,3.3,1.7c-0.7,1.5-1.9,2.8-3.3,3.7C16.9,7,15.5,6.5,14.9,5.3
					z"/>
				<path class="st8" d="M45.6,145c1.6-0.9,2.7-2.3,3.3-4.1c1,1.5,1.7,1.5,3.3,1.6c-0.7,1.5-1.9,2.8-3.3,3.7
					C47.6,146.7,46.2,146.2,45.6,145z"/>
				<path class="st8" d="M202.9-1c1.6-0.9,2.7-2.3,3.3-4c1,1.5,1.7,1.5,3.3,1.7c-0.7,1.5-1.9,2.8-3.3,3.7
					C204.9,0.7,203.5,0.2,202.9-1z"/>
				<path class="st9" d="M149.8,72.9c0,0,2.5-4.8,10.3,7c3.1,3.8,5,6.3,8.5,10.1s9.9,8,5.4,12.7c0,0.3-9.7,5.1-10.7,1
					c-0.1-0.4-4.5,1.1-5.6-0.2s-3.4-0.7-3.7-6.6S147.7,76.2,149.8,72.9z"/>
				<path class="st10" d="M149.9,77.7c0-0.4,6.4-9.4,6.4-9.4l4.4,3.3l-6.9,18.3"/>
				<path class="st10" d="M160.5,71.6c-1.1,0.3-4.6-0.8-5.1-4.7c-0.5-3.6-1.3-4.3-1.2-7c0-2.3,1.1-0.6,2.1,1s1,2.4,2.1,1.3
					s3.7-7.8,5.2-8.8s-1.7,7.3-1.7,7.3s3.8-6.6,4.9-6.5c1.3,0.1-2.4,7.4-2.4,7.4s4.1-5.1,4.5-4.9c0.8,0.5-2.4,6.2-2.4,6.2
					s3-3.4,3.3-2.7S165.9,68.8,160.5,71.6z"/>
				<path class="st11" d="M165.9,64.7L165.9,64.7c-0.1-0.2-1.8-3.8-5.4-3.9c-0.1,0-0.2,0.1-0.2,0.2c0,0,0,0,0,0
					c0,0.1,0.1,0.2,0.2,0.2c0,0,0,0,0,0c3.4,0.1,5,3.6,5,3.6c0.1,0.1,0.2,0.2,0.3,0.1C165.9,64.9,165.9,64.8,165.9,64.7
					C165.9,64.7,165.9,64.7,165.9,64.7z"/>
				<path class="st10" d="M157.5,75.8c-1.6,2.5-3.7,4.8-6.1,6.6l0.7,2.2l3,1.6l5.5-14.7c2.1-1.2,3.9-2.8,5.4-4.7
					c-0.8,0.8-4,3.8-6.1,3.8C157.5,70.5,160.3,71.1,157.5,75.8z"/>
				<path class="st9" d="M64,78.6c0-0.1-0.1-0.2-0.3-0.2c0,0-0.1,0-0.1,0c-4.2,2.7-7.4,6.6-9.2,11.2c-3.3,7.3-3.7,7.9-5.1,9.8
					s-6.5,10.1-3.2,12.3c3.5,2.5,5.9,1.8,6.2,1.6c1.5,0.3,3-0.2,4-1.3c1.3-1,2.5-2.1,3.7-3.3c1.6-1.7-0.5-0.3,2.4-3.2
					s2.8-1.9,3.6-4.4C66.6,98.9,64.4,81.4,64,78.6z"/>
				<path class="st12" d="M49.7,65.8c0,0-4.5-2.4-4.2-2.2s1.4,1.8,1.4,1.8s-2.2,0.8-2,1s6.4,1.6,6.4,1.6L49.7,65.8z"/>
				<path class="st10" d="M103.4,132.8l-5.7,17.9c-6.6-2.2-27.6-21.8-33.3-31.7c-1.8-3.6-3.3-7.5-4.3-11.4c-0.2-0.9-0.5-1.7-0.7-2.6
					c-3.7-13.2-7.1-29.3-7.6-30.5c-0.3-0.4-0.1-1.3-0.3-1.7c0,0,0-0.1,0-0.1c-2.4-3.3-2.2-5.7-1.8-7.2c1-4.2,5.5-5.4,6.8-4.8
					c3,1.3,3.9,6.2,3.3,8.3c-0.3,0.9-1.7,2.6-1.3,3.6C61.7,83.1,71.3,102,73.9,112c3.6,4.8,11.2,10.6,19.3,15.5
					C96.5,129.5,100.2,131,103.4,132.8z"/>
				<path class="st10" d="M57.2,68.8c-0.2-0.3-0.8-1.3,0.3-2.7c0.2-0.2,0.4-0.5,0.5-0.9c0-0.2-0.6-0.8-0.8-1.3
					c-0.3-0.9,0.5-1.8,0.9-1.4c1,1.1,1.7,1.4,2.1,2.2c0.1,1.4,0,2.9-0.4,4.3"/>
				<path class="st10" d="M57.2,68.8c-0.2-0.3-0.8-1.3,0.3-2.7c0.2-0.2,0.4-0.5,0.5-0.9c0-0.2-0.6-0.8-0.8-1.3
					c-0.3-0.9,0.5-1.8,0.9-1.4c1,1.1,1.7,1.4,2.1,2.2c0.1,1.4,0,2.9-0.4,4.3"/>
				<path class="st10" d="M61.7,106.8l-1.6,0.8c-0.2-0.9-0.5-1.7-0.7-2.6c-3.7-13.2-7.1-29.3-7.6-30.6c-0.3-0.4,0-1.4-0.3-1.8l0,0
					c1.2-0.6,1.3-1,1.5-0.3l1.2,1c0.1,0.1,0.2,0.3,0.3,0.4l6.2,21.8L61.7,106.8z"/>
				<path class="st8" d="M70.3,56.8L42.2,83.6l-1-0.8l-5-4l12.7-12.1l1.5-1.4l13.9-13.3c0.9-0.8,3-0.5,4.6,0.9l0.3,0.3l0,0
					c0.1,0.1,0.2,0.2,0.3,0.3C70.7,54.7,71.1,56,70.3,56.8z"/>
				<path class="st12" d="M49.5,66.1c0,0,5,1.3,4.9,5.8l2.6-2.5c-0.4-2.8-2.7-5-5.5-5.3L49.5,66.1z"/>
				<path class="st13" d="M70.3,56.8L42.2,83.6l-1-0.8c0-0.8-0.1-1.6-0.2-2.4c0,0,3.7-3.2,11.2-10c-2.3,0.9-3.2-3.7-3.2-3.7l1.5-1.4
					l4,1.6l0.9,0.2c0,0,12.5-11.4,14.3-13.6C70.7,54.7,71.1,56,70.3,56.8z"/>
				<path class="st10" d="M57.6,65l-0.2,0.2l-0.1,0.2c-0.7,0.8-1,1.2-1.4,1.7l-0.2,0.2c-0.4,0.4-0.9,0.8-1.3,1.2
					c-0.1,0.1-0.3,0.2-0.5,0.3l-0.2,0.1c-0.3,0.1-1.2,0.7-1.4,0.8c-0.2,0-0.4,0-0.6,0c-0.2-0.1-0.4-0.2-0.5-0.3
					c-0.6-0.6-1.8-2.5-1.7-3.3c0.4-2,1.6-3.7,3.4-4.8c0.9-0.6,2-0.9,3-0.8c1.2,0.3,2.1,1.1,2.5,2.2C58.5,63.5,58.2,64.4,57.6,65z"/>
				<path class="st10" d="M53.8,68.7l-0.2,0.1c0-0.1,0-0.3-0.1-0.4c-0.1-0.5-0.3-0.9-0.4-1.4c-0.3-0.9-0.8-1.8-1.1-2.7
					c0.6,0.8,1,1.7,1.4,2.6c0.2,0.5,0.3,0.9,0.4,1.4C53.8,68.5,53.8,68.6,53.8,68.7z"/>
				<path class="st10" d="M55.8,67.1c0,0,0-0.1,0-0.1c-0.1-0.5-0.2-1-0.5-1.5c-0.2-0.5-0.5-0.9-0.8-1.3c-0.3-0.4-0.6-0.8-1-1.2
					c0.5,0.9,1.1,1.7,1.6,2.6c0.2,0.5,0.4,0.9,0.5,1.4c0,0.1,0,0.2,0,0.3L55.8,67.1z"/>
				<path class="st10" d="M57.4,65.2c0-0.1,0-0.3,0-0.4c-0.1-0.4-0.3-0.9-0.5-1.2c-0.5-0.8-1.1-1.4-1.9-1.9c0.3,0.3,0.6,0.7,0.9,1
					c0.3,0.3,0.5,0.7,0.7,1.1c0.3,0.5,0.6,1.1,0.7,1.7L57.4,65.2z"/>
				<path class="st13" d="M58,62.4c0,0-1.9,0.3-1.2,2c0.4,0.8,0.3,1.7-0.1,2.5c-0.2,0.6-0.4,2.2,0.2,2.7c0.9-0.8,1.4-2,1.3-3.2
					c0-0.4,0.2-1.5,0.2-2.1C58.4,63.6,58.2,63,58,62.4z"/>
				<path class="st10" d="M57.5,70.3c-0.2-0.3-1-2.8,0.1-4.2c0.2-0.2,0.4-0.5,0.5-0.9c0-0.2-0.6-0.8-0.8-1.3
					c-0.3-0.9,0.5-1.8,0.9-1.4c1,1.1,1.7,1.4,2.1,2.2c0.1,1.4,0,2.9-0.4,4.3"/>
				<path class="st14" d="M42.6,83.3c-0.7,0.8-2.3,0.7-3.8,0c-0.3-0.1-0.5-0.3-0.8-0.5c-1.7-1.2-2.5-2.9-1.7-3.8s2.7-0.7,4.4,0.4
					c0.1,0,0.1,0.1,0.2,0.1C42.7,80.7,43.4,82.4,42.6,83.3z"/>
				<path class="st15" d="M165.4,250.9l-18.7,5.7c0,0-11.8,3.2-14.7,3.8c-2.5,0.6-5.1-0.3-6.8-2.1c-6.9-11-10.8-24.7-12.9-37.4
					c-2-12.2-2.8-24.6-2.4-37c0-0.5,0-0.8,0-0.8l6.8-1.2l15.3-2.6c0.2,0.4,0.4,0.8,0.5,1.2c1,2.3,1.7,4.7,2.2,7.1c0,0.1,0,0.1,0,0.2
					c0.8,3.8,1.3,7.6,1.4,11.5c0.2,5.2-0.5,10.4-0.5,15.6s0,10.7,0.1,16c-0.1,3,0.2,5.9,0.8,8.8c0.5,2,0.8,2,2.8,1.8
					c1.8-0.2,3.6-0.4,5.3-0.5c3.3-0.2,6.6-0.4,9.9-0.4c1.7,0,3.4,0,5,0c0.9,0,1.7,0,2.6-0.1c0.6,0,1.2-0.4,1.8-0.2
					c0.8,0.2,1.2,1.4,1.4,2c0.3,0.8,0.5,1.6,0.8,2.4l0.9,2.7c0.5,1.3-0.2,2.8-1.6,3.3C165.5,250.8,165.5,250.8,165.4,250.9z"/>
				<path class="st15" d="M142.9,294.7c0,0.3-0.2,0.5-0.4,0.7c-1,1.1-2.4,1.9-3.4,3c-0.4,0.5-0.8,1-1.4,1.4s-2.8,2.6-3.5,1.9
					c-0.1-0.2-27-29.6-33.1-37.4c-4.8-6-8.8-11.5-9.9-14.9c-4.1-13.1-5.6-53.3-5.9-61.8c0-1-0.1-1.6-0.1-1.6l22.1-5l0.6,2.6
					c0.1,0.5,0.3,1.1,0.4,1.8c1.7,7.3,4.9,21.1,4.8,21.1c-0.3,5-0.7,10-1.2,15c-0.7,6.2-1.6,12.4-2.7,18.6c-0.2,1-0.3,2.1-0.2,3.1
					c0.2,1.2,0.8,2.2,2,4.2c3.2,5.2,7.8,9.5,11.3,14.6c2.6,3.9,4.5,8.2,6.8,12.4c2.5,4.7,5.5,9.1,8.8,13.1c1.7,2.1,3,4.4,4.6,6.7
					C142.8,294.2,142.9,294.5,142.9,294.7z"/>
				<path class="st16" d="M110.2,185.6c-1.1,0.2-2.2,0.4-3.3,0.6s-2.1,0.3-3.1,0.4c-6.6,0.7-12.4,0.3-16-0.8c0.1-1,0.1-1.6,0.1-1.6
					l21.8-2.8c0,0,0.1,1,0.3,2.5l13.9-4.2C124.2,179.9,116.3,184.4,110.2,185.6z"/>
				<path class="st17" d="M174.1,102.7c-3,1.1-4.1-0.5-6-5.3s-3.3-5.8-10.1-10.5s-7.8-8.5-8.1-14.2c-0.7,0.7-2.6,7.3-9.6,19.1
					c-4.9,9.7-9.8,15.4-13.7,19c-0.7,0.7-1.4,1.3-2.1,1.8c-1.1,0.8-2,1.5-2.9,2.1c-0.7,0.4-1.2,0.8-1.7,1.1c-1.7,1-3.4,1.9-5.3,2.6
					c-1.8,0.6-3.3,0.8-3.8,0.4c-2.7,2.1-4.9,2.2-6.4,1.8c-1-0.3-1.9-0.9-2.6-1.7c-1.1,0.6-2.3,1-3.5,1.1c-1.3,0.2-2.7,0.1-4-0.2
					c-2.1-0.5-4.1-1.4-5.9-2.6c-0.6-0.4-1.3-0.8-1.9-1.2c-1.7-1.2-3.3-2.4-4.8-3.6c-5.2-3.1-14.3-22.1-17.6-33.8
					c0.3,1.2-0.7,3.2-1.1,4.2c-1.2,3.2-2.6,6.3-4.1,9.3c-0.8,1.5-1.5,3-2.4,4.4l0,0c-1.2,1.7-2.2,3.6-3,5.6
					c-0.7,2.1-1.2,4.3-1.8,6.4c-0.2,0.6-0.4,1.2-0.6,1.8c-0.3,0.7-0.8,1.5-1.5,1.7c-2.7,0.7-3.8-0.6-3.9-0.8
					c0.1,0.3,0.7,1.1,0.9,1.3c0.9,1.4,1.9,2.7,3,3.8c1.8,1.9,3.8,3.6,6,5c6.9,4.4,23.1,21.2,24.7,25.4c2.9,7.7,2.9,16,1.6,23.9
					c-1.4,15.4-4.2,50.2-1.6,66.2c0,0,1.3,0.2,2.3,0.3c6.4,0.6,23.4,1.6,33.1-3.3c11.6-5.8,30.5-6.1,38.2-2.4
					c-1.2-3.3-2.5-6.6-3.6-9.9c-0.6-1.8-1.1-3.6-1.6-5.4c-1.8-6.8-3.3-13.6-4.9-20.4c-2.6-10.6-4.9-21.3-6.7-32.1
					c-0.5-3.1-1.1-6.2-1.6-9.4c-0.6-3.6-0.9-7.2-1-10.9c0-5.7,3.4-8.8,9.9-15.9S166.6,108.1,174.1,102.7L174.1,102.7z"/>
				<path class="st10" d="M110.3,113.5l0.5,5.1c0.2,2.5-0.4,4-3.7,4.4c-3.7,0.4-4.8-2-5.1-3.2c-0.2-0.9-0.4-3.7-0.4-3.7L110.3,113.5
					z"/>
				<path class="st18" d="M108.1,150.8c-12.6-12.2-19.5-29.2-21.6-34.9c0.6,0.4,1.2,0.8,1.9,1.2c1.8,1.2,3.8,2,5.9,2.6
					C96.7,124.8,101,134.1,108.1,150.8z"/>
				<path class="st18" d="M126.6,110.8c-0.2,1-7.6,31.3-18.6,40c4.4-9.9,10.9-28.3,13.6-36.1c0.8-0.5,1.8-1.2,2.9-2.1
					C125.2,112.1,125.9,111.5,126.6,110.8z"/>
				<path class="st19" d="M123,113.6L123,113.6l-1.1,0.8h-0.1l0,0c-0.7,0.5-1.4,0.9-2,1.2c-1.7,1-3.4,1.9-5.3,2.6l-7.5,10
					c0,0,0,0.4,0.1,1.2c0.1,1.4,0.2,3.9,0.3,7.2c-0.7-7.8-2-13.7-3.1-16.2c-1-0.3-1.9-0.9-2.6-1.7c-1.1,0.6-2.3,1-3.5,1.1
					c-2.5,0.3-5-0.2-7.2-1.3c-0.4-0.2-0.9-0.4-1.3-0.7s-0.9-0.5-1.4-0.8c0,0,11.2,26.4,19.7,33.8c8.6-7.5,16.2-37.4,16.4-38.3
					C124,112.9,123.5,113.3,123,113.6z"/>
				<path class="st8" d="M114.6,118.2l-1.6,8.2l-4.9,24.5l-0.5-1.5l-7.2-22.8l-2.1-6.7l0,0c1.2-0.2,2.4-0.5,3.5-1.1
					c0,0,3.3,4.3,9-0.1c0.6,0.3,1.3,0.3,2,0.1C113.4,118.6,114,118.4,114.6,118.2z"/>
				<path class="st20" d="M121.9,114.4L121.9,114.4L121.9,114.4c-1.5,5.2-6.7,23.5-13.2,33l-0.3,1.4l-0.1,0.7h0.1l0.1-0.1l0,0l0,0
					c7.6-9.9,13.7-32.6,14.6-35.8l0,0L121.9,114.4z"/>
				<path class="st20" d="M107,147.4l0.6,1.9c-5.5-4.7-15.1-25.4-17.8-31.5c0.4,0.2,0.9,0.5,1.3,0.7C94.1,125,101.8,141.6,107,147.4
					z"/>
				<path class="st18" d="M100.9,128.1c0.9,0.8,1.9,1.5,2.9,2.2c1.3,0.5,0.7-0.6,2.7-0.1s1.8-0.4,3.5-0.9c0.9-0.2,1.9-0.5,2.8-0.9
					l0.5-3.2c-1.8,1.5-3.8,2.6-6.1,3.3c-2.7,0.6-5.6-0.5-7.1-2.9l0,0L100.9,128.1z"/>
				<path class="st15" d="M113,126.3l-0.6,2.9l-3.7,18.2l-0.3,1.4l-0.1,0.7l-0.3,1.3l-0.5-1.5l-0.6-1.9l-5.8-18.5l-0.8-2.5l0,0
					c1.4,2.4,4.2,3.6,6.8,2.9C109.4,128.8,111.3,127.8,113,126.3z"/>
				<path class="st18" d="M114.6,118.2l-1.6,8.2l-4.9,24.5l-0.5-1.5l5.2-30.4c0,0,0-0.1,0-0.2C113.4,118.6,114,118.4,114.6,118.2z"
					/>
				<path class="st18" d="M174.1,102.7c-7.5,5.4-23.3,17.8-29.8,24.8c-6.5,7-9.9,10.2-9.9,15.9c0.1,3.6,0.4,7.3,1,10.9l0,0
					c-9.9-19.3,5.9-29.9,17.9-37.4c7.1-4.4,12.4-11.3,14.8-19.4C170,102.2,171.1,103.8,174.1,102.7L174.1,102.7z"/>
				<path class="st10" d="M120.7,98.8c0.7,2.3-1,5.5-2.8,6s-3.9,0.1-3.4-2.7c0.4-2.3,0.2-4.6,2-5.1S120.1,96.5,120.7,98.8z"/>
				<path class="st10" d="M87.4,103.1c-0.1,2.4,2.3,5,4.2,5.1s3.8-0.9,2.6-3.5c-1-2.2-1.3-4.4-3.1-4.5S87.5,100.8,87.4,103.1z"/>
				<path class="st10" d="M116.5,97.7c1.2,9.3,0.4,16.7-10.4,18.4c-11.7,1.8-13.4-6-14.6-15.3s3.5-17.5,10.4-18.4
					S115.3,88.4,116.5,97.7z"/>
				<path class="st21" d="M102.7,99.5c0,0,0.4,3.4-0.8,5.1c0.5,0.3,1.1,0.6,1.7,0.8"/>
				<path class="st22" d="M108.8,98.6c0,0.7-0.3,1.3-0.8,1.3s-0.9-0.5-0.9-1.2s0.3-1.3,0.8-1.3S108.8,97.9,108.8,98.6z"/>
				<path class="st23" d="M105.5,95.1c0,0,3.7-1.8,6.3-0.5C109.8,93.4,107.3,93.6,105.5,95.1z"/>
				<path class="st8" d="M103.8,106.8c-1.3,0.2-2.5,0.3-3.8,0.2c0,0.2,0,0.5,0,0.7c0.4,2.2,2.4,3.7,4.6,3.3s3.7-2.4,3.3-4.6
					c0-0.3-0.1-0.5-0.2-0.8C106.5,106.2,105.2,106.6,103.8,106.8z"/>
				<path class="st10" d="M107.2,102.9c0.2,1,1.6,1.5,3.1,1.2s2.6-1.3,2.4-2.3s-1.6-1.5-3.1-1.2S107,101.9,107.2,102.9z"/>
				<path class="st22" d="M97.6,100c0.2,0.7,0.7,1.1,1.1,1s0.8-0.7,0.6-1.4s-0.7-1.1-1.1-1S97.4,99.4,97.6,100z"/>
				<path class="st23" d="M99.9,96c0,0-4.1-0.4-6.1,1.7C95.3,95.9,97.8,95.2,99.9,96z"/>
				<path class="st10" d="M100.2,103.7c0,1-1.2,1.8-2.7,1.9s-2.8-0.6-2.9-1.6s1.2-1.8,2.7-1.9S100.2,102.8,100.2,103.7z"/>
				<path class="st24" d="M117.1,96.7c-0.6-0.1-1.6,1.4-1.9,2.1l-0.5-3.9c-0.1-0.8-0.4-1.6-0.9-2.3l-2.9-3.8c0.6-0.6,1-1.4,1.4-2.2
					c0.5-1.1,0.7-2.4,0.7-3.6c1.7,1.2,3.3,2,4.1,3.8C118.8,90.8,117.8,94.7,117.1,96.7z"/>
				<path class="st24" d="M98.3,84.4c-1.2,2.2-0.4,5,1.8,6.2c1.1,0.6,2.3,0.8,3.5,0.8c1.6,0,3.2-0.3,4.6-0.9c4-1.9,5.7-6.6,3.9-10.6
					c-0.3-0.6-0.6-1.1-1-1.6c0,0.8-0.2,1.6-0.7,2.3c0.1-1.2-0.1-2.4-0.7-3.5c-1.2,1.9-3.2,3.3-5.5,3.6c0.5-0.4,0.6-1.6,0.4-2.3
					c-0.2,0.6-3.6,2.1-4.5,2.3L98.3,84.4z"/>
				<path class="st25" d="M96.4,86.3c0.1,0.8,0.3,1.6,0.7,2.2c0.2,0.3,0.4,0.6,0.7,0.9c0.3,0.3,0.6,0.5,1,0.7
					c-0.4,0-0.8-0.2-1.2-0.4c-0.2-0.1-0.4-0.2-0.5-0.4c-0.1-0.2-0.3-0.3-0.4-0.5c-0.2-0.4-0.4-0.8-0.4-1.2
					C96.2,87.2,96.3,86.7,96.4,86.3z"/>
				<path class="st25" d="M98.1,85.1c-0.2,0.8-0.3,1.7-0.1,2.5c0.1,0.4,0.2,0.8,0.4,1.1c0.1,0.2,0.2,0.4,0.3,0.6
					c0.1,0.2,0.3,0.3,0.4,0.5c-0.2-0.1-0.4-0.2-0.6-0.4c-0.2-0.1-0.3-0.3-0.4-0.5c-0.6-0.7-0.8-1.7-0.6-2.6
					C97.6,85.8,97.8,85.4,98.1,85.1z"/>
				<path class="st24" d="M112.9,83c-0.8-0.6-1.7-1-2.6-1.2c-3.3-0.6-6.6-1-10-1.1c-1,0-2.1,0.1-3.1,0.3c-2.7,0.8-5,2.5-6.6,4.9
					c-0.5,0.9-1.1,1.7-1.8,2.4c0,0,0.2,0.2,1.1-0.3c-0.9,1.5-1.5,3.2-1.8,4.9c-0.1,3,1,6.3,1.4,7.7c0.5-0.1,1-0.1,1.5-0.1
					c0.6,0,1.2,0.4,1.6,0.9c-0.3-2.1-0.9-6.9-0.2-8.6c1.8,0,3.8,0.3,6.4-2.5c0.1-0.1,0.2-0.2,0.3-0.4l0,0c0.3-0.4,0.6-0.8,0.9-1.2
					c3,0,5.5,0,7.3,0h0.6h2.6h0.3l0.1,0.2l0,0c0.6-0.6,1-1.4,1.4-2.2C112.8,85.4,113,84.2,112.9,83L112.9,83z"/>
				<path class="st26" d="M112.9,83c0.1,1.2-0.2,2.5-0.7,3.6c-0.3,0.8-0.8,1.5-1.4,2.2l0,0c-0.3,0.3-0.6,0.6-0.9,0.8
					c-1,0.8-2.1,1.3-3.4,1.6c-0.6,0.1-1.2,0.2-1.8,0.2h-0.9l-0.9-0.1h0.9l0.9-0.1c0.6-0.1,1.2-0.2,1.8-0.3c1.2-0.3,2.2-0.8,3.2-1.6
					c0.2-0.2,0.5-0.4,0.7-0.6c0.6-0.6,1.1-1.4,1.5-2.2c0.3-0.5,0.5-1.1,0.6-1.7c0.1-0.3,0.2-0.7,0.2-1
					C112.9,83.5,112.9,83.3,112.9,83z"/>
				<path class="st26" d="M109.6,85c-0.4,1.8-1.3,3.4-2.7,4.6c-0.7,0.6-1.5,1.1-2.4,1.4c-0.9,0.3-1.8,0.3-2.7,0.2l0.7-0.1
					c0.2,0,0.4-0.1,0.7-0.1l0.6-0.2l0.6-0.2c0.8-0.3,1.5-0.8,2.2-1.4c0.6-0.6,1.2-1.3,1.7-2C108.8,86.6,109.3,85.8,109.6,85z"/>
				<path class="st27" d="M126.2,26.2c0,0,0.2,0.5,1.2,2.8l0,0c0.1,0.3,0.3,0.7,0.5,1l2.4,5.2c-3.9,11.8-12.5,13.9-18.8,13.6
					c-2.6-0.1-5.3-0.6-7.7-1.5l-2.3-4.5l0,0L99.6,39l18.8-9l7.4-3.6L126.2,26.2z"/>
				<path class="st28" d="M125.8,26.4c0.7,0.8,1.2,1.7,1.6,2.6l0,0c0.2,0.3,0.3,0.7,0.5,1c-7.1,16.5-26.4,12.8-26.4,12.8l0,0
					L99.6,39L125.8,26.4z"/>
				<path class="st18" d="M126.2,26.2c0,0,0.2,0.5,1.2,2.8l0,0c0.1,0.3,0.3,0.7,0.5,1l2.4,5.2c-3.9,11.8-12.5,13.9-18.8,13.6
					c8.3-2.5,4.3-10.8,4.3-10.8s1.2-4,2.5-8.1l7.4-3.6L126.2,26.2z"/>
				<polygon class="st27" points="137.9,16.6 115.8,38.1 96.1,39.3 84.4,39.9 106.7,17.7 				"/>
				<path class="st18" d="M137.9,16.6l-22.1,21.5l-19.8,1.1c29.2-9.2,10.6-21.6,10.6-21.6L137.9,16.6z"/>
				<polyline class="st29" points="110.9,27.1 97.1,39.5 95.3,42.9 				"/>
				<path class="st30" d="M94.2,44.5l-6,8.8c-0.3,0.5-0.2,1.1,0.3,1.4c0,0,0.1,0,0.1,0.1l1.5,0.6c0.5,0.2,1.1-0.1,1.3-0.6l3.8-11.1
					l-0.8,0.7C94.3,44.4,94.2,44.5,94.2,44.5z"/>
				<g class="st31">
					<path class="st32" d="M89.4,55.1c0.8-1.8,1.7-3.5,2.5-5.3c0.4-0.8,0.8-1.7,1.2-2.5c0.6-1.1,1.2-2.3,1.7-3.4l0.2,0.1l0.2,0.1
						l0,0l-0.5,0.7l0,0L93.4,47l-0.2,0.3c-0.6,0.8-1.1,1.7-1.7,2.5l-1.9,2.8l-1.3,1.9l-0.1-0.1c0.4-0.7,0.8-1.3,1.2-2l1.8-2.9
						c0.6-1,1.2-1.9,1.8-2.9l1.8-2.9l0.2,0.1l0.2,0.1l0,0l0,0l-0.7,1.2l0,0c-0.8,1.5-1.6,3-2.4,4.5C91.3,51.6,90.4,53.3,89.4,55.1
						L89.4,55.1z"/>
				</g>
				<path class="st20" d="M95.4,42.4c0.7,0.1,1.1,0.7,1,1.4c0,0,0,0,0,0c-0.1,0.7-0.8,1.1-1.5,1c0,0,0,0,0,0c-0.7-0.1-1.1-0.7-1-1.4
					c0,0,0,0,0,0C94.1,42.7,94.7,42.3,95.4,42.4C95.4,42.4,95.4,42.4,95.4,42.4z"/>
				<path class="st33" d="M95.4,42.4c0.7,0.1,1.1,0.7,1,1.4c0,0,0,0,0,0c-0.1,0.7-0.8,1.1-1.5,1c0,0,0,0,0,0c-0.7-0.1-1.1-0.7-1-1.4
					c0,0,0,0,0,0C94.1,42.7,94.7,42.3,95.4,42.4C95.4,42.4,95.4,42.4,95.4,42.4z"/>
				<path class="st34" d="M110.9,26.1c0.8,0,1.5,0.5,1.5,1s-0.6,1-1.4,1s-1.5-0.5-1.5-1S110.1,26.1,110.9,26.1z"/>
				<path class="st19" d="M107.4,152.5c-0.1,9.8-0.2,19.5,0,29.3c0.1,9.3,0.9,18.6,2.3,27.8c0.8,5.2,2,10.4,3.6,15.4
					c0.2,0.6,0.9,0.1,0.7-0.4c-2.7-8.9-4.3-18.1-5-27.4c-0.8-9.4-0.9-18.7-0.9-28.1c0-5.6,0-11.2,0.1-16.7
					C108.2,151.8,107.4,152,107.4,152.5L107.4,152.5z"/>
				<path class="st18" d="M53.4,102c-0.7,2.1-1.2,4.3-1.8,6.4c-0.2,0.6-0.4,1.2-0.6,1.8c-0.3,0.7-0.8,1.5-1.5,1.7
					c-2.7,0.7-3.8-0.6-3.9-0.8c0.1,0.3,0.7,1.1,0.9,1.3c0.9,1.4,1.9,2.7,3,3.8c1.8,1.9,3.8,3.6,6,5c6.9,4.4,23.1,21.2,24.7,25.4
					c2.9,7.7,2.9,16,1.6,23.9c-1.4,15.4-4.2,50.2-1.6,66.2c0,0,1.3,0.2,2.3,0.3s2.1,0.2,3.5,0.3c-1-4.3-2.2-11.1-3.4-21.4
					c-2.6-21.1,8.6-56.9,4.2-71.6s-26.2-25.6-30.3-32.3s0.1-15.6,0.1-15.6C55.2,98.2,54.2,100,53.4,102z"/>
				<path class="st35" d="M102.2,116.4c0,0,4.6,1,7.8-1.3"/>
				<path class="st11" d="M120.1,99.6c-0.5-0.6-1.3-0.9-2-0.6c-0.8,0.3-1.3,0.9-1.5,1.7c-0.1,0.4-0.1,0.9,0.1,1.3
					c0.2,0.3,0.6,0.5,1,0.4c0.4-0.2,0.7-0.5,0.8-0.9c0-0.3-0.2-0.5-0.4-0.6c-0.1,0-0.2,0-0.2,0c-0.4,0.1-0.8,0.5-0.9,0.9
					c-0.2,0.5-0.2,1.1-0.1,1.6c0,0.3,0.3,0.2,0.3,0c-0.1-0.6,0-1.3,0.4-1.8c0.1-0.1,0.2-0.2,0.3-0.2c0.1,0,0.3,0,0.3,0.1
					s-0.2,0.3-0.3,0.3c-0.1,0.1-0.3,0.2-0.5,0.2c-0.3-0.1-0.6-0.3-0.6-0.7c0-0.3,0-0.6,0.2-0.9c0.2-0.5,0.7-0.9,1.2-1.1
					c0.6-0.2,1.2,0.1,1.6,0.6C120,100.2,120.2,99.8,120.1,99.6L120.1,99.6z"/>
				<path class="st11" d="M88.5,103.6c0.2-0.5,0.6-0.9,1.2-1c0.6-0.1,1.2,0.1,1.6,0.6c0.3,0.3,0.9,1.2,0.3,1.5
					c-0.3,0.1-0.6,0-0.9-0.2c-0.1-0.1-0.2-0.1-0.1-0.2c0.1,0,0.2,0,0.4,0c0.8,0.2,1.1,1,1.3,1.7c0.1,0.3,0.4,0.1,0.3-0.2
					c-0.2-0.8-0.6-1.9-1.6-2c-0.4-0.1-0.7,0.2-0.8,0.5c0,0,0,0,0,0c0,0.4,0.3,0.6,0.6,0.8c0.4,0.2,0.8,0.1,1.1-0.2
					c0.2-0.3,0.3-0.8,0.1-1.2c-0.3-0.8-1-1.4-1.9-1.6c-0.9-0.1-1.8,0.5-2,1.4C88.1,103.8,88.4,103.9,88.5,103.6z"/>
				<path class="st11" d="M53.1,67.5c-0.8-1.2-1.3-2.6-1.5-4c0-0.1-0.1-0.2-0.2-0.2c0,0,0,0,0,0c-0.1,0.1-0.2,0.2-0.1,0.3
					c0.2,1.5,0.8,2.9,1.6,4.2c0.1,0.1,0.2,0,0.3,0C53.2,67.8,53.2,67.6,53.1,67.5z"/>
				<path class="st11" d="M55,66.4c-0.7-1.1-1.1-2.4-1.1-3.8c0-0.3-0.4-0.2-0.4,0c0,1.4,0.4,2.8,1.2,4C54.8,66.9,55.1,66.6,55,66.4
					L55,66.4z"/>
				<path class="st11" d="M56.5,65.5c0-1.4-0.4-2.8-1-4.1c-0.1-0.3-0.4,0.1-0.3,0.3c0.6,1.2,0.9,2.5,0.9,3.8
					C56.1,65.9,56.5,65.8,56.5,65.5L56.5,65.5z"/>
			</g>
		</g>
	</g>
</g>
</svg>
