<?xml version="1.0" encoding="utf-8"?>
<!-- Generator: Adobe Illustrator 24.0.0, SVG Export Plug-In . SVG Version: 6.00 Build 0)  -->
<svg version="1.1" id="Layer_1" xmlns="http://www.w3.org/2000/svg" xmlns:xlink="http://www.w3.org/1999/xlink" x="0px" y="0px"
	 viewBox="0 0 212 212" style="enable-background:new 0 0 212 212;" xml:space="preserve">
<style type="text/css">
	.st0{fill:#009B57;}
	.st1{clip-path:url(#SVGID_2_);}
	.st2{fill:#006838;}
	.st3{clip-path:url(#SVGID_4_);}
	.st4{fill:#FFFFFF;}
	.st5{fill:#F7941D;}
	.st6{fill:#FFCC2C;}
	.st7{fill:#ACD258;}
	.st8{fill:#56BB69;}
	.st9{fill:#28BCB1;}
	.st10{fill:#3299A2;}
	.st11{fill:#F7931E;}
	.st12{fill:#F26B36;}
	.st13{fill:#F2708D;}
	.st14{fill:#EB3E52;}
	.st15{fill:#E8F6FA;}
	.st16{fill:#78BEE9;}
	.st17{fill:#FFC546;}
	.st18{fill:#633870;}
	.st19{fill:#9469AD;}
	.st20{fill:#93CB6C;}
	.st21{fill:#C0E7F2;}
	.st22{fill:#97D9F0;}
	.st23{fill:#12727A;}
</style>
<title>Artboard 6</title>
<rect class="st0" width="212" height="212"/>
<g>
	<defs>
		<rect id="SVGID_1_" width="212" height="212"/>
	</defs>
	<clipPath id="SVGID_2_">
		<use xlink:href="#SVGID_1_"  style="overflow:visible;"/>
	</clipPath>
	<g class="st1">
		<circle class="st2" cx="106" cy="201.4" r="106.6"/>
	</g>
</g>
<g>
	<defs>
		<rect id="SVGID_3_" width="212" height="212"/>
	</defs>
	<clipPath id="SVGID_4_">
		<use xlink:href="#SVGID_3_"  style="overflow:visible;"/>
	</clipPath>
	<g class="st3">
		<path class="st4" d="M160,90.4c0-6.3-4.3-11.8-10.4-13.4c7.8-9.4,6.6-23.3-2.7-31.1c-5.7-4.8-13.5-6.4-20.7-4.2
			c-2.5-20.4-21-34.9-41.4-32.4s-34.9,21-32.4,41.4s21,34.9,41.4,32.4c7.4-0.9,14.3-4,19.9-8.9c4,6.7,11.2,10.7,18.9,10.8
			c0.3,0,0.6,0,0.8,0c-2.3,5.2-1.1,11.2,2.9,15.2c-4.7,2-6.8,7.4-4.8,12.1s7.4,6.8,12.1,4.8c3.4-1.5,5.6-4.8,5.6-8.4
			c0-1.6-0.4-3.2-1.2-4.6C154.9,103.1,160,97.3,160,90.4z"/>
		<path class="st5" d="M156,119.9c0,0-2.7,6-2.7,18.2c0,7.8,8.1,44.3,8.1,44.3h-43.8c0,0,8-36.5,8-44.3c0-12.2-2.8-18.2-2.8-18.2
			H156z"/>
		<path class="st6" d="M131.9,126.6c0-2.3,0.1-4.5,0.3-6.7h-9.4c0,0,2.8,6,2.8,18.2c0,7.8-8,44.3-8,44.3H160
			C142.3,169.3,131.9,148.6,131.9,126.6z"/>
		<path class="st5" d="M161.3,117.7c0,3.1-2.5,5.6-5.6,5.6h-33.1c-3.1,0-5.6-2.5-5.6-5.6l0,0c0-3.1,2.5-5.6,5.6-5.6h33.1
			C158.8,112.1,161.3,114.6,161.3,117.7L161.3,117.7z"/>
		<path class="st6" d="M130.4,117.7c0-3.1,2.5-5.6,5.6-5.6h-13.5c-3.1-0.1-5.7,2.3-5.9,5.4c-0.1,3.1,2.3,5.7,5.4,5.9
			c0.2,0,0.3,0,0.5,0H136C132.9,123.3,130.4,120.8,130.4,117.7z"/>
		<path class="st7" d="M134.9,146.9c0,0-2.5,6.9-1.1,10.5s6.3,2.7,6.3,2.7L134.9,146.9z"/>
		<path class="st8" d="M134.9,146.9c0,0,6.5,3.4,7.9,6.9s-2.8,6.2-2.8,6.2L134.9,146.9z"/>
		<path class="st7" d="M138.3,155.4l2.4-4.5l-0.4-0.4l-2.3,4.2L138.3,155.4z"/>
		<path class="st8" d="M137,152.2l-3.2-1.1c0,0.2-0.1,0.3-0.1,0.5l3.6,1.3L137,152.2z"/>
		<path class="st8" d="M139,157.3l-5.6-1.6c0,0.2,0.1,0.4,0.1,0.6l5.7,1.6L139,157.3z"/>
		<path class="st7" d="M145.3,149.8c0,0-4,2.2-4.9,4.4s1.8,3.9,1.8,3.9L145.3,149.8z"/>
		<path class="st8" d="M145.3,149.8c0,0,1.6,4.3,0.8,6.5s-3.9,1.7-3.9,1.7L145.3,149.8z"/>
		<path class="st7" d="M143.3,155.1l3-1c0-0.1,0-0.2,0-0.3l-2.8,1L143.3,155.1z"/>
		<path class="st8" d="M144,153.1l-1-1.9l-0.3,0.2l1.1,2.1L144,153.1z"/>
		<path class="st8" d="M142.8,156.3l-1.9-3.1l-0.2,0.3l2,3.1L142.8,156.3z"/>
		<path class="st4" d="M113.3,90.4c0-6.3-4.3-11.8-10.4-13.4c7.8-9.4,6.6-23.3-2.7-31.1c-5.7-4.8-13.5-6.4-20.7-4.2
			c-2.5-20.4-21-34.9-41.4-32.4S3.2,30.2,5.7,50.6s21,34.9,41.4,32.4c7.4-0.9,14.3-4,19.9-8.9c4,6.7,11.2,10.7,18.9,10.8
			c0.3,0,0.6,0,0.8,0c-2.3,5.2-1.1,11.2,2.9,15.2c-4.7,2-6.8,7.4-4.8,12.1c2,4.7,7.4,6.8,12.1,4.8c4.7-2,6.8-7.4,4.8-12.1
			c-0.1-0.3-0.3-0.6-0.5-0.9C108.2,103.1,113.3,97.3,113.3,90.4z"/>
		<path class="st5" d="M109.3,119.9c0,0-2.8,6-2.8,18.2c0,7.8,8,44.3,8,44.3H70.9c0,0,8-36.5,8-44.3c0-12.2-2.7-18.2-2.7-18.2H109.3
			z"/>
		<path class="st6" d="M85.2,126.6c0-2.3,0.1-4.5,0.3-6.7h-9.4c0,0,2.7,6,2.7,18.2c0,7.8-8,44.3-8,44.3h42.4
			C95.6,169.3,85.2,148.6,85.2,126.6z"/>
		<path class="st5" d="M114.6,117.7c0,3.1-2.5,5.6-5.6,5.6h0H75.9c-3.1,0-5.6-2.5-5.6-5.6v0l0,0c0-3.1,2.5-5.6,5.6-5.6H109
			C112.1,112.1,114.6,114.6,114.6,117.7L114.6,117.7z"/>
		<path class="st6" d="M83.8,117.7c0-3.1,2.5-5.6,5.6-5.6H75.9c-3.1,0.1-5.5,2.8-5.4,5.9c0.1,2.9,2.5,5.3,5.4,5.4h13.5
			C86.3,123.3,83.8,120.8,83.8,117.7z"/>
		<path class="st7" d="M88.4,146.9c0,0-2.4,6.9-1.1,10.5s6.3,2.7,6.3,2.7L88.4,146.9z"/>
		<path class="st8" d="M88.4,146.9c0,0,6.5,3.4,7.9,6.9s-2.8,6.2-2.8,6.2L88.4,146.9z"/>
		<path class="st7" d="M91.8,155.4l2.4-4.5l-0.4-0.4l-2.3,4.2L91.8,155.4z"/>
		<path class="st8" d="M90.6,152.2l-3.2-1.1c0,0.2-0.1,0.3-0.1,0.5l3.6,1.3L90.6,152.2z"/>
		<path class="st8" d="M92.6,157.3l-5.6-1.6c0,0.2,0,0.4,0.1,0.6l5.7,1.6L92.6,157.3z"/>
		<path class="st7" d="M98.8,149.8c0,0-4,2.2-4.9,4.4s1.8,3.8,1.8,3.8L98.8,149.8z"/>
		<path class="st8" d="M98.8,149.8c0,0,1.6,4.3,0.8,6.5s-3.9,1.7-3.9,1.7L98.8,149.8z"/>
		<path class="st7" d="M96.8,155.1l3-1v-0.3l-2.8,1L96.8,155.1z"/>
		<path class="st8" d="M97.6,153.1l-1-1.9l-0.3,0.2l1.1,2.1L97.6,153.1z"/>
		<path class="st8" d="M96.3,156.3l-1.9-3.1c-0.1,0.1-0.1,0.2-0.2,0.3l2,3.1L96.3,156.3z"/>
		<path class="st8" d="M211.5,216.6c0-27.6-22.4-50-50.1-50c-13.5,0-26.5,5.5-35.9,15.2c-33.6-20.2-75.7-20-109.2,0.3
			c-16.5-10.1-35.5-15.4-54.9-15.3c-19.1,0-37.9,5.1-54.3,15c-9.4-9.8-22.4-15.3-36-15.2c-27.7,0-50.1,22.4-50.1,50c0,0,0,0,0,0.1
			c0,21.9,14.2,41.2,35,47.8c-0.2,2.6-0.3,5.3-0.3,8c0,2.3,0.1,4.6,0.2,6.9h320.7c0.1-2.3,0.2-4.6,0.2-6.9c0-2.7-0.1-5.4-0.3-8
			C197.4,257.8,211.5,238.5,211.5,216.6z"/>
		<circle class="st9" cx="168" cy="158.3" r="5.2"/>
		<path class="st10" d="M168,153.1c2.9,0,5.2,2.3,5.2,5.2c0,2.9-2.3,5.2-5.2,5.2c0,0,0,0,0,0l0,0V153.1z"/>
		<path class="st11" d="M164.4,159.2c0,0,0.1,0,0.1,0l3.3,3.3v-2.6l-1.7-1.8c0,0,0-0.1,0-0.1c0,0,0,0,0,0c0,0,0.1,0,0.1,0l1.6,1.6
			v-1.4c0-0.1,0.1-0.2,0.2-0.2c0.1,0,0.2,0.1,0.2,0.2v1.4l1.6-1.6c0,0,0.1,0,0.1,0c0,0,0,0.1,0,0.1c0,0,0,0,0,0l-1.7,1.7v2.6
			l3.3-3.3c0,0,0.1,0,0.1,0c0,0,0,0.1,0,0.1c0,0,0,0,0,0l-3.4,3.4v5.9c0,0.1-0.1,0.2-0.2,0.2c0,0,0,0,0,0c-0.1,0-0.2-0.1-0.2-0.2
			l0,0v-5.9l-3.4-3.4C164.4,159.3,164.4,159.2,164.4,159.2C164.4,159.2,164.4,159.2,164.4,159.2z"/>
		<path class="st9" d="M154.4,157.7c-0.1,2.8,2.1,5.2,4.9,5.3s5.2-2.1,5.3-4.9c0-0.2,0-0.3,0-0.5c0-2.9-2.3-12.2-5.1-12.2
			S154.4,154.9,154.4,157.7z"/>
		<path class="st10" d="M164.6,157.7c0,2.8-2.3,5.1-5.1,5.2v-17.4C162.4,145.6,164.6,154.9,164.6,157.7z"/>
		<path class="st11" d="M156.3,155.7c0,0,0.1,0,0.1,0l3,3v-2.3l-1.6-1.6c0,0,0-0.1,0-0.1c0,0,0.1,0,0.1,0l1.5,1.5v-1.2
			c0-0.1,0.1-0.2,0.2-0.2c0.1,0,0.2,0.1,0.2,0.2v1.2l1.4-1.5c0,0,0.1,0,0.1,0s0,0.1,0,0.1l-1.6,1.6v2.3l2.9-3c0,0,0.1,0,0.1,0
			c0,0,0,0.1,0,0.1l-3,3.1v9.4c0,0.1-0.1,0.2-0.2,0.2c-0.1,0-0.2-0.1-0.2-0.2v-9.4l-3.1-3.1C156.4,155.8,156.3,155.8,156.3,155.7
			C156.3,155.7,156.3,155.7,156.3,155.7z"/>
		<rect x="39.6" y="150.6" class="st12" width="16.6" height="56.2"/>
		<rect x="27.9" y="150.6" class="st11" width="11.7" height="56.2"/>
		<path class="st13" d="M56.6,150.6c0-4.8-3.9-8.6-8.6-8.6H36.4c-4.8,0-8.6,3.9-8.6,8.6H56.6z"/>
		<path class="st14" d="M39.3,150.6c0-4.8,3.9-8.6,8.6-8.6c4.8,0,8.6,3.9,8.6,8.6H39.3z"/>
		<rect x="30.3" y="160.1" class="st15" width="2.3" height="3.4"/>
		<rect x="34.3" y="160.1" class="st15" width="2.3" height="3.4"/>
		<rect x="30.3" y="165.1" class="st15" width="2.3" height="3.4"/>
		<rect x="34.3" y="165.1" class="st15" width="2.3" height="3.4"/>
		<rect x="30.3" y="170.2" class="st15" width="2.3" height="3.4"/>
		<rect x="34.3" y="170.2" class="st15" width="2.3" height="3.4"/>
		<rect x="44.7" y="159.9" class="st16" width="2.4" height="3.4"/>
		<rect x="48.7" y="159.9" class="st16" width="2.4" height="3.4"/>
		<rect x="44.7" y="164.9" class="st16" width="2.4" height="3.4"/>
		<rect x="48.7" y="164.9" class="st16" width="2.4" height="3.4"/>
		<rect x="44.7" y="170" class="st16" width="2.4" height="3.4"/>
		<rect x="48.7" y="170" class="st16" width="2.4" height="3.4"/>
		<rect x="44.7" y="184.1" class="st16" width="2.4" height="3.4"/>
		<rect x="48.7" y="184.1" class="st16" width="2.4" height="3.4"/>
		<rect x="44.7" y="189.1" class="st16" width="2.4" height="3.4"/>
		<rect x="48.7" y="189.1" class="st16" width="2.4" height="3.4"/>
		<rect x="44.7" y="194.2" class="st16" width="2.4" height="3.4"/>
		<rect x="48.7" y="194.2" class="st16" width="2.4" height="3.4"/>
		<polygon class="st11" points="39.6,206.8 16.2,206.8 16.2,194.1 27.9,180.2 39.6,180.2 		"/>
		<rect x="31.7" y="191.7" class="st16" width="2.3" height="3.4"/>
		<rect x="35.7" y="191.7" class="st16" width="2.4" height="3.4"/>
		<rect x="31.7" y="196.7" class="st16" width="2.3" height="3.4"/>
		<rect x="35.7" y="196.7" class="st16" width="2.4" height="3.4"/>
		<rect x="31.7" y="201.7" class="st16" width="2.3" height="3.4"/>
		<rect x="35.7" y="201.7" class="st16" width="2.4" height="3.4"/>
		<polygon class="st17" points="16.2,194.1 16.2,206.8 27.9,206.8 27.9,180.2 		"/>
		<polygon class="st15" points="27.9,194.4 15.3,194.4 27.9,180.2 39.6,180.2 		"/>
		<polygon class="st16" points="27.9,192.8 18.1,192.8 27.9,181.6 37.4,181.6 		"/>
		<path class="st15" d="M28.9,190.9l0.5-0.6h-1.5l1.4-1.6h1.5l0.5-0.6h-1.4l1.4-1.6h1.4l0.5-0.6h-1.3l1.4-1.6h1.3l0.5-0.6h-1.2
			l1.2-1.4h-0.8l-1.2,1.4h-1.6l1.2-1.4h-0.8l-1.2,1.4h-1.6l1.2-1.4h-0.8l-1.2,1.4h-1.4l-0.5,0.6h1.4l-1.4,1.6h-1.4l-0.5,0.6h1.3
			l-1.4,1.6H23l-0.5,0.6h1.2l-1.4,1.6h-1.1l-0.5,0.6h1.1l-1,1.1h0.8l1-1.1h1.6l-1,1.1H24l1-1.1h1.6l-1,1.1h0.8l1-1.1H28.9z
			 M29,188.1h-1.6l1.4-1.6h1.6L29,188.1z M30.8,184.3h1.6l-1.4,1.6h-1.6L30.8,184.3z M28.4,184.3H30l-1.4,1.6H27L28.4,184.3z
			 M26.5,186.5h1.6l-1.4,1.6h-1.6L26.5,186.5z M24.7,190.3h-1.6l1.4-1.6h1.6L24.7,190.3z M25.5,190.3l1.4-1.6h1.6l-1.4,1.6H25.5z"/>
		<path class="st18" d="M24.5,206.8v-6.7c0-1.3-1.1-2.4-2.4-2.4l0,0c-1.3,0-2.4,1.1-2.4,2.4v6.7H24.5z"/>
		<path class="st18" d="M83,214.9V164c0-7.9-6.4-14.2-14.2-14.2c0,0,0,0,0,0l0,0c-7.9,0-14.2,6.4-14.2,14.2v50.9H83z"/>
		<path class="st19" d="M61.7,151.6c4.4,2.5,7.1,7.3,7.1,12.4v50.9H54.5V164C54.5,158.9,57.3,154.2,61.7,151.6z"/>
		<path class="st15" d="M57.9,163.4H60c0.5,0,1,0.4,1,1v1c0,0.5-0.4,1-1,1h-2.1c-0.5,0-1-0.4-1-1v-1C57,163.8,57.4,163.4,57.9,163.4
			z"/>
		<path class="st15" d="M64.4,163.4h2.1c0.5,0,1,0.4,1,1v1c0,0.5-0.4,1-1,1h-2.1c-0.5,0-1-0.4-1-1v-1
			C63.4,163.8,63.8,163.4,64.4,163.4z"/>
		<path class="st15" d="M57.9,171.4H60c0.5,0,1,0.4,1,1v1c0,0.5-0.4,1-1,1h-2.1c-0.5,0-1-0.4-1-1v-1C57,171.8,57.4,171.4,57.9,171.4
			z"/>
		<path class="st15" d="M64.4,171.4h2.1c0.5,0,1,0.4,1,1v1c0,0.5-0.4,1-1,1h-2.1c-0.5,0-1-0.4-1-1v-1
			C63.4,171.8,63.8,171.4,64.4,171.4z"/>
		<path class="st15" d="M57.9,179.4H60c0.5,0,1,0.4,1,1v1c0,0.5-0.4,1-1,1h-2.1c-0.5,0-1-0.4-1-1v-1C57,179.8,57.4,179.4,57.9,179.4
			z"/>
		<path class="st15" d="M64.4,179.4h2.1c0.5,0,1,0.4,1,1v1c0,0.5-0.4,1-1,1h-2.1c-0.5,0-1-0.4-1-1v-1
			C63.4,179.8,63.8,179.4,64.4,179.4z"/>
		<path class="st15" d="M57.9,187.4H60c0.5,0,1,0.4,1,1v1c0,0.5-0.4,1-1,1h-2.1c-0.5,0-1-0.4-1-1v-1C57,187.9,57.4,187.4,57.9,187.4
			z"/>
		<path class="st15" d="M64.4,187.4h2.1c0.5,0,1,0.4,1,1v1c0,0.5-0.4,1-1,1h-2.1c-0.5,0-1-0.4-1-1v-1
			C63.4,187.9,63.8,187.4,64.4,187.4z"/>
		<path class="st15" d="M57.9,195.5H60c0.5,0,1,0.4,1,1v1c0,0.5-0.4,1-1,1h-2.1c-0.5,0-1-0.4-1-1v-1C57,195.9,57.4,195.5,57.9,195.5
			z"/>
		<path class="st15" d="M64.4,195.5h2.1c0.5,0,1,0.4,1,1v1c0,0.5-0.4,1-1,1h-2.1c-0.5,0-1-0.4-1-1v-1
			C63.4,195.9,63.8,195.5,64.4,195.5z"/>
		<path class="st16" d="M71.8,163.4h2.1c0.5,0,1,0.4,1,1v1c0,0.5-0.4,1-1,1h-2.1c-0.5,0-1-0.4-1-1v-1
			C70.8,163.8,71.2,163.4,71.8,163.4z"/>
		<path class="st16" d="M78.2,163.4h2.1c0.5,0,1,0.4,1,1v1c0,0.5-0.4,1-1,1h-2.1c-0.5,0-1-0.4-1-1v-1
			C77.2,163.8,77.7,163.4,78.2,163.4z"/>
		<path class="st16" d="M71.8,171.4h2.1c0.5,0,1,0.4,1,1v1c0,0.5-0.4,1-1,1h-2.1c-0.5,0-1-0.4-1-1v-1
			C70.8,171.8,71.2,171.4,71.8,171.4z"/>
		<path class="st16" d="M78.2,171.4h2.1c0.5,0,1,0.4,1,1v1c0,0.5-0.4,1-1,1h-2.1c-0.5,0-1-0.4-1-1v-1
			C77.2,171.8,77.7,171.4,78.2,171.4z"/>
		<path class="st16" d="M71.8,179.4h2.1c0.5,0,1,0.4,1,1v1c0,0.5-0.4,1-1,1h-2.1c-0.5,0-1-0.4-1-1v-1
			C70.8,179.8,71.2,179.4,71.8,179.4z"/>
		<path class="st16" d="M78.2,179.4h2.1c0.5,0,1,0.4,1,1v1c0,0.5-0.4,1-1,1h-2.1c-0.5,0-1-0.4-1-1v-1
			C77.2,179.8,77.7,179.4,78.2,179.4z"/>
		<path class="st16" d="M71.8,187.4h2.1c0.5,0,1,0.4,1,1v1c0,0.5-0.4,1-1,1h-2.1c-0.5,0-1-0.4-1-1v-1
			C70.8,187.9,71.2,187.4,71.8,187.4z"/>
		<path class="st16" d="M78.2,187.4h2.1c0.5,0,1,0.4,1,1v1c0,0.5-0.4,1-1,1h-2.1c-0.5,0-1-0.4-1-1v-1
			C77.2,187.9,77.7,187.4,78.2,187.4z"/>
		<path class="st16" d="M71.8,195.5h2.1c0.5,0,1,0.4,1,1v1c0,0.5-0.4,1-1,1h-2.1c-0.5,0-1-0.4-1-1v-1
			C70.8,195.9,71.2,195.5,71.8,195.5z"/>
		<path class="st16" d="M78.2,195.5h2.1c0.5,0,1,0.4,1,1v1c0,0.5-0.4,1-1,1h-2.1c-0.5,0-1-0.4-1-1v-1
			C77.2,195.9,77.7,195.5,78.2,195.5z"/>
		<path class="st18" d="M59.2,214.9v-11.1c0-1.3,1.1-2.4,2.4-2.4l0,0c1.3,0,2.4,1.1,2.4,2.4v11.1H59.2z"/>
		<path class="st20" d="M146.5,190c-35.8,0-69.5,17.1-90.6,46c-18.2-10.5-38.9-16-60-16c-25.7,0-50.6,8.2-71.3,23.4
			c-11.5-29-39.6-48-70.8-48c-42,0-76.1,34.1-76.1,76.1c0,2.6,0.1,5.2,0.4,7.8h478.3C245.6,227.3,199.7,190,146.5,190z"/>
		<path class="st21" d="M165.1,269.1c0-36.6-29.7-66.3-66.3-66.3l0,0c-1.6,0-3.2,0.1-4.7,0.2c-3.5,1.9-6.9,3.9-10.2,6.1
			c29.3,3.3,50.4,29.8,47,59.2c-0.4,3.8-1.3,7.5-2.5,11.1l-4.9,11.3l39.4,0.9l0.6-3.5l0.8-8.7C164.9,275.9,165.1,272.5,165.1,269.1z
			"/>
		<path class="st22" d="M164.6,277.4c0.4-2.8,0.5-5.6,0.5-8.3c0-36.6-29.7-66.3-66.3-66.3l0,0c-1.6,0-3.2,0.1-4.7,0.2
			c-3.5,1.9-6.9,3.9-10.2,6.1c7.3,0.8,14.3,3.2,20.7,6.8C136.2,220.6,160.7,245.8,164.6,277.4z"/>
		<path class="st10" d="M180.1,185.5c-0.2,5.1,3.9,9.4,9,9.6c5.1,0.2,9.4-3.9,9.6-9c0-0.2,0-0.4,0-0.6c0-5.1-4.2-21.9-9.3-21.9
			S180.1,180.3,180.1,185.5z"/>
		<path class="st23" d="M198.7,185.5c0,5.1-4.1,9.3-9.3,9.3v-31.2C194.5,163.6,198.7,180.3,198.7,185.5z"/>
		<path class="st12" d="M183.1,187.6c0-0.1,0.1-0.1,0.2,0c0,0,0,0,0,0l5.3,5.3v-3.6l-1.8-1.8c-0.1-0.1-0.1-0.1,0-0.2s0.1-0.1,0.2,0
			l1.6,1.6v-7.5l-2.9-2.9c-0.1-0.1-0.1-0.1,0-0.2s0.1-0.1,0.2,0l2.7,2.7v-0.2c0.1-0.5,0.5-0.8,0.9-0.7c0.4,0,0.7,0.4,0.7,0.7v4.2
			l2.3-2.3c0.1-0.1,0.2-0.1,0.2,0c0.1,0.1,0.1,0.1,0,0.2l-2.5,2.5v6.6l5.5-5.5c0.1-0.1,0.1-0.1,0.2,0s0.1,0.1,0,0.2l-5.7,5.7v9.6
			c0.1,0.5-0.3,0.9-0.7,0.9c-0.5,0.1-0.9-0.3-0.9-0.7c0-0.1,0-0.1,0-0.2v-8.8l-5.5-5.5C183.1,187.7,183.1,187.6,183.1,187.6z"/>
		<path class="st10" d="M196,189.8c0,6.6,5.3,11.9,11.9,11.9s11.9-5.3,11.9-11.9c0-6.6-5.3-11.9-11.9-11.9c0,0,0,0,0,0
			C201.3,177.9,196,183.2,196,189.8C196,189.8,196,189.8,196,189.8z"/>
		<path class="st23" d="M207.9,177.9c6.6-0.2,12,5,12.2,11.5s-5,12-11.5,12.2c-0.2,0-0.5,0-0.7,0l0,0V177.9z"/>
		<path class="st12" d="M199.6,191.8c0.1-0.1,0.2-0.1,0.3,0c0,0,0,0,0,0l7.5,7.5v-5.9l-4-4c-0.1-0.1-0.1-0.2,0-0.3
			c0.1-0.1,0.2-0.1,0.3,0c0,0,0,0,0,0l3.7,3.7v-3.1c0-0.2,0.2-0.4,0.4-0.4l0,0c0.2,0,0.4,0.2,0.4,0.4v3.1l3.7-3.7
			c0.1-0.1,0.2-0.1,0.3,0c0.1,0.1,0.1,0.2,0,0.3l-4,4v5.9l7.5-7.5c0.1-0.1,0.2-0.1,0.3,0c0.1,0.1,0.1,0.2,0,0.3l-7.8,7.8v13.5
			c0,0.2-0.3,0.4-0.5,0.4c-0.2,0-0.3-0.2-0.4-0.4v-13.5l-7.8-7.8C199.5,192,199.6,191.8,199.6,191.8
			C199.6,191.8,199.6,191.8,199.6,191.8z"/>
		<path class="st9" d="M182.9,208.1c0,8.7,7,15.7,15.7,15.7c8.7,0,15.7-7,15.7-15.7c0-8.7-7-15.7-15.7-15.7c0,0,0,0,0,0
			C190,192.4,182.9,199.5,182.9,208.1z"/>
		<path class="st10" d="M198.7,192.4c8.7,0.2,15.5,7.4,15.3,16.1c-0.2,8.4-6.9,15.1-15.3,15.3l0,0V192.4z"/>
		<path class="st11" d="M187.8,210.8c0.1-0.1,0.3-0.1,0.4,0l9.9,10V213l-5.3-5.3c-0.1-0.1-0.1-0.3,0-0.4s0.3-0.1,0.4,0l4.9,4.9v-4.1
			c0-0.3,0.2-0.6,0.6-0.6c0,0,0,0,0,0c0.3,0,0.6,0.3,0.6,0.6l0,0v4.1l4.9-4.9c0.1-0.1,0.3-0.1,0.4,0s0.1,0.3,0,0.4l-5.2,5.3v7.8
			l9.9-9.9c0.1-0.1,0.3-0.1,0.4,0s0.1,0.3,0,0.4l-10.3,10.3v17.9c0,0.3-0.3,0.6-0.6,0.6l0,0c-0.3,0-0.6-0.3-0.6-0.6c0,0,0,0,0,0
			v-17.8l-10.3-10.3C187.7,211.1,187.7,210.9,187.8,210.8z"/>
		<path class="st9" d="M208.9,217.6c0,8.5,6.9,15.5,15.5,15.5c8.5,0,15.5-6.9,15.5-15.5c0,0,0,0,0,0c0-8.6-6.9-36.9-15.5-36.9
			S208.9,208.9,208.9,217.6z"/>
		<path class="st10" d="M96.5,181.6c0,5,4.1,9.1,9.1,9.1s9.1-4.1,9.1-9.1c0,0,0,0,0,0c0-5.1-4.1-21.8-9.1-21.8
			S96.5,176.5,96.5,181.6z"/>
		<path class="st23" d="M114.8,181.6c0,5.1-4,9.2-9.1,9.2v-31C110.7,159.9,114.8,176.5,114.8,181.6z"/>
		<path class="st12" d="M99.9,178c0.1,0,0.1,0,0.2,0l5.3,5.4v-4.2l-2.8-2.8c-0.1,0-0.1-0.1,0-0.2c0,0,0,0,0,0c0.1-0.1,0.1-0.1,0.2,0
			l2.6,2.6v-2.2c0-0.2,0.1-0.3,0.2-0.4s0.3,0.1,0.4,0.2c0,0,0,0.1,0,0.1v2.2l2.6-2.6c0.1-0.1,0.1-0.1,0.2,0s0.1,0.1,0,0.2l-2.8,2.8
			v4.2l5.2-5.3c0.1-0.1,0.1-0.1,0.2,0s0.1,0.1,0,0.2l0,0l-5.4,5.5v16.8c0,0.2-0.1,0.3-0.2,0.4s-0.3-0.1-0.4-0.2c0,0,0-0.1,0-0.1
			v-16.8l-5.5-5.6C99.8,178.1,99.8,178.1,99.9,178C99.9,178,99.9,178,99.9,178z"/>
		<path class="st10" d="M113.1,183.4c0,6.7,5.4,12.1,12.1,12.1c6.7,0,12.1-5.4,12.1-12.1c0-6.7-5.4-12.1-12.1-12.1
			C118.6,171.2,113.1,176.7,113.1,183.4C113.1,183.4,113.1,183.4,113.1,183.4z"/>
		<path class="st23" d="M137.4,183.4c0,6.7-5.4,12.1-12.1,12.1v-24.2C131.9,171.2,137.4,176.7,137.4,183.4
			C137.4,183.4,137.4,183.4,137.4,183.4z"/>
		<path class="st12" d="M121.9,187.8c0.1,0,0.1,0,0.2,0l2.4,2.4V187l-1.9-1.9c-0.1,0-0.1-0.1,0-0.2c0,0,0,0,0,0c0.1,0,0.1,0,0.2,0
			l1.8,1.8V182l-1.4-2.9c0-0.1,0-0.1,0.1-0.2c0.1,0,0.1,0,0.2,0.1l0,0l1.3,2.7c0.1-0.2,0.3-0.3,0.5-0.3c0.4,0,0.7,0.3,0.7,0.7l0,0
			v2.1l1.5-3c0-0.1,0.1-0.1,0.2-0.1c0.1,0,0.1,0.1,0.1,0.2c0,0,0,0,0,0l-1.7,3.5v5.7l4.4-4.4c0.1,0,0.1,0,0.2,0c0,0,0,0.1,0,0.1
			l-4.5,4.6v9.4c0,0.4-0.2,0.7-0.6,0.7c-0.4,0-0.7-0.2-0.7-0.6c0-0.1,0-0.1,0-0.2v-9.6l-2.6-2.6
			C121.9,187.9,121.9,187.9,121.9,187.8z"/>
	</g>
</g>
</svg>
