<?xml version="1.0" encoding="utf-8"?>
<!-- Generator: Adobe Illustrator 24.0.0, SVG Export Plug-In . SVG Version: 6.00 Build 0)  -->
<svg version="1.1" id="Layer_1" xmlns="http://www.w3.org/2000/svg" xmlns:xlink="http://www.w3.org/1999/xlink" x="0px" y="0px"
	 viewBox="0 0 212 212" style="enable-background:new 0 0 212 212;" xml:space="preserve">
<style type="text/css">
	.st0{fill:#F3F3F3;}
	.st1{fill:#011E35;}
	.st2{fill:#23B2E7;}
	.st3{clip-path:url(#SVGID_2_);}
	.st4{fill:#1B75BC;}
	.st5{opacity:0.13;fill:#231F20;enable-background:new    ;}
	.st6{fill:#FFFFFF;}
	.st7{fill:#92C43F;}
	.st8{fill:#8A5F3D;}
	.st9{fill:#7A5434;}
	.st10{fill:#B8D135;}
	.st11{fill:#FAAF43;}
	.st12{fill:#D0D2D3;}
	.st13{fill:#F68D3F;}
	.st14{fill:#424143;}
	.st15{fill:#847168;}
	.st16{opacity:9.000000e-02;}
	.st17{fill:#9A8479;}
	.st18{opacity:0.1;}
	.st19{fill:#231F20;}
	.st20{fill:#B39D94;}
	.st21{opacity:0.17;}
	.st22{fill:#C2C3C4;}
	.st23{fill:#E5E6E7;}
	.st24{fill:#CFD1D2;}
	.st25{fill:#9A9D9F;}
	.st26{fill:#5A4B43;}
	.st27{fill:#CED0D1;}
	.st28{fill:#BABCBD;}
	.st29{fill:#E5E5E6;}
	.st30{fill:#F1F1F1;}
	.st31{fill:#816F66;}
	.st32{fill:#FEC45D;}
	.st33{fill:#6F5C53;}
	.st34{fill:#AAABAD;}
	.st35{fill:#BBBDBF;}
	.st36{fill:#786860;}
	.st37{fill:#FBB040;}
	.st38{fill:#F7941D;}
	.st39{fill:#F15A29;}
	.st40{fill:#BE1E2D;}
	.st41{fill:#785232;}
	.st42{fill:#9A6A45;}
	.st43{fill:#8E613F;}
	.st44{fill:#D1CCBE;}
	.st45{fill:#E3DECE;}
</style>
<title>Artboard 7</title>
<g>
	<g id="Layer_1_1_">
		<g>
			<g>
				<ellipse class="st0" cx="60.6" cy="113.8" rx="51.3" ry="8.6"/>
				<path class="st1" d="M84.5,117.6c-15.8-0.7-22.8-1.3-19.4-9.2c0,0,0,0,0-0.1s3.8-0.2,5.9-0.2l13.7,6
					C88.4,115.5,86.7,117.7,84.5,117.6z"/>
				<path class="st1" d="M56.4,113.6l-5.8-2l-2.7-6.4c0,0-3.6-2.5-4.7-3.4c0,0-3.2,2.4-3.5,3.8c-0.5,2.5,1.6,5.6,5.5,9.5
					c0.5,0.5,1.1,0.8,1.8,0.9c2,0.3,9,0.7,9,0.7l0,0c0.9-0.1,1.5-1,1.4-1.9C57.3,114.3,56.9,113.8,56.4,113.6z"/>
			</g>
		</g>
		<rect class="st2" width="212" height="212"/>
		<g>
			<defs>
				<rect id="SVGID_1_" width="212" height="212"/>
			</defs>
			<clipPath id="SVGID_2_">
				<use xlink:href="#SVGID_1_"  style="overflow:visible;"/>
			</clipPath>
			<g class="st3">
				<circle class="st4" cx="106" cy="201.4" r="106.6"/>
			</g>
		</g>
		<path class="st5" d="M64.8,178.8c-22.4,0-22.1,9.7-11.4,11.2s54.1,3.9,54.1,3.9s9.6,4.8,28.2,4.8s19.7-8.1,19.7-8.1
			s20.1,0.1,19.5-6.2s-36.1-4.3-36.1-4.3L64.8,178.8z"/>
		<path class="st6" d="M177.6,79.7c-4.2,0-6-5.1,0-6.3c0,0-1.7-2.7,0.6-4.2s4.1,1.1,4.1,1.1s-1.2-3.8,2.8-4.2s2.8,5.9,2.8,5.9
			s0.9-2.3,2.4-1.1s0.6,2,0.6,2s1.3-1.1,2.3,0c0.5,0.4,0.6,1.2,0.2,1.7c-0.1,0.1-0.1,0.1-0.2,0.2c0,0,4.5-3.8,6.6-0.5
			s-1.2,5.4-3.1,5.4L177.6,79.7z"/>
		<path class="st6" d="M73,167.8L73,167.8h-1.3c-0.1,0-0.2-0.1-0.2-0.2c0,0,0,0,0,0c0-0.1,0.1-0.2,0.2-0.2H73c0.1,0,0.2,0.1,0.2,0.2
			S73.1,167.8,73,167.8C73,167.8,73,167.8,73,167.8z M74.3,167.8c-0.1,0-0.2-0.1-0.2-0.2l0,0c0-0.1,0.1-0.2,0.2-0.2h0h1.3l0,0
			c0.1,0,0.2,0.1,0.2,0.2c0,0.1-0.1,0.2-0.2,0.2c0,0,0,0,0,0L74.3,167.8L74.3,167.8z M70.4,167.7L70.4,167.7l-1.3-0.1
			c-0.1,0-0.2-0.1-0.2-0.2c0,0,0,0,0,0c0-0.1,0.1-0.2,0.2-0.2c0,0,0,0,0,0l1.3,0.1c0.1,0,0.2,0.1,0.2,0.2c0,0,0,0,0,0
			C70.7,167.6,70.6,167.7,70.4,167.7C70.4,167.7,70.4,167.7,70.4,167.7L70.4,167.7z M76.8,167.7c-0.1,0-0.2-0.1-0.2-0.2
			c0-0.1,0.1-0.2,0.2-0.2c0,0,0,0,0,0l1.3-0.1c0.1,0,0.2,0.1,0.2,0.2c0,0,0,0,0,0c0,0.1-0.1,0.2-0.2,0.2L76.8,167.7L76.8,167.7z
			 M67.9,167.6L67.9,167.6l-1.3-0.1c-0.1,0-0.2-0.1-0.2-0.2c0,0,0,0,0,0c0-0.1,0.1-0.2,0.2-0.2c0,0,0,0,0,0l1.3,0.1
			c0.1,0,0.2,0.1,0.2,0.2c0,0,0,0,0,0C68.1,167.5,68,167.6,67.9,167.6C67.9,167.6,67.9,167.6,67.9,167.6L67.9,167.6z M79.3,167.6
			c-0.1,0-0.2-0.1-0.2-0.2c0-0.1,0.1-0.2,0.2-0.2l1.1-0.1c0.1,0,0.2,0.1,0.2,0.2s-0.1,0.2-0.2,0.2c0,0,0,0,0,0L79.3,167.6
			L79.3,167.6z M65.3,167.4L65.3,167.4l-1.3-0.2c-0.1,0-0.2-0.1-0.2-0.2c0-0.1,0.1-0.2,0.2-0.2c0,0,0,0,0,0l1.3,0.1
			c0.1,0,0.2,0.1,0.2,0.2c0,0,0,0,0,0C65.5,167.2,65.4,167.3,65.3,167.4L65.3,167.4z M62.8,167L62.8,167l-1.3-0.2
			c-0.1,0-0.2-0.1-0.2-0.2c0,0,0,0,0,0c0-0.1,0.1-0.2,0.2-0.2l1.2,0.2c0.1,0,0.2,0.1,0.2,0.2c0,0,0,0,0,0
			C63,166.9,62.9,167,62.8,167z M60.3,166.6L60.3,166.6l-1.3-0.2c-0.1,0-0.2-0.1-0.2-0.2c0,0,0,0,0,0c0-0.1,0.1-0.2,0.2-0.2
			c0,0,0,0,0,0l1.2,0.2c0.1,0,0.2,0.1,0.2,0.2C60.5,166.5,60.4,166.6,60.3,166.6L60.3,166.6z M57.8,166.1L57.8,166.1l-1.2-0.3
			c-0.1,0-0.2-0.1-0.2-0.2c0,0,0,0,0,0c0-0.1,0.1-0.2,0.2-0.2c0,0,0,0,0,0l1.2,0.3c0.1,0,0.2,0.1,0.2,0.2
			C58,166.1,57.9,166.1,57.8,166.1z M55.3,165.5L55.3,165.5l-1.3-0.3c-0.1,0-0.2-0.1-0.2-0.3c0-0.1,0.1-0.2,0.3-0.2c0,0,0,0,0,0
			l1.2,0.3c0.1,0,0.2,0.1,0.2,0.3C55.5,165.5,55.4,165.5,55.3,165.5L55.3,165.5z M52.9,164.9L52.9,164.9l-1.3-0.4
			c-0.1,0-0.2-0.2-0.1-0.3c0-0.1,0.1-0.2,0.3-0.1l1.2,0.4c0.1,0,0.2,0.1,0.2,0.3c0,0,0,0,0,0C53,164.8,53,164.9,52.9,164.9z
			 M50.4,164.2L50.4,164.2l-1.3-0.4c-0.1,0-0.2-0.1-0.1-0.3c0,0,0,0,0,0c0-0.1,0.2-0.2,0.3-0.1c0.4,0.1,0.8,0.3,1.2,0.4
			c0.1,0,0.2,0.2,0.1,0.3C50.6,164.1,50.5,164.2,50.4,164.2L50.4,164.2z M48,163.4L48,163.4l-1.3-0.4c-0.1,0-0.2-0.2-0.1-0.3
			c0-0.1,0.2-0.2,0.3-0.1c0,0,0,0,0,0l1.2,0.4c0.1,0,0.2,0.2,0.1,0.3C48.2,163.4,48.1,163.4,48,163.4L48,163.4z M45.6,162.5
			L45.6,162.5l-1.3-0.5c-0.1,0-0.2-0.2-0.1-0.3c0-0.1,0.2-0.2,0.3-0.1l1.2,0.5c0.1,0,0.2,0.2,0.1,0.3
			C45.8,162.4,45.7,162.5,45.6,162.5L45.6,162.5z M43.2,161.5L43.2,161.5L42,161c-0.1,0-0.2-0.2-0.1-0.3c0-0.1,0.2-0.2,0.3-0.1
			c0,0,0,0,0,0l1.2,0.5c0.1,0,0.2,0.2,0.1,0.3c0,0,0,0,0,0C43.4,161.5,43.3,161.6,43.2,161.5L43.2,161.5z M40.9,160.5L40.9,160.5
			l-1.2-0.5c-0.1-0.1-0.2-0.2-0.1-0.3c0.1-0.1,0.2-0.1,0.3-0.1l1.2,0.5c0.1,0.1,0.2,0.2,0.1,0.3C41.1,160.5,41,160.5,40.9,160.5
			L40.9,160.5z M38.6,159.4L38.6,159.4l-1.2-0.6c-0.1,0-0.1-0.2-0.1-0.3c0,0,0,0,0,0c0.1-0.1,0.2-0.1,0.3-0.1c0,0,0,0,0,0l1.1,0.6
			c0.1,0.1,0.1,0.2,0.1,0.3C38.8,159.4,38.7,159.4,38.6,159.4L38.6,159.4z M36.4,158.2C36.4,158.2,36.3,158.2,36.4,158.2
			c-0.5-0.2-0.8-0.4-1.2-0.6c-0.1-0.1-0.1-0.2-0.1-0.3c0.1-0.1,0.2-0.1,0.3-0.1c0.4,0.2,0.7,0.4,1.1,0.6c0.1,0.1,0.1,0.2,0.1,0.3
			C36.5,158.2,36.5,158.2,36.4,158.2L36.4,158.2z M34.2,156.9c0,0-0.1,0-0.1,0c-0.4-0.2-0.7-0.4-1.1-0.7c-0.1-0.1-0.1-0.2,0-0.3
			c0.1-0.1,0.2-0.1,0.3-0.1l1.1,0.7c0.1,0.1,0.1,0.2,0.1,0.3c0,0,0,0,0,0C34.3,156.9,34.3,156.9,34.2,156.9L34.2,156.9z M32.1,155.5
			c0,0-0.1,0-0.1,0l-1-0.7c-0.1-0.1-0.1-0.2-0.1-0.3c0,0,0,0,0,0c0.1-0.1,0.2-0.1,0.3-0.1c0,0,0,0,0,0l1,0.7
			c0.1,0.1,0.1,0.2,0.1,0.3C32.2,155.5,32.1,155.5,32.1,155.5L32.1,155.5z M30,154c0,0-0.1,0-0.1,0l-1-0.8c-0.1-0.1-0.1-0.2,0-0.3
			s0.2-0.1,0.3,0l1,0.8c0.1,0.1,0.1,0.2,0,0.3C30.1,154,30,154,30,154z M28,152.4c0,0-0.1,0-0.1,0c-0.3-0.3-0.6-0.6-1-0.9
			c-0.1-0.1-0.1-0.2,0-0.3c0.1-0.1,0.2-0.1,0.2,0c0.3,0.3,0.6,0.6,1,0.8c0.1,0.1,0.1,0.2,0,0.3C28.1,152.4,28,152.4,28,152.4
			L28,152.4z M26.1,150.7c-0.1,0-0.1,0-0.1-0.1c-0.3-0.3-0.6-0.6-0.9-0.9c-0.1-0.1-0.1-0.2,0-0.3c0.1-0.1,0.2-0.1,0.3,0
			c0.3,0.3,0.6,0.6,0.9,0.9c0.1,0.1,0.1,0.2,0,0.3c0,0,0,0,0,0C26.2,150.6,26.2,150.7,26.1,150.7L26.1,150.7z M24.4,148.8
			c-0.1,0-0.1,0-0.1-0.1c-0.3-0.3-0.6-0.7-0.8-1c-0.1-0.1-0.1-0.2,0-0.3c0.1-0.1,0.2-0.1,0.3,0c0,0,0,0,0,0c0.3,0.3,0.5,0.6,0.8,1
			C24.6,148.6,24.6,148.7,24.4,148.8C24.4,148.8,24.4,148.8,24.4,148.8L24.4,148.8z M22.8,146.8c-0.1,0-0.1,0-0.2-0.1
			c-0.3-0.4-0.5-0.7-0.7-1.1c-0.1-0.1,0-0.2,0.1-0.3c0.1-0.1,0.2,0,0.3,0.1l0,0c0.2,0.4,0.5,0.7,0.7,1c0.1,0.1,0.1,0.2,0,0.3
			C22.9,146.8,22.9,146.8,22.8,146.8L22.8,146.8z M21.4,144.7c-0.1,0-0.1,0-0.2-0.1c-0.2-0.4-0.4-0.8-0.6-1.1
			c-0.1-0.1,0-0.2,0.1-0.3c0,0,0,0,0,0c0.1-0.1,0.2,0,0.3,0.1c0,0,0,0,0,0c0.2,0.4,0.4,0.7,0.6,1.1c0.1,0.1,0,0.2-0.1,0.3
			c0,0,0,0,0,0C21.5,144.7,21.4,144.7,21.4,144.7L21.4,144.7z M20.2,142.4c-0.1,0-0.2,0-0.2-0.1l-0.5-1.2c0-0.1,0-0.3,0.2-0.3
			c0.1,0,0.3,0,0.3,0.2c0.2,0.4,0.3,0.8,0.5,1.2c0,0.1,0,0.2-0.1,0.3c0,0,0,0,0,0L20.2,142.4z M19.2,140.1c-0.1,0-0.2-0.1-0.2-0.1
			c-0.1-0.4-0.3-0.8-0.4-1.2c0-0.1,0-0.2,0.1-0.3c0.1,0,0.2,0,0.3,0.1c0.1,0.4,0.3,0.8,0.4,1.2C19.5,139.9,19.4,140,19.2,140.1
			C19.3,140.1,19.3,140.1,19.2,140.1L19.2,140.1z M18.4,137.7c-0.1,0-0.2-0.1-0.2-0.1c-0.1-0.4-0.2-0.8-0.4-1.2c0-0.1,0-0.2,0.1-0.3
			c0,0,0,0,0,0c0.1,0,0.2,0,0.2,0.1c0.1,0.4,0.2,0.8,0.4,1.2C18.6,137.5,18.6,137.6,18.4,137.7L18.4,137.7z M17.8,135.2
			c-0.1,0-0.2-0.1-0.2-0.2c-0.1-0.4-0.2-0.8-0.3-1.3c0-0.1,0.1-0.2,0.2-0.2c0.1,0,0.2,0,0.2,0.1c0,0,0,0,0,0
			c0.1,0.4,0.2,0.8,0.3,1.2C18,135.1,17.9,135.2,17.8,135.2C17.8,135.2,17.8,135.2,17.8,135.2L17.8,135.2z M17.3,132.7
			c-0.1,0-0.2-0.1-0.2-0.2c-0.1-0.4-0.1-0.9-0.2-1.3c0-0.1,0.1-0.2,0.2-0.2c0.1,0,0.2,0.1,0.2,0.2c0,0,0,0,0,0
			c0.1,0.4,0.1,0.8,0.2,1.2C17.5,132.6,17.4,132.7,17.3,132.7C17.3,132.7,17.3,132.7,17.3,132.7L17.3,132.7z M17,130.2
			c-0.1,0-0.2-0.1-0.2-0.2c0-0.4-0.1-0.9-0.1-1.3c0-0.1,0.1-0.2,0.2-0.2c0.1,0,0.2,0.1,0.2,0.2c0,0.4,0.1,0.8,0.1,1.3
			C17.2,130.1,17.1,130.2,17,130.2C17,130.2,17,130.2,17,130.2L17,130.2z M16.8,127.7c-0.1,0-0.2-0.1-0.2-0.2c0,0,0,0,0,0
			c0-0.4,0-0.7,0-1v-0.2c0-0.1,0.1-0.2,0.2-0.2l0,0c0.1,0,0.2,0.1,0.2,0.2v0.2c0,0.3,0,0.7,0,1C17.1,127.6,17,127.7,16.8,127.7
			C16.8,127.7,16.8,127.7,16.8,127.7L16.8,127.7z M26.7,127.6h-0.2c-0.1,0-0.2-0.1-0.2-0.2c0,0,0,0,0,0c0-0.1,0.1-0.2,0.2-0.2h0.2
			c0.3,0,0.7,0,1-0.1c0.1,0,0.2,0.1,0.2,0.2c0,0.1-0.1,0.2-0.2,0.2c0,0,0,0,0,0C27.5,127.6,27.1,127.6,26.7,127.6L26.7,127.6z
			 M25.2,127.4L25.2,127.4c-0.4-0.1-0.8-0.2-1.2-0.4c-0.1,0-0.2-0.1-0.1-0.3c0-0.1,0.1-0.2,0.3-0.1c0,0,0,0,0.1,0
			c0.4,0.2,0.8,0.3,1.2,0.4c0.1,0,0.2,0.1,0.2,0.2c0,0,0,0,0,0C25.5,127.4,25.4,127.4,25.2,127.4L25.2,127.4z M29,127.2
			c-0.1,0-0.2-0.1-0.2-0.2c0-0.1,0.1-0.1,0.1-0.2c0.4-0.1,0.8-0.3,1.1-0.5c0.1-0.1,0.2,0,0.3,0.1c0,0,0,0,0,0c0.1,0.1,0,0.2-0.1,0.3
			c0,0,0,0,0,0C29.9,126.9,29.5,127,29,127.2L29,127.2z M23,126.4c0,0-0.1,0-0.1,0c-0.4-0.3-0.7-0.5-1-0.8c-0.1-0.1-0.1-0.2,0-0.3
			c0,0,0,0,0,0c0.1-0.1,0.2-0.1,0.3,0c0.3,0.3,0.7,0.5,1,0.8c0.1,0.1,0.1,0.2,0.1,0.3C23.2,126.4,23.1,126.4,23,126.4z M31.3,126
			c-0.1,0-0.1,0-0.2-0.1c-0.1-0.1-0.1-0.2,0-0.3c0,0,0,0,0,0c0.3-0.2,0.6-0.5,0.9-0.8c0.1-0.1,0.2-0.1,0.3,0c0.1,0.1,0.1,0.2,0,0.3
			c0,0,0,0,0,0c-0.3,0.3-0.6,0.6-1,0.8C31.3,126,31.3,126,31.3,126L31.3,126z M16.9,125.1L16.9,125.1c-0.1,0-0.2-0.1-0.2-0.2
			c0-0.4,0-0.9,0.1-1.3c0-0.1,0.1-0.2,0.2-0.2c0,0,0,0,0,0c0.1,0,0.2,0.1,0.2,0.2c0,0.4-0.1,0.8-0.1,1.3
			C17.1,125.1,17,125.1,16.9,125.1C16.9,125.1,16.9,125.1,16.9,125.1L16.9,125.1z M21.1,124.7c-0.1,0-0.1,0-0.2-0.1
			c-0.3-0.3-0.5-0.7-0.8-1c-0.1-0.1-0.1-0.2,0-0.3c0,0,0,0,0,0c0.1-0.1,0.2-0.1,0.3,0c0.2,0.3,0.5,0.7,0.8,1c0.1,0.1,0.1,0.2,0,0.3
			c0,0,0,0,0,0C21.2,124.7,21.2,124.7,21.1,124.7L21.1,124.7z M33.1,124.2c0,0-0.1,0-0.1,0c-0.1-0.1-0.1-0.2,0-0.3c0,0,0,0,0,0
			c0.2-0.3,0.5-0.7,0.7-1c0.1-0.1,0.2-0.1,0.3-0.1c0,0,0,0,0,0c0.1,0.1,0.1,0.2,0.1,0.3c0,0,0,0,0,0c-0.2,0.4-0.5,0.7-0.7,1.1
			C33.3,124.3,33.1,124.3,33.1,124.2c-0.1,0-0.1,0-0.1,0L33.1,124.2z M17.1,122.6L17.1,122.6c-0.1,0-0.2-0.1-0.2-0.2c0,0,0,0,0,0
			c0-0.4,0.1-0.8,0.2-1.3c0-0.1,0.1-0.2,0.2-0.2c0.1,0,0.2,0.1,0.2,0.2l0,0c-0.1,0.4-0.1,0.8-0.2,1.2
			C17.3,122.5,17.2,122.6,17.1,122.6z M19.6,122.6c-0.1,0-0.1,0-0.2-0.1c-0.2-0.4-0.4-0.7-0.6-1.1c-0.1-0.1,0-0.2,0.1-0.3
			c0.1,0,0.2,0,0.3,0.1c0,0,0,0,0,0c0.2,0.4,0.4,0.8,0.6,1.1c0.1,0.1,0,0.2-0.1,0.3c0,0,0,0,0,0C19.7,122.6,19.7,122.6,19.6,122.6
			L19.6,122.6z M34.3,122L34.3,122c-0.2,0-0.2-0.2-0.2-0.3c0,0,0,0,0,0c0.2-0.4,0.3-0.8,0.4-1.2c0-0.1,0.1-0.2,0.3-0.2
			c0.1,0,0.2,0.1,0.1,0.3l0,0c-0.1,0.4-0.2,0.8-0.4,1.2C34.5,122,34.4,122,34.3,122z M18.5,120.3c-0.1,0-0.2-0.1-0.2-0.1
			c-0.1-0.3-0.2-0.6-0.4-0.9c-0.1,0.2-0.1,0.4-0.2,0.7c0,0.1-0.1,0.2-0.3,0.2c-0.1,0-0.2-0.1-0.2-0.3c0.1-0.4,0.2-0.8,0.3-1.2
			c0-0.1,0.1-0.2,0.3-0.2c0,0,0,0,0,0c0.1,0,0.2,0.1,0.1,0.3c0.1,0,0.1,0.1,0.1,0.1c0.1,0.4,0.3,0.8,0.5,1.2
			C18.7,120.1,18.7,120.2,18.5,120.3L18.5,120.3z M34.9,119.5L34.9,119.5c-0.1,0-0.2-0.1-0.2-0.2c0,0,0,0,0,0c0-0.2,0-0.4,0-0.6
			s0-0.4,0-0.6c0-0.1,0.1-0.2,0.2-0.2c0,0,0,0,0,0c0.1,0,0.2,0.1,0.2,0.2c0,0,0,0,0,0c0,0.2,0,0.4,0,0.7s0,0.4,0,0.7
			C35.1,119.5,35,119.6,34.9,119.5C34.9,119.5,34.9,119.5,34.9,119.5z M17.6,117.9c-0.1,0-0.2-0.1-0.2-0.2c-0.1-0.4-0.2-0.8-0.4-1.2
			c0-0.1,0-0.2,0.1-0.3c0.1,0,0.2,0,0.3,0.2c0.1,0.4,0.2,0.8,0.4,1.2C17.8,117.7,17.8,117.9,17.6,117.9
			C17.7,117.9,17.7,117.9,17.6,117.9L17.6,117.9z M18.3,117.7L18.3,117.7c-0.2,0-0.2-0.2-0.2-0.3c0,0,0,0,0,0
			c0.2-0.4,0.3-0.8,0.5-1.2c0-0.1,0.2-0.2,0.3-0.1c0.1,0,0.2,0.2,0.1,0.3c0,0,0,0,0,0.1c-0.2,0.4-0.4,0.8-0.5,1.2
			C18.5,117.6,18.4,117.7,18.3,117.7z M34.7,117c-0.1,0-0.2-0.1-0.2-0.2c-0.1-0.4-0.3-0.8-0.5-1.1c-0.1-0.1,0-0.2,0.1-0.3
			c0.1-0.1,0.2,0,0.3,0.1c0.2,0.4,0.4,0.8,0.5,1.2C34.9,116.9,34.9,117,34.7,117L34.7,117z M16.9,115.5c-0.1,0-0.2-0.1-0.2-0.2
			c-0.1-0.4-0.2-0.8-0.3-1.3c0-0.1,0.1-0.2,0.2-0.2c0.1,0,0.2,0.1,0.2,0.2c0.1,0.4,0.2,0.8,0.2,1.2
			C17.1,115.3,17.1,115.4,16.9,115.5C17,115.5,17,115.5,16.9,115.5L16.9,115.5z M19.4,115.4c0,0-0.1,0-0.1,0
			c-0.1-0.1-0.1-0.2-0.1-0.3c0,0,0,0,0,0c0.2-0.4,0.5-0.7,0.8-1.1c0.1-0.1,0.2-0.1,0.3,0c0,0,0,0,0,0c0.1,0.1,0.1,0.2,0,0.3
			c-0.3,0.3-0.5,0.7-0.7,1C19.5,115.4,19.5,115.4,19.4,115.4z M33.5,114.8c-0.1,0-0.1,0-0.2-0.1c-0.3-0.3-0.6-0.6-0.9-0.9
			c-0.1-0.1-0.1-0.2,0-0.3c0,0,0,0,0,0c0.1-0.1,0.2-0.1,0.3,0c0.3,0.3,0.6,0.6,0.9,0.9c0.1,0.1,0.1,0.2,0,0.3
			C33.6,114.8,33.6,114.8,33.5,114.8L33.5,114.8z M21,113.4c-0.1,0-0.1,0-0.1-0.1c-0.1-0.1-0.1-0.2,0-0.3c0,0,0,0,0,0
			c0.3-0.3,0.6-0.6,1-0.8c0.1-0.1,0.2,0,0.3,0.1c0.1,0.1,0,0.2,0,0.3C21.7,112.8,21.4,113,21,113.4C21.1,113.4,21,113.4,21,113.4z
			 M31.6,113.2c0,0-0.1,0-0.1,0c-0.4-0.2-0.7-0.4-1.1-0.6c-0.1,0-0.2-0.2-0.1-0.3c0,0,0,0,0,0c0-0.1,0.2-0.1,0.3-0.1c0,0,0,0,0,0
			c0.4,0.2,0.8,0.4,1.1,0.6c0.1,0.1,0.1,0.2,0.1,0.3C31.7,113.2,31.7,113.2,31.6,113.2L31.6,113.2z M16.5,113
			c-0.1,0-0.2-0.1-0.2-0.2c0-0.4-0.1-0.8-0.1-1.3c0-0.1,0.1-0.2,0.2-0.2c0.1,0,0.2,0.1,0.2,0.2c0,0,0,0,0,0c0,0.4,0.1,0.8,0.1,1.2
			C16.7,112.9,16.6,113,16.5,113L16.5,113z M29.3,112.1L29.3,112.1c-0.5-0.1-0.9-0.3-1.3-0.4c-0.1,0-0.2-0.1-0.2-0.2c0,0,0,0,0,0
			c0-0.1,0.1-0.2,0.3-0.2c0.4,0.1,0.8,0.2,1.2,0.4c0.1,0,0.2,0.2,0.1,0.3c0,0,0,0,0,0C29.4,112,29.4,112.1,29.3,112.1L29.3,112.1z
			 M23.1,112c-0.1,0-0.2,0-0.2-0.1c0-0.1,0-0.2,0.1-0.3c0.4-0.2,0.8-0.3,1.2-0.4c0.1,0,0.2,0.1,0.2,0.2c0,0.1,0,0.2-0.1,0.3
			c0,0,0,0,0,0C23.9,111.7,23.5,111.8,23.1,112L23.1,112z M26.8,111.5L26.8,111.5c-0.4,0-0.8,0-1.2,0c-0.1,0-0.2-0.1-0.2-0.2
			c0,0,0,0,0,0c0-0.1,0.1-0.2,0.2-0.2c0.4,0,0.9,0,1.3,0c0.1,0,0.2,0.1,0.2,0.2c0,0,0,0,0,0C27,111.4,26.9,111.5,26.8,111.5
			L26.8,111.5z M16.3,110.5c-0.1,0-0.2-0.1-0.2-0.2V110c0-0.3,0-0.6,0-0.9c0-0.1,0.1-0.2,0.2-0.2c0,0,0,0,0,0c0.1,0,0.2,0.1,0.2,0.2
			c0,0,0,0,0,0c0,0.3,0,0.6,0,0.9c0,0.1,0,0.2,0,0.3C16.5,110.4,16.4,110.5,16.3,110.5z M16.4,108L16.4,108c-0.1,0-0.2-0.1-0.2-0.2
			c0,0,0,0,0,0c0-0.4,0.1-0.8,0.1-1.3c0-0.1,0.1-0.2,0.2-0.2c0,0,0,0,0,0c0.1,0,0.2,0.1,0.2,0.2c-0.1,0.4-0.1,0.8-0.1,1.2
			C16.6,107.9,16.5,107.9,16.4,108L16.4,108z M16.7,105.5L16.7,105.5c-0.1,0-0.2-0.1-0.2-0.2c0,0,0,0,0,0c0.1-0.4,0.2-0.8,0.3-1.2
			c0.1-0.1,0.2-0.2,0.3-0.1c0.1,0,0.1,0.1,0.1,0.2c-0.1,0.4-0.2,0.8-0.3,1.2C16.9,105.4,16.8,105.4,16.7,105.5L16.7,105.5z
			 M17.3,103L17.3,103c-0.2,0-0.2-0.2-0.2-0.3c0.1-0.4,0.2-0.8,0.4-1.2c0-0.1,0.1-0.2,0.2-0.2c0.1,0,0.2,0.1,0.2,0.2
			c0,0,0,0.1,0,0.1c-0.1,0.4-0.3,0.8-0.4,1.2C17.5,102.9,17.4,102.9,17.3,103L17.3,103z M18.1,100.6L18.1,100.6
			c-0.2,0-0.2-0.2-0.2-0.3c0.1-0.4,0.3-0.8,0.5-1.2c0-0.1,0.2-0.2,0.3-0.1c0.1,0,0.2,0.2,0.1,0.3c0,0,0,0,0,0
			c-0.2,0.4-0.3,0.8-0.5,1.2C18.3,100.5,18.2,100.5,18.1,100.6L18.1,100.6z M19.1,98.2H19c-0.1-0.1-0.2-0.2-0.1-0.3
			c0.2-0.4,0.4-0.8,0.6-1.2c0-0.1,0.2-0.1,0.3-0.1c0,0,0,0,0,0c0.1,0.1,0.2,0.2,0.1,0.3c-0.2,0.4-0.4,0.8-0.6,1.1
			C19.2,98.1,19.2,98.1,19.1,98.2L19.1,98.2z M20.3,95.9c0,0-0.1,0-0.1,0c-0.1-0.1-0.1-0.2-0.1-0.3c0,0,0,0,0,0
			c0.2-0.4,0.4-0.7,0.6-1.1c0.1-0.1,0.2-0.1,0.3-0.1c0,0,0,0,0,0c0.1,0.1,0.1,0.2,0.1,0.3c0,0,0,0,0,0c-0.2,0.4-0.4,0.7-0.6,1.1
			C20.4,95.9,20.3,95.9,20.3,95.9L20.3,95.9z M21.6,93.7c0,0-0.1,0-0.1,0c-0.1-0.1-0.1-0.2-0.1-0.3c0,0,0,0,0,0l0.7-1.1
			c0.1-0.1,0.2-0.1,0.3-0.1c0.1,0.1,0.1,0.2,0.1,0.3l0,0c-0.2,0.3-0.5,0.7-0.7,1.1C21.7,93.7,21.6,93.7,21.6,93.7L21.6,93.7z
			 M23,91.6c0,0-0.1,0-0.1,0c-0.1-0.1-0.1-0.2,0-0.3c0.2-0.3,0.5-0.7,0.7-1c0.1-0.1,0.2-0.1,0.3-0.1c0,0,0,0,0,0
			c0.1,0.1,0.1,0.2,0,0.3c-0.2,0.3-0.5,0.7-0.7,1C23,91.6,23,91.6,23,91.6L23,91.6z M24.5,89.6c0,0-0.1,0-0.1,0
			c-0.1-0.1-0.1-0.2,0-0.3c0,0,0,0,0,0c0.3-0.3,0.5-0.7,0.8-1c0.1-0.1,0.2-0.1,0.3,0c0.1,0.1,0.1,0.2,0,0.3l-0.8,1
			c-0.1,0-0.2,0-0.2-0.1L24.5,89.6z M26.1,87.6c0,0-0.1,0-0.1,0c-0.1-0.1-0.1-0.2,0-0.3c0,0,0,0,0,0l0.8-1c0.1-0.1,0.2-0.1,0.3,0
			c0.1,0.1,0.1,0.2,0,0.3c0,0,0,0,0,0l-0.8,1c-0.1,0-0.2,0-0.2-0.1L26.1,87.6z M27.7,85.7c0,0-0.1,0-0.1,0c-0.1-0.1-0.1-0.2,0-0.3
			l0.9-0.9c0.1-0.1,0.2-0.1,0.3,0c0,0,0,0,0,0c0.1,0.1,0.1,0.2,0,0.3l-0.9,0.9c-0.1,0-0.1,0-0.2-0.1L27.7,85.7z M29.5,83.8
			c-0.1,0-0.1,0-0.1-0.1c-0.1-0.1-0.1-0.2,0-0.3l0.9-0.9c0.1-0.1,0.2-0.1,0.3,0c0.1,0.1,0.1,0.2,0,0.3l-0.9,0.9
			c-0.1,0-0.1,0-0.2-0.1L29.5,83.8z M31.3,82c-0.1,0-0.1,0-0.1-0.1c-0.1-0.1-0.1-0.2,0-0.3c0,0,0,0,0,0l0.9-0.9
			c0.1-0.1,0.2-0.1,0.3,0c0,0,0,0,0,0c0.1,0.1,0.1,0.2,0,0.3c-0.3,0.3-0.6,0.6-0.9,0.9c-0.1,0-0.1,0-0.2-0.1L31.3,82z M33.1,80.3
			c-0.1,0-0.2-0.1-0.1-0.2c-0.1-0.1-0.1-0.2,0-0.3c0,0,0,0,0,0c0.3-0.3,0.6-0.6,1-0.9c0.1-0.1,0.2-0.1,0.3,0c0.1,0.1,0.1,0.2,0,0.3
			c0,0,0,0,0,0l-0.9,0.8c0,0-0.1,0.1-0.2,0.1L33.1,80.3z M35.1,78.6c-0.1,0-0.1,0-0.2-0.1c-0.1-0.1-0.1-0.2,0-0.3c0,0,0,0,0,0l1-0.8
			c0.1-0.1,0.2-0.1,0.3,0c0,0,0,0,0,0c0.1,0.1,0.1,0.2,0,0.3l-1,0.8c-0.1,0-0.1,0-0.2-0.1L35.1,78.6z M37.1,77c-0.1,0-0.1,0-0.2-0.1
			c-0.1-0.1-0.1-0.2,0-0.3l1-0.8c0.1-0.1,0.2-0.1,0.3,0c0.1,0.1,0.1,0.2,0,0.3c0,0,0,0,0,0c-0.3,0.2-0.7,0.5-1,0.8
			c-0.1,0-0.1,0-0.2,0L37.1,77z M39.1,75.4c-0.1,0-0.1,0-0.2-0.1c-0.1-0.1-0.1-0.2,0-0.3l1-0.8c0.1-0.1,0.2-0.1,0.3,0c0,0,0,0,0,0
			c0.1,0.1,0.1,0.2,0,0.3c0,0,0,0,0,0L39.1,75.4c0-0.1,0-0.1-0.1-0.1L39.1,75.4z M41.1,73.9c-0.1,0-0.1,0-0.2-0.1
			c-0.1-0.1-0.1-0.2,0-0.3c0,0,0,0,0,0l1-0.7c0.1-0.1,0.2-0.1,0.3,0c0.1,0.1,0,0.2-0.1,0.3l-1,0.7c0,0-0.1,0-0.1,0L41.1,73.9z
			 M43.2,72.4c-0.1,0-0.1,0-0.2-0.1c-0.1-0.1,0-0.2,0.1-0.3c0.7-0.5,1.1-0.7,1.1-0.7c0.1-0.1,0.2,0,0.3,0.1c0,0,0,0,0,0
			c0.1,0.1,0,0.2-0.1,0.3c0,0-0.4,0.2-1.1,0.7c-0.1,0-0.1,0-0.1-0.1L43.2,72.4z"/>
		<path class="st7" d="M58.8,109.9c0,0-23,0.1-14.2,22.5l4.2-9l-1.8-3.7l2.5,1.5L58.8,109.9z"/>
		<path class="st7" d="M59.1,109.6c1.8-4.8,6.4-8,11.6-7.9c9.1,0,12,7,12,7H70.9l-0.9-3l-0.5,3L59.1,109.6z"/>
		<path class="st7" d="M58.4,109.6c0,0-2.1-18.6-22.5-12.2l8.1,4.3l2.6-0.8l-1,2.4L58.4,109.6z"/>
		<path class="st8" d="M71.1,163.6c0,0-3-5,0.8-15.2s-2.8-29.2-13.5-37.9l0.7-0.8c0,0,17.2,10.2,19.1,27s-2,20.9,3,27
			C81.2,163.6,73.6,164.7,71.1,163.6z"/>
		<path class="st9" d="M78.2,136.6c-1.9-16.8-19.1-27-19.1-27l-0.2,0.3c2.3,1.7,12.7,10.9,15.6,19.4c3.4,10,2.1,13.5,1.5,19.6
			c-0.5,5.2-1.3,11.4,1.4,15c2.1-0.1,3.8-0.4,3.8-0.4C76.1,157.5,80.1,153.4,78.2,136.6z"/>
		<path class="st10" d="M58.8,109.9c0,0-14.2,9.6-3.6,26.9l1.8-11.1l-1.9-1.6l2.3,0.2L58.8,109.9z"/>
		<path class="st10" d="M59.1,109.6c0,0-5.7-6.4-13.1-5.2s-11.6,8.5-11.6,13.4l11.4-4.2l0.2-4l2.5,3.1L59.1,109.6z"/>
		<path class="st10" d="M58.8,109.9l11,7l2.2-2.2l-0.7,3.1l8.9,6.2c0,0,0.9-9.8-7.1-13.5S58.8,109.9,58.8,109.9z"/>
		<path class="st10" d="M58.8,109.9c0,0-4.6-7.3,1.2-13.5s14-3.3,16.8-1.3l-8.9,5.6l-3.1-0.7l1.2,2.5L58.8,109.9z"/>
		<path class="st7" d="M96,87.3c0,0-24.8-9.3-24.5,18.3l8.3-8L79.4,93l2.1,2.6L96,87.3z"/>
		<path class="st7" d="M96.3,87.1c3.9-4.5,10.2-6,15.7-3.8c9.7,3.7,10,12.4,10,12.4l-12.6-4.8l0.3-3.6l-1.7,3L96.3,87.1z"/>
		<path class="st7" d="M95.7,86.8c0,0,5.3-20.8-19.2-22.3l6.9,8l3.1,0.2l-2,2.2L95.7,86.8z"/>
		<path class="st8" d="M87.1,150c0,0-1.1-6.6,7.1-16s9-32.5,1.1-46.3l1-0.6c0,0,14.3,18,9.4,36.8s-10.8,21.5-7.9,30.1
			C97.9,154.1,89.4,152.2,87.1,150z"/>
		<path class="st9" d="M105.8,123.9c4.9-18.8-9.4-36.8-9.4-36.8L96,87.3c1.8,2.8,9.1,17,8.8,27.3c-0.4,12.1-3.3,15.4-6.4,21.7
			c-2.7,5.4-6.1,11.7-4.6,16.7c2.3,0.7,4.2,1.1,4.2,1.1C95,145.5,100.9,142.7,105.8,123.9z"/>
		<path class="st10" d="M96,87.3c0,0-19.2,4.5-14.9,27.4l6.4-11.2l-1.4-2.6l2.4,1.2L96,87.3z"/>
		<path class="st10" d="M96.3,87.1c0,0-3.5-9.2-11.9-11s-16,4.3-18,9.6l14,0.1l1.9-4.2l1.4,4.4L96.3,87.1z"/>
		<path class="st10" d="M96,87.3l8.9,12l3.2-1.4l-2,3l7,10.4c0,0,5-10.1-2-17.4S96,87.3,96,87.3z"/>
		<path class="st10" d="M96,87.3c0,0-1.9-9.7,6.8-14s16.4,2.2,18.5,5.5l-11.9,2.4l-3-2l0.2,3.1L96,87.3z"/>
		<path class="st6" d="M111.4,143.2l-12.3-13l-9,8.4l12.3,13c0.4,0.3,1,0.3,1.3,0l7.6-7.1C111.7,144.2,111.7,143.6,111.4,143.2z"/>
		<path class="st11" d="M94.8,125.7c-0.4-0.3-1-0.3-1.3,0l-7.6,7.1c-0.3,0.4-0.3,1,0,1.3l4.3,4.6l9-8.4L94.8,125.7z"/>
		
			<rect x="103.2" y="130.2" transform="matrix(0.7283 -0.6853 0.6853 0.7283 -66.8426 108.5054)" class="st12" width="0.4" height="16.8"/>
		
			<rect x="97.7" y="132.9" transform="matrix(0.7283 -0.6853 0.6853 0.7283 -66.6936 104.6457)" class="st12" width="1.7" height="7.1"/>
		
			<rect x="96" y="134.5" transform="matrix(0.7283 -0.6853 0.6853 0.7283 -68.2624 103.9107)" class="st12" width="1.7" height="7.1"/>
		
			<rect x="94.3" y="136.1" transform="matrix(0.7283 -0.6853 0.6853 0.7283 -69.8162 103.1838)" class="st12" width="1.7" height="7.1"/>
		
			<rect x="103.3" y="138.7" transform="matrix(0.7283 -0.6853 0.6853 0.7283 -69.2266 110.0306)" class="st12" width="1.7" height="7.1"/>
		
			<rect x="101.6" y="140.4" transform="matrix(0.7283 -0.6853 0.6853 0.7283 -70.7986 109.3023)" class="st12" width="1.7" height="7.1"/>
		
			<rect x="99.9" y="141.9" transform="matrix(0.7283 -0.6853 0.6853 0.7283 -72.3519 108.5619)" class="st12" width="1.7" height="7.1"/>
		<path class="st13" d="M94.2,134l-0.1-0.3l-0.1-0.1l0.1-0.1l0,0 M94.2,133.4C94.2,133.4,94.2,133.4,94.2,133.4L94.2,133.4
			L94.2,133.4L94.2,133.4c-0.1-0.1-0.1-0.1-0.1-0.1l-0.2-0.5l0,0l0,0l0,0l0.1-0.1l0.1-0.1l0,0l0,0l0,0c0-0.1-0.1-0.1-0.1-0.2
			l-0.1-0.1c-0.1-0.1-0.1-0.1-0.2-0.2h-0.1l0,0l-0.2-0.6v-0.1c0.1-0.1,0.2-0.2,0.3-0.4l0,0c0.1-0.1,0.2-0.2,0.3-0.4l0,0l0.1-0.2l0,0
			c0-0.1,0.1-0.1,0.1-0.2c0,0,0,0,0-0.1c0-0.1,0-0.1,0-0.2l0,0l0,0l0,0c-0.1,0-0.2,0-0.3,0l0,0h-0.1l-0.2,0.1l-0.3,0.1
			c-0.1,0.1-0.2,0.1-0.4,0.2H93l-0.3,0.2l0,0h-0.1l0,0l-0.7-0.3l0,0l0,0v-0.1l0,0c0,0-0.1-0.2-0.2-0.3s0,0,0,0l-0.1-0.1l0,0
			c0,0-0.1,0-0.1,0l0,0c-0.1,0-0.1,0.1-0.2,0.1l0,0v0.1l0,0l0,0l-0.3-0.1l0,0l0,0c0-0.1,0-0.2-0.1-0.2l0,0l-0.1,0.1l0,0v0.1
			l-0.4-0.2l-0.3,0.3l0,0l0.4,0.4l0.4,0.4l0,0l0,0l0,0c0,0-0.1,0.1-0.1,0.1l0,0 M90.8,131.3L90.8,131.3c0.1,0,0.2,0,0.3-0.1l0,0h0.1
			l0.4,0.4l0.4,0.4c-0.4,0.4-0.8,0.9-1,1.3l-0.1,0.1l-0.1,0.1l0,0v-0.1l-1-0.2l-0.3,0.4l0,0l0.8,0.4v-0.1v0.1c0,0,0,0,0,0.1l0,0l0,0
			c0.1,0,0.1,0,0.2-0.1l0,0l0,0l0.3,0.8l0.4-0.2l-0.1-1l0,0h-0.1h-0.1c0.3-0.2,0.8-0.5,1.2-0.8l0.3-0.2l0.5,0.7v0.1l0,0
			c0,0.1-0.1,0.1-0.1,0.2c0,0,0,0.1,0,0.1c0,0,0,0,0.1,0c0.1,0,0.2,0,0.2-0.1l0,0l0,0l0,0l0.8,1l0,0L90.8,131.3z"/>
		
			<rect x="88.2" y="132.6" transform="matrix(0.7283 -0.6853 0.6853 0.7283 -68.7678 97.4783)" class="st13" width="0.6" height="5.7"/>
		
			<rect x="95" y="125.9" transform="matrix(0.7283 -0.6853 0.6853 0.7283 -62.1984 100.5558)" class="st13" width="1.4" height="5.7"/>
		<path class="st6" d="M116.5,144.1l-5.4-17l-11.7,3.7l5.4,17c0.2,0.5,0.7,0.7,1.2,0.6l9.9-3.2C116.3,145.2,116.6,144.6,116.5,144.1
			C116.5,144.1,116.5,144.1,116.5,144.1z"/>
		<path class="st11" d="M109.1,121.1c-0.2-0.5-0.7-0.8-1.2-0.6c0,0,0,0,0,0l-9.9,3.2c-0.5,0.2-0.7,0.7-0.6,1.2l1.9,6l11.7-3.7
			L109.1,121.1z"/>
		
			<rect x="111.1" y="128.1" transform="matrix(0.9526 -0.3042 0.3042 0.9526 -36.232 40.3192)" class="st12" width="0.4" height="16.8"/>
		
			<rect x="107" y="128.9" transform="matrix(0.9526 -0.3042 0.3042 0.9526 -35.1837 39.0932)" class="st12" width="1.7" height="7.1"/>
		
			<rect x="104.8" y="129.6" transform="matrix(0.9527 -0.304 0.304 0.9527 -35.4868 38.4136)" class="st12" width="1.7" height="7.1"/>
		
			<rect x="102.6" y="130.3" transform="matrix(0.9526 -0.3042 0.3042 0.9526 -35.8289 37.8044)" class="st12" width="1.7" height="7.1"/>
		
			<rect x="109.5" y="136.6" transform="matrix(0.9526 -0.3042 0.3042 0.9526 -37.409 40.2024)" class="st12" width="1.7" height="7.1"/>
		
			<rect x="107.2" y="137.3" transform="matrix(0.9526 -0.3042 0.3042 0.9526 -37.7331 39.5526)" class="st12" width="1.7" height="7.1"/>
		
			<rect x="105" y="138" transform="matrix(0.9526 -0.3042 0.3042 0.9526 -38.0561 38.9146)" class="st12" width="1.7" height="7.1"/>
		<path class="st13" d="M105,128.4V128v-0.1h0.1l0,0l0,0v-0.1v-0.1l0,0l0,0H105l0.1-0.5h0.1h0.1h0.1l0,0l0,0l0,0c0-0.1,0-0.1,0-0.2
			v-0.1c0-0.1-0.1-0.2-0.1-0.2l0,0h-0.1l0.1-0.6V126c0.2-0.1,0.3-0.1,0.4-0.2l0,0c0.2-0.1,0.3-0.1,0.4-0.2l0,0l0.2-0.1l0,0l0.1-0.1
			l0,0c0,0,0.1-0.1,0.1-0.2v-0.1l0,0c0-0.1-0.1-0.1-0.2-0.2l0,0h-0.1h-0.5c-0.1,0-0.3,0-0.4,0h-0.1l-0.3,0.1l0,0V125l0,0l-0.5-0.6
			l0,0l0,0h0.1l0,0c0,0,0-0.2,0-0.4V124v-0.1l0,0c0-0.1,0-0.1-0.1-0.1l0,0l-0.2,0.1l0,0h-0.1l0,0l0,0l-0.2-0.3l0,0l0,0
			c0.1-0.1,0-0.2,0-0.2l0,0h-0.1l0,0h-0.1l-0.3-0.4l-0.4,0.1l0,0l0.2,0.5l0.2,0.5l0,0l0,0l0,0l-0.1,0.1l0,0l0,0l0,0
			c0,0.1,0.1,0.1,0.3,0.1h0.1l0.2,0.5l0.2,0.5c-0.5,0.2-1,0.5-1.5,0.7h-0.1l-0.1,0.1l0,0h0.1l-0.8-0.6l-0.4,0.2l0,0l0.6,0.7h0.1
			l-0.1,0.1l0,0l0,0l0,0h0.2h-0.1v0.9h0.5l0.3-0.9h-0.1c0.4,0,1-0.1,1.5-0.2l0.3-0.1l0.2,0.8h-0.1l0,0c-0.1,0-0.1,0.1-0.2,0.1
			c0,0,0,0.1,0,0.1c0,0,0,0,0.1,0c0.1,0,0.2,0,0.2,0h0.1l0.3,1.2l0,0L105,128.4z"/>
		
			<rect x="98.9" y="124.4" transform="matrix(0.9526 -0.3042 0.3042 0.9526 -34.0042 36.2096)" class="st13" width="0.6" height="5.7"/>
		
			<rect x="107.9" y="121.4" transform="matrix(0.9526 -0.3042 0.3042 0.9526 -32.6526 38.9182)" class="st13" width="1.4" height="5.7"/>
		<path class="st14" d="M133.8,185L133.8,185c1.4,0,2.5,1.1,2.5,2.5v0.6c0,1.4-1.1,2.5-2.5,2.5h0c-1.4,0-2.5-1.1-2.5-2.5v-0.6
			C131.3,186.1,132.4,185,133.8,185z"/>
		<path class="st14" d="M157.7,182.2L157.7,182.2c1.4,0,2.5,1.1,2.5,2.5v0.6c0,1.4-1.1,2.5-2.5,2.5h0c-1.4,0-2.5-1.1-2.5-2.5v-0.6
			C155.2,183.3,156.3,182.2,157.7,182.2z"/>
		<path class="st15" d="M166.9,110l-12.9-0.9c-3.6-0.8-32-0.2-36.3,2c-2.6,1.4-3.2,6.3-3.2,11.8V179c0,2.9,3.1,6.5,6.7,7.1l0,0
			c0.6,0.2,1.3,0.3,1.9,0.4l12.5,2.2l4.1-2.8c3.7-0.3,7.5-0.8,11.1-1.5c2.6-0.9,8.7-3.4,8.7-10v-29.8
			C163.2,127.4,166.9,110,166.9,110z"/>
		<g class="st16">
			<path class="st6" d="M114.9,117l17.1,1.7l1.5-5.1l-17-1.3C115.6,113.7,115.1,115.3,114.9,117z"/>
		</g>
		<path class="st17" d="M166.9,110c-3.6-0.8-32-0.2-36.3,2c-2.6,1.4-3.2,6.2-3.2,11.8v58.8c0,3.8,5.3,6.7,10,5.9s23.8-2.3,26.3-3.2
			s8.7-3.4,8.7-10v-50.4C172.4,117.4,171.4,111.1,166.9,110z"/>
		<g class="st18">
			<path class="st19" d="M172.4,175.4v-25.1c-0.2,7.5-1.4,15-3.5,22.2c-3.5,11.4-20.5,10.6-30.3,9.9s-11.2-13.2-11.2-13.2
				s-1.4,12.9-7.2,12.4c-5.4-0.4-5.7-9.3-5.7-10.4v7.8c0,2.9,3.1,6.5,6.7,7.1l0,0c0.6,0.2,1.3,0.3,1.9,0.4l9.3,1.6
				c1,0.3,2.1,0.5,3.2,0.6l0,0c0.6,0,1.2,0,1.8-0.1c4.7-0.8,23.8-2.3,26.3-3.2S172.4,181.9,172.4,175.4z"/>
		</g>
		<path class="st15" d="M129.7,133.7c0,3.4,0.7,6.4,2.5,6.6s31-2,33.1-2.5s2.5-4.9,2.5-7.9s-0.9-6.5-5.2-6.8s-26.3,1.7-29.2,1.8
			S129.7,128.1,129.7,133.7z"/>
		<g class="st16">
			<path class="st6" d="M128.9,119.9c0,0-0.5-6.7,5.2-7.7s25.3-1.9,29.8-1.4s5.7,1.7,6.7,6.2c-0.9-3.3-3.9-5.5-7.3-5.3
				c-6,0.1-24.8,1-28,1.4S129.5,115.7,128.9,119.9z"/>
		</g>
		<path class="st20" d="M131.3,133.9c0,3.4,0.7,6.4,2.5,6.6s31-2,33.1-2.5s2.5-4.9,2.5-7.9s-1-6.5-5.2-6.8s-26.3,1.7-29.2,1.8
			S131.3,128.4,131.3,133.9z"/>
		<path class="st15" d="M129.7,152.4c0,3.4-1.8,21.8,5.6,21.4c1.8-0.1,25-1.9,27.1-2.2c6.8-1,5.3-20.1,5.3-23s-1-6.5-5.2-6.8
			s-26.3,1.7-29.2,1.8S129.7,146.9,129.7,152.4z"/>
		<path class="st20" d="M131.5,152.9c0,3.4-1.8,21.8,5.6,21.4c1.8-0.1,25-1.9,27.1-2.2c6.8-1,5.3-20.1,5.3-23s-0.9-6.5-5.2-6.8
			s-26.3,1.7-29.2,1.8S131.5,147.4,131.5,152.9z"/>
		<g class="st21">
			<path class="st6" d="M132.3,131.9c0,0,0.1-5.2,2.5-5.5s26.4-2.1,29.1-1.8c2.4,0,4.4,2,4.4,4.4c0,0.2,0,0.4,0,0.6
				c-0.3-2.3-2.3-4.1-4.7-4.2c-4.2-0.2-25.9,1.6-28,1.8S132.2,130.7,132.3,131.9z"/>
		</g>
		<g class="st21">
			<path class="st6" d="M132.6,151c0,0,0.1-5.2,2.5-5.5s26.4-2,29.1-1.8c2.4,0,4.4,2,4.4,4.4c0,0.2,0,0.4,0,0.6
				c-0.3-2.3-2.3-4.1-4.7-4.2c-4.2-0.2-25.9,1.6-28,1.8S132.5,149.8,132.6,151z"/>
		</g>
		<path class="st6" d="M134.9,128.4c-0.1,0-0.2-0.1-0.2-0.2s0.1-0.2,0.2-0.2c0.2,0,23.1-1.9,29.4-1.8c0.1,0,0.2,0.1,0.2,0.2v0
			c0,0.1-0.1,0.2-0.2,0.2C158,126.4,135.1,128.3,134.9,128.4L134.9,128.4z"/>
		<path class="st6" d="M136.4,129c-0.1-0.6-0.3-1-0.7-1s-0.6,0.4-0.7,1s-0.5,2.5,0.7,2.5S136.5,129.6,136.4,129z M135.7,128.1
			c0.2,0,0.3,0.2,0.3,0.4s-0.1,0.4-0.3,0.4s-0.3-0.2-0.3-0.4S135.6,128.1,135.7,128.1L135.7,128.1z M135.7,131.4
			c-0.8,0-0.7-1.1-0.7-1.1h1.4C136.4,130.3,136.5,131.4,135.7,131.4L135.7,131.4z"/>
		<path class="st6" d="M135.6,148.2c-0.1,0-0.2-0.1-0.2-0.1c0,0,0,0,0,0c0-0.1,0.1-0.2,0.1-0.2c0.2,0,23.1-1.9,29.4-1.9
			c0.1,0,0.1,0.1,0.2,0.1c0,0,0,0,0,0c0,0.1-0.1,0.2-0.2,0.2l0,0C158.8,146.3,135.9,148.2,135.6,148.2L135.6,148.2z"/>
		<path class="st6" d="M137.2,148.9c-0.1-0.6-0.3-1-0.7-1s-0.6,0.4-0.7,1s-0.5,2.5,0.7,2.5S137.3,149.4,137.2,148.9z M136.5,147.9
			c0.2,0,0.3,0.2,0.3,0.4s-0.1,0.4-0.3,0.4s-0.3-0.2-0.3-0.4S136.3,147.9,136.5,147.9L136.5,147.9z M136.5,151.2
			c-0.8,0-0.7-1.1-0.7-1.1h1.4C137.2,150.1,137.3,151.2,136.5,151.2z"/>
		<path class="st22" d="M129.8,107.8c0.3-0.1,2.7-0.2,3.1-0.2c1.1,0,2.2,0.2,3.2,0.5c0.1,0.2-2.9,0.8-2.9,0.8L129.8,107.8z"/>
		<path class="st23" d="M128.9,110.1c0,0,0.6-2.3,0.9-2.3c1.1,0,2.2,0.1,3.3,0.3c0.1,0.9,0.1,1.7,0,2.6L128.9,110.1z"/>
		<path class="st24" d="M133.1,108.1c0,0,2.9-0.3,3,0c0.2,0.7,0.3,1.5,0.4,2.2l-3.4,0.4L133.1,108.1z"/>
		<path class="st22" d="M148.6,107.3c0.2-0.1,2.2-0.2,2.4-0.2c0.9,0,1.7,0.1,2.5,0.4c0.1,0.2-2.3,0.6-2.3,0.6L148.6,107.3z"/>
		<path class="st23" d="M147.8,109.2c0,0,0.4-1.8,0.7-1.8c0.9,0,1.8,0.1,2.6,0.2c0.1,0.7,0.1,1.4,0,2.1L147.8,109.2z"/>
		<path class="st24" d="M151.2,107.6c0,0,2.3-0.3,2.4,0c0.1,0.6,0.2,1.2,0.3,1.8l-2.7,0.3L151.2,107.6z"/>
		<path class="st25" d="M131.2,107.7V91.8c0-1.6,0.1-3.8,3.2-3.9s13-0.3,14.7-0.3s2.5,1.6,2.5,3.2v16.5h-2.1V92.4
			c0-1.5-0.6-2-2.1-2.1s-12.4,0.4-13,0.5s-0.6,1.2-0.6,2.3v14.6C132.9,108,132,108,131.2,107.7z"/>
		<path class="st22" d="M132.3,107.9V91.8c0-1.6,0.1-3.8,3.2-3.9s13-0.3,14.7-0.3s2.5,1.6,2.5,3.2v16.5h-2.1V92.4
			c0-1.5-0.6-2-2.1-2.1s-12.4,0.4-13,0.5s-0.6,1.2-0.6,2.3v14.6C134.1,108.1,133.2,108.1,132.3,107.9z"/>
		<path class="st26" d="M136.4,87.9v2.9h-0.6c0,0,0.1,0.7,1,0.7S147,91,147.6,91s1-1.2,0.8-2.2s-0.3-1.8-1.1-1.8s-10.7,0.3-11.2,0.3
			s-0.7,0.7-0.7,0.7L136.4,87.9z"/>
		<g class="st18">
			<path class="st19" d="M146.6,90c-1.6,0.1-7.4,0.2-8.7,0.2s-1.5-1.5-1.5-1.5v2.2h-0.6c0,0,0.1,0.7,1,0.7S147,91,147.6,91
				s1-1.2,0.8-2.2c0-0.2-0.1-0.4-0.1-0.6C148.1,88.9,147.6,89.9,146.6,90z"/>
		</g>
		<g class="st16">
			<path class="st6" d="M148.1,87.5c-0.1-0.3-0.5-0.5-0.8-0.6c-0.9,0-10.7,0.3-11.2,0.3s-0.5,0.3-0.6,0.5l0.2,0.2h0.7v0.5
				c0.9,0.4,1.8,0.6,2.8,0.6c3.2-0.2,6.1,0,7.5-0.1C147.5,88.9,148.1,88.3,148.1,87.5C148.1,87.5,148.1,87.5,148.1,87.5z"/>
		</g>
		<path class="st27" d="M63.5,69.7c0.5,0.8,7.8-2.2,8.3-2.7s-1.1-3.4-1.8-3.5S62.9,68.6,63.5,69.7z"/>
		<path class="st28" d="M65.2,69.7c1.8-0.5,3.5-1.1,5.2-1.9l-0.5-4.2c-2.1,1.2-3.9,2.7-5.5,4.5L65.2,69.7z"/>
		<path class="st27" d="M54.2,53.6c-0.5-0.8,5.8-5.6,6.4-5.8s2.4,2.7,2.2,3.3S54.9,54.8,54.2,53.6z"/>
		<path class="st28" d="M55.1,52.2l1,1.5c2.2-0.5,4.4-1.3,6.4-2.3l-3.4-2.5C57.7,49.9,56.3,51,55.1,52.2z"/>
		<polygon class="st29" points="69.2,59.7 70.9,74.8 68.7,76 62.2,63 		"/>
		<polygon class="st29" points="66.2,54.4 54,45.4 51.8,46.7 59.8,58.8 		"/>
		<polygon class="st29" points="66.2,54.4 54,45.4 51.8,46.7 59.8,58.8 		"/>
		<path class="st27" d="M62.2,63l0.4,0.8c2.4-0.9,4.6-2.1,6.7-3.6l-0.1-0.6L62.2,63z"/>
		<path class="st27" d="M59.7,58.7l-0.5-0.8c2-1.6,4.1-2.9,6.4-4l0.5,0.3L59.7,58.7z"/>
		<path class="st6" d="M75.6,52.5c-0.7-1.3-5.7-0.4-11.5,2.9S48,67.5,48.4,68.2s13.1-3.9,18.9-7.2S76.2,53.8,75.6,52.5z"/>
		<polygon class="st29" points="51.9,64.5 46.8,62.3 44.8,64.2 48.7,67.5 		"/>
		<polygon class="st29" points="53.4,67.1 52.7,72.6 50,73.4 49.1,68.3 		"/>
		<path class="st14" d="M72.8,54.1c-0.3-0.6-0.9-1-1.6-1.1l-1,1c0.9-0.1,1.7,0.6,1.7,1.5c0,0.4-0.1,0.7-0.3,1l1.3-0.4
			C73.2,55.5,73.1,54.7,72.8,54.1z"/>
		<path class="st30" d="M53.5,49.2c0,0,3.3-2.8,3.6-2.7s0.8,0.8,0.4,1.1C56.3,48.3,54.9,48.9,53.5,49.2z"/>
		<path class="st30" d="M67.4,73.3c0,0,3.3-2.8,3.6-2.7s0.8,0.8,0.4,1.1C70.1,72.4,68.8,72.9,67.4,73.3z"/>
		<path class="st27" d="M53,65.5l-3.5,2C49.5,67.5,50.8,67.7,53,65.5z"/>
		<path class="st29" d="M67.6,54.2L67.6,54.2c0.1,0.1,0,0.2-0.1,0.3l-0.6,0.4c-0.1,0.1-0.2,0-0.3-0.1v0c-0.1-0.1,0-0.2,0.1-0.3
			l0.6-0.4C67.4,54.1,67.5,54.1,67.6,54.2z"/>
		<path class="st29" d="M66.1,55L66.1,55c0.1,0.1,0,0.2-0.1,0.3l-0.6,0.4c-0.1,0.1-0.2,0-0.3-0.1v0c-0.1-0.1,0-0.2,0.1-0.3l0.6-0.4
			C65.9,54.9,66,54.9,66.1,55z"/>
		<path class="st29" d="M64.7,55.8L64.7,55.8c0.1,0.1,0,0.2-0.1,0.3L64,56.5c-0.1,0.1-0.2,0-0.3-0.1l0,0c-0.1-0.1,0-0.2,0.1-0.3
			l0.6-0.4C64.5,55.7,64.6,55.7,64.7,55.8z"/>
		<path class="st29" d="M63.3,56.6L63.3,56.6c0.1,0.1,0,0.2-0.1,0.3l-0.6,0.4c-0.1,0.1-0.2,0-0.3-0.1l0,0c-0.1-0.1,0-0.2,0.1-0.3
			l0.6-0.4C63.1,56.5,63.2,56.5,63.3,56.6z"/>
		<path class="st29" d="M61.9,57.2L61.9,57.2c0.1,0.1,0,0.2-0.1,0.3l-0.6,0.4C61.1,58,61,58,61,57.9v0c-0.1-0.1,0-0.2,0.1-0.3
			l0.6-0.4C61.7,57.1,61.9,57.2,61.9,57.2z"/>
		<path class="st29" d="M60.6,58.5L60.6,58.5c0.1,0.1,0,0.2-0.1,0.3l-0.6,0.4c-0.1,0.1-0.2,0-0.3-0.1v0c-0.1-0.1,0-0.2,0.1-0.3
			l0.6-0.4C60.4,58.4,60.6,58.4,60.6,58.5z"/>
		<path class="st29" d="M59.3,59.5L59.3,59.5c0.1,0.1,0,0.2-0.1,0.3l-0.6,0.4c-0.1,0.1-0.2,0-0.3-0.1l0,0c-0.1-0.1,0-0.2,0.1-0.3
			l0.6-0.4C59.1,59.4,59.2,59.4,59.3,59.5z"/>
		<path class="st29" d="M58,60.5L58,60.5c0.1,0.1,0,0.2-0.1,0.3l-0.6,0.4c-0.1,0.1-0.2,0-0.3-0.1h0c-0.1-0.1,0-0.2,0.1-0.3l0.6-0.4
			C57.8,60.4,57.9,60.4,58,60.5z"/>
		<path class="st29" d="M56.7,61.5L56.7,61.5c0.1,0.1,0,0.2-0.1,0.3L56,62.2c-0.1,0.1-0.2,0-0.3-0.1l0,0c-0.1-0.1,0-0.2,0.1-0.3
			l0.6-0.4C56.5,61.4,56.6,61.4,56.7,61.5z"/>
		<path class="st29" d="M55.4,62.5L55.4,62.5c0.1,0.1,0,0.2-0.1,0.3l-0.6,0.4c-0.1,0.1-0.2,0-0.3-0.1v0c-0.1-0.1,0-0.2,0.1-0.3
			l0.6-0.4C55.2,62.4,55.3,62.4,55.4,62.5z"/>
		<path class="st29" d="M69.1,59.1L69.1,59.1c0-0.1,0-0.2,0.1-0.3l0.7-0.3c0.1,0,0.2,0,0.3,0.1v0c0,0.1,0,0.2-0.1,0.3l-0.7,0.3
			C69.2,59.2,69.1,59.2,69.1,59.1z"/>
		<path class="st29" d="M67.7,60L67.7,60c0-0.1,0-0.2,0.1-0.3l0.7-0.3c0.1,0,0.2,0,0.3,0.1v0c0,0.1,0,0.2-0.1,0.3L68,60.1
			C67.9,60.1,67.7,60.1,67.7,60z"/>
		<path class="st29" d="M66.3,60.8L66.3,60.8c0-0.1,0-0.2,0.1-0.3l0.7-0.3c0.1,0,0.2,0,0.3,0.1l0,0c0,0.1,0,0.2-0.1,0.3l-0.7,0.3
			C66.4,60.9,66.3,60.9,66.3,60.8z"/>
		<path class="st29" d="M64.9,61.6L64.9,61.6c0-0.1,0-0.2,0.1-0.3l0.7-0.3c0.1,0,0.2,0,0.3,0.1v0c0,0.1,0,0.2-0.1,0.3l-0.7,0.3
			C65,61.7,64.9,61.7,64.9,61.6z"/>
		<path class="st29" d="M63.3,62.2L63.3,62.2c0-0.1,0-0.2,0.1-0.3l0.7-0.3c0.1,0,0.2,0,0.3,0.1v0c0,0.1,0,0.2-0.1,0.3l-0.7,0.3
			C63.5,62.4,63.4,62.3,63.3,62.2z"/>
		<path class="st29" d="M61.9,63L61.9,63c0-0.1,0-0.2,0.1-0.3l0.7-0.3c0.1,0,0.2,0,0.3,0.1l0,0c0,0.1,0,0.2-0.1,0.3l-0.7,0.3
			C62,63.1,61.9,63.1,61.9,63z"/>
		<path class="st29" d="M60.4,63.6L60.4,63.6c0-0.1,0-0.2,0.1-0.3l0.7-0.3c0.1,0,0.2,0,0.3,0.1l0,0c0,0.1,0,0.2-0.1,0.3l-0.7,0.3
			C60.5,63.7,60.4,63.7,60.4,63.6z"/>
		<path class="st29" d="M58.8,64.3L58.8,64.3c0-0.1,0-0.2,0.1-0.3l0.7-0.3c0.1,0,0.2,0,0.3,0.1l0,0c0,0.1,0,0.2-0.1,0.3l-0.7,0.3
			C59,64.4,58.9,64.4,58.8,64.3z"/>
		<path class="st29" d="M57.3,64.9L57.3,64.9c0-0.1,0-0.2,0.1-0.3l0.7-0.3c0.1,0,0.2,0,0.3,0.1l0,0c0,0.1,0,0.2-0.1,0.3L57.6,65
			C57.5,65,57.4,65,57.3,64.9z"/>
		<path class="st29" d="M55.8,65.5L55.8,65.5c0-0.1,0-0.2,0.1-0.3l0.7-0.3c0.1,0,0.2,0,0.3,0.1v0c0,0.1,0,0.2-0.1,0.3l-0.7,0.3
			C56,65.7,55.9,65.6,55.8,65.5z"/>
		<path class="st31" d="M88.8,138.8l-7.6-0.4c-0.1,0-0.2,0-0.3,0.1l0,0l-0.8,0.4l0.4,0.2l-1.4,4.3c-0.1,0.2-0.3,0.4-0.5,0.4
			l-0.8-0.1c-0.1,0-0.2,0-0.3,0.1l0,0l-0.8,0.4l0.4,0.3c0,0.3,0.2,0.5,0.4,0.6h0.3l0.5,0.4l0.8-0.4l0,0c0.1-0.1,0.2-0.2,0.2-0.3
			l1.8-5.2c0.1-0.2,0.3-0.3,0.5-0.3l6.6,0.3C88.4,139.2,88.6,138.9,88.8,138.8z"/>
		<path class="st13" d="M117.4,146.2c0,0-52-4.1-53.4-4.2c-0.3,0-0.6,0-0.9,0.1l0,0l-0.2,0.1l-6.5,2.7l4.6,3.8v31.7
			c0,1.9,1.7,2.8,3.5,3c1.3,0.2,29.7,2.8,44.3,3.9l3.5,2.8l6-2.4l0.2-0.1l0,0c1.3-0.6,2-1.9,1.9-3.4v-33.5
			C120.4,147.8,119.1,146.3,117.4,146.2z"/>
		<path class="st11" d="M110.6,149.1c0,0-52-4.1-53.4-4.2s-2.9,1.6-2.9,2.8v35.6c0,1.9,1.7,2.8,3.5,3.1s50.9,4.6,52.8,4.5
			s3-1.4,3-3.6v-33.5C113.6,150.7,112.3,149.2,110.6,149.1z"/>
		<path class="st32" d="M55.2,149.7c0,0-0.9-4.4,3.6-4.1s47.6,3.9,49.8,4.1s3.8,0.9,3.6,5.1c0-2.3-1.9-4.1-4.1-4.1
			c-4.2-0.4-46.2-3.9-48.5-4.1S56.1,146.6,55.2,149.7z"/>
		<g class="st18">
			<path class="st19" d="M110.6,190.7c0.7,0,1.3-0.3,1.8-0.6l0,0l6-2.4l0.2-0.1l0,0c1.3-0.6,2-1.9,1.9-3.4v-8c0,2.2-0.1,9-3.5,9.4
				s-3.3-6.2-3.3-6.2c0,6.6-4.6,8.6-7.7,8.6s-35.8-2.8-44.1-3.8c-3.2-0.3-6-2.1-7.5-4.9v3.7c0,1.9,1.7,2.8,3.5,3.1
				S108.7,190.9,110.6,190.7z"/>
		</g>
		<path class="st26" d="M78.5,143.1c0,0-5.1,2.4-5.9,3s-0.6,4.6-0.6,7.2v34.3l-5.8-0.5v-39.9c0-2.3,5.7-4.5,5.7-4.5L78.5,143.1z"/>
		<path class="st26" d="M104.6,145.2c0,0-6,2.6-6.8,3.2s-0.6,4.6-0.6,7.2v34.3l-5.8-0.5v-39.9c0-2.3,7.6-4.8,7.6-4.8L104.6,145.2z"
			/>
		<path class="st33" d="M71.8,142.6c0,0-4.8,1.5-5.7,3s-1.8,6.4-1.9,8.4s1.1,4.1,2.7,4.1s2.7-1.4,3.3-4s0.6-7.1,2.8-8.2
			s5.5-2.7,5.5-2.7L71.8,142.6z"/>
		<path class="st33" d="M98,144.6c0,0-4.8,1.5-5.7,3s-1.8,6.4-1.9,8.4s1.1,4.1,2.7,4.1s2.7-1.4,3.3-4s0.6-7.1,2.8-8.2
			s5.5-2.7,5.5-2.7L98,144.6z"/>
		<path class="st17" d="M67.3,144.6c0,0,6.4,0.8,6.8,0.8s1.1-0.3,0.6-0.5s-6.4-0.8-6.8-0.8S66.8,144.6,67.3,144.6z"/>
		<path class="st17" d="M70.2,143.3c0,0,6.1,0.6,6.4,0.6s1-0.3,0.6-0.4s-6-0.6-6.5-0.6S69.7,143.3,70.2,143.3z"/>
		<path class="st17" d="M93.7,146.5c0,0,6.4,0.7,6.8,0.8s1.1-0.3,0.6-0.5s-6.4-0.8-6.8-0.8S93.2,146.5,93.7,146.5z"/>
		<path class="st17" d="M96.5,145.2c0,0,6,0.6,6.4,0.6s1-0.3,0.6-0.4s-6-0.6-6.5-0.6S96.1,145.2,96.5,145.2z"/>
		<path class="st34" d="M95.4,162.9c0,0.7-0.6,1.3-1.3,1.3c-0.7,0-1.3-0.6-1.3-1.3c0-0.7,0.6-1.3,1.3-1.3c0,0,0,0,0,0
			C94.9,161.6,95.4,162.2,95.4,162.9L95.4,162.9z"/>
		<path class="st35" d="M92.8,162.9c0,0.3,0.1,0.6,0.3,0.9c0.2,0.1,0.4,0.2,0.6,0.2c0.7,0,1.2-0.6,1.2-1.2c0-0.4-0.2-0.9-0.6-1.1
			h-0.2C93.4,161.7,92.9,162.2,92.8,162.9z"/>
		<path class="st12" d="M93.9,162.7c0,0.3-0.2,0.5-0.3,0.5s-0.3-0.2-0.3-0.5s0.2-0.5,0.3-0.5S93.9,162.4,93.9,162.7z"/>
		<path class="st34" d="M70,161.6c0,0.7-0.6,1.3-1.3,1.3s-1.3-0.6-1.3-1.3c0-0.7,0.6-1.3,1.3-1.3c0,0,0,0,0,0
			C69.4,160.3,70,160.9,70,161.6z"/>
		<path class="st35" d="M67.4,161.6c0,0.3,0.1,0.6,0.3,0.9c0.2,0.1,0.4,0.2,0.6,0.2c0.7,0,1.2-0.5,1.2-1.2c0-0.5-0.2-0.9-0.6-1.1
			c-0.1,0-0.2,0-0.2,0C68,160.4,67.4,160.9,67.4,161.6z"/>
		<path class="st12" d="M68.5,161.4c0,0.3-0.2,0.5-0.3,0.5s-0.3-0.2-0.3-0.5s0.2-0.5,0.3-0.5S68.5,161.1,68.5,161.4z"/>
		<path class="st34" d="M95.4,183.5c0,0.7-0.6,1.3-1.3,1.3s-1.3-0.6-1.3-1.3c0-0.7,0.6-1.3,1.3-1.3c0,0,0,0,0,0
			C94.9,182.2,95.5,182.8,95.4,183.5z"/>
		<path class="st35" d="M92.8,183.5c0,0.3,0.1,0.6,0.3,0.9c0.2,0.1,0.4,0.2,0.6,0.2c0.7,0,1.2-0.5,1.2-1.2c0-0.5-0.2-0.9-0.6-1.1
			c-0.1,0-0.2,0-0.2,0C93.4,182.2,92.9,182.8,92.8,183.5z"/>
		<path class="st12" d="M93.9,183.2c0,0.3-0.2,0.5-0.3,0.5s-0.3-0.2-0.3-0.5s0.2-0.5,0.3-0.5S93.9,183,93.9,183.2z"/>
		<path class="st34" d="M70,181.5c0.1,0.7-0.5,1.4-1.2,1.4s-1.4-0.5-1.4-1.2c0-0.1,0-0.2,0-0.2c0.1-0.7,0.7-1.3,1.4-1.2
			C69.4,180.3,69.9,180.8,70,181.5z"/>
		<path class="st35" d="M67.4,181.5c-0.1,0.5,0.3,0.9,0.7,1c0.1,0,0.1,0,0.2,0c0.7,0,1.2-0.6,1.2-1.2c0-0.4-0.2-0.9-0.6-1.1h-0.2
			C68,180.1,67.4,180.7,67.4,181.5C67.4,181.5,67.4,181.5,67.4,181.5z"/>
		<path class="st12" d="M68.5,181.2c0,0.3-0.2,0.5-0.3,0.5s-0.3-0.2-0.3-0.5s0.2-0.5,0.3-0.5S68.5,181,68.5,181.2z"/>
		<path class="st17" d="M88.5,139.1l-8.1-0.4c-0.2,0-0.4,0.1-0.5,0.4l-1.5,4.6c-0.1,0.2-0.3,0.4-0.5,0.4l-0.8-0.1
			c-0.3,0-0.5,0.1-0.6,0.4l-0.1,0.3c-0.1,0.3,0.1,0.5,0.4,0.6c0,0,0,0,0,0l1.3,0.1c0.2,0,0.4-0.1,0.5-0.3l1.8-5.2
			c0.1-0.2,0.3-0.3,0.5-0.3l7.4,0.4C88.4,139.7,88.4,139.4,88.5,139.1z"/>
		<path class="st31" d="M83.3,137.7l5.7,0.3c1.3,0.1,1.3,2.6,0,2.6c-0.4,0-6.2-0.4-6.8-0.4S81.1,137.5,83.3,137.7z"/>
		<g class="st18">
			<path class="st19" d="M89.1,138c-1.2,0.5-0.4,2-0.8,2s-4.5-0.2-5.6-0.3c-0.5-0.1-0.9-0.5-1-1c-0.1,0.6,0.1,1.3,0.4,1.4
				c0.6,0,6.4,0.4,6.8,0.4C90.2,140.6,90.2,138.3,89.1,138z"/>
		</g>
		<path class="st36" d="M93.6,145h-0.7c-0.2,0-0.4-0.2-0.5-0.4l-0.6-5.1c0-0.2-0.2-0.4-0.5-0.4l-1.8-0.1c-0.3,0.1-0.4,0.4-0.4,0.8
			h1.4c0.3,0,0.5,0.2,0.5,0.5l0.4,5.4c0,0.3,0.2,0.5,0.5,0.5l0.8,0.1l0.3,0.4l0.8-0.4l0,0c0.1-0.1,0.2-0.2,0.2-0.3v-0.1
			C94.2,145.4,94,145.1,93.6,145C93.7,145,93.7,145,93.6,145z"/>
		<path class="st17" d="M92.9,145.3l-0.7-0.1c-0.2,0-0.4-0.2-0.5-0.4l-0.6-5.1c0-0.2-0.2-0.4-0.5-0.4l-1.4-0.1
			c-0.1,0.2-0.1,0.5,0,0.8l0.5,0.1c0.3,0,0.5,0.2,0.5,0.5l0.4,5.4c0,0.3,0.2,0.5,0.5,0.5l1.6,0.1c0.3,0,0.5-0.2,0.5-0.4v-0.1
			C93.3,145.6,93.2,145.4,92.9,145.3C92.9,145.3,92.9,145.3,92.9,145.3z"/>
		<g class="st16">
			<path class="st6" d="M83.3,137.7c-0.6-0.1-1.2,0.2-1.5,0.7c0.2,0.5,0.6,0.9,1.2,0.9c1.2,0.1,4.1,0.2,4.6,0.2s0.3-1,0.7-1.6
				L83.3,137.7z"/>
		</g>
		<path class="st37" d="M164.1,54.6c0,0-5.1-0.1-7.7,6s-2,15.9,8,26.8L164.1,54.6z"/>
		<path class="st30" d="M166.7,53.9c0,0-4.7-1.1-8.1,6.1s-2.2,15.6,5.9,27.4l2.4,0.3L166.7,53.9z"/>
		<path class="st37" d="M169.2,53.5c-1.4-0.4-2.9-0.2-4,0.7c-2.1,1.5-5.8,5.2-5.7,15.1c0.3,6.4,2.1,12.6,5.4,18.1l1.2,0.2
			L169.2,53.5z"/>
		<path class="st30" d="M171.1,53.5c-1.2-0.5-2.5-0.4-3.5,0.3c-1.6,1.3-4.2,5.7-4.6,14.4s2.4,19.2,2.4,19.2l1.4,0.2L171.1,53.5z"/>
		<path class="st37" d="M177.3,56.2c0,0,5,1.1,6,7.7s-2,15.9-14.4,23.9L177.3,56.2z"/>
		<path class="st30" d="M175,54.9c0,0,4.9,0.1,6.4,7.9s-1.7,15.7-12.5,25.1l-2.4-0.3L175,54.9z"/>
		<path class="st37" d="M172.6,53.9c1.4-0.1,2.8,0.6,3.7,1.7c1.7,1.9,4.4,6.5,1.8,16c-1.8,6.1-5.2,11.7-9.7,16.2l-1.2-0.2
			L172.6,53.9z"/>
		<path class="st30" d="M170.7,53.5c1.3-0.2,2.5,0.2,3.4,1.2c1.2,1.6,2.7,6.6,0.8,15.1s-7.1,18-7.1,18l-1.4-0.2L170.7,53.5z"/>
		<path class="st37" d="M171.2,53.2c-3-0.4-3.9,9.1-4.8,16.1s-0.2,18.3-0.2,18.3l0.6,0.1l0.6,0.1c0,0,3.4-10.7,4.3-17.7
			S174.2,53.5,171.2,53.2z"/>
		<path class="st38" d="M162.5,85.1c2.9-1.3,6.3-0.8,8.8,1.1l-2.5,1.7l-4.7-0.6L162.5,85.1z"/>
		<path class="st39" d="M168.9,87.9c0,0.2-1.1,0.3-2.5,0.1s-2.4-0.5-2.4-0.7s1.1-0.3,2.5-0.1S168.9,87.7,168.9,87.9z"/>
		<path class="st40" d="M166.4,87.9c-0.8,0-1.5-0.2-2.2-0.6c1.6-0.2,3.1,0,4.6,0.6C168,88,167.2,88,166.4,87.9z"/>
		<path class="st9" d="M168.2,91l-1.9-0.4l-0.4,3.2c0,0,1.8,0,2,0C168,92.9,168.1,91.9,168.2,91z"/>
		<path class="st8" d="M164.3,90.5l1.9,0.1l-0.4,3.2c0,0-1.8-0.5-1.9-0.5C164,92.3,164.1,91.4,164.3,90.5z"/>
		<g class="st21">
			<path class="st41" d="M164.3,90.5c0,0.1,0,0.2-0.1,0.4c0.4,0,1.3,0.1,1.5,0.2s0.3,0.6,0.1,1.4s-1.1,0.8-1.7,0.6
				c0.4,0.1,1.8,0.5,1.8,0.5s1.8,0,2,0c0.2-0.9,0.3-1.8,0.3-2.7H168L164.3,90.5z"/>
		</g>
		<path class="st42" d="M166.3,90.4c0,0-1.9-0.1-2-0.1s-0.2,0.5-0.1,0.6c0.7,0.1,1.3,0.2,2,0.2L166.3,90.4z"/>
		<path class="st43" d="M166.3,90.4c0,0,1.9,0.3,2,0.4s0,0.5,0,0.6c-0.7-0.1-1.4-0.2-2.1-0.3L166.3,90.4z"/>
		<polygon class="st30" points="164.3,90.3 164.1,87.3 164.2,87.3 164.3,90.3 		"/>
		
			<rect x="164.9" y="88.8" transform="matrix(0.1243 -0.9922 0.9922 0.1243 57.6275 243.0094)" class="st30" width="3.1" height="0"/>
		<polygon class="st30" points="168.1,90.7 168.1,90.7 168.7,87.9 168.7,87.9 		"/>
		<path class="st44" d="M130.8,182.2c-8.1,0-20.2,1.4-19.6,6.5s19.6,5.3,19.6,5.3s18.9-0.1,19.6-5.3S138.9,182.2,130.8,182.2z"/>
		<g class="st18">
			<path class="st19" d="M130.8,182.2c-1.5,0-3.1,0-4.8,0.2l-5,5.5c9.8,6.3,22.1-1.2,22,1.9c-0.1,2.7-11.3,3.9-14.3,4.2
				c1.4,0.1,2.2,0.1,2.2,0.1s18.9-0.1,19.6-5.3S138.9,182.2,130.8,182.2z"/>
		</g>
		<path class="st44" d="M121.2,175.8c-1,3.4-1.6,6.8-1.9,10.3c0,0,1,3.6,11.5,3.6s11.5-3.4,11.5-3.4s-1.4-8.9-1.9-10.5
			C134.1,174.2,127.5,174.2,121.2,175.8z"/>
		<path class="st26" d="M142.2,186.3c0,0-0.2-1.3-0.5-3c-1,0.8-3.8,2.1-11,2.1c-6.6,0-9.8-1.2-11.2-1.9c-0.1,0.8-0.2,1.7-0.2,2.6
			c0,0,1,3.6,11.5,3.6S142.2,186.3,142.2,186.3z"/>
		<g class="st18">
			<path class="st19" d="M124.4,189.2c2.1,0.4,4.2,0.6,6.4,0.6c10.5,0,11.5-3.4,11.5-3.4s-1.4-8.9-1.9-10.5
				c-2.7-0.7-5.4-1.1-8.2-1.2c0,0.1,0.2,0.2,0.7,0.4c3.9,1.1,7.8,6,5.6,10.5S124.8,189.2,124.4,189.2z"/>
		</g>
		<path class="st45" d="M121.2,175.8c0,0,1.7-2.1,9.3-2.4s9.8,2.4,9.8,2.4S134.2,174,121.2,175.8z"/>
		<path class="st6" d="M113,61.4h-9.5c-4.7,0-2.7-7.5,3.7-5.1c0,0-2.2-2.4,0.7-4s3.4,1.6,3.4,1.6s-2.1-6.1,3.9-6.2s2.3,6.8,2.3,6.8
			s1.4-2.6,3.4-1.4s0.8,2.1,0.8,2.1s4.6-2.8,6.6,0.7c2,3.5-2,5.3-5.1,5.3H113z"/>
		<path class="st6" d="M72.2,30.8c-5.4,0-7.8-6.6,0.1-8.2c0,0-2.2-3.6,0.8-5.4s5.3,1.5,5.3,1.5s-1.6-4.9,3.7-5.4s3.7,7.6,3.7,7.6
			s1.2-3,3.2-1.5s0.8,2.6,0.8,2.6s1.7-1.4,3,0c0.7,0.6,0.8,1.5,0.2,2.2c-0.1,0.1-0.1,0.2-0.2,0.2c0,0,5.8-4.9,8.6-0.7s-1.6,7-4.1,7
			L72.2,30.8z"/>
		<path class="st6" d="M23.1,73.6h-10c-3.6,0-1.7-8.6,4.4-4.9c0,0-2.4-3,0.5-3.8s3,1.7,3,1.7s0-5.8,3.9-4.9s1.7,6.2,1.7,6.2
			s1.9-3.2,3.1-1.7c0.7,0.8,0.7,2,0,2.9c0,0,1.7-3.7,3.8-1.2c0,0,2.3-3,4.5,0s0.2,5.8-2,5.8H23.1z"/>
	</g>
</g>
</svg>
